<svg width="804" height="197" viewBox="0 0 804 197" fill="none" xmlns="http://www.w3.org/2000/svg">
<path d="M114.4 19.2H60.4L0.400001 36L12.64 79.92L54.4 67.92V146.4H0.400001V192H168.4V146.4H114.4V19.2ZM277.731 196.8C344.211 196.8 380.931 158.64 380.931 105.36C380.931 52.32 344.211 14.4 277.731 14.4C211.011 14.4 174.531 52.08 174.531 105.36C174.531 158.88 211.011 196.8 277.731 196.8ZM277.731 148.8C250.611 148.8 234.531 134.4 234.531 105.36C234.531 76.56 250.371 62.4 277.731 62.4C305.091 62.4 320.931 76.8 320.931 105.36C320.931 134.16 304.851 148.8 277.731 148.8ZM487.778 196.8C554.258 196.8 590.978 158.64 590.978 105.36C590.978 52.32 554.258 14.4 487.778 14.4C421.058 14.4 384.578 52.08 384.578 105.36C384.578 158.88 421.058 196.8 487.778 196.8ZM487.778 148.8C460.658 148.8 444.578 134.4 444.578 105.36C444.578 76.56 460.418 62.4 487.778 62.4C515.138 62.4 530.978 76.8 530.978 105.36C530.978 134.16 514.898 148.8 487.778 148.8ZM720.441 48L649.881 100.8V-2.86102e-06H594.681V192H649.881V160.08L683.241 135.84L735.321 192H803.961L721.881 107.76L803.961 48H720.441Z" fill="white"/>
</svg>
