<svg width="714" height="628" viewBox="0 0 714 628" fill="none" xmlns="http://www.w3.org/2000/svg">
<path d="M298.9 230.35C298.9 179.6 249.2 153 171.85 153C95.55 153 31.5 179.6 24.5 249.25H115.5C115.5 223 136.5 212.5 169.4 212.5C199.15 212.5 207.9 221.6 207.9 235.25C207.9 283.55 21 271.3 21 373.5V412H295.4V345.5H126.35C143.85 317.5 298.9 322.75 298.9 230.35ZM314.672 412H398.672V349H314.672V412ZM692.445 230.35C692.445 179.6 642.745 153 565.395 153C489.095 153 425.045 179.6 418.045 249.25H509.045C509.045 223 530.045 212.5 562.945 212.5C592.695 212.5 601.445 221.6 601.445 235.25C601.445 283.55 414.545 271.3 414.545 373.5V412H688.945V345.5H519.895C537.395 317.5 692.445 322.75 692.445 230.35Z" fill="white"/>
</svg>
