<svg xmlns="http://www.w3.org/2000/svg" width="87" height="87" viewBox="0 0 87 87" fill="none"><circle cx="43.5" cy="43.5" r="43.5" fill="#FE2C55"></circle><path d="M19.5829 53.5887C18.8035 54.3713 18.806 55.6376 19.5887 56.4171C20.3713 57.1965 21.6376 57.194 22.4171 56.4113L19.5829 53.5887ZM36.45 39.4872L37.5941 37.8468C36.798 37.2915 35.7179 37.3881 35.0329 38.0759L36.45 39.4872ZM49.5 48.5894L48.3559 50.2298C49.1343 50.7727 50.1872 50.6938 50.8759 50.0408L49.5 48.5894ZM68.9993 32.0534C69.0288 30.9492 68.1576 30.0302 67.0534 30.0007L49.0598 29.52C47.9557 29.4905 47.0366 30.3617 47.0071 31.4659C46.9776 32.5701 47.8488 33.4891 48.953 33.5186L64.9473 33.9459L64.52 49.9402C64.4906 51.0443 65.3617 51.9634 66.4659 51.9929C67.5701 52.0224 68.4891 51.1512 68.5186 50.047L68.9993 32.0534ZM22.4171 56.4113L37.8671 40.8986L35.0329 38.0759L19.5829 53.5887L22.4171 56.4113ZM35.3059 41.1276L48.3559 50.2298L50.6441 46.949L37.5941 37.8468L35.3059 41.1276ZM50.8759 50.0408L68.3759 33.4515L65.6241 30.5485L48.1241 47.1379L50.8759 50.0408Z" fill="white"></path></svg>