<svg xmlns="http://www.w3.org/2000/svg" width="347" height="77" viewBox="0 0 347 77" fill="none"><rect width="347" height="77" rx="38.5" fill="#FE2C55"></rect><path d="M51.05 33.28C50.59 32.72 50.02 32.29 49.34 31.99C48.68 31.69 47.91 31.54 47.03 31.54C46.15 31.54 45.33 31.71 44.57 32.05C43.83 32.39 43.18 32.87 42.62 33.49C42.08 34.09 41.65 34.81 41.33 35.65C41.03 36.49 40.88 37.4 40.88 38.38C40.88 39.38 41.03 40.3 41.33 41.14C41.65 41.96 42.08 42.68 42.62 43.3C43.16 43.9 43.79 44.37 44.51 44.71C45.25 45.05 46.04 45.22 46.88 45.22C47.84 45.22 48.69 45.02 49.43 44.62C50.17 44.22 50.78 43.66 51.26 42.94L55.16 45.85C54.26 47.11 53.12 48.04 51.74 48.64C50.36 49.24 48.94 49.54 47.48 49.54C45.82 49.54 44.29 49.28 42.89 48.76C41.49 48.24 40.28 47.5 39.26 46.54C38.24 45.56 37.44 44.38 36.86 43C36.3 41.62 36.02 40.08 36.02 38.38C36.02 36.68 36.3 35.14 36.86 33.76C37.44 32.38 38.24 31.21 39.26 30.25C40.28 29.27 41.49 28.52 42.89 28C44.29 27.48 45.82 27.22 47.48 27.22C48.08 27.22 48.7 27.28 49.34 27.4C50 27.5 50.64 27.67 51.26 27.91C51.9 28.15 52.51 28.47 53.09 28.87C53.67 29.27 54.19 29.76 54.65 30.34L51.05 33.28ZM61.6271 26.32V36.4H61.6871C61.7871 36.12 61.9571 35.84 62.1971 35.56C62.4371 35.28 62.7271 35.03 63.0671 34.81C63.4071 34.59 63.8071 34.41 64.2671 34.27C64.7271 34.13 65.2271 34.06 65.7671 34.06C66.9071 34.06 67.8271 34.24 68.5271 34.6C69.2271 34.94 69.7671 35.42 70.1471 36.04C70.5471 36.66 70.8171 37.39 70.9571 38.23C71.0971 39.07 71.1671 39.98 71.1671 40.96V49H66.6671V41.86C66.6671 41.44 66.6471 41.01 66.6071 40.57C66.5871 40.11 66.4971 39.69 66.3371 39.31C66.1971 38.93 65.9671 38.62 65.6471 38.38C65.3471 38.14 64.9071 38.02 64.3271 38.02C63.7471 38.02 63.2771 38.13 62.9171 38.35C62.5571 38.55 62.2771 38.83 62.0771 39.19C61.8971 39.53 61.7771 39.92 61.7171 40.36C61.6571 40.8 61.6271 41.26 61.6271 41.74V49H57.1271V26.32H61.6271ZM88.1537 46.48C87.4337 47.4 86.5237 48.11 85.4237 48.61C84.3237 49.11 83.1837 49.36 82.0037 49.36C80.8837 49.36 79.8237 49.18 78.8237 48.82C77.8437 48.46 76.9837 47.95 76.2437 47.29C75.5237 46.61 74.9537 45.8 74.5337 44.86C74.1137 43.92 73.9037 42.87 73.9037 41.71C73.9037 40.55 74.1137 39.5 74.5337 38.56C74.9537 37.62 75.5237 36.82 76.2437 36.16C76.9837 35.48 77.8437 34.96 78.8237 34.6C79.8237 34.24 80.8837 34.06 82.0037 34.06C83.0437 34.06 83.9837 34.24 84.8237 34.6C85.6837 34.96 86.4037 35.48 86.9837 36.16C87.5837 36.82 88.0437 37.62 88.3637 38.56C88.6837 39.5 88.8437 40.55 88.8437 41.71V43.12H78.4037C78.5837 43.98 78.9737 44.67 79.5737 45.19C80.1737 45.69 80.9137 45.94 81.7937 45.94C82.5337 45.94 83.1537 45.78 83.6537 45.46C84.1737 45.12 84.6237 44.69 85.0037 44.17L88.1537 46.48ZM84.3437 40.06C84.3637 39.3 84.1137 38.65 83.5937 38.11C83.0737 37.57 82.4037 37.3 81.5837 37.3C81.0837 37.3 80.6437 37.38 80.2637 37.54C79.8837 37.7 79.5537 37.91 79.2737 38.17C79.0137 38.41 78.8037 38.7 78.6437 39.04C78.5037 39.36 78.4237 39.7 78.4037 40.06H84.3437ZM101.45 39.13C101.23 38.81 100.92 38.55 100.52 38.35C100.12 38.13 99.6902 38.02 99.2302 38.02C98.0902 38.02 97.2002 38.36 96.5602 39.04C95.9402 39.72 95.6302 40.61 95.6302 41.71C95.6302 42.81 95.9402 43.7 96.5602 44.38C97.2002 45.06 98.0902 45.4 99.2302 45.4C99.7302 45.4 100.16 45.29 100.52 45.07C100.88 44.85 101.19 44.59 101.45 44.29L104.42 47.41C103.72 48.13 102.89 48.64 101.93 48.94C100.99 49.22 100.09 49.36 99.2302 49.36C98.1102 49.36 97.0502 49.18 96.0502 48.82C95.0702 48.46 94.2102 47.95 93.4702 47.29C92.7502 46.61 92.1802 45.8 91.7602 44.86C91.3402 43.92 91.1302 42.87 91.1302 41.71C91.1302 40.55 91.3402 39.5 91.7602 38.56C92.1802 37.62 92.7502 36.82 93.4702 36.16C94.2102 35.48 95.0702 34.96 96.0502 34.6C97.0502 34.24 98.1102 34.06 99.2302 34.06C100.09 34.06 100.99 34.21 101.93 34.51C102.89 34.79 103.72 35.29 104.42 36.01L101.45 39.13ZM106.053 26.32H110.553V40.18L115.533 34.42H121.053L115.263 40.99L121.203 49H115.533L110.613 41.62H110.553V49H106.053V26.32ZM141.53 38.02H137.57V42.88C137.57 43.28 137.59 43.65 137.63 43.99C137.67 44.31 137.76 44.59 137.9 44.83C138.04 45.07 138.25 45.26 138.53 45.4C138.83 45.52 139.22 45.58 139.7 45.58C139.94 45.58 140.25 45.56 140.63 45.52C141.03 45.46 141.33 45.34 141.53 45.16V48.91C141.03 49.09 140.51 49.21 139.97 49.27C139.43 49.33 138.9 49.36 138.38 49.36C137.62 49.36 136.92 49.28 136.28 49.12C135.64 48.96 135.08 48.71 134.6 48.37C134.12 48.01 133.74 47.55 133.46 46.99C133.2 46.43 133.07 45.75 133.07 44.95V38.02H130.19V34.42H133.07V30.1H137.57V34.42H141.53V38.02ZM148.317 26.32V36.4H148.377C148.477 36.12 148.647 35.84 148.887 35.56C149.127 35.28 149.417 35.03 149.757 34.81C150.097 34.59 150.497 34.41 150.957 34.27C151.417 34.13 151.917 34.06 152.457 34.06C153.597 34.06 154.517 34.24 155.217 34.6C155.917 34.94 156.457 35.42 156.837 36.04C157.237 36.66 157.507 37.39 157.647 38.23C157.787 39.07 157.857 39.98 157.857 40.96V49H153.357V41.86C153.357 41.44 153.337 41.01 153.297 40.57C153.277 40.11 153.187 39.69 153.027 39.31C152.887 38.93 152.657 38.62 152.337 38.38C152.037 38.14 151.597 38.02 151.017 38.02C150.437 38.02 149.967 38.13 149.607 38.35C149.247 38.55 148.967 38.83 148.767 39.19C148.587 39.53 148.467 39.92 148.407 40.36C148.347 40.8 148.317 41.26 148.317 41.74V49H143.817V26.32H148.317ZM174.843 46.48C174.123 47.4 173.213 48.11 172.113 48.61C171.013 49.11 169.873 49.36 168.693 49.36C167.573 49.36 166.513 49.18 165.513 48.82C164.533 48.46 163.673 47.95 162.933 47.29C162.213 46.61 161.643 45.8 161.223 44.86C160.803 43.92 160.593 42.87 160.593 41.71C160.593 40.55 160.803 39.5 161.223 38.56C161.643 37.62 162.213 36.82 162.933 36.16C163.673 35.48 164.533 34.96 165.513 34.6C166.513 34.24 167.573 34.06 168.693 34.06C169.733 34.06 170.673 34.24 171.513 34.6C172.373 34.96 173.093 35.48 173.673 36.16C174.273 36.82 174.733 37.62 175.053 38.56C175.373 39.5 175.533 40.55 175.533 41.71V43.12H165.093C165.273 43.98 165.663 44.67 166.263 45.19C166.863 45.69 167.603 45.94 168.483 45.94C169.223 45.94 169.843 45.78 170.343 45.46C170.863 45.12 171.313 44.69 171.693 44.17L174.843 46.48ZM171.033 40.06C171.053 39.3 170.803 38.65 170.283 38.11C169.763 37.57 169.093 37.3 168.273 37.3C167.773 37.3 167.333 37.38 166.953 37.54C166.573 37.7 166.243 37.91 165.963 38.17C165.703 38.41 165.493 38.7 165.333 39.04C165.193 39.36 165.113 39.7 165.093 40.06H171.033ZM178.27 34.42H182.59V36.4H182.65C182.79 36.12 182.99 35.84 183.25 35.56C183.51 35.28 183.82 35.03 184.18 34.81C184.54 34.59 184.95 34.41 185.41 34.27C185.87 34.13 186.37 34.06 186.91 34.06C187.93 34.06 188.83 34.27 189.61 34.69C190.41 35.11 191.01 35.77 191.41 36.67C191.93 35.73 192.56 35.06 193.3 34.66C194.04 34.26 194.95 34.06 196.03 34.06C197.01 34.06 197.83 34.23 198.49 34.57C199.17 34.89 199.7 35.34 200.08 35.92C200.48 36.48 200.76 37.15 200.92 37.93C201.1 38.69 201.19 39.51 201.19 40.39V49H196.69V40.51C196.69 39.83 196.54 39.25 196.24 38.77C195.96 38.27 195.45 38.02 194.71 38.02C194.19 38.02 193.75 38.11 193.39 38.29C193.05 38.45 192.77 38.68 192.55 38.98C192.35 39.28 192.2 39.63 192.1 40.03C192.02 40.43 191.98 40.85 191.98 41.29V49H187.48V41.29C187.48 41.03 187.47 40.71 187.45 40.33C187.43 39.95 187.36 39.59 187.24 39.25C187.12 38.91 186.92 38.62 186.64 38.38C186.38 38.14 185.99 38.02 185.47 38.02C184.89 38.02 184.42 38.13 184.06 38.35C183.7 38.55 183.42 38.83 183.22 39.19C183.04 39.53 182.92 39.92 182.86 40.36C182.8 40.8 182.77 41.26 182.77 41.74V49H178.27V34.42ZM212.71 41.71C212.71 40.55 212.92 39.5 213.34 38.56C213.76 37.62 214.33 36.82 215.05 36.16C215.79 35.48 216.65 34.96 217.63 34.6C218.63 34.24 219.69 34.06 220.81 34.06C221.93 34.06 222.98 34.24 223.96 34.6C224.96 34.96 225.82 35.48 226.54 36.16C227.28 36.82 227.86 37.62 228.28 38.56C228.7 39.5 228.91 40.55 228.91 41.71C228.91 42.87 228.7 43.92 228.28 44.86C227.86 45.8 227.28 46.61 226.54 47.29C225.82 47.95 224.96 48.46 223.96 48.82C222.98 49.18 221.93 49.36 220.81 49.36C219.69 49.36 218.63 49.18 217.63 48.82C216.65 48.46 215.79 47.95 215.05 47.29C214.33 46.61 213.76 45.8 213.34 44.86C212.92 43.92 212.71 42.87 212.71 41.71ZM217.21 41.71C217.21 42.81 217.52 43.7 218.14 44.38C218.78 45.06 219.67 45.4 220.81 45.4C221.95 45.4 222.83 45.06 223.45 44.38C224.09 43.7 224.41 42.81 224.41 41.71C224.41 40.61 224.09 39.72 223.45 39.04C222.83 38.36 221.95 38.02 220.81 38.02C219.67 38.02 218.78 38.36 218.14 39.04C217.52 39.72 217.21 40.61 217.21 41.71ZM245.601 49H241.281V47.02H241.221C241.061 47.3 240.851 47.58 240.591 47.86C240.351 48.14 240.051 48.39 239.691 48.61C239.331 48.83 238.921 49.01 238.461 49.15C238.001 49.29 237.501 49.36 236.961 49.36C235.821 49.36 234.891 49.19 234.171 48.85C233.471 48.49 232.921 48 232.521 47.38C232.141 46.76 231.881 46.03 231.741 45.19C231.621 44.35 231.561 43.44 231.561 42.46V34.42H236.061V41.56C236.061 41.98 236.071 42.42 236.091 42.88C236.131 43.32 236.221 43.73 236.361 44.11C236.521 44.49 236.751 44.8 237.051 45.04C237.371 45.28 237.821 45.4 238.401 45.4C238.981 45.4 239.451 45.3 239.811 45.1C240.171 44.88 240.441 44.6 240.621 44.26C240.821 43.9 240.951 43.5 241.011 43.06C241.071 42.62 241.101 42.16 241.101 41.68V34.42H245.601V49ZM258.717 38.02H254.757V42.88C254.757 43.28 254.777 43.65 254.817 43.99C254.857 44.31 254.947 44.59 255.087 44.83C255.227 45.07 255.437 45.26 255.717 45.4C256.017 45.52 256.407 45.58 256.887 45.58C257.127 45.58 257.437 45.56 257.817 45.52C258.217 45.46 258.517 45.34 258.717 45.16V48.91C258.217 49.09 257.697 49.21 257.157 49.27C256.617 49.33 256.087 49.36 255.567 49.36C254.807 49.36 254.107 49.28 253.467 49.12C252.827 48.96 252.267 48.71 251.787 48.37C251.307 48.01 250.927 47.55 250.647 46.99C250.387 46.43 250.257 45.75 250.257 44.95V38.02H247.377V34.42H250.257V30.1H254.757V34.42H258.717V38.02Z" fill="white"></path><path d="M290 37.5C289.172 37.5 288.5 38.1716 288.5 39C288.5 39.8284 289.172 40.5 290 40.5V37.5ZM313.517 40.0607C314.102 39.4749 314.102 38.5251 313.517 37.9393L303.971 28.3934C303.385 27.8076 302.435 27.8076 301.849 28.3934C301.263 28.9792 301.263 29.9289 301.849 30.5147L310.335 39L301.849 47.4853C301.263 48.0711 301.263 49.0208 301.849 49.6066C302.435 50.1924 303.385 50.1924 303.971 49.6066L313.517 40.0607ZM290 40.5H312.456V37.5H290V40.5Z" fill="white"></path></svg>