<?xml version="1.0" encoding="utf-8"?>
<!-- Generator: Adobe Illustrator 27.0.0, SVG Export Plug-In . SVG Version: 6.00 Build 0)  -->
<svg version="1.1" id="Layer_1" xmlns="http://www.w3.org/2000/svg" xmlns:xlink="http://www.w3.org/1999/xlink" x="0px" y="0px"
	 viewBox="0 0 222 16" style="enable-background:new 0 0 222 16;" xml:space="preserve">
<style type="text/css">
	.st0{fill:#FFFFFF;}
</style>
<path class="st0" d="M0.44,0.84h4.68c1.13,0,2.21,0.13,3.22,0.38c1.03,0.25,1.92,0.67,2.68,1.24c0.76,0.56,1.36,1.29,1.8,2.2
	c0.45,0.91,0.68,2.01,0.68,3.3c0,1.15-0.22,2.16-0.66,3.04c-0.43,0.87-1.01,1.6-1.74,2.2c-0.73,0.59-1.58,1.03-2.54,1.34
	S6.59,15,5.54,15h-5.1V0.84z M3.56,12.12h1.62c0.72,0,1.39-0.07,2-0.22c0.63-0.15,1.17-0.39,1.62-0.72
	c0.45-0.35,0.81-0.79,1.06-1.34c0.27-0.56,0.4-1.24,0.4-2.04c0-0.69-0.13-1.29-0.4-1.8c-0.25-0.52-0.6-0.95-1.04-1.28
	C8.38,4.39,7.86,4.14,7.26,3.98C6.67,3.81,6.05,3.72,5.4,3.72H3.56V12.12z M15.74,0.84h9.62v2.88h-6.5v2.64H25v2.88h-6.14v2.88h6.86
	V15h-9.98V0.84z M35.21,4.3c-0.25-0.32-0.6-0.55-1.04-0.7c-0.43-0.16-0.83-0.24-1.22-0.24c-0.23,0-0.46,0.03-0.7,0.08
	c-0.24,0.05-0.47,0.14-0.68,0.26c-0.21,0.11-0.39,0.25-0.52,0.44c-0.13,0.19-0.2,0.41-0.2,0.68c0,0.43,0.16,0.75,0.48,0.98
	c0.32,0.23,0.72,0.42,1.2,0.58c0.49,0.16,1.02,0.32,1.58,0.48c0.56,0.16,1.08,0.39,1.56,0.68c0.49,0.29,0.9,0.69,1.22,1.18
	c0.32,0.49,0.48,1.15,0.48,1.98c0,0.79-0.15,1.47-0.44,2.06c-0.29,0.59-0.69,1.07-1.2,1.46c-0.49,0.39-1.07,0.67-1.74,0.86
	c-0.65,0.19-1.35,0.28-2.08,0.28c-0.92,0-1.77-0.14-2.56-0.42c-0.79-0.28-1.52-0.73-2.2-1.36l2.22-2.44c0.32,0.43,0.72,0.76,1.2,1
	c0.49,0.23,1,0.34,1.52,0.34c0.25,0,0.51-0.03,0.76-0.08c0.27-0.07,0.5-0.16,0.7-0.28c0.21-0.12,0.38-0.27,0.5-0.46
	c0.13-0.19,0.2-0.41,0.2-0.66c0-0.43-0.17-0.76-0.5-1c-0.32-0.25-0.73-0.47-1.22-0.64c-0.49-0.17-1.03-0.35-1.6-0.52
	c-0.57-0.17-1.11-0.41-1.6-0.7c-0.49-0.29-0.91-0.68-1.24-1.16c-0.32-0.48-0.48-1.11-0.48-1.9c0-0.76,0.15-1.43,0.44-2
	c0.31-0.57,0.71-1.05,1.2-1.44c0.51-0.39,1.09-0.67,1.74-0.86c0.65-0.2,1.33-0.3,2.02-0.3c0.8,0,1.57,0.11,2.32,0.34
	c0.75,0.23,1.42,0.61,2.02,1.14L35.21,4.3z M39.66,0.84h3.12V15h-3.12V0.84z M58.44,14c-0.92,0.48-1.88,0.83-2.88,1.04
	s-2.02,0.32-3.06,0.32c-1.11,0-2.13-0.17-3.06-0.52c-0.93-0.35-1.74-0.84-2.42-1.48c-0.68-0.65-1.21-1.44-1.6-2.36
	c-0.37-0.92-0.56-1.95-0.56-3.08s0.19-2.16,0.56-3.08c0.39-0.92,0.92-1.7,1.6-2.34C47.7,1.85,48.5,1.35,49.44,1
	c0.93-0.35,1.95-0.52,3.06-0.52c1.13,0,2.17,0.14,3.12,0.42c0.96,0.27,1.8,0.73,2.52,1.4l-2.2,2.4c-0.43-0.44-0.91-0.77-1.44-1
	c-0.53-0.23-1.2-0.34-2-0.34c-0.67,0-1.27,0.11-1.82,0.34c-0.53,0.23-0.99,0.55-1.38,0.96c-0.39,0.4-0.69,0.88-0.9,1.44
	c-0.2,0.56-0.3,1.17-0.3,1.82c0,0.67,0.1,1.28,0.3,1.84c0.21,0.55,0.51,1.03,0.9,1.44c0.39,0.4,0.85,0.71,1.38,0.94
	c0.55,0.23,1.15,0.34,1.82,0.34c0.68,0,1.27-0.07,1.76-0.22c0.49-0.16,0.89-0.32,1.18-0.48v-2.3H52.9V6.6h5.54V14z M61.18,0.84h4.24
	l6.02,9.84h0.04V0.84h3.12V15h-4.08L64.34,4.92H64.3V15h-3.12V0.84z M77.61,0.84h9.62v2.88h-6.5v2.64h6.14v2.88h-6.14v2.88h6.86V15
	h-9.98V0.84z M90.09,0.84h4.68c1.13,0,2.21,0.13,3.22,0.38c1.03,0.25,1.92,0.67,2.68,1.24c0.76,0.56,1.36,1.29,1.8,2.2
	c0.45,0.91,0.68,2.01,0.68,3.3c0,1.15-0.22,2.16-0.66,3.04c-0.43,0.87-1.01,1.6-1.74,2.2c-0.73,0.59-1.58,1.03-2.54,1.34
	C97.25,14.85,96.24,15,95.19,15h-5.1V0.84z M93.21,12.12h1.62c0.72,0,1.39-0.07,2-0.22c0.63-0.15,1.17-0.39,1.62-0.72
	c0.45-0.35,0.81-0.79,1.06-1.34c0.27-0.56,0.4-1.24,0.4-2.04c0-0.69-0.13-1.29-0.4-1.8c-0.25-0.52-0.6-0.95-1.04-1.28
	c-0.44-0.33-0.96-0.58-1.56-0.74c-0.59-0.17-1.21-0.26-1.86-0.26h-1.84V12.12z M111.18,0.84h5.28c0.61,0,1.23,0.05,1.84,0.14
	c0.63,0.08,1.19,0.25,1.68,0.52c0.49,0.25,0.89,0.61,1.2,1.08c0.31,0.47,0.46,1.09,0.46,1.86c0,0.8-0.23,1.47-0.68,2
	c-0.44,0.52-1.03,0.89-1.76,1.12V7.6c0.47,0.07,0.89,0.2,1.26,0.4c0.39,0.19,0.71,0.43,0.98,0.74c0.28,0.29,0.49,0.64,0.64,1.04
	c0.15,0.4,0.22,0.83,0.22,1.28c0,0.75-0.16,1.37-0.48,1.88c-0.32,0.49-0.73,0.89-1.24,1.2c-0.51,0.31-1.08,0.53-1.72,0.66
	c-0.63,0.13-1.25,0.2-1.88,0.2h-5.8V0.84z M114.3,6.5h2.26c0.24,0,0.47-0.03,0.7-0.08c0.24-0.05,0.45-0.14,0.64-0.26
	c0.19-0.12,0.33-0.28,0.44-0.48c0.12-0.2,0.18-0.44,0.18-0.72c0-0.29-0.07-0.53-0.2-0.72c-0.12-0.2-0.28-0.35-0.48-0.46
	c-0.2-0.11-0.43-0.18-0.68-0.22c-0.25-0.05-0.5-0.08-0.74-0.08h-2.12V6.5z M114.3,12.36h2.8c0.24,0,0.48-0.03,0.72-0.08
	c0.25-0.05,0.48-0.15,0.68-0.28c0.2-0.13,0.36-0.31,0.48-0.52c0.13-0.21,0.2-0.47,0.2-0.78c0-0.33-0.09-0.6-0.26-0.8
	c-0.16-0.21-0.37-0.37-0.62-0.48c-0.25-0.11-0.53-0.18-0.82-0.22c-0.29-0.04-0.57-0.06-0.82-0.06h-2.36V12.36z M127.63,8.96
	l-5.32-8.12h3.88l3,5.3l3.18-5.3h3.7l-5.32,8.12V15h-3.12V8.96z"/>
<path class="st0" d="M-1,17h223.68v1H-1V17z"/>
<g>
	<path class="st0" d="M154.62,7.47h-4.34h-0.06h-2.67c-0.25,0-0.46-0.21-0.46-0.46v-0.2c0-0.27,0.22-0.49,0.49-0.49h2.55
		c0.31,0,0.57-0.21,0.63-0.51l1.14-5.57c0.04-0.19-0.19-0.32-0.33-0.19l-9.06,7.99c-0.19,0.17-0.07,0.49,0.19,0.49h4.4h2.67
		c0.25,0,0.46,0.21,0.46,0.46v0.2c0,0.27-0.22,0.49-0.49,0.49h-2.55c-0.31,0-0.57,0.21-0.63,0.51l-1.14,5.57
		c-0.04,0.19,0.19,0.32,0.33,0.19l9.06-7.99C155,7.79,154.88,7.47,154.62,7.47z"/>
	<path class="st0" d="M160.83,6.64l-0.21-0.03c-1.65-0.25-1.94-0.48-1.94-0.9c0-0.29,0.3-0.81,1.74-0.81c1.5,0,2.14,0.39,2.14,1.14
		v0.08h2.62V6.04c0-1.46-0.83-3.2-4.75-3.2c-3.64,0-4.4,1.58-4.4,2.9c0,1.89,1.69,2.49,4.41,2.85c0.13,0.02,0.26,0.03,0.4,0.05
		c1.02,0.12,1.94,0.26,1.94,0.97c0,0.62-0.99,0.75-2.02,0.75c-1.71,0-2.31-0.36-2.31-1.17V9.11h-2.64l0,0.18
		c0,0.48-0.01,1.28,0.65,1.94c0.76,0.77,2.23,1.16,4.38,1.16c2.91,0,4.59-0.46,4.59-2.81C165.41,7.32,162.98,6.96,160.83,6.64z"/>
	<path class="st0" d="M172.51,2.92c-1.75,0-2.83,0.55-3.47,1.39h-0.14V2.92h-2.57V16h2.57v-4.92h0.12c0.64,0.82,1.72,1.32,3.5,1.32
		c3.98,0,4.43-3.47,4.43-4.74C176.94,6.28,176.52,2.92,172.51,2.92z M171.77,10.19c-2.22,0-2.68-1.1-2.68-2.53
		c0-1.28,0.45-2.53,2.67-2.53c2.46,0,2.72,1.79,2.72,2.53C174.49,8.34,174.21,10.19,171.77,10.19z"/>
	<path class="st0" d="M185.43,4.29h-0.11c-0.64-0.84-1.72-1.39-3.47-1.39c-4.01,0-4.43,3.36-4.43,4.74c0,1.28,0.45,4.74,4.43,4.74
		c1.78,0,2.86-0.5,3.5-1.32h0.08v1.32h2.57V2.9h-2.57V4.29z M182.6,10.17c-2.44,0-2.72-1.85-2.72-2.53c0-0.74,0.26-2.53,2.72-2.53
		c2.22,0,2.67,1.25,2.67,2.53C185.27,9.08,184.82,10.17,182.6,10.17z"/>
	<path class="st0" d="M191.68,4.3h-0.16V2.91h-2.57v9.48h2.57V8.13c0-1.28,0.57-2.77,2.47-2.77c0.81,0,1.46,0.14,1.7,0.21l0.41-2.43
		c-0.44-0.1-0.99-0.24-1.68-0.24C192.79,2.91,192.21,3.39,191.68,4.3z"/>
	<polygon class="st0" points="203.39,2.91 199.21,7.03 199.21,0.18 196.65,0.18 196.65,12.36 199.21,12.36 199.21,10.52 201.06,8.7 
		203.72,12.39 206.91,12.39 202.92,6.87 206.95,2.91 	"/>
	<rect x="207.53" class="st0" width="2.56" height="2.29"/>
	<rect x="207.53" y="2.96" class="st0" width="2.56" height="9.42"/>
	<path class="st0" d="M214.67,0.19h-2.57v2.74h-1.27V5.1h1.27v3.8c0,1.38,0,3.49,2.57,3.49c2.57,0,3.08-0.18,3.08-0.18V9.7
		c-2.46,0.13-3.08,0.33-3.08-1.05V8.47V5.1h3.08V2.93h-3.08V0.19z"/>
	<path class="st0" d="M221.21,10.72c0-0.47-0.37-0.47-0.54-0.47c-0.08,0-0.3,0-0.38,0v0h-0.31v1.4h0.31v-0.47c0.06,0,0.27,0,0.32,0
		c0.02,0,0.05,0,0.08,0l0.23,0.47h0.33l-0.27-0.54C221.1,11.05,221.21,10.96,221.21,10.72z M220.65,10.92c-0.03,0-0.29,0-0.36,0
		v-0.39c0.08,0,0.31,0,0.36,0c0.09,0,0.28,0,0.28,0.19C220.93,10.92,220.73,10.92,220.65,10.92z"/>
	<path class="st0" d="M220.56,9.57c-0.76,0-1.38,0.62-1.38,1.38c0,0.76,0.62,1.38,1.38,1.38c0.76,0,1.38-0.62,1.38-1.38
		C221.93,10.19,221.31,9.57,220.56,9.57z M220.56,12.16c-0.67,0-1.21-0.54-1.21-1.21c0-0.67,0.54-1.21,1.21-1.21
		c0.67,0,1.21,0.54,1.21,1.21C221.77,11.62,221.22,12.16,220.56,12.16z"/>
</g>
</svg>
