<svg xmlns="http://www.w3.org/2000/svg" width="202" height="57" viewBox="0 0 202 57" fill="none"><rect width="202" height="57" rx="28.5" fill="#FE2C55"></rect><path d="M26.2705 28.502C26.2705 33.074 29.7265 35.36 34.7305 35.36C37.1785 35.36 39.4285 35.018 42.0565 33.56V27.782H34.4245V30.482H38.4565V31.256C37.4665 31.67 36.4585 31.94 35.0005 31.94C31.7965 31.94 30.9505 30.572 30.9505 28.682C30.9505 26.792 31.9765 25.46 34.4425 25.46C36.3505 25.46 37.0885 26.234 37.2685 26.792H42.0565C41.8585 23.804 38.8705 21.68 34.4065 21.68C29.7265 21.68 26.2705 23.948 26.2705 28.502ZM56.1786 22.04H42.8586V35H56.1786V31.58H47.3586V30.23H55.8186V26.81H47.3586V25.46H56.1786V22.04ZM72.1234 22.04H56.6434V25.82H62.1334V35H66.6334V25.82H72.1234V22.04ZM92.0963 22.04H78.7763V35H92.0963V31.58H83.2763V30.23H91.7363V26.81H83.2763V25.46H92.0963V22.04ZM93.4527 30.41H107.853V27.35H93.4527V30.41ZM121.514 28.214C122.828 27.728 123.746 26.774 123.746 25.208C123.746 23.336 122.684 22.04 119.282 22.04H109.202V35H120.002C123.224 35 124.466 33.524 124.466 31.418C124.466 29.528 123.134 28.628 121.514 28.214ZM117.842 25.28C118.67 25.28 119.246 25.28 119.246 26.216C119.246 27.152 118.67 27.152 117.842 27.152H113.702V25.28H117.842ZM113.702 31.76V29.888H118.562C119.21 29.888 119.786 29.888 119.786 30.824C119.786 31.76 119.21 31.76 118.562 31.76H113.702ZM132.835 35.36C138.181 35.36 141.295 32.876 141.295 28.502C141.295 24.146 138.181 21.68 132.835 21.68C127.471 21.68 124.375 24.128 124.375 28.502C124.375 32.894 127.471 35.36 132.835 35.36ZM132.835 31.58C129.901 31.58 129.055 30.212 129.055 28.502C129.055 26.81 129.883 25.46 132.835 25.46C135.787 25.46 136.615 26.828 136.615 28.502C136.615 30.194 135.769 31.58 132.835 31.58ZM150.21 35.36C155.556 35.36 158.67 32.876 158.67 28.502C158.67 24.146 155.556 21.68 150.21 21.68C144.846 21.68 141.75 24.128 141.75 28.502C141.75 32.894 144.846 35.36 150.21 35.36ZM150.21 31.58C147.276 31.58 146.43 30.212 146.43 28.502C146.43 26.81 147.258 25.46 150.21 25.46C153.162 25.46 153.99 26.828 153.99 28.502C153.99 30.194 153.144 31.58 150.21 31.58ZM169.097 22.04L163.805 26.918V22.04H159.305V35H163.805V32.318L166.505 29.996L170.249 35H175.721L169.691 27.242L175.721 22.04H169.097Z" fill="white"></path></svg>