<svg xmlns="http://www.w3.org/2000/svg" width="344" height="62" viewBox="0 0 344 62" fill="none"><rect width="344" height="62" rx="31" fill="#FE2C55"></rect><path d="M64.6509 29.975C64.6509 36.325 69.4509 39.5 76.4009 39.5C79.8009 39.5 82.9259 39.025 86.5759 37V28.975H75.9759V32.725H81.5759V33.8C80.2009 34.375 78.8009 34.75 76.7759 34.75C72.3259 34.75 71.1509 32.85 71.1509 30.225C71.1509 27.6 72.5759 25.75 76.0009 25.75C78.6509 25.75 79.6759 26.825 79.9259 27.6H86.5759C86.3009 23.45 82.1509 20.5 75.9509 20.5C69.4509 20.5 64.6509 23.65 64.6509 29.975ZM106.19 21H87.6899V39H106.19V34.25H93.9399V32.375H105.69V27.625H93.9399V25.75H106.19V21ZM128.335 21H106.835V26.25H114.46V39H120.71V26.25H128.335V21ZM164.192 21H145.692V39H164.192V34.25H151.942V32.375H163.692V27.625H151.942V25.75H164.192V21ZM166.076 32.625H186.076V28.375H166.076V32.625ZM205.05 29.575C206.875 28.9 208.15 27.575 208.15 25.4C208.15 22.8 206.675 21 201.95 21H187.95V39H202.95C207.425 39 209.15 36.95 209.15 34.025C209.15 31.4 207.3 30.15 205.05 29.575ZM199.95 25.5C201.1 25.5 201.9 25.5 201.9 26.8C201.9 28.1 201.1 28.1 199.95 28.1H194.2V25.5H199.95ZM194.2 34.5V31.9H200.95C201.85 31.9 202.65 31.9 202.65 33.2C202.65 34.5 201.85 34.5 200.95 34.5H194.2ZM220.774 39.5C228.199 39.5 232.524 36.05 232.524 29.975C232.524 23.925 228.199 20.5 220.774 20.5C213.324 20.5 209.024 23.9 209.024 29.975C209.024 36.075 213.324 39.5 220.774 39.5ZM220.774 34.25C216.699 34.25 215.524 32.35 215.524 29.975C215.524 27.625 216.674 25.75 220.774 25.75C224.874 25.75 226.024 27.65 226.024 29.975C226.024 32.325 224.849 34.25 220.774 34.25ZM244.906 39.5C252.331 39.5 256.656 36.05 256.656 29.975C256.656 23.925 252.331 20.5 244.906 20.5C237.456 20.5 233.156 23.9 233.156 29.975C233.156 36.075 237.456 39.5 244.906 39.5ZM244.906 34.25C240.831 34.25 239.656 32.35 239.656 29.975C239.656 27.625 240.806 25.75 244.906 25.75C249.006 25.75 250.156 27.65 250.156 29.975C250.156 32.325 248.981 34.25 244.906 34.25ZM271.138 21L263.788 27.775V21H257.538V39H263.788V35.275L267.538 32.05L272.738 39H280.338L271.963 28.225L280.338 21H271.138Z" fill="white"></path></svg>