<svg xmlns="http://www.w3.org/2000/svg" width="271" height="77" viewBox="0 0 271 77" fill="none"><rect width="271" height="77" rx="38.5" fill="#FE2C55"></rect><path d="M37.34 27.76H42.02V44.68H50.69V49H37.34V27.76ZM66.5033 46.48C65.7833 47.4 64.8733 48.11 63.7733 48.61C62.6733 49.11 61.5333 49.36 60.3533 49.36C59.2333 49.36 58.1733 49.18 57.1733 48.82C56.1933 48.46 55.3333 47.95 54.5933 47.29C53.8733 46.61 53.3033 45.8 52.8833 44.86C52.4633 43.92 52.2533 42.87 52.2533 41.71C52.2533 40.55 52.4633 39.5 52.8833 38.56C53.3033 37.62 53.8733 36.82 54.5933 36.16C55.3333 35.48 56.1933 34.96 57.1733 34.6C58.1733 34.24 59.2333 34.06 60.3533 34.06C61.3933 34.06 62.3333 34.24 63.1733 34.6C64.0333 34.96 64.7533 35.48 65.3333 36.16C65.9333 36.82 66.3933 37.62 66.7133 38.56C67.0333 39.5 67.1933 40.55 67.1933 41.71V43.12H56.7533C56.9333 43.98 57.3233 44.67 57.9233 45.19C58.5233 45.69 59.2633 45.94 60.1433 45.94C60.8833 45.94 61.5033 45.78 62.0033 45.46C62.5233 45.12 62.9733 44.69 63.3533 44.17L66.5033 46.48ZM62.6933 40.06C62.7133 39.3 62.4633 38.65 61.9433 38.11C61.4233 37.57 60.7533 37.3 59.9333 37.3C59.4333 37.3 58.9933 37.38 58.6133 37.54C58.2333 37.7 57.9033 37.91 57.6233 38.17C57.3633 38.41 57.1533 38.7 56.9933 39.04C56.8533 39.36 56.7733 39.7 56.7533 40.06H62.6933ZM79.0798 47.17H79.0198C78.5198 47.95 77.8498 48.51 77.0098 48.85C76.1898 49.19 75.3198 49.36 74.3998 49.36C73.7198 49.36 73.0598 49.26 72.4198 49.06C71.7998 48.88 71.2498 48.6 70.7698 48.22C70.2898 47.84 69.9098 47.37 69.6298 46.81C69.3498 46.25 69.2098 45.6 69.2098 44.86C69.2098 44.02 69.3598 43.31 69.6598 42.73C69.9798 42.15 70.3998 41.67 70.9198 41.29C71.4598 40.91 72.0698 40.62 72.7498 40.42C73.4298 40.2 74.1298 40.04 74.8498 39.94C75.5898 39.84 76.3198 39.78 77.0398 39.76C77.7798 39.74 78.4598 39.73 79.0798 39.73C79.0798 38.93 78.7898 38.3 78.2098 37.84C77.6498 37.36 76.9798 37.12 76.1998 37.12C75.4598 37.12 74.7798 37.28 74.1598 37.6C73.5598 37.9 73.0198 38.32 72.5398 38.86L70.1398 36.4C70.9798 35.62 71.9598 35.04 73.0798 34.66C74.1998 34.26 75.3598 34.06 76.5598 34.06C77.8798 34.06 78.9598 34.23 79.7998 34.57C80.6598 34.89 81.3398 35.37 81.8398 36.01C82.3598 36.65 82.7198 37.44 82.9198 38.38C83.1198 39.3 83.2198 40.37 83.2198 41.59V49H79.0798V47.17ZM77.9698 42.61C77.6298 42.61 77.1998 42.63 76.6798 42.67C76.1798 42.69 75.6898 42.77 75.2098 42.91C74.7498 43.05 74.3498 43.26 74.0098 43.54C73.6898 43.82 73.5298 44.21 73.5298 44.71C73.5298 45.25 73.7598 45.65 74.2198 45.91C74.6798 46.17 75.1598 46.3 75.6598 46.3C76.0998 46.3 76.5198 46.24 76.9198 46.12C77.3398 46 77.7098 45.83 78.0298 45.61C78.3498 45.39 78.5998 45.11 78.7798 44.77C78.9798 44.43 79.0798 44.03 79.0798 43.57V42.61H77.9698ZM86.0431 34.42H90.5431V36.76H90.6031C91.0831 35.86 91.6531 35.19 92.3131 34.75C92.9731 34.29 93.8031 34.06 94.8031 34.06C95.0631 34.06 95.3231 34.07 95.5831 34.09C95.8431 34.11 96.0831 34.15 96.3031 34.21V38.32C95.9831 38.22 95.6631 38.15 95.3431 38.11C95.0431 38.05 94.7231 38.02 94.3831 38.02C93.5231 38.02 92.8431 38.14 92.3431 38.38C91.8431 38.62 91.4531 38.96 91.1731 39.4C90.9131 39.82 90.7431 40.33 90.6631 40.93C90.5831 41.53 90.5431 42.19 90.5431 42.91V49H86.0431V34.42ZM98.7873 34.42H103.107V36.4H103.167C103.307 36.12 103.507 35.84 103.767 35.56C104.027 35.28 104.337 35.03 104.697 34.81C105.057 34.59 105.467 34.41 105.927 34.27C106.387 34.13 106.887 34.06 107.427 34.06C108.567 34.06 109.487 34.24 110.187 34.6C110.887 34.94 111.427 35.42 111.807 36.04C112.207 36.66 112.477 37.39 112.617 38.23C112.757 39.07 112.827 39.98 112.827 40.96V49H108.327V41.86C108.327 41.44 108.307 41.01 108.267 40.57C108.247 40.11 108.157 39.69 107.997 39.31C107.857 38.93 107.627 38.62 107.307 38.38C107.007 38.14 106.567 38.02 105.987 38.02C105.407 38.02 104.937 38.13 104.577 38.35C104.217 38.55 103.937 38.83 103.737 39.19C103.557 39.53 103.437 39.92 103.377 40.36C103.317 40.8 103.287 41.26 103.287 41.74V49H98.7873V34.42ZM124.891 34.42H129.211V36.4H129.271C129.411 36.12 129.611 35.84 129.871 35.56C130.131 35.28 130.441 35.03 130.801 34.81C131.161 34.59 131.571 34.41 132.031 34.27C132.491 34.13 132.991 34.06 133.531 34.06C134.551 34.06 135.451 34.27 136.231 34.69C137.031 35.11 137.631 35.77 138.031 36.67C138.551 35.73 139.181 35.06 139.921 34.66C140.661 34.26 141.571 34.06 142.651 34.06C143.631 34.06 144.451 34.23 145.111 34.57C145.791 34.89 146.321 35.34 146.701 35.92C147.101 36.48 147.381 37.15 147.541 37.93C147.721 38.69 147.811 39.51 147.811 40.39V49H143.311V40.51C143.311 39.83 143.161 39.25 142.861 38.77C142.581 38.27 142.071 38.02 141.331 38.02C140.811 38.02 140.371 38.11 140.011 38.29C139.671 38.45 139.391 38.68 139.171 38.98C138.971 39.28 138.821 39.63 138.721 40.03C138.641 40.43 138.601 40.85 138.601 41.29V49H134.101V41.29C134.101 41.03 134.091 40.71 134.071 40.33C134.051 39.95 133.981 39.59 133.861 39.25C133.741 38.91 133.541 38.62 133.261 38.38C133.001 38.14 132.611 38.02 132.091 38.02C131.511 38.02 131.041 38.13 130.681 38.35C130.321 38.55 130.041 38.83 129.841 39.19C129.661 39.53 129.541 39.92 129.481 40.36C129.421 40.8 129.391 41.26 129.391 41.74V49H124.891V34.42ZM150.454 41.71C150.454 40.55 150.664 39.5 151.084 38.56C151.504 37.62 152.074 36.82 152.794 36.16C153.534 35.48 154.394 34.96 155.374 34.6C156.374 34.24 157.434 34.06 158.554 34.06C159.674 34.06 160.724 34.24 161.704 34.6C162.704 34.96 163.564 35.48 164.284 36.16C165.024 36.82 165.604 37.62 166.024 38.56C166.444 39.5 166.654 40.55 166.654 41.71C166.654 42.87 166.444 43.92 166.024 44.86C165.604 45.8 165.024 46.61 164.284 47.29C163.564 47.95 162.704 48.46 161.704 48.82C160.724 49.18 159.674 49.36 158.554 49.36C157.434 49.36 156.374 49.18 155.374 48.82C154.394 48.46 153.534 47.95 152.794 47.29C152.074 46.61 151.504 45.8 151.084 44.86C150.664 43.92 150.454 42.87 150.454 41.71ZM154.954 41.71C154.954 42.81 155.264 43.7 155.884 44.38C156.524 45.06 157.414 45.4 158.554 45.4C159.694 45.4 160.574 45.06 161.194 44.38C161.834 43.7 162.154 42.81 162.154 41.71C162.154 40.61 161.834 39.72 161.194 39.04C160.574 38.36 159.694 38.02 158.554 38.02C157.414 38.02 156.524 38.36 155.884 39.04C155.264 39.72 154.954 40.61 154.954 41.71ZM169.305 34.42H173.805V36.76H173.865C174.345 35.86 174.915 35.19 175.575 34.75C176.235 34.29 177.065 34.06 178.065 34.06C178.325 34.06 178.585 34.07 178.845 34.09C179.105 34.11 179.345 34.15 179.565 34.21V38.32C179.245 38.22 178.925 38.15 178.605 38.11C178.305 38.05 177.985 38.02 177.645 38.02C176.785 38.02 176.105 38.14 175.605 38.38C175.105 38.62 174.715 38.96 174.435 39.4C174.175 39.82 174.005 40.33 173.925 40.93C173.845 41.53 173.805 42.19 173.805 42.91V49H169.305V34.42ZM194.794 46.48C194.074 47.4 193.164 48.11 192.064 48.61C190.964 49.11 189.824 49.36 188.644 49.36C187.524 49.36 186.464 49.18 185.464 48.82C184.484 48.46 183.624 47.95 182.884 47.29C182.164 46.61 181.594 45.8 181.174 44.86C180.754 43.92 180.544 42.87 180.544 41.71C180.544 40.55 180.754 39.5 181.174 38.56C181.594 37.62 182.164 36.82 182.884 36.16C183.624 35.48 184.484 34.96 185.464 34.6C186.464 34.24 187.524 34.06 188.644 34.06C189.684 34.06 190.624 34.24 191.464 34.6C192.324 34.96 193.044 35.48 193.624 36.16C194.224 36.82 194.684 37.62 195.004 38.56C195.324 39.5 195.484 40.55 195.484 41.71V43.12H185.044C185.224 43.98 185.614 44.67 186.214 45.19C186.814 45.69 187.554 45.94 188.434 45.94C189.174 45.94 189.794 45.78 190.294 45.46C190.814 45.12 191.264 44.69 191.644 44.17L194.794 46.48ZM190.984 40.06C191.004 39.3 190.754 38.65 190.234 38.11C189.714 37.57 189.044 37.3 188.224 37.3C187.724 37.3 187.284 37.38 186.904 37.54C186.524 37.7 186.194 37.91 185.914 38.17C185.654 38.41 185.444 38.7 185.284 39.04C185.144 39.36 185.064 39.7 185.044 40.06H190.984Z" fill="white"></path><path d="M214 37.5C213.172 37.5 212.5 38.1716 212.5 39C212.5 39.8284 213.172 40.5 214 40.5V37.5ZM237.517 40.0607C238.102 39.4749 238.102 38.5251 237.517 37.9393L227.971 28.3934C227.385 27.8076 226.435 27.8076 225.849 28.3934C225.263 28.9792 225.263 29.9289 225.849 30.5147L234.335 39L225.849 47.4853C225.263 48.0711 225.263 49.0208 225.849 49.6066C226.435 50.1924 227.385 50.1924 227.971 49.6066L237.517 40.0607ZM214 40.5H236.456V37.5H214V40.5Z" fill="white"></path></svg>