<svg xmlns="http://www.w3.org/2000/svg" width="342" height="59" viewBox="0 0 342 59" fill="none"><rect width="342" height="59" rx="29.5" fill="#FE2C55"></rect><path d="M100.56 21.84H103.68V33.12H109.46V36H100.56V21.84ZM120.002 34.32C119.522 34.9333 118.916 35.4067 118.182 35.74C117.449 36.0733 116.689 36.24 115.902 36.24C115.156 36.24 114.449 36.12 113.782 35.88C113.129 35.64 112.556 35.3 112.062 34.86C111.582 34.4067 111.202 33.8667 110.922 33.24C110.642 32.6133 110.502 31.9133 110.502 31.14C110.502 30.3667 110.642 29.6667 110.922 29.04C111.202 28.4133 111.582 27.88 112.062 27.44C112.556 26.9867 113.129 26.64 113.782 26.4C114.449 26.16 115.156 26.04 115.902 26.04C116.596 26.04 117.222 26.16 117.782 26.4C118.356 26.64 118.836 26.9867 119.222 27.44C119.622 27.88 119.929 28.4133 120.142 29.04C120.356 29.6667 120.462 30.3667 120.462 31.14V32.08H113.502C113.622 32.6533 113.882 33.1133 114.282 33.46C114.682 33.7933 115.176 33.96 115.762 33.96C116.256 33.96 116.669 33.8533 117.002 33.64C117.349 33.4133 117.649 33.1267 117.902 32.78L120.002 34.32ZM117.462 30.04C117.476 29.5333 117.309 29.1 116.962 28.74C116.616 28.38 116.169 28.2 115.622 28.2C115.289 28.2 114.996 28.2533 114.742 28.36C114.489 28.4667 114.269 28.6067 114.082 28.78C113.909 28.94 113.769 29.1333 113.662 29.36C113.569 29.5733 113.516 29.8 113.502 30.04H117.462ZM128.387 34.78H128.347C128.013 35.3 127.567 35.6733 127.007 35.9C126.46 36.1267 125.88 36.24 125.267 36.24C124.813 36.24 124.373 36.1733 123.947 36.04C123.533 35.92 123.167 35.7333 122.847 35.48C122.527 35.2267 122.273 34.9133 122.087 34.54C121.9 34.1667 121.807 33.7333 121.807 33.24C121.807 32.68 121.907 32.2067 122.107 31.82C122.32 31.4333 122.6 31.1133 122.947 30.86C123.307 30.6067 123.713 30.4133 124.167 30.28C124.62 30.1333 125.087 30.0267 125.567 29.96C126.06 29.8933 126.547 29.8533 127.027 29.84C127.52 29.8267 127.973 29.82 128.387 29.82C128.387 29.2867 128.193 28.8667 127.807 28.56C127.433 28.24 126.987 28.08 126.467 28.08C125.973 28.08 125.52 28.1867 125.107 28.4C124.707 28.6 124.347 28.88 124.027 29.24L122.427 27.6C122.987 27.08 123.64 26.6933 124.387 26.44C125.133 26.1733 125.907 26.04 126.707 26.04C127.587 26.04 128.307 26.1533 128.867 26.38C129.44 26.5933 129.893 26.9133 130.227 27.34C130.573 27.7667 130.813 28.2933 130.947 28.92C131.08 29.5333 131.147 30.2467 131.147 31.06V36H128.387V34.78ZM127.647 31.74C127.42 31.74 127.133 31.7533 126.787 31.78C126.453 31.7933 126.127 31.8467 125.807 31.94C125.5 32.0333 125.233 32.1733 125.007 32.36C124.793 32.5467 124.687 32.8067 124.687 33.14C124.687 33.5 124.84 33.7667 125.147 33.94C125.453 34.1133 125.773 34.2 126.107 34.2C126.4 34.2 126.68 34.16 126.947 34.08C127.227 34 127.473 33.8867 127.687 33.74C127.9 33.5933 128.067 33.4067 128.187 33.18C128.32 32.9533 128.387 32.6867 128.387 32.38V31.74H127.647ZM133.029 26.28H136.029V27.84H136.069C136.389 27.24 136.769 26.7933 137.209 26.5C137.649 26.1933 138.202 26.04 138.869 26.04C139.042 26.04 139.215 26.0467 139.389 26.06C139.562 26.0733 139.722 26.1 139.869 26.14V28.88C139.655 28.8133 139.442 28.7667 139.229 28.74C139.029 28.7 138.815 28.68 138.589 28.68C138.015 28.68 137.562 28.76 137.229 28.92C136.895 29.08 136.635 29.3067 136.449 29.6C136.275 29.88 136.162 30.22 136.109 30.62C136.055 31.02 136.029 31.46 136.029 31.94V36H133.029V26.28ZM141.525 26.28H144.405V27.6H144.445C144.538 27.4133 144.672 27.2267 144.845 27.04C145.018 26.8533 145.225 26.6867 145.465 26.54C145.705 26.3933 145.978 26.2733 146.285 26.18C146.592 26.0867 146.925 26.04 147.285 26.04C148.045 26.04 148.658 26.16 149.125 26.4C149.592 26.6267 149.952 26.9467 150.205 27.36C150.472 27.7733 150.652 28.26 150.745 28.82C150.838 29.38 150.885 29.9867 150.885 30.64V36H147.885V31.24C147.885 30.96 147.872 30.6733 147.845 30.38C147.832 30.0733 147.772 29.7933 147.665 29.54C147.572 29.2867 147.418 29.08 147.205 28.92C147.005 28.76 146.712 28.68 146.325 28.68C145.938 28.68 145.625 28.7533 145.385 28.9C145.145 29.0333 144.958 29.22 144.825 29.46C144.705 29.6867 144.625 29.9467 144.585 30.24C144.545 30.5333 144.525 30.84 144.525 31.16V36H141.525V26.28ZM158.927 26.28H161.807V27.6H161.847C161.941 27.4133 162.074 27.2267 162.247 27.04C162.421 26.8533 162.627 26.6867 162.867 26.54C163.107 26.3933 163.381 26.2733 163.687 26.18C163.994 26.0867 164.327 26.04 164.687 26.04C165.367 26.04 165.967 26.18 166.487 26.46C167.021 26.74 167.421 27.18 167.687 27.78C168.034 27.1533 168.454 26.7067 168.947 26.44C169.441 26.1733 170.047 26.04 170.767 26.04C171.421 26.04 171.967 26.1533 172.407 26.38C172.861 26.5933 173.214 26.8933 173.467 27.28C173.734 27.6533 173.921 28.1 174.027 28.62C174.147 29.1267 174.207 29.6733 174.207 30.26V36H171.207V30.34C171.207 29.8867 171.107 29.5 170.907 29.18C170.721 28.8467 170.381 28.68 169.887 28.68C169.541 28.68 169.247 28.74 169.007 28.86C168.781 28.9667 168.594 29.12 168.447 29.32C168.314 29.52 168.214 29.7533 168.147 30.02C168.094 30.2867 168.067 30.5667 168.067 30.86V36H165.067V30.86C165.067 30.6867 165.061 30.4733 165.047 30.22C165.034 29.9667 164.987 29.7267 164.907 29.5C164.827 29.2733 164.694 29.08 164.507 28.92C164.334 28.76 164.074 28.68 163.727 28.68C163.341 28.68 163.027 28.7533 162.787 28.9C162.547 29.0333 162.361 29.22 162.227 29.46C162.107 29.6867 162.027 29.9467 161.987 30.24C161.947 30.5333 161.927 30.84 161.927 31.16V36H158.927V26.28ZM175.97 31.14C175.97 30.3667 176.11 29.6667 176.39 29.04C176.67 28.4133 177.05 27.88 177.53 27.44C178.023 26.9867 178.596 26.64 179.25 26.4C179.916 26.16 180.623 26.04 181.37 26.04C182.116 26.04 182.816 26.16 183.47 26.4C184.136 26.64 184.71 26.9867 185.19 27.44C185.683 27.88 186.07 28.4133 186.35 29.04C186.63 29.6667 186.77 30.3667 186.77 31.14C186.77 31.9133 186.63 32.6133 186.35 33.24C186.07 33.8667 185.683 34.4067 185.19 34.86C184.71 35.3 184.136 35.64 183.47 35.88C182.816 36.12 182.116 36.24 181.37 36.24C180.623 36.24 179.916 36.12 179.25 35.88C178.596 35.64 178.023 35.3 177.53 34.86C177.05 34.4067 176.67 33.8667 176.39 33.24C176.11 32.6133 175.97 31.9133 175.97 31.14ZM178.97 31.14C178.97 31.8733 179.176 32.4667 179.59 32.92C180.016 33.3733 180.61 33.6 181.37 33.6C182.13 33.6 182.716 33.3733 183.13 32.92C183.556 32.4667 183.77 31.8733 183.77 31.14C183.77 30.4067 183.556 29.8133 183.13 29.36C182.716 28.9067 182.13 28.68 181.37 28.68C180.61 28.68 180.016 28.9067 179.59 29.36C179.176 29.8133 178.97 30.4067 178.97 31.14ZM188.537 26.28H191.537V27.84H191.577C191.897 27.24 192.277 26.7933 192.717 26.5C193.157 26.1933 193.71 26.04 194.377 26.04C194.55 26.04 194.723 26.0467 194.897 26.06C195.07 26.0733 195.23 26.1 195.377 26.14V28.88C195.163 28.8133 194.95 28.7667 194.737 28.74C194.537 28.7 194.323 28.68 194.097 28.68C193.523 28.68 193.07 28.76 192.737 28.92C192.403 29.08 192.143 29.3067 191.957 29.6C191.783 29.88 191.67 30.22 191.617 30.62C191.563 31.02 191.537 31.46 191.537 31.94V36H188.537V26.28ZM205.53 34.32C205.05 34.9333 204.443 35.4067 203.71 35.74C202.976 36.0733 202.216 36.24 201.43 36.24C200.683 36.24 199.976 36.12 199.31 35.88C198.656 35.64 198.083 35.3 197.59 34.86C197.11 34.4067 196.73 33.8667 196.45 33.24C196.17 32.6133 196.03 31.9133 196.03 31.14C196.03 30.3667 196.17 29.6667 196.45 29.04C196.73 28.4133 197.11 27.88 197.59 27.44C198.083 26.9867 198.656 26.64 199.31 26.4C199.976 26.16 200.683 26.04 201.43 26.04C202.123 26.04 202.75 26.16 203.31 26.4C203.883 26.64 204.363 26.9867 204.75 27.44C205.15 27.88 205.456 28.4133 205.67 29.04C205.883 29.6667 205.99 30.3667 205.99 31.14V32.08H199.03C199.15 32.6533 199.41 33.1133 199.81 33.46C200.21 33.7933 200.703 33.96 201.29 33.96C201.783 33.96 202.196 33.8533 202.53 33.64C202.876 33.4133 203.176 33.1267 203.43 32.78L205.53 34.32ZM202.99 30.04C203.003 29.5333 202.836 29.1 202.49 28.74C202.143 28.38 201.696 28.2 201.15 28.2C200.816 28.2 200.523 28.2533 200.27 28.36C200.016 28.4667 199.796 28.6067 199.61 28.78C199.436 28.94 199.296 29.1333 199.19 29.36C199.096 29.5733 199.043 29.8 199.03 30.04H202.99Z" fill="white"></path><path d="M221 29C220.448 29 220 29.4477 220 30C220 30.5523 220.448 31 221 31V29ZM244.163 30.7071C244.553 30.3166 244.553 29.6834 244.163 29.2929L237.799 22.9289C237.408 22.5384 236.775 22.5384 236.385 22.9289C235.994 23.3195 235.994 23.9526 236.385 24.3431L242.042 30L236.385 35.6569C235.994 36.0474 235.994 36.6805 236.385 37.0711C236.775 37.4616 237.408 37.4616 237.799 37.0711L244.163 30.7071ZM221 31H243.456V29H221V31Z" fill="white"></path></svg>