<svg xmlns="http://www.w3.org/2000/svg" width="231" height="23" viewBox="0 0 231 23" fill="none"><path d="M6.33474 7.27744V6.52792C5.09451 6.35849 3.83333 6.61102 2.75396 7.24493C1.67459 7.87884 0.839734 8.85729 0.38361 10.023C-0.0725137 11.1887 -0.123407 12.4739 0.239113 13.672C0.601633 14.8701 1.3565 15.9115 2.38237 16.6288L2.30469 16.544C1.60567 15.7478 1.14755 14.7692 0.98384 13.7224C0.820126 12.6756 0.957569 11.6039 1.38012 10.6323C1.80267 9.66069 2.49289 8.82934 3.3702 8.2353C4.24751 7.64126 5.2757 7.30904 6.33474 7.27744Z" fill="#25F4EE"></path><path d="M6.46639 15.3979C7.1301 15.3931 7.76661 15.1335 8.2444 14.6728C8.7222 14.2121 9.00476 13.5855 9.03371 12.9224L9.03976 0.787851H11.2429L11.2379 0.760614C11.192 0.509678 11.1691 0.255093 11.1693 0H8.13187V12.1577C8.11686 12.5886 7.99263 13.0086 7.77085 13.3784C7.54906 13.7481 7.23698 14.0554 6.86388 14.2715C6.49079 14.4876 6.06892 14.6054 5.63785 14.6138C5.20678 14.6222 4.78064 14.5209 4.39941 14.3195C4.63423 14.6498 4.94397 14.9197 5.30326 15.1072C5.66255 15.2946 6.06116 15.3943 6.46639 15.3979Z" fill="#25F4EE"></path><path d="M15.3869 4.94304V4.21874C14.5693 4.2186 13.7695 3.97947 13.0859 3.53076C13.6781 4.20866 14.478 4.74129 15.3869 4.94304Z" fill="#25F4EE"></path><path d="M13.0871 3.53049C12.4173 2.76433 12.0485 1.78107 12.0491 0.763428H11.2158C11.3249 1.32703 11.547 1.86273 11.8686 2.33827C12.1902 2.8138 12.6046 3.21935 13.0871 3.53049Z" fill="#FE2C55"></path><path d="M5.58135 9.48267C5.00631 9.479 4.44683 9.66932 3.99332 10.0229C3.53981 10.3765 3.21876 10.8726 3.08206 11.4312C2.94537 11.9898 3.001 12.5781 3.23998 13.1012C3.47896 13.6242 3.88732 14.0514 4.39907 14.3137C4.08271 13.8808 3.91137 13.359 3.90955 12.8229C3.90774 12.2867 4.07555 11.7637 4.38897 11.3288C4.7024 10.8938 5.14537 10.5691 5.65452 10.4011C6.16367 10.2331 6.7129 10.2305 7.22363 10.3936V7.29666C6.97429 7.26164 6.72287 7.24344 6.47109 7.24219C6.4267 7.24219 6.38332 7.24219 6.33894 7.24219H6.31876V9.58153C6.07977 9.50962 5.83085 9.47625 5.58135 9.48267Z" fill="#FE2C55"></path><path d="M15.3868 4.8916H15.3707L15.3636 7.22691C13.85 7.22551 12.3753 6.74724 11.1489 5.86002V12.0599C11.1439 13.0768 10.8616 14.073 10.3323 14.9412C9.80303 15.8095 9.0469 16.5169 8.14536 16.9872C7.24381 17.4575 6.23104 17.673 5.21611 17.6103C4.20119 17.5477 3.2226 17.2093 2.38574 16.6317C3.14893 17.4536 4.1421 18.0263 5.23569 18.2753C6.32927 18.5243 7.47251 18.4379 8.51627 18.0274C9.56003 17.617 10.4559 16.9015 11.0869 15.9743C11.7179 15.0471 12.0549 13.9512 12.0538 12.8296V6.65796C13.2836 7.54163 14.7601 8.01627 16.2745 8.01476V4.98542C15.9761 4.98534 15.6786 4.9539 15.3868 4.8916Z" fill="#FE2C55"></path><path d="M11.1697 12.0566V5.89202C12.3994 6.77594 13.876 7.25061 15.3904 7.24882V4.89132C14.4953 4.69914 13.6868 4.2216 13.0864 3.53049C12.6067 3.2185 12.1955 2.81238 11.8775 2.33674C11.5594 1.86111 11.3413 1.32586 11.2363 0.763428H9.01696V12.9211C8.99804 13.4519 8.81354 13.9635 8.48931 14.3842C8.16508 14.8049 7.71736 15.1136 7.20889 15.267C6.70042 15.4205 6.15668 15.4111 5.65385 15.24C5.15102 15.069 4.71429 14.7449 4.40486 14.3133C3.89959 14.0489 3.49757 13.6227 3.26306 13.1029C3.02856 12.5831 2.97513 11.9996 3.1113 11.4459C3.24747 10.8921 3.56539 10.4 4.01423 10.0482C4.46306 9.69647 5.01688 9.50535 5.58714 9.50545C5.84254 9.50619 6.09632 9.54599 6.33968 9.62347V7.2458C5.26407 7.27039 4.21851 7.60549 3.329 8.21073C2.43949 8.81598 1.74398 9.66553 1.32627 10.657C0.908561 11.6485 0.78648 12.7397 0.974737 13.799C1.16299 14.8583 1.65356 15.8405 2.38732 16.6274C3.22339 17.2139 4.20444 17.5597 5.22352 17.627C6.24261 17.6943 7.26062 17.4806 8.16657 17.0091C9.07253 16.5376 9.83166 15.8264 10.3612 14.9531C10.8908 14.0798 11.1704 13.0779 11.1697 12.0566Z" fill="white"></path><path d="M19.2734 4.90161H28.7559L27.8853 7.61319H25.4239V17.6404H22.3593V7.61319L19.2765 7.61924L19.2734 4.90161Z" fill="white"></path><path d="M44.2812 4.90161H53.9796L53.109 7.61319H50.4358V17.6404H47.3671V7.61319L44.2833 7.61924L44.2812 4.90161Z" fill="white"></path><path d="M29.3311 8.95288H32.3705L32.3675 17.6394H29.3492L29.3311 8.95288Z" fill="white"></path><path d="M33.5752 4.86523H36.6106V10.7938L39.6167 7.84515H43.2483L39.4422 11.5383L43.7053 17.6393H40.3552L37.5104 13.4085L36.6106 14.2831V17.6393H33.5752V4.86523Z" fill="white"></path><path d="M65.7441 4.86523H68.7805V10.7938L71.7887 7.84111H75.4122L71.6071 11.5342L75.8692 17.6353H72.5221L69.6784 13.4085L68.7785 14.2831V17.6393H65.7441V4.86523Z" fill="white"></path><path d="M30.8496 7.96021C31.6942 7.96021 32.3789 7.27552 32.3789 6.43091C32.3789 5.5863 31.6942 4.90161 30.8496 4.90161C30.005 4.90161 29.3203 5.5863 29.3203 6.43091C29.3203 7.27552 30.005 7.96021 30.8496 7.96021Z" fill="white"></path><path d="M53.591 12.4392C53.591 11.1313 54.0841 9.87144 54.9718 8.91095C55.8596 7.95047 57.0768 7.35993 58.3806 7.25714C58.2455 7.24705 58.0619 7.23999 57.9247 7.23999C56.5582 7.25902 55.2541 7.81522 54.2945 8.78829C53.3349 9.76136 52.7969 11.0731 52.7969 12.4397C52.7969 13.8063 53.3349 15.1181 54.2945 16.0911C55.2541 17.0642 56.5582 17.6204 57.9247 17.6394C58.0619 17.6394 58.2455 17.6324 58.3806 17.6213C57.0768 17.5185 55.8596 16.9279 54.9718 15.9674C54.0841 15.007 53.591 13.7471 53.591 12.4392Z" fill="#25F4EE"></path><path d="M59.5645 7.24001C59.4263 7.24001 59.2417 7.24707 59.1055 7.25716C60.4092 7.36013 61.6262 7.95075 62.5138 8.91122C63.4014 9.87168 63.8944 11.1314 63.8944 12.4392C63.8944 13.747 63.4014 15.0068 62.5138 15.9672C61.6262 16.9277 60.4092 17.5183 59.1055 17.6213C59.2417 17.6324 59.4263 17.6394 59.5645 17.6394C60.2534 17.649 60.9374 17.5216 61.5766 17.2646C62.2159 17.0076 62.7977 16.6261 63.2883 16.1424C63.7789 15.6586 64.1684 15.0821 64.4343 14.4465C64.7002 13.8108 64.8371 13.1287 64.8371 12.4397C64.8371 11.7507 64.7002 11.0686 64.4343 10.433C64.1684 9.79734 63.7789 9.22088 63.2883 8.73709C62.7977 8.2533 62.2159 7.87182 61.5766 7.61482C60.9374 7.35781 60.2534 7.23041 59.5645 7.24001Z" fill="#FE2C55"></path><path d="M58.7422 7.23999C57.7137 7.23979 56.7081 7.54463 55.8528 8.11596C54.9975 8.68729 54.3308 9.49945 53.9371 10.4497C53.5433 11.4 53.4403 12.4456 53.6409 13.4545C53.8415 14.4633 54.3368 15.39 55.0641 16.1173C55.7915 16.8446 56.7181 17.3399 57.727 17.5406C58.7358 17.7412 59.7815 17.6381 60.7317 17.2444C61.682 16.8507 62.4942 16.184 63.0655 15.3287C63.6368 14.4733 63.9417 13.4678 63.9415 12.4392C63.9415 11.0603 63.3937 9.73785 62.4186 8.7628C61.4436 7.78776 60.1212 7.23999 58.7422 7.23999ZM58.7422 14.9672C58.2423 14.9672 57.7535 14.8189 57.3378 14.5411C56.9221 14.2634 56.598 13.8685 56.4067 13.4066C56.2154 12.9447 56.1653 12.4364 56.2628 11.946C56.3604 11.4556 56.6012 11.0052 56.9547 10.6516C57.3082 10.2981 57.7587 10.0573 58.2491 9.95979C58.7394 9.86225 59.2477 9.91231 59.7097 10.1036C60.1716 10.295 60.5664 10.619 60.8442 11.0347C61.122 11.4505 61.2702 11.9392 61.2702 12.4392C61.2702 13.1097 61.0039 13.7527 60.5298 14.2268C60.0557 14.7008 59.4127 14.9672 58.7422 14.9672Z" fill="white"></path><path d="M84.121 5.04164H82.5554L81.0082 17.7324H82.7027L83.8631 8.19131L87.8601 16.3326H89.3705L93.3306 8.19131L94.491 17.7324H96.1855L94.6383 5.04164H93.0727L88.5969 14.3617L84.121 5.04164ZM106.219 17.7324V9.13069H104.561V10.42C104.027 9.48065 102.793 8.94649 101.541 8.94649C100.325 8.94649 99.2935 9.35172 98.4462 10.1806C97.5989 11.0094 97.1753 12.0777 97.1753 13.4223C97.1753 14.7485 97.5989 15.8353 98.4462 16.6641C99.2935 17.493 100.325 17.9166 101.541 17.9166C102.793 17.9166 103.99 17.364 104.561 16.4062V17.7324H106.219ZM104.543 13.4039C104.543 14.288 104.267 14.988 103.714 15.5037C103.161 16.0194 102.48 16.2773 101.688 16.2773C100.896 16.2773 100.233 16.001 99.6987 15.4669C99.1645 14.9327 98.8883 14.2328 98.8883 13.4039C98.8883 12.5751 99.1461 11.8936 99.6803 11.3778C100.214 10.8437 100.896 10.5858 101.688 10.5858C102.443 10.5858 103.106 10.8437 103.677 11.341C104.248 11.8383 104.543 12.5382 104.543 13.4039ZM109.964 14.6012C109.964 12.1698 110.756 10.549 112.321 10.549C112.763 10.549 113.187 10.6411 113.592 10.8437L113.85 9.27804C113.537 9.05701 113.04 8.94649 112.358 8.94649C111.179 8.94649 110.387 9.64642 109.964 11.0647V9.13069H108.288V17.7324H109.964V14.6012ZM120.399 17.7324H122.609L118.041 12.8514L121.725 9.13069H119.441L116.476 12.133V4.45223H114.818V17.7324H116.476V13.5329L120.399 17.7324ZM123.892 12.7593C124.095 11.341 125.163 10.4569 126.618 10.4569C128.018 10.4569 129.031 11.341 129.234 12.7593H123.892ZM130.891 13.4039C130.891 12.0593 130.486 10.991 129.676 10.1806C128.884 9.35172 127.852 8.94649 126.618 8.94649C125.366 8.94649 124.316 9.35172 123.468 10.1806C122.64 10.991 122.216 12.0593 122.216 13.4039C122.216 14.7485 122.64 15.8353 123.468 16.6641C124.316 17.493 125.366 17.9166 126.618 17.9166C128.331 17.9166 129.86 17.1062 130.578 15.6326L129.878 15.3748C129.547 15.2458 129.307 15.1353 129.142 15.0801C128.681 15.9089 127.723 16.4062 126.673 16.4062C125.2 16.4062 124.095 15.4853 123.892 14.067H130.873C130.891 13.9381 130.891 13.7171 130.891 13.4039ZM134.606 5.88892H132.93V9.13069H131.382V10.549H132.93V17.7324H134.606V10.549H136.429V9.13069H134.606V5.88892ZM139.25 17.7324V9.13069H137.592V17.7324H139.25ZM137.592 6.7362C138.053 7.15984 138.789 7.15984 139.231 6.7362C139.692 6.31256 139.692 5.61263 139.231 5.18899C138.789 4.76535 138.053 4.76535 137.592 5.18899C137.15 5.61263 137.15 6.31256 137.592 6.7362ZM142.992 13.0908C142.992 11.3962 144.079 10.5858 145.424 10.5858C146.602 10.5858 147.321 11.4515 147.321 12.8698V17.7324H148.997V12.7593C148.997 10.3279 147.818 8.94649 145.681 8.94649C144.632 8.94649 143.49 9.46223 142.992 10.42V9.13069H141.316V17.7324H142.992V13.0908ZM151.584 19.3165C151.179 19.5375 150.94 19.6664 150.848 19.7033C151.658 21.1768 153.113 22.0241 154.734 22.0241C157.865 22.0241 159.431 20.1637 159.431 16.4247V9.13069H157.773V10.4753C157.239 9.51749 156.005 8.94649 154.752 8.94649C153.537 8.94649 152.505 9.37013 151.658 10.199C150.811 11.0279 150.387 12.1146 150.387 13.4592C150.387 14.7854 150.811 15.8537 151.658 16.6825C152.505 17.5114 153.537 17.9166 154.752 17.9166C156.005 17.9166 157.276 17.3088 157.773 16.3326C157.773 16.3878 157.792 16.4799 157.792 16.5352C157.792 19.1323 156.779 20.44 154.734 20.44C153.758 20.44 152.745 19.9059 152.247 18.9665L151.584 19.3165ZM157.755 13.4408C157.755 14.3065 157.46 14.988 156.889 15.5037C156.318 16.0194 155.655 16.2773 154.9 16.2773C154.108 16.2773 153.426 16.0194 152.892 15.5037C152.358 14.988 152.1 14.3065 152.1 13.4408C152.1 12.6119 152.376 11.9304 152.911 11.3962C153.445 10.8621 154.108 10.5858 154.9 10.5858C155.692 10.5858 156.373 10.8437 156.926 11.3594C157.479 11.8567 157.755 12.5566 157.755 13.4408ZM165.861 17.7324H167.592V12.9803H170.926C172.179 12.9803 173.118 12.5935 173.744 11.8383C174.389 11.0647 174.702 10.1253 174.702 9.02017C174.702 7.91502 174.389 6.97565 173.744 6.20204C173.118 5.42844 172.179 5.04164 170.926 5.04164H165.861V17.7324ZM170.908 6.6441C172.289 6.6441 172.989 7.71241 172.989 9.02017C172.989 10.3279 172.271 11.3778 170.816 11.3778H167.592V6.6441H170.908ZM184.112 17.7324V9.13069H182.454V10.42C181.92 9.48065 180.686 8.94649 179.433 8.94649C178.218 8.94649 177.186 9.35172 176.339 10.1806C175.492 11.0094 175.068 12.0777 175.068 13.4223C175.068 14.7485 175.492 15.8353 176.339 16.6641C177.186 17.493 178.218 17.9166 179.433 17.9166C180.686 17.9166 181.883 17.364 182.454 16.4062V17.7324H184.112ZM182.436 13.4039C182.436 14.288 182.159 14.988 181.607 15.5037C181.054 16.0194 180.373 16.2773 179.581 16.2773C178.789 16.2773 178.126 16.001 177.591 15.4669C177.057 14.9327 176.781 14.2328 176.781 13.4039C176.781 12.5751 177.039 11.8936 177.573 11.3778C178.107 10.8437 178.789 10.5858 179.581 10.5858C180.336 10.5858 180.999 10.8437 181.57 11.341C182.141 11.8383 182.436 12.5382 182.436 13.4039ZM187.857 14.6012C187.857 12.1698 188.649 10.549 190.214 10.549C190.656 10.549 191.08 10.6411 191.485 10.8437L191.743 9.27804C191.43 9.05701 190.933 8.94649 190.251 8.94649C189.072 8.94649 188.28 9.64642 187.857 11.0647V9.13069H186.18V17.7324H187.857V14.6012ZM195.031 5.88892H193.355V9.13069H191.808V10.549H193.355V17.7324H195.031V10.549H196.855V9.13069H195.031V5.88892ZM199.694 13.0908C199.694 11.3962 200.78 10.5858 202.125 10.5858C203.304 10.5858 204.022 11.4515 204.022 12.8698V17.7324H205.698V12.7593C205.698 10.3279 204.52 8.94649 202.383 8.94649C201.333 8.94649 200.191 9.46223 199.694 10.42V9.13069H198.018V17.7324H199.694V13.0908ZM208.765 12.7593C208.967 11.341 210.036 10.4569 211.491 10.4569C212.891 10.4569 213.904 11.341 214.106 12.7593H208.765ZM215.764 13.4039C215.764 12.0593 215.359 10.991 214.548 10.1806C213.756 9.35172 212.725 8.94649 211.491 8.94649C210.238 8.94649 209.188 9.35172 208.341 10.1806C207.512 10.991 207.089 12.0593 207.089 13.4039C207.089 14.7485 207.512 15.8353 208.341 16.6641C209.188 17.493 210.238 17.9166 211.491 17.9166C213.204 17.9166 214.733 17.1062 215.451 15.6326L214.751 15.3748C214.419 15.2458 214.18 15.1353 214.014 15.0801C213.554 15.9089 212.596 16.4062 211.546 16.4062C210.072 16.4062 208.967 15.4853 208.765 14.067H215.746C215.764 13.9381 215.764 13.7171 215.764 13.4039ZM218.834 14.6012C218.834 12.1698 219.626 10.549 221.191 10.549C221.634 10.549 222.057 10.6411 222.462 10.8437L222.72 9.27804C222.407 9.05701 221.91 8.94649 221.228 8.94649C220.049 8.94649 219.257 9.64642 218.834 11.0647V9.13069H217.158V17.7324H218.834V14.6012ZM226.747 14.2144C227.465 14.3801 227.908 14.7117 227.889 15.3011C227.871 15.9089 227.373 16.3694 226.581 16.4247C226.047 16.4615 225.605 16.3694 225.218 16.13C224.832 15.9273 224.592 15.6142 224.518 15.1537H222.99C223.008 15.9826 223.34 16.6641 223.984 17.1614C224.629 17.6587 225.366 17.9166 226.195 17.9166C227.134 17.9166 227.908 17.6772 228.552 17.2167C229.197 16.7378 229.528 16.1115 229.528 15.3379C229.528 14.0302 228.792 13.2013 227.3 12.8329L226.029 12.5198C225.495 12.354 225.145 12.133 225.016 11.8567C224.924 11.6725 224.924 11.4515 224.997 11.1752C225.126 10.7147 225.642 10.4016 226.287 10.4016C226.968 10.4016 227.539 10.77 227.631 11.3778H229.234C229.086 9.73852 227.852 8.94649 226.25 8.94649C225.476 8.94649 224.795 9.1491 224.224 9.57275C223.653 9.99639 223.321 10.5121 223.266 11.1384C223.119 12.6672 223.929 13.496 225.568 13.9381L226.747 14.2144Z" fill="white"></path></svg>