<svg xmlns="http://www.w3.org/2000/svg" width="87" height="87" viewBox="0 0 87 87" fill="none"><circle cx="43.5" cy="43.5" r="43.5" fill="#FE2C55"></circle><g clip-path="url(#clip0_325_190)"><path d="M43.4513 23C49.7571 23.095 55.4632 24.8693 60.1318 29.1465C67.0698 35.5149 67.8966 44.9247 62.4174 52.6554C59.3213 57.0119 55.0093 59.7366 50.13 61.7644C49.0763 62.2079 48.0064 62.6198 46.9041 62.9208C45.6721 63.2535 44.6833 62.7307 44.4239 61.5426C44.1808 60.402 43.4675 60.2119 42.4787 60.1802C38.0208 60.0376 33.8386 58.9446 30.0615 56.5525C25.4902 53.6218 22.2157 49.7723 21.2755 44.4178C20.1732 38.1604 22.4265 32.9802 27.1761 28.8139C31.7798 24.7743 37.34 23.095 43.4513 23ZM52.8857 38.8891C51.2161 38.8891 49.8706 40.1881 49.903 41.7723C49.9192 43.2931 51.2809 44.6079 52.8533 44.6238C54.4582 44.6396 55.836 43.2772 55.8198 41.6931C55.8198 40.1089 54.523 38.8733 52.8857 38.8733V38.8891ZM34.0493 38.8891C32.3796 38.8891 31.0666 40.1881 31.1152 41.804C31.1476 43.3406 32.5255 44.6554 34.0817 44.6396C35.7027 44.6396 37.032 43.2772 37.0158 41.6772C36.9996 40.1089 35.6865 38.8891 34.0493 38.8891ZM46.4016 41.7723C46.4016 40.1564 45.1858 38.9208 43.5486 38.8891C41.8789 38.8574 40.5172 40.1089 40.5172 41.7089C40.5172 43.2931 41.8951 44.6396 43.4999 44.6238C45.0886 44.6238 46.4016 43.3248 46.4178 41.7564L46.4016 41.7723Z" fill="white"></path></g><defs><clipPath id="clip0_325_190"><rect width="45" height="40" fill="white" transform="translate(21 23)"></rect></clipPath></defs></svg>