<svg width="539" height="202" viewBox="0 0 539 202" fill="none" xmlns="http://www.w3.org/2000/svg">
<path d="M140.84 9.6H94.04L70.52 61.08L47 9.6H0.2V96H30.2V38.4L56.6 96H84.44L110.84 38.4V96H140.84V9.6ZM154.067 16.8H181.667V-1.43051e-06H154.067V16.8ZM154.067 96H181.667V24H154.067V96ZM196.02 96H223.62V-1.43051e-06H196.02V96ZM237.973 96H265.573V-1.43051e-06H237.973V96ZM279.927 16.8H307.527V-1.43051e-06H279.927V16.8ZM279.927 96H307.527V24H279.927V96ZM370.84 98.4C405.04 98.4 422.2 83.88 422.2 60C422.2 36.12 405.04 21.6 370.84 21.6C336.64 21.6 319.48 36.12 319.48 60C319.48 83.88 336.64 98.4 370.84 98.4ZM370.84 76.8C355.6 76.8 348.28 71.76 348.28 60C348.28 48.24 355.6 43.2 370.84 43.2C386.08 43.2 393.4 48.24 393.4 60C393.4 71.76 386.08 76.8 370.84 76.8ZM501.853 21.6C481.693 21.6 469.453 29.52 460.573 40.8V24H432.973V96H460.573V67.8C460.573 52.08 470.653 44.4 488.293 44.4C505.453 44.4 510.853 52.08 510.853 67.8V96H538.453V57.48C538.453 31.08 523.693 21.6 501.853 21.6Z" fill="#FE2C55"/>
<path d="M53.12 189.76L18.8 129.04H2L41.48 199H64.52L104.12 129.04H87.32L53.12 189.76ZM116.875 119.8H131.875V103H116.875V119.8ZM116.875 199H131.875V129.04H116.875V199ZM198.748 188.32C178.708 188.32 167.068 182.32 165.508 167.8H245.908C245.908 136.6 224.548 126.64 197.428 126.64C170.548 126.64 149.188 138.64 149.188 164.08C149.188 189.52 169.828 201.4 198.628 201.4C223.708 201.4 240.508 191.92 244.828 175.84H228.628C224.908 183.28 216.748 188.32 198.748 188.32ZM197.428 139.48C214.948 139.48 225.628 144.4 228.748 155.56H166.468C169.948 144.28 180.988 139.48 197.428 139.48ZM370.661 188.8L341.981 129.04H322.901L294.221 188.8L267.101 129.04H251.141L282.701 199H305.501L332.501 143.32L359.381 199H382.181L413.741 129.04H397.661L370.661 188.8ZM419.07 175.24C420.15 197.56 444.51 201.4 472.23 201.4C499.47 201.4 516.75 196.72 516.75 178C516.75 159.16 497.79 158.92 470.43 156.52C442.83 154.12 438.63 152.8 438.63 147.64C438.63 142.72 444.39 139.24 466.23 139.24C488.43 139.24 497.07 141.04 498.15 149.32H514.35C512.79 130.48 493.23 126.64 467.91 126.64C442.47 126.64 422.43 131.32 422.43 148.6C422.43 164.68 438.03 166.96 467.67 169.12C496.59 171.28 500.55 172.24 500.55 178.72C500.55 185.56 496.47 188.68 471.03 188.68C445.23 188.68 436.35 184.84 435.27 175.24H419.07Z" fill="white"/>
</svg>
