<svg xmlns="http://www.w3.org/2000/svg" id="Capa_1" data-name="Capa 1" viewBox="0 0 2957.69 154"><defs><style>.cls-1{fill:#989898;}</style></defs><title>services services</title><path class="cls-1" d="M14.93,100.6v-1H13.87l.06,1.05Zm93.4-44.2-.09,1h0Zm27.4-7.4h-1v1h1Zm52,0v1h1.06l-.06-1.06Zm-87.4,44.6.07-1h0Zm-33.4,7h1v-1h-1Zm-53,.05c.51,9.55,3,17.64,7.47,24.39s10.78,12.11,18.85,16.25C56.34,149.55,79.38,153,108.33,153v-2c-28.86,0-51.51-3.45-67.17-11.49-7.81-4-13.86-9.15-18.09-15.57s-6.65-14.14-7.14-23.39ZM108.33,153c26.73,0,48.28-2.95,63.18-10.59,7.47-3.82,13.29-8.85,17.24-15.28s6-14.23,6-23.53h-2c0,9-2,16.41-5.69,22.48s-9.24,10.86-16.44,14.55C156.14,148.05,135,151,108.33,151Zm86.4-49.4c0-9.8-2.17-17.51-6.32-23.6s-10.19-10.48-17.79-13.74C155.49,59.75,134,57.6,108.41,55.4l-.17,2c25.66,2.2,46.82,4.35,61.59,10.69,7.36,3.16,13.06,7.34,16.93,13s6,13,6,22.48ZM108.42,55.4c-17.23-1.5-27-2.84-32.39-4.55-2.71-.86-4.2-1.76-5-2.7a4.72,4.72,0,0,1-1.07-3.35h-2a6.68,6.68,0,0,0,1.57,4.67c1.18,1.34,3.09,2.39,5.93,3.28,5.67,1.79,15.64,3.15,32.81,4.65ZM69.93,44.8a4.36,4.36,0,0,1,.94-2.86,8.74,8.74,0,0,1,3.95-2.48C79,38,86.14,37,98.33,37V35c-12.22,0-19.72,1-24.2,2.59a10.63,10.63,0,0,0-4.82,3.1,6.34,6.34,0,0,0-1.38,4.11ZM98.33,37c12.69,0,21.9.9,27.91,2.92a15.26,15.26,0,0,1,6.48,3.76,7.54,7.54,0,0,1,2,5.32h2a9.51,9.51,0,0,0-2.54-6.67,17.08,17.08,0,0,0-7.32-4.3c-6.34-2.13-15.83-3-28.54-3Zm37.4,13h52V48h-52Zm53-1.06c-1-16.28-9.45-28.82-24.74-37.24S126.71-1,98.33-1V1C126.55,1,148.21,5.29,163,13.45s22.73,20.09,23.71,35.61ZM98.33-1C73.65-1,53.12,2.81,38.71,10.39S15.93,29.45,15.93,44.6h2c0-14.25,7.76-25.1,21.71-32.44S73.81,1,98.33,1ZM15.93,44.6c0,8.14,1.67,15.12,5.12,21.07S29.71,76.46,36.69,80.4c13.9,7.84,34.94,12.1,63.57,14.2l.14-2c-28.58-2.1-49.24-6.34-62.73-13.95-6.73-3.79-11.64-8.4-14.89-14s-4.85-12.2-4.85-20.06Zm84.32,50c18.45,1.4,28.67,2.45,34.3,4.09,2.8.81,4.29,1.73,5.1,2.76a6.3,6.3,0,0,1,1.08,4.15h2a8.27,8.27,0,0,0-1.51-5.39c-1.2-1.52-3.16-2.59-6.11-3.45-5.88-1.71-16.35-2.76-34.71-4.16Zm40.48,11a6,6,0,0,1-1,3.66,9.27,9.27,0,0,1-4.48,2.93c-4.82,1.75-13.51,2.81-28.91,2.81v2c15.4,0,24.41-1,29.59-2.94a11,11,0,0,0,5.42-3.63,7.94,7.94,0,0,0,1.39-4.83Zm-34.4,9.4c-14.76,0-24.44-1.65-30.39-4.31a15.3,15.3,0,0,1-6.22-4.57,9,9,0,0,1-1.79-5.52h-2a11,11,0,0,0,2.19,6.72,17.21,17.21,0,0,0,7,5.19c6.35,2.84,16.37,4.49,31.21,4.49ZM66.93,99.6h-52v2h52ZM361.8,4h1V3h-1Zm-148,0V3h-1V4Zm0,144h-1v1h1Zm148,0v1h1v-1Zm0-38h1v-1h-1Zm-98,0h-1v1h1Zm0-15V94h-1v1Zm94,0v1h1V95Zm0-38h1V56h-1Zm-94,0h-1v1h1Zm0-15V41h-1v1Zm98,0v1h1V42Zm0-39h-148V5h148Zm-149,1V148h2V4Zm1,145h148v-2h-148Zm149-1V110h-2v38Zm-1-39h-98v2h98Zm-97,1V95h-2v15Zm-1-14h94V94h-94Zm95-1V57h-2V95Zm-1-39h-94v2h94Zm-93,1V42h-2V57Zm-1-14h98V41h-98Zm99-1V4h-2V42ZM528.72,91.4l-.32-1,.26,2ZM383.92,4V3h-1V4Zm0,144h-1v1h1Zm50,0v1h1v-1Zm0-36.8v-1h-1v1Zm71.6,36.8h-1v1h1Zm50,0v1h1v-1ZM433.92,71.2h-1v1h1Zm0-27.2V43h-1v1Zm95.13,48.35c8.86-3.06,15.75-7.87,20.42-14.79s7-15.82,7-27h-2c0,10.86-2.32,19.35-6.7,25.84s-10.89,11.07-19.42,14ZM556.52,50.6c0-15.33-5-27.3-15.25-35.41S515.93,3,495.92,3V5c19.79,0,34.43,4.08,44.1,11.76s14.5,19,14.5,33.84ZM495.92,3h-112V5h112Zm-113,1V148h2V4Zm1,145h50v-2h-50Zm51-1V111.2h-2V148Zm-1-35.8h55.6v-2h-55.6Zm55.6,0c6.39,0,10,.92,12.08,3.09s2.92,5.91,2.92,12.31h2c0-6.4-.78-10.88-3.48-13.69s-7.11-3.71-13.52-3.71Zm15,15.4V148h2V127.6Zm1,21.4h50v-2h-50Zm51-1V119.2h-2V148Zm0-28.8c0-8.8-2.61-15.78-7.46-20.68s-11.8-7.61-20.28-8.12l-.12,2c8.13.49,14.57,3.07,19,7.53s6.88,10.87,6.88,19.27ZM483.92,45c2.81,0,5.39,0,7.7.21a17.05,17.05,0,0,1,5.86,1.39,7.67,7.67,0,0,1,3.66,3.59,16.42,16.42,0,0,1,1.38,7.41h2a18.51,18.51,0,0,0-1.59-8.31,9.74,9.74,0,0,0-4.57-4.49,18.71,18.71,0,0,0-6.56-1.58c-2.42-.22-5.09-.22-7.88-.22Zm18.6,12.6A16.42,16.42,0,0,1,501.14,65a7.67,7.67,0,0,1-3.66,3.59A17.05,17.05,0,0,1,491.62,70c-2.31.21-4.89.21-7.7.21v2c2.79,0,5.46,0,7.88-.22a18.71,18.71,0,0,0,6.56-1.58,9.74,9.74,0,0,0,4.57-4.49,18.51,18.51,0,0,0,1.59-8.31Zm-18.6,12.6h-50v2h50Zm-49,1V44h-2V71.2Zm-1-26.2h50V43h-50Zm230.34,68.6-.91.43.91,1.93.9-1.93ZM612.86,4l.9-.42L613.49,3h-.63Zm-53.2,0V3h-1.59l.68,1.43Zm69,144-.91.43.28.57h.63Zm71.2,0v1h.63l.27-.57Zm69-144,.9.43L770.44,3h-1.58Zm-53.2,0V3H715l-.27.58Zm-50.5,109.18L613.76,3.58,612,4.42,663.35,114ZM612.86,3h-53.2V5h53.2ZM558.75,4.43l69,144,1.81-.86-69-144ZM628.66,149h71.2v-2h-71.2Zm72.1-.57,69-144L768,3.57l-69,144ZM768.86,3h-53.2V5h53.2Zm-54.11.58-51.4,109.6,1.81.85L716.56,4.42ZM784.9,4V3h-1V4Zm0,144h-1v1h1Zm50,0v1h1v-1Zm0-144h1V3h-1Zm-51,0V148h2V4Zm1,145h50v-2h-50Zm51-1V4h-2V148Zm-1-145h-50V5h50Zm195.47,86.8,1,.1.12-1.1h-1.11Zm-53.2,0v-1h-.81l-.17.79Zm0-28-1,.21.17.79h.81Zm53.2,0v1h1.11l-.12-1.1ZM854,75.8c0,25.62,8.18,45,23.5,57.91S915,153,943,153v-2c-27.67,0-49.4-6.32-64.21-18.81S856,101,856,75.8ZM943,153c26.22,0,47.25-5.47,62.28-16.13s24-26.51,26.11-47l-2-.2c-2.07,19.94-10.74,35.22-25.28,45.53S968.94,151,943,151Zm87.4-64.2h-53.2v2h53.2Zm-54.18.79C974.31,98.42,964.62,109,943,109v2c22.34,0,33-11,35.18-21ZM943,109c-12.7,0-21.41-3.73-27-9.66s-8-14.21-8-23.54h-2c0,9.67,2.59,18.49,8.59,24.91S929.87,111,943,111ZM908,75.8c0-9.23,2.45-17.41,8-23.26S930.16,43,943,43V41c-13.2,0-22.49,3.81-28.48,10.16S906,66.23,906,75.8ZM943,43c21.67,0,31.35,10.4,33.22,19l2-.42C976,51.8,965.3,41,943,41Zm34.2,19.8h53.2v-2h-53.2Zm54.19-1.1c-2.12-20.37-11.11-36.09-26.19-46.69S969.09-1,943-1V1c25.87,0,46.45,5.38,61,15.64s23.28,25.43,25.35,45.26ZM943-1C915-1,892.77,5.33,877.48,18.16S854,50.27,854,75.8h2c0-25.07,8-43.71,22.79-56.11S915.3,1,943,1Zm255.36,5h1V3h-1Zm-148,0V3h-1V4Zm0,144h-1v1h1Zm148,0v1h1v-1Zm0-38h1v-1h-1Zm-98,0h-1v1h1Zm0-15V94h-1v1Zm94,0v1h1V95Zm0-38h1V56h-1Zm-94,0h-1v1h1Zm0-15V41h-1v1Zm98,0v1h1V42Zm0-39h-148V5h148Zm-149,1V148h2V4Zm1,145h148v-2h-148Zm149-1V110h-2v38Zm-1-39h-98v2h98Zm-97,1V95h-2v15Zm-1-14h94V94h-94Zm95-1V57h-2V95Zm-1-39h-94v2h94Zm-93,1V42h-2V57Zm-1-14h98V41h-98Zm99-1V4h-2V42Zm17.16,58.6v-1h-1l0,1.05Zm93.4-44.2-.09,1h0Zm27.4-7.4h-1v1h1Zm52,0v1h1.07l-.07-1.06Zm-87.4,44.6.08-1h0Zm-33.4,7h1v-1h-1Zm-53,.05c.51,9.55,3,17.64,7.48,24.39s10.78,12.11,18.84,16.25C1257.9,149.55,1281,153,1309.89,153v-2c-28.85,0-51.51-3.45-67.17-11.49-7.81-4-13.86-9.15-18.08-15.57s-6.66-14.14-7.15-23.39Zm94.4,52.35c26.73,0,48.29-2.95,63.18-10.59,7.47-3.82,13.29-8.85,17.24-15.28s6-14.23,6-23.53h-2c0,9-2,16.41-5.69,22.48s-9.23,10.86-16.44,14.55c-14.45,7.42-35.6,10.37-62.27,10.37Zm86.4-49.4c0-9.8-2.17-17.51-6.32-23.6s-10.19-10.48-17.78-13.74c-15.13-6.51-36.66-8.66-62.21-10.86l-.17,2c25.65,2.2,46.82,4.35,61.59,10.69,7.35,3.16,13,7.34,16.92,13s6,13,6,22.48ZM1310,55.4c-17.22-1.5-27-2.84-32.39-4.55-2.71-.86-4.2-1.76-5-2.7a4.72,4.72,0,0,1-1.07-3.35h-2a6.68,6.68,0,0,0,1.57,4.67c1.18,1.34,3.09,2.39,5.93,3.28,5.67,1.79,15.64,3.15,32.81,4.65Zm-38.49-10.6a4.36,4.36,0,0,1,.94-2.86,8.79,8.79,0,0,1,4-2.48c4.12-1.51,11.32-2.46,23.5-2.46V35c-12.21,0-19.72,1-24.19,2.59a10.72,10.72,0,0,0-4.83,3.1,6.34,6.34,0,0,0-1.38,4.11Zm28.4-7.8c12.69,0,21.9.9,27.91,2.92a15.2,15.2,0,0,1,6.48,3.76,7.5,7.5,0,0,1,2,5.32h2a9.51,9.51,0,0,0-2.53-6.67,17.18,17.18,0,0,0-7.33-4.3c-6.33-2.13-15.82-3-28.54-3Zm37.4,13h52V48h-52Zm53-1.06c-1-16.28-9.45-28.82-24.74-37.24S1328.27-1,1299.89-1V1c28.23,0,49.88,4.29,64.69,12.45s22.74,20.09,23.71,35.61ZM1299.89-1c-24.68,0-45.21,3.81-59.61,11.39s-22.79,19.06-22.79,34.21h2c0-14.25,7.77-25.1,21.72-32.44S1275.37,1,1299.89,1Zm-82.4,45.6c0,8.14,1.67,15.12,5.12,21.07s8.67,10.79,15.64,14.73c13.91,7.84,35,12.1,63.57,14.2l.14-2c-28.57-2.1-49.23-6.34-62.73-13.95-6.72-3.79-11.64-8.4-14.89-14s-4.85-12.2-4.85-20.06Zm84.33,50c18.44,1.4,28.67,2.45,34.29,4.09,2.8.81,4.29,1.73,5.1,2.76a6.3,6.3,0,0,1,1.08,4.15h2a8.22,8.22,0,0,0-1.51-5.39c-1.2-1.52-3.16-2.59-6.11-3.45-5.87-1.71-16.35-2.76-34.7-4.16Zm40.47,11a6,6,0,0,1-1,3.66,9.22,9.22,0,0,1-4.48,2.93c-4.82,1.75-13.51,2.81-28.91,2.81v2c15.4,0,24.41-1,29.59-2.94a11,11,0,0,0,5.42-3.63,7.94,7.94,0,0,0,1.39-4.83Zm-34.4,9.4c-14.76,0-24.44-1.65-30.39-4.31a15.19,15.19,0,0,1-6.21-4.57,9,9,0,0,1-1.8-5.52h-2a11,11,0,0,0,2.19,6.72,17.21,17.21,0,0,0,7,5.19c6.35,2.84,16.37,4.49,31.21,4.49Zm-39.4-15.4h-52v2h52Zm224.76,1v-1h-1.06l.06,1.05Zm93.4-44.2-.09,1h0Zm27.4-7.4h-1v1h1Zm52,0v1h1.06l-.06-1.06Zm-87.4,44.6.08-1h0Zm-33.4,7h1v-1h-1Zm-53,.05c.51,9.55,3,17.64,7.47,24.39s10.79,12.11,18.85,16.25c16.09,8.26,39.13,11.71,68.08,11.71v-2c-28.86,0-51.51-3.45-67.17-11.49-7.81-4-13.86-9.15-18.09-15.57s-6.65-14.14-7.14-23.39Zm94.4,52.35c26.73,0,48.28-2.95,63.18-10.59,7.47-3.82,13.29-8.85,17.24-15.28s6-14.23,6-23.53h-2c0,9-2,16.41-5.69,22.48s-9.24,10.86-16.44,14.55c-14.46,7.42-35.6,10.37-62.27,10.37Zm86.4-49.4c0-9.8-2.17-17.51-6.32-23.6s-10.19-10.48-17.79-13.74c-15.13-6.51-36.66-8.66-62.21-10.86l-.17,2c25.66,2.2,46.82,4.35,61.59,10.69,7.36,3.16,13.06,7.34,16.93,13s6,13,6,22.48Zm-86.31-48.2c-17.23-1.5-27-2.84-32.39-4.55-2.71-.86-4.2-1.76-5-2.7a4.72,4.72,0,0,1-1.07-3.35h-2a6.68,6.68,0,0,0,1.57,4.67c1.18,1.34,3.09,2.39,5.93,3.28,5.67,1.79,15.64,3.15,32.81,4.65Zm-38.49-10.6a4.36,4.36,0,0,1,.94-2.86,8.8,8.8,0,0,1,4-2.48c4.13-1.51,11.32-2.46,23.51-2.46V35c-12.21,0-19.72,1-24.19,2.59a10.61,10.61,0,0,0-4.83,3.1,6.34,6.34,0,0,0-1.38,4.11Zm28.4-7.8c12.69,0,21.9.9,27.91,2.92a15.26,15.26,0,0,1,6.48,3.76,7.54,7.54,0,0,1,2,5.32h2a9.51,9.51,0,0,0-2.54-6.67,17.08,17.08,0,0,0-7.32-4.3c-6.34-2.13-15.83-3-28.54-3Zm37.4,13h52V48h-52Zm53-1.06c-1-16.28-9.45-28.82-24.74-37.24S1605-1,1576.65-1V1c28.22,0,49.88,4.29,64.69,12.45s22.73,20.09,23.71,35.61ZM1576.65-1C1552-1,1531.44,2.81,1517,10.39s-22.78,19.06-22.78,34.21h2c0-14.25,7.76-25.1,21.72-32.44S1552.13,1,1576.65,1Zm-82.4,45.6c0,8.14,1.67,15.12,5.12,21.07S1508,76.46,1515,80.4c13.9,7.84,34.94,12.1,63.57,14.2l.14-2c-28.58-2.1-49.23-6.34-62.73-13.95-6.73-3.79-11.64-8.4-14.89-14s-4.85-12.2-4.85-20.06Zm84.32,50c18.45,1.4,28.67,2.45,34.3,4.09,2.8.81,4.29,1.73,5.1,2.76a6.3,6.3,0,0,1,1.08,4.15h2a8.27,8.27,0,0,0-1.51-5.39c-1.2-1.52-3.16-2.59-6.11-3.45-5.88-1.71-16.35-2.76-34.7-4.16Zm40.48,11a6,6,0,0,1-1,3.66,9.27,9.27,0,0,1-4.48,2.93c-4.82,1.75-13.51,2.81-28.91,2.81v2c15.4,0,24.41-1,29.59-2.94a11,11,0,0,0,5.42-3.63,7.94,7.94,0,0,0,1.39-4.83Zm-34.4,9.4c-14.76,0-24.44-1.65-30.39-4.31a15.19,15.19,0,0,1-6.21-4.57,9,9,0,0,1-1.8-5.52h-2a11,11,0,0,0,2.19,6.72,17.21,17.21,0,0,0,7,5.19c6.35,2.84,16.37,4.49,31.21,4.49Zm-39.4-15.4h-52v2h52ZM1840.12,4h1V3h-1Zm-148,0V3h-1V4Zm0,144h-1v1h1Zm148,0v1h1v-1Zm0-38h1v-1h-1Zm-98,0h-1v1h1Zm0-15V94h-1v1Zm94,0v1h1V95Zm0-38h1V56h-1Zm-94,0h-1v1h1Zm0-15V41h-1v1Zm98,0v1h1V42Zm0-39h-148V5h148Zm-149,1V148h2V4Zm1,145h148v-2h-148Zm149-1V110h-2v38Zm-1-39h-98v2h98Zm-97,1V95h-2v15Zm-1-14h94V94h-94Zm95-1V57h-2V95Zm-1-39h-94v2h94Zm-93,1V42h-2V57Zm-1-14h98V41h-98Zm99-1V4h-2V42ZM2007,91.4l-.33-1,.27,2ZM1862.24,4V3h-1V4Zm0,144h-1v1h1Zm50,0v1h1v-1Zm0-36.8v-1h-1v1Zm71.6,36.8h-1v1h1Zm50,0v1h1v-1Zm-121.6-76.8h-1v1h1Zm0-27.2V43h-1v1Zm95.12,48.35c8.86-3.06,15.76-7.87,20.43-14.79s7-15.82,7-27h-2c0,10.86-2.32,19.35-6.71,25.84s-10.88,11.07-19.42,14Zm27.48-41.75c0-15.33-5-27.3-15.26-35.41S1994.25,3,1974.24,3V5c19.78,0,34.42,4.08,44.1,11.76s14.5,19,14.5,33.84ZM1974.24,3h-112V5h112Zm-113,1V148h2V4Zm1,145h50v-2h-50Zm51-1V111.2h-2V148Zm-1-35.8h55.6v-2h-55.6Zm55.6,0c6.38,0,10,.92,12.08,3.09s2.92,5.91,2.92,12.31h2c0-6.4-.78-10.88-3.48-13.69s-7.11-3.71-13.52-3.71Zm15,15.4V148h2V127.6Zm1,21.4h50v-2h-50Zm51-1V119.2h-2V148Zm0-28.8c0-8.8-2.62-15.78-7.47-20.68s-11.8-7.61-20.27-8.12l-.12,2c8.12.49,14.56,3.07,19,7.53s6.89,10.87,6.89,19.27ZM1962.24,45c2.81,0,5.39,0,7.69.21a17.11,17.11,0,0,1,5.87,1.39,7.67,7.67,0,0,1,3.66,3.59,16.56,16.56,0,0,1,1.38,7.41h2a18.37,18.37,0,0,0-1.6-8.31,9.69,9.69,0,0,0-4.57-4.49,18.6,18.6,0,0,0-6.56-1.58c-2.41-.22-5.08-.22-7.87-.22Zm18.6,12.6a16.56,16.56,0,0,1-1.38,7.41,7.67,7.67,0,0,1-3.66,3.59,17.11,17.11,0,0,1-5.87,1.39c-2.3.21-4.88.21-7.69.21v2c2.79,0,5.46,0,7.87-.22a18.6,18.6,0,0,0,6.56-1.58,9.69,9.69,0,0,0,4.57-4.49,18.37,18.37,0,0,0,1.6-8.31Zm-18.6,12.6h-50v2h50Zm-49,1V44h-2V71.2Zm-1-26.2h50V43h-50Zm230.33,68.6-.9.43.9,1.93.91-1.93ZM2091.17,4l.91-.42-.27-.58h-.64ZM2038,4V3h-1.59l.69,1.43Zm69,144-.9.43.27.57h.63Zm71.2,0v1h.63l.27-.57Zm69-144,.9.43.69-1.43h-1.59ZM2194,4V3h-.63l-.27.58Zm-50.49,109.18-51.4-109.6-1.81.84L2141.67,114ZM2091.17,3H2038V5h53.2Zm-54.1,1.43,69,144,1.8-.86-69-144ZM2107,149h71.2v-2H2107Zm72.1-.57,69-144-1.8-.86-69,144ZM2247.17,3H2194V5h53.2Zm-54.1.58-51.4,109.6,1.81.85,51.4-109.61Zm70.14.42V3h-1V4Zm0,144h-1v1h1Zm50,0v1h1v-1Zm0-144h1V3h-1Zm-51,0V148h2V4Zm1,145h50v-2h-50Zm51-1V4h-2V148Zm-1-145h-50V5h50Zm195.47,86.8,1,.1.11-1.1h-1.11Zm-53.2,0v-1h-.81l-.16.79Zm0-28-1,.21.17.79h.8Zm53.2,0v1h1.11l-.11-1.1Zm-176.4,14c0,25.62,8.18,45,23.51,57.91S2393.35,153,2421.28,153v-2c-27.66,0-49.4-6.32-64.2-18.81s-22.8-31.21-22.8-56.39Zm89,77.2c26.23,0,47.26-5.47,62.28-16.13s24-26.51,26.12-47l-2-.2c-2.07,19.94-10.74,35.22-25.28,45.53S2447.26,151,2421.28,151Zm87.4-64.2h-53.2v2h53.2Zm-54.17.79c-1.88,8.83-11.57,19.41-33.23,19.41v2c22.35,0,33.06-11,35.18-21ZM2421.28,109c-12.7,0-21.4-3.73-26.94-9.66s-8.06-14.21-8.06-23.54h-2c0,9.67,2.6,18.49,8.6,24.91s15.3,10.29,28.4,10.29Zm-35-33.2c0-9.23,2.46-17.41,8-23.26s14.22-9.54,27-9.54V41c-13.19,0-22.49,3.81-28.47,10.16s-8.53,15.07-8.53,24.64Zm35-32.8c21.67,0,31.35,10.4,33.23,19l1.95-.42C2454.33,51.8,2443.61,41,2421.28,41Zm34.2,19.8h53.2v-2h-53.2Zm54.2-1.1c-2.13-20.37-11.11-36.09-26.2-46.69s-36.07-16-62.2-16V1c25.88,0,46.45,5.38,61,15.64s23.29,25.43,25.36,45.26ZM2421.28-1c-27.93,0-50.19,6.33-65.49,19.16s-23.51,32.11-23.51,57.64h2c0-25.07,8-43.71,22.8-56.11S2393.62,1,2421.28,1Zm255.36,5h1V3h-1Zm-148,0V3h-1V4Zm0,144h-1v1h1Zm148,0v1h1v-1Zm0-38h1v-1h-1Zm-98,0h-1v1h1Zm0-15V94h-1v1Zm94,0v1h1V95Zm0-38h1V56h-1Zm-94,0h-1v1h1Zm0-15V41h-1v1Zm98,0v1h1V42Zm0-39h-148V5h148Zm-149,1V148h2V4Zm1,145h148v-2h-148Zm149-1V110h-2v38Zm-1-39h-98v2h98Zm-97,1V95h-2v15Zm-1-14h94V94h-94Zm95-1V57h-2V95Zm-1-39h-94v2h94Zm-93,1V42h-2V57Zm-1-14h98V41h-98Zm99-1V4h-2V42Zm17.17,58.6v-1h-1.06l.06,1.05Zm93.4-44.2-.09,1h0Zm27.4-7.4h-1v1h1Zm52,0v1h1.06l-.06-1.06Zm-87.4,44.6.07-1h0Zm-33.4,7h1v-1h-1Zm-53,.05c.51,9.55,3,17.64,7.47,24.39s10.78,12.11,18.85,16.25c16.09,8.26,39.13,11.71,68.08,11.71v-2c-28.86,0-51.51-3.45-67.17-11.49-7.81-4-13.86-9.15-18.09-15.57s-6.65-14.14-7.14-23.39Zm94.4,52.35c26.73,0,48.28-2.95,63.18-10.59,7.47-3.82,13.29-8.85,17.24-15.28s6-14.23,6-23.53h-2c0,9-2,16.41-5.69,22.48s-9.24,10.86-16.44,14.55C2836,148.05,2814.87,151,2788.21,151Zm86.4-49.4c0-9.8-2.18-17.51-6.32-23.6s-10.19-10.48-17.79-13.74c-15.13-6.51-36.66-8.66-62.21-10.86l-.17,2c25.65,2.2,46.82,4.35,61.59,10.69,7.36,3.16,13.06,7.34,16.93,13s6,13,6,22.48Zm-86.32-48.2c-17.22-1.5-27-2.84-32.38-4.55-2.71-.86-4.21-1.76-5-2.7a4.72,4.72,0,0,1-1.07-3.35h-2a6.63,6.63,0,0,0,1.57,4.67c1.18,1.34,3.09,2.39,5.93,3.28,5.67,1.79,15.63,3.15,32.81,4.65Zm-38.48-10.6a4.36,4.36,0,0,1,.94-2.86,8.74,8.74,0,0,1,3.95-2.48C2758.82,38,2766,37,2778.21,37V35c-12.22,0-19.72,1-24.2,2.59a10.63,10.63,0,0,0-4.82,3.1,6.34,6.34,0,0,0-1.38,4.11Zm28.4-7.8c12.68,0,21.89.9,27.9,2.92a15.24,15.24,0,0,1,6.49,3.76,7.54,7.54,0,0,1,2,5.32h2a9.51,9.51,0,0,0-2.54-6.67,17.08,17.08,0,0,0-7.32-4.3c-6.34-2.13-15.83-3-28.54-3Zm37.4,13h52V48h-52Zm53-1.06c-1-16.28-9.45-28.82-24.75-37.24S2806.58-1,2778.21-1V1c28.22,0,49.88,4.29,64.69,12.45s22.73,20.09,23.71,35.61ZM2778.21-1c-24.68,0-45.22,3.81-59.62,11.39s-22.78,19.06-22.78,34.21h2c0-14.25,7.76-25.1,21.71-32.44S2753.69,1,2778.21,1Zm-82.4,45.6c0,8.14,1.66,15.12,5.12,21.07s8.66,10.79,15.64,14.73c13.9,7.84,34.94,12.1,63.56,14.2l.15-2c-28.58-2.1-49.24-6.34-62.73-13.95-6.73-3.79-11.65-8.4-14.89-14s-4.85-12.2-4.85-20.06Zm84.32,50c18.45,1.4,28.67,2.45,34.3,4.09,2.8.81,4.28,1.73,5.1,2.76a6.3,6.3,0,0,1,1.08,4.15h2a8.27,8.27,0,0,0-1.51-5.39c-1.2-1.52-3.16-2.59-6.11-3.45-5.88-1.71-16.35-2.76-34.71-4.16Zm40.48,11a6,6,0,0,1-1,3.66,9.26,9.26,0,0,1-4.49,2.93c-4.81,1.75-13.5,2.81-28.9,2.81v2c15.4,0,24.41-1,29.59-2.94a11,11,0,0,0,5.42-3.63,7.94,7.94,0,0,0,1.39-4.83Zm-34.4,9.4c-14.76,0-24.44-1.65-30.39-4.31a15.3,15.3,0,0,1-6.22-4.57,9,9,0,0,1-1.79-5.52h-2a11,11,0,0,0,2.19,6.72,17.14,17.14,0,0,0,7,5.19c6.34,2.84,16.36,4.49,31.21,4.49Zm-39.4-15.4h-52v2h52Zm224.75,1v-1h-1l.06,1.05Z" transform="translate(-13.87 1)"></path></svg>