<svg xmlns="http://www.w3.org/2000/svg" width="87" height="87" viewBox="0 0 87 87" fill="none"><circle cx="43.5" cy="43.5" r="43.5" fill="#FE2C55"></circle><g clip-path="url(#clip0_325_191)"><path d="M24 61.4377C24.142 60.5425 24.2242 59.6337 24.4364 58.7556C25.844 52.924 29.2966 48.7732 34.7625 46.2965C35.2169 46.0902 35.6422 46.1613 36.0768 46.3581C38.026 47.2405 40.0736 47.6555 42.212 47.5854C44.0371 47.5263 45.7903 47.1266 47.4512 46.3615C47.9552 46.1296 48.4215 46.121 48.9229 46.3572C54.8809 49.1729 58.3814 53.8243 59.3731 60.3448C59.469 60.9756 59.4579 61.6226 59.5366 62.2568C59.6435 63.116 59.2936 63.6791 58.5089 64.0001H25.0251C24.5493 63.793 24.1994 63.4592 24 62.9757C24 62.463 24 61.9504 24 61.4377Z" fill="white"></path><path d="M41.7737 44.8663C35.7421 44.8697 30.8263 39.9505 30.834 33.9178C30.8408 27.9039 35.7446 23.0034 41.7591 23C47.7933 22.9966 52.7065 27.9124 52.6988 33.9469C52.6911 39.9616 47.7873 44.8629 41.7728 44.8663H41.7737Z" fill="white"></path><path d="M59.5331 42.1338C60.9364 42.1338 62.273 42.1278 63.6095 42.1363C64.2632 42.1406 64.7621 42.5249 64.9435 43.1317C65.1103 43.6896 64.9075 44.3161 64.389 44.6165C64.1323 44.7654 63.8037 44.8501 63.506 44.8561C62.2002 44.881 60.8936 44.8673 59.5331 44.8673C59.5331 45.047 59.5331 45.1976 59.5331 45.3491C59.5331 46.5301 59.5383 47.7112 59.5314 48.8914C59.5263 49.7232 58.9419 50.3317 58.1675 50.3326C57.3922 50.3326 56.8061 49.7232 56.8018 48.8922C56.7959 47.5708 56.8001 46.2486 56.8001 44.8878C56.6435 44.8801 56.5066 44.8681 56.3706 44.8681C55.3181 44.8664 54.2648 44.8673 53.2123 44.8673C51.9785 44.8673 51.341 44.4068 51.335 43.5108C51.329 42.607 51.9665 42.1338 53.1901 42.1338C54.3709 42.1338 55.5509 42.1338 56.8001 42.1338C56.8001 41.9712 56.8001 41.8222 56.8001 41.6733C56.8001 40.5068 56.7976 39.3403 56.8001 38.173C56.8027 37.2752 57.3751 36.6573 58.1846 36.6676C58.9735 36.6779 59.5297 37.2932 59.5314 38.1696C59.5348 39.4756 59.5323 40.7807 59.5323 42.1338H59.5331Z" fill="white"></path></g><defs><clipPath id="clip0_325_191"><rect width="41" height="41" fill="white" transform="translate(24 23)"></rect></clipPath></defs></svg>