<svg width="537" height="99" viewBox="0 0 537 99" fill="none" xmlns="http://www.w3.org/2000/svg">
<path d="M58.68 83.28L17.64 11.64H0.120001L48.96 96H68.4L117.24 11.64H99.84L58.68 83.28ZM136.789 16.8H151.789V-1.43051e-06H136.789V16.8ZM136.789 96H151.789V26.04H136.789V96ZM218.662 85.32C198.622 85.32 186.982 79.32 185.422 64.8H265.822C265.822 33.6 244.462 23.64 217.342 23.64C190.462 23.64 169.102 35.64 169.102 61.08C169.102 86.52 189.742 98.4 218.542 98.4C243.622 98.4 260.422 88.92 264.742 72.84H248.542C244.822 80.28 236.662 85.32 218.662 85.32ZM217.342 36.48C234.862 36.48 245.542 41.4 248.662 52.56H186.382C189.862 41.28 200.902 36.48 217.342 36.48ZM390.575 85.8L361.895 26.04H342.815L314.135 85.8L287.015 26.04H271.055L302.615 96H325.415L352.415 40.32L379.295 96H402.095L433.655 26.04H417.575L390.575 85.8ZM438.984 72.24C440.064 94.56 464.424 98.4 492.144 98.4C519.384 98.4 536.664 93.72 536.664 75C536.664 56.16 517.704 55.92 490.344 53.52C462.744 51.12 458.544 49.8 458.544 44.64C458.544 39.72 464.304 36.24 486.144 36.24C508.344 36.24 516.984 38.04 518.064 46.32H534.264C532.704 27.48 513.144 23.64 487.824 23.64C462.384 23.64 442.344 28.32 442.344 45.6C442.344 61.68 457.944 63.96 487.584 66.12C516.504 68.28 520.464 69.24 520.464 75.72C520.464 82.56 516.384 85.68 490.944 85.68C465.144 85.68 456.264 81.84 455.184 72.24H438.984Z" fill="white"/>
</svg>
