<svg width="485" height="105" viewBox="0 0 485 105" fill="none" xmlns="http://www.w3.org/2000/svg">
<rect width="485" height="105" rx="52.5" fill="#FE2C55"/>
<path d="M134.67 41.91H119.58V63H134.67C140.25 63 145.02 59.64 145.02 52.47C145.02 45.27 140.25 41.91 134.67 41.91ZM123.42 59.58V45.33H132.72C138.15 45.33 140.91 46.65 140.91 52.47C140.91 58.26 138.15 59.58 132.72 59.58H123.42ZM158.868 63.6C166.098 63.6 171.168 60.57 171.168 54.27C171.168 47.94 166.098 44.91 158.868 44.91C151.608 44.91 146.538 47.94 146.538 54.27C146.538 60.57 151.608 63.6 158.868 63.6ZM158.868 60.3C153.468 60.3 150.588 58.32 150.588 54.27C150.588 50.19 153.468 48.21 158.868 48.21C164.238 48.21 167.118 50.19 167.118 54.27C167.118 58.32 164.238 60.3 158.868 60.3ZM200.396 60.45L193.226 45.51H188.456L181.286 60.45L174.506 45.51H170.516L178.406 63H184.106L190.856 49.08L197.576 63H203.276L211.166 45.51H207.146L200.396 60.45ZM226.562 44.91C221.642 44.91 218.372 46.56 216.152 49.41V45.51H212.402V63H216.152V56.04C216.152 50.79 220.142 48.27 225.572 48.27C231.182 48.27 232.982 50.64 232.982 55.11V63H236.732V54.27C236.642 47.46 232.712 44.91 226.562 44.91ZM239.69 63H243.44V39H239.69V63ZM258.148 63.6C265.378 63.6 270.448 60.57 270.448 54.27C270.448 47.94 265.378 44.91 258.148 44.91C250.888 44.91 245.818 47.94 245.818 54.27C245.818 60.57 250.888 63.6 258.148 63.6ZM258.148 60.3C252.748 60.3 249.868 58.32 249.868 54.27C249.868 50.19 252.748 48.21 258.148 48.21C263.518 48.21 266.398 50.19 266.398 54.27C266.398 58.32 263.518 60.3 258.148 60.3ZM284.146 44.91C280.126 44.91 276.736 45.57 273.076 46.71L274.456 49.68C278.416 48.39 281.356 48.15 283.786 48.15C286.276 48.15 291.646 48.57 291.736 52.83C288.826 51.99 285.556 51.42 282.226 51.42C276.496 51.42 271.606 52.98 271.606 57.57C271.606 61.65 274.426 63.57 279.916 63.57C284.566 63.57 288.256 62.31 291.736 60.84V63H295.486V54.06C295.426 47.19 291.556 44.91 284.146 44.91ZM281.056 60.33C277.816 60.33 275.656 59.88 275.656 57.57C275.656 55.41 278.386 54.57 282.466 54.57C286.306 54.57 289.276 55.23 291.736 55.95V57.84C288.466 59.07 283.966 60.33 281.056 60.33ZM318.103 48.54C316.333 46.23 313.183 44.91 308.713 44.91C302.473 44.91 297.553 47.91 297.553 54.27C297.553 60.6 302.473 63.6 308.713 63.6C313.183 63.6 316.333 62.28 318.103 59.97V63H321.853V39H318.103V48.54ZM309.733 60.27C304.363 60.27 301.603 57.96 301.603 54.27C301.603 50.58 304.363 48.27 309.733 48.27C315.073 48.27 318.103 50.58 318.103 54.27C318.103 57.96 315.073 60.27 309.733 60.27ZM349.247 44.91C344.327 44.91 341.057 46.56 338.837 49.41V45.51H335.087V63H338.837V56.04C338.837 50.79 342.827 48.27 348.257 48.27C353.867 48.27 355.667 50.64 355.667 55.11V63H359.417V54.27C359.327 47.46 355.397 44.91 349.247 44.91ZM373.789 63.6C381.019 63.6 386.089 60.57 386.089 54.27C386.089 47.94 381.019 44.91 373.789 44.91C366.529 44.91 361.459 47.94 361.459 54.27C361.459 60.57 366.529 63.6 373.789 63.6ZM373.789 60.3C368.389 60.3 365.509 58.32 365.509 54.27C365.509 50.19 368.389 48.21 373.789 48.21C379.159 48.21 382.039 50.19 382.039 54.27C382.039 58.32 379.159 60.3 373.789 60.3ZM415.317 60.45L408.147 45.51H403.377L396.207 60.45L389.427 45.51H385.437L393.327 63H399.027L405.777 49.08L412.497 63H418.197L426.087 45.51H422.067L415.317 60.45ZM428.963 42L429.023 56.85H432.803L432.833 42H428.963ZM429.023 63H432.803V59.7H429.023V63Z" fill="white"/>
<path d="M117 64.8H435.413V67.29H117V64.8Z" fill="white"/>
<ellipse cx="53.5" cy="53" rx="36.5" ry="36" fill="black"/>
<path d="M40.5623 62.8032C39.586 63.7795 39.586 65.3624 40.5623 66.3388C41.5386 67.3151 43.1215 67.3151 44.0978 66.3388L40.5623 62.8032ZM67.0712 42.3299C67.0712 40.9491 65.9519 39.8299 64.5712 39.8299L42.0712 39.8299C40.6905 39.8299 39.5712 40.9491 39.5712 42.3299C39.5712 43.7106 40.6905 44.8299 42.0712 44.8299H62.0712V64.8299C62.0712 66.2106 63.1905 67.3299 64.5712 67.3299C65.9519 67.3299 67.0712 66.2106 67.0712 64.8299L67.0712 42.3299ZM44.0978 66.3388L66.339 44.0976L62.8034 40.5621L40.5623 62.8032L44.0978 66.3388Z" fill="white"/>
</svg>
