<svg xmlns="http://www.w3.org/2000/svg" width="299" height="45" viewBox="0 0 299 45" fill="none"><path d="M0.0582969 1.256H8.6083V3.848H2.8663V6.44H8.1763V9.032H2.8663V14H0.0582969V1.256ZM10.3142 5.252H13.0142V14H10.3142V5.252ZM10.0982 2.498C10.0982 2.066 10.2482 1.7 10.5482 1.4C10.8602 1.088 11.2322 0.932 11.6642 0.932C12.0962 0.932 12.4622 1.088 12.7622 1.4C13.0742 1.7 13.2302 2.066 13.2302 2.498C13.2302 2.93 13.0742 3.302 12.7622 3.614C12.4622 3.914 12.0962 4.064 11.6642 4.064C11.2322 4.064 10.8602 3.914 10.5482 3.614C10.2482 3.302 10.0982 2.93 10.0982 2.498ZM14.99 0.391999H17.69V14H14.99V0.391999ZM19.6658 0.391999H22.3658V14H19.6658V0.391999ZM35.5897 7.412H33.2137V10.328C33.2137 10.568 33.2257 10.79 33.2497 10.994C33.2737 11.186 33.3277 11.354 33.4117 11.498C33.4957 11.642 33.6217 11.756 33.7897 11.84C33.9697 11.912 34.2037 11.948 34.4917 11.948C34.6357 11.948 34.8217 11.936 35.0497 11.912C35.2897 11.876 35.4697 11.804 35.5897 11.696V13.946C35.2897 14.054 34.9777 14.126 34.6537 14.162C34.3297 14.198 34.0117 14.216 33.6997 14.216C33.2437 14.216 32.8237 14.168 32.4397 14.072C32.0557 13.976 31.7197 13.826 31.4317 13.622C31.1437 13.406 30.9157 13.13 30.7477 12.794C30.5917 12.458 30.5137 12.05 30.5137 11.57V7.412H28.7857V5.252H30.5137V2.66H33.2137V5.252H35.5897V7.412ZM39.6618 0.391999V6.44H39.6978C39.7578 6.272 39.8598 6.104 40.0038 5.936C40.1478 5.768 40.3218 5.618 40.5258 5.486C40.7298 5.354 40.9698 5.246 41.2458 5.162C41.5218 5.078 41.8218 5.036 42.1458 5.036C42.8298 5.036 43.3818 5.144 43.8018 5.36C44.2218 5.564 44.5458 5.852 44.7738 6.224C45.0138 6.596 45.1758 7.034 45.2598 7.538C45.3438 8.042 45.3858 8.588 45.3858 9.176V14H42.6858V9.716C42.6858 9.464 42.6738 9.206 42.6498 8.942C42.6378 8.666 42.5838 8.414 42.4878 8.186C42.4038 7.958 42.2658 7.772 42.0738 7.628C41.8938 7.484 41.6298 7.412 41.2818 7.412C40.9338 7.412 40.6518 7.478 40.4358 7.61C40.2198 7.73 40.0518 7.898 39.9318 8.114C39.8238 8.318 39.7518 8.552 39.7158 8.816C39.6798 9.08 39.6618 9.356 39.6618 9.644V14H36.9618V0.391999H39.6618ZM47.3338 5.252H50.0338V14H47.3338V5.252ZM47.1178 2.498C47.1178 2.066 47.2678 1.7 47.5678 1.4C47.8798 1.088 48.2518 0.932 48.6838 0.932C49.1158 0.932 49.4818 1.088 49.7818 1.4C50.0938 1.7 50.2498 2.066 50.2498 2.498C50.2498 2.93 50.0938 3.302 49.7818 3.614C49.4818 3.914 49.1158 4.064 48.6838 4.064C48.2518 4.064 47.8798 3.914 47.5678 3.614C47.2678 3.302 47.1178 2.93 47.1178 2.498ZM56.9235 7.826C56.5275 7.334 56.0055 7.088 55.3575 7.088C55.1295 7.088 54.9075 7.142 54.6915 7.25C54.4755 7.358 54.3675 7.544 54.3675 7.808C54.3675 8.024 54.4755 8.186 54.6915 8.294C54.9195 8.39 55.2015 8.48 55.5375 8.564C55.8855 8.636 56.2515 8.72 56.6355 8.816C57.0315 8.9 57.3975 9.038 57.7335 9.23C58.0815 9.422 58.3635 9.686 58.5795 10.022C58.8075 10.346 58.9215 10.784 58.9215 11.336C58.9215 11.9 58.7955 12.368 58.5435 12.74C58.3035 13.1 57.9915 13.394 57.6075 13.622C57.2235 13.838 56.7915 13.988 56.3115 14.072C55.8315 14.168 55.3575 14.216 54.8895 14.216C54.2775 14.216 53.6595 14.132 53.0355 13.964C52.4115 13.784 51.8835 13.472 51.4515 13.028L53.0895 11.21C53.3415 11.522 53.6175 11.762 53.9175 11.93C54.2295 12.086 54.5895 12.164 54.9975 12.164C55.3095 12.164 55.5915 12.122 55.8435 12.038C56.0955 11.942 56.2215 11.774 56.2215 11.534C56.2215 11.306 56.1075 11.138 55.8795 11.03C55.6635 10.91 55.3815 10.814 55.0335 10.742C54.6975 10.658 54.3315 10.574 53.9355 10.49C53.5515 10.394 53.1855 10.256 52.8375 10.076C52.5015 9.896 52.2195 9.644 51.9915 9.32C51.7755 8.984 51.6675 8.54 51.6675 7.988C51.6675 7.472 51.7695 7.028 51.9735 6.656C52.1895 6.284 52.4655 5.978 52.8015 5.738C53.1495 5.498 53.5455 5.324 53.9895 5.216C54.4335 5.096 54.8835 5.036 55.3395 5.036C55.9155 5.036 56.4975 5.12 57.0855 5.288C57.6735 5.456 58.1715 5.756 58.5795 6.188L56.9235 7.826ZM66.5677 7.412H64.7857V5.252H66.5677V3.704C66.5677 3.224 66.6097 2.774 66.6937 2.354C66.7777 1.922 66.9397 1.544 67.1797 1.22C67.4197 0.895999 67.7617 0.643999 68.2057 0.463999C68.6617 0.272 69.2557 0.176 69.9877 0.176C70.2637 0.176 70.5337 0.188 70.7977 0.211999C71.0617 0.235999 71.3197 0.277999 71.5717 0.337999L71.4457 2.624C71.2897 2.564 71.1457 2.522 71.0137 2.498C70.8817 2.462 70.7317 2.444 70.5637 2.444C70.1317 2.444 69.8077 2.54 69.5917 2.732C69.3757 2.912 69.2677 3.29 69.2677 3.866V5.252H71.2657V7.412H69.2677V14H66.5677V7.412ZM71.9698 9.626C71.9698 8.93 72.0958 8.3 72.3478 7.736C72.5998 7.172 72.9418 6.692 73.3738 6.296C73.8178 5.888 74.3338 5.576 74.9218 5.36C75.5218 5.144 76.1578 5.036 76.8298 5.036C77.5018 5.036 78.1318 5.144 78.7198 5.36C79.3198 5.576 79.8358 5.888 80.2678 6.296C80.7118 6.692 81.0598 7.172 81.3118 7.736C81.5638 8.3 81.6898 8.93 81.6898 9.626C81.6898 10.322 81.5638 10.952 81.3118 11.516C81.0598 12.08 80.7118 12.566 80.2678 12.974C79.8358 13.37 79.3198 13.676 78.7198 13.892C78.1318 14.108 77.5018 14.216 76.8298 14.216C76.1578 14.216 75.5218 14.108 74.9218 13.892C74.3338 13.676 73.8178 13.37 73.3738 12.974C72.9418 12.566 72.5998 12.08 72.3478 11.516C72.0958 10.952 71.9698 10.322 71.9698 9.626ZM74.6698 9.626C74.6698 10.286 74.8558 10.82 75.2278 11.228C75.6118 11.636 76.1458 11.84 76.8298 11.84C77.5138 11.84 78.0418 11.636 78.4138 11.228C78.7978 10.82 78.9898 10.286 78.9898 9.626C78.9898 8.966 78.7978 8.432 78.4138 8.024C78.0418 7.616 77.5138 7.412 76.8298 7.412C76.1458 7.412 75.6118 7.616 75.2278 8.024C74.8558 8.432 74.6698 8.966 74.6698 9.626ZM83.2802 5.252H85.9802V6.656H86.0162C86.3042 6.116 86.6462 5.714 87.0422 5.45C87.4382 5.174 87.9362 5.036 88.5362 5.036C88.6922 5.036 88.8482 5.042 89.0042 5.054C89.1602 5.066 89.3042 5.09 89.4362 5.126V7.592C89.2442 7.532 89.0522 7.49 88.8602 7.466C88.6802 7.43 88.4882 7.412 88.2842 7.412C87.7682 7.412 87.3602 7.484 87.0602 7.628C86.7602 7.772 86.5262 7.976 86.3582 8.24C86.2022 8.492 86.1002 8.798 86.0522 9.158C86.0042 9.518 85.9802 9.914 85.9802 10.346V14H83.2802V5.252ZM90.9267 5.252H93.5187V6.44H93.5547C93.6387 6.272 93.7587 6.104 93.9147 5.936C94.0707 5.768 94.2567 5.618 94.4727 5.486C94.6887 5.354 94.9347 5.246 95.2107 5.162C95.4867 5.078 95.7867 5.036 96.1107 5.036C96.7227 5.036 97.2627 5.162 97.7307 5.414C98.2107 5.666 98.5707 6.062 98.8107 6.602C99.1227 6.038 99.5007 5.636 99.9447 5.396C100.389 5.156 100.935 5.036 101.583 5.036C102.171 5.036 102.663 5.138 103.059 5.342C103.467 5.534 103.785 5.804 104.013 6.152C104.253 6.488 104.421 6.89 104.517 7.358C104.625 7.814 104.679 8.306 104.679 8.834V14H101.979V8.906C101.979 8.498 101.889 8.15 101.709 7.862C101.541 7.562 101.235 7.412 100.791 7.412C100.479 7.412 100.215 7.466 99.9987 7.574C99.7947 7.67 99.6267 7.808 99.4947 7.988C99.3747 8.168 99.2847 8.378 99.2247 8.618C99.1767 8.858 99.1527 9.11 99.1527 9.374V14H96.4527V9.374C96.4527 9.218 96.4467 9.026 96.4347 8.798C96.4227 8.57 96.3807 8.354 96.3087 8.15C96.2367 7.946 96.1167 7.772 95.9487 7.628C95.7927 7.484 95.5587 7.412 95.2467 7.412C94.8987 7.412 94.6167 7.478 94.4007 7.61C94.1847 7.73 94.0167 7.898 93.8967 8.114C93.7887 8.318 93.7167 8.552 93.6807 8.816C93.6447 9.08 93.6267 9.356 93.6267 9.644V14H90.9267V5.252ZM111.869 6.656C112.301 6.212 112.811 5.888 113.399 5.684C113.999 5.468 114.605 5.36 115.217 5.36C116.465 5.36 117.365 5.654 117.917 6.242C118.469 6.83 118.745 7.724 118.745 8.924V12.542C118.745 12.782 118.757 13.034 118.781 13.298C118.805 13.55 118.835 13.784 118.871 14H117.521C117.473 13.808 117.443 13.598 117.431 13.37C117.431 13.13 117.431 12.92 117.431 12.74H117.395C117.119 13.172 116.747 13.526 116.279 13.802C115.823 14.078 115.271 14.216 114.623 14.216C114.191 14.216 113.783 14.162 113.399 14.054C113.027 13.946 112.697 13.79 112.409 13.586C112.133 13.37 111.911 13.106 111.743 12.794C111.575 12.482 111.491 12.122 111.491 11.714C111.491 11.018 111.671 10.472 112.031 10.076C112.391 9.68 112.835 9.386 113.363 9.194C113.903 9.002 114.479 8.882 115.091 8.834C115.715 8.786 116.285 8.762 116.801 8.762H117.341V8.51C117.341 7.898 117.155 7.436 116.783 7.124C116.423 6.812 115.913 6.656 115.253 6.656C114.797 6.656 114.347 6.734 113.903 6.89C113.471 7.034 113.087 7.262 112.751 7.574L111.869 6.656ZM115.937 9.95C115.037 9.95 114.323 10.076 113.795 10.328C113.267 10.58 113.003 10.994 113.003 11.57C113.003 12.098 113.177 12.476 113.525 12.704C113.885 12.92 114.329 13.028 114.857 13.028C115.265 13.028 115.619 12.962 115.919 12.83C116.231 12.686 116.489 12.5 116.693 12.272C116.897 12.044 117.053 11.78 117.161 11.48C117.269 11.168 117.329 10.838 117.341 10.49V9.95H115.937ZM121.311 7.574C121.311 7.19 121.299 6.83 121.275 6.494C121.251 6.158 121.239 5.852 121.239 5.576H122.571C122.571 5.804 122.577 6.032 122.589 6.26C122.601 6.488 122.607 6.722 122.607 6.962H122.643C122.739 6.758 122.871 6.56 123.039 6.368C123.219 6.176 123.429 6.008 123.669 5.864C123.909 5.708 124.179 5.588 124.479 5.504C124.779 5.408 125.103 5.36 125.451 5.36C126.003 5.36 126.477 5.444 126.873 5.612C127.281 5.78 127.617 6.014 127.881 6.314C128.145 6.614 128.337 6.98 128.457 7.412C128.589 7.832 128.655 8.294 128.655 8.798V14H127.251V8.942C127.251 8.234 127.095 7.676 126.783 7.268C126.471 6.86 125.985 6.656 125.325 6.656C124.869 6.656 124.473 6.734 124.137 6.89C123.813 7.046 123.543 7.268 123.327 7.556C123.123 7.844 122.967 8.186 122.859 8.582C122.763 8.978 122.715 9.416 122.715 9.896V14H121.311V7.574ZM138.314 12.506H138.278C138.014 12.986 137.594 13.394 137.018 13.73C136.454 14.054 135.794 14.216 135.038 14.216C134.45 14.216 133.898 14.108 133.382 13.892C132.866 13.664 132.416 13.352 132.032 12.956C131.66 12.56 131.366 12.092 131.15 11.552C130.934 11.012 130.826 10.424 130.826 9.788C130.826 9.152 130.934 8.564 131.15 8.024C131.366 7.484 131.666 7.016 132.05 6.62C132.434 6.224 132.896 5.918 133.436 5.702C133.988 5.474 134.594 5.36 135.254 5.36C135.866 5.36 136.424 5.486 136.928 5.738C137.444 5.99 137.894 6.344 138.278 6.8H138.314V0.391999H139.718V14H138.314V12.506ZM138.314 9.788C138.314 9.344 138.242 8.936 138.098 8.564C137.966 8.18 137.768 7.85 137.504 7.574C137.24 7.286 136.922 7.064 136.55 6.908C136.19 6.74 135.782 6.656 135.326 6.656C134.87 6.656 134.456 6.74 134.084 6.908C133.724 7.064 133.412 7.286 133.148 7.574C132.884 7.85 132.68 8.18 132.536 8.564C132.404 8.936 132.338 9.344 132.338 9.788C132.338 10.232 132.404 10.646 132.536 11.03C132.68 11.402 132.884 11.732 133.148 12.02C133.412 12.296 133.724 12.518 134.084 12.686C134.456 12.842 134.87 12.92 135.326 12.92C135.782 12.92 136.19 12.842 136.55 12.686C136.922 12.518 137.24 12.296 137.504 12.02C137.768 11.732 137.966 11.402 138.098 11.03C138.242 10.646 138.314 10.232 138.314 9.788ZM147.452 0.391999H148.856V14H147.452V0.391999ZM159.174 12.47C158.67 13.118 158.118 13.574 157.518 13.838C156.918 14.09 156.222 14.216 155.43 14.216C154.77 14.216 154.176 14.102 153.648 13.874C153.12 13.634 152.67 13.316 152.298 12.92C151.938 12.524 151.656 12.056 151.452 11.516C151.26 10.976 151.164 10.4 151.164 9.788C151.164 9.14 151.272 8.546 151.488 8.006C151.704 7.454 152.004 6.986 152.388 6.602C152.772 6.206 153.228 5.9 153.756 5.684C154.284 5.468 154.86 5.36 155.484 5.36C156.072 5.36 156.612 5.462 157.104 5.666C157.596 5.858 158.016 6.146 158.364 6.53C158.724 6.902 159 7.364 159.192 7.916C159.384 8.456 159.48 9.074 159.48 9.77V10.22H152.676C152.7 10.58 152.784 10.928 152.928 11.264C153.084 11.588 153.282 11.876 153.522 12.128C153.762 12.368 154.044 12.56 154.368 12.704C154.692 12.848 155.046 12.92 155.43 12.92C156.042 12.92 156.558 12.812 156.978 12.596C157.398 12.38 157.776 12.062 158.112 11.642L159.174 12.47ZM157.968 9.032C157.944 8.312 157.71 7.736 157.266 7.304C156.822 6.872 156.21 6.656 155.43 6.656C154.65 6.656 154.02 6.872 153.54 7.304C153.06 7.736 152.772 8.312 152.676 9.032H157.968ZM161.544 6.656C161.976 6.212 162.486 5.888 163.074 5.684C163.674 5.468 164.28 5.36 164.892 5.36C166.14 5.36 167.04 5.654 167.592 6.242C168.144 6.83 168.42 7.724 168.42 8.924V12.542C168.42 12.782 168.432 13.034 168.456 13.298C168.48 13.55 168.51 13.784 168.546 14H167.196C167.148 13.808 167.118 13.598 167.106 13.37C167.106 13.13 167.106 12.92 167.106 12.74H167.07C166.794 13.172 166.422 13.526 165.954 13.802C165.498 14.078 164.946 14.216 164.298 14.216C163.866 14.216 163.458 14.162 163.074 14.054C162.702 13.946 162.372 13.79 162.084 13.586C161.808 13.37 161.586 13.106 161.418 12.794C161.25 12.482 161.166 12.122 161.166 11.714C161.166 11.018 161.346 10.472 161.706 10.076C162.066 9.68 162.51 9.386 163.038 9.194C163.578 9.002 164.154 8.882 164.766 8.834C165.39 8.786 165.96 8.762 166.476 8.762H167.016V8.51C167.016 7.898 166.83 7.436 166.458 7.124C166.098 6.812 165.588 6.656 164.928 6.656C164.472 6.656 164.022 6.734 163.578 6.89C163.146 7.034 162.762 7.262 162.426 7.574L161.544 6.656ZM165.612 9.95C164.712 9.95 163.998 10.076 163.47 10.328C162.942 10.58 162.678 10.994 162.678 11.57C162.678 12.098 162.852 12.476 163.2 12.704C163.56 12.92 164.004 13.028 164.532 13.028C164.94 13.028 165.294 12.962 165.594 12.83C165.906 12.686 166.164 12.5 166.368 12.272C166.572 12.044 166.728 11.78 166.836 11.48C166.944 11.168 167.004 10.838 167.016 10.49V9.95H165.612ZM170.986 7.574C170.986 7.19 170.974 6.83 170.95 6.494C170.926 6.158 170.914 5.852 170.914 5.576H172.246C172.246 5.804 172.252 6.032 172.264 6.26C172.276 6.488 172.282 6.722 172.282 6.962H172.318C172.414 6.758 172.546 6.56 172.714 6.368C172.894 6.176 173.104 6.008 173.344 5.864C173.584 5.708 173.854 5.588 174.154 5.504C174.454 5.408 174.778 5.36 175.126 5.36C175.222 5.36 175.318 5.366 175.414 5.378C175.51 5.39 175.606 5.414 175.702 5.45L175.612 6.872C175.372 6.8 175.12 6.764 174.856 6.764C173.992 6.764 173.362 7.046 172.966 7.61C172.582 8.162 172.39 8.924 172.39 9.896V14H170.986V7.574ZM177.314 7.574C177.314 7.19 177.302 6.83 177.278 6.494C177.254 6.158 177.242 5.852 177.242 5.576H178.574C178.574 5.804 178.58 6.032 178.592 6.26C178.604 6.488 178.61 6.722 178.61 6.962H178.646C178.742 6.758 178.874 6.56 179.042 6.368C179.222 6.176 179.432 6.008 179.672 5.864C179.912 5.708 180.182 5.588 180.482 5.504C180.782 5.408 181.106 5.36 181.454 5.36C182.006 5.36 182.48 5.444 182.876 5.612C183.284 5.78 183.62 6.014 183.884 6.314C184.148 6.614 184.34 6.98 184.46 7.412C184.592 7.832 184.658 8.294 184.658 8.798V14H183.254V8.942C183.254 8.234 183.098 7.676 182.786 7.268C182.474 6.86 181.988 6.656 181.328 6.656C180.872 6.656 180.476 6.734 180.14 6.89C179.816 7.046 179.546 7.268 179.33 7.556C179.126 7.844 178.97 8.186 178.862 8.582C178.766 8.978 178.718 9.416 178.718 9.896V14H177.314V7.574ZM192.326 7.574C192.326 7.19 192.314 6.83 192.29 6.494C192.266 6.158 192.254 5.852 192.254 5.576H193.586C193.586 5.804 193.592 6.032 193.604 6.26C193.616 6.488 193.622 6.722 193.622 6.962H193.658C193.754 6.758 193.886 6.56 194.054 6.368C194.234 6.176 194.444 6.008 194.684 5.864C194.924 5.708 195.194 5.588 195.494 5.504C195.794 5.408 196.118 5.36 196.466 5.36C196.922 5.36 197.3 5.42 197.6 5.54C197.912 5.648 198.17 5.786 198.374 5.954C198.578 6.11 198.734 6.284 198.842 6.476C198.962 6.656 199.058 6.818 199.13 6.962C199.442 6.458 199.802 6.068 200.21 5.792C200.618 5.504 201.146 5.36 201.794 5.36C202.394 5.36 202.898 5.444 203.306 5.612C203.714 5.768 204.044 6.002 204.296 6.314C204.548 6.614 204.728 6.986 204.836 7.43C204.944 7.862 204.998 8.348 204.998 8.888V14H203.594V8.96C203.594 8.672 203.564 8.39 203.504 8.114C203.444 7.838 203.336 7.592 203.18 7.376C203.024 7.16 202.814 6.986 202.55 6.854C202.286 6.722 201.95 6.656 201.542 6.656C201.242 6.656 200.96 6.716 200.696 6.836C200.432 6.956 200.198 7.124 199.994 7.34C199.802 7.556 199.646 7.82 199.526 8.132C199.418 8.432 199.364 8.768 199.364 9.14V14H197.96V9.23C197.96 8.294 197.834 7.634 197.582 7.25C197.33 6.854 196.916 6.656 196.34 6.656C195.884 6.656 195.488 6.734 195.152 6.89C194.828 7.046 194.558 7.268 194.342 7.556C194.138 7.844 193.982 8.186 193.874 8.582C193.778 8.978 193.73 9.416 193.73 9.896V14H192.326V7.574ZM207.168 9.788C207.168 9.128 207.282 8.528 207.51 7.988C207.738 7.448 208.05 6.986 208.446 6.602C208.842 6.206 209.316 5.9 209.868 5.684C210.42 5.468 211.02 5.36 211.668 5.36C212.316 5.36 212.916 5.468 213.468 5.684C214.02 5.9 214.494 6.206 214.89 6.602C215.286 6.986 215.598 7.448 215.826 7.988C216.054 8.528 216.168 9.128 216.168 9.788C216.168 10.448 216.054 11.048 215.826 11.588C215.598 12.128 215.286 12.596 214.89 12.992C214.494 13.376 214.02 13.676 213.468 13.892C212.916 14.108 212.316 14.216 211.668 14.216C211.02 14.216 210.42 14.108 209.868 13.892C209.316 13.676 208.842 13.376 208.446 12.992C208.05 12.596 207.738 12.128 207.51 11.588C207.282 11.048 207.168 10.448 207.168 9.788ZM208.68 9.788C208.68 10.232 208.746 10.646 208.878 11.03C209.022 11.402 209.226 11.732 209.49 12.02C209.754 12.296 210.066 12.518 210.426 12.686C210.798 12.842 211.212 12.92 211.668 12.92C212.124 12.92 212.532 12.842 212.892 12.686C213.264 12.518 213.582 12.296 213.846 12.02C214.11 11.732 214.308 11.402 214.44 11.03C214.584 10.646 214.656 10.232 214.656 9.788C214.656 9.344 214.584 8.936 214.44 8.564C214.308 8.18 214.11 7.85 213.846 7.574C213.582 7.286 213.264 7.064 212.892 6.908C212.532 6.74 212.124 6.656 211.668 6.656C211.212 6.656 210.798 6.74 210.426 6.908C210.066 7.064 209.754 7.286 209.49 7.574C209.226 7.85 209.022 8.18 208.878 8.564C208.746 8.936 208.68 9.344 208.68 9.788ZM218.342 7.574C218.342 7.19 218.33 6.83 218.306 6.494C218.282 6.158 218.27 5.852 218.27 5.576H219.602C219.602 5.804 219.608 6.032 219.62 6.26C219.632 6.488 219.638 6.722 219.638 6.962H219.674C219.77 6.758 219.902 6.56 220.07 6.368C220.25 6.176 220.46 6.008 220.7 5.864C220.94 5.708 221.21 5.588 221.51 5.504C221.81 5.408 222.134 5.36 222.482 5.36C222.578 5.36 222.674 5.366 222.77 5.378C222.866 5.39 222.962 5.414 223.058 5.45L222.968 6.872C222.728 6.8 222.476 6.764 222.212 6.764C221.348 6.764 220.718 7.046 220.322 7.61C219.938 8.162 219.746 8.924 219.746 9.896V14H218.342V7.574ZM231.877 12.47C231.373 13.118 230.821 13.574 230.221 13.838C229.621 14.09 228.925 14.216 228.133 14.216C227.473 14.216 226.879 14.102 226.351 13.874C225.823 13.634 225.373 13.316 225.001 12.92C224.641 12.524 224.359 12.056 224.155 11.516C223.963 10.976 223.867 10.4 223.867 9.788C223.867 9.14 223.975 8.546 224.191 8.006C224.407 7.454 224.707 6.986 225.091 6.602C225.475 6.206 225.931 5.9 226.459 5.684C226.987 5.468 227.563 5.36 228.187 5.36C228.775 5.36 229.315 5.462 229.807 5.666C230.299 5.858 230.719 6.146 231.067 6.53C231.427 6.902 231.703 7.364 231.895 7.916C232.087 8.456 232.183 9.074 232.183 9.77V10.22H225.379C225.403 10.58 225.487 10.928 225.631 11.264C225.787 11.588 225.985 11.876 226.225 12.128C226.465 12.368 226.747 12.56 227.071 12.704C227.395 12.848 227.749 12.92 228.133 12.92C228.745 12.92 229.261 12.812 229.681 12.596C230.101 12.38 230.479 12.062 230.815 11.642L231.877 12.47ZM230.671 9.032C230.647 8.312 230.413 7.736 229.969 7.304C229.525 6.872 228.913 6.656 228.133 6.656C227.353 6.656 226.723 6.872 226.243 7.304C225.763 7.736 225.475 8.312 225.379 9.032H230.671ZM239.491 5.576H240.895V14H239.491V5.576ZM239.167 2.282C239.167 2.006 239.263 1.766 239.455 1.562C239.659 1.358 239.905 1.256 240.193 1.256C240.481 1.256 240.721 1.358 240.913 1.562C241.117 1.766 241.219 2.006 241.219 2.282C241.219 2.582 241.123 2.828 240.931 3.02C240.739 3.212 240.493 3.308 240.193 3.308C239.893 3.308 239.647 3.212 239.455 3.02C239.263 2.828 239.167 2.582 239.167 2.282ZM243.689 7.574C243.689 7.19 243.677 6.83 243.653 6.494C243.629 6.158 243.617 5.852 243.617 5.576H244.949C244.949 5.804 244.955 6.032 244.967 6.26C244.979 6.488 244.985 6.722 244.985 6.962H245.021C245.117 6.758 245.249 6.56 245.417 6.368C245.597 6.176 245.807 6.008 246.047 5.864C246.287 5.708 246.557 5.588 246.857 5.504C247.157 5.408 247.481 5.36 247.829 5.36C248.381 5.36 248.855 5.444 249.251 5.612C249.659 5.78 249.995 6.014 250.259 6.314C250.523 6.614 250.715 6.98 250.835 7.412C250.967 7.832 251.033 8.294 251.033 8.798V14H249.629V8.942C249.629 8.234 249.473 7.676 249.161 7.268C248.849 6.86 248.363 6.656 247.703 6.656C247.247 6.656 246.851 6.734 246.515 6.89C246.191 7.046 245.921 7.268 245.705 7.556C245.501 7.844 245.345 8.186 245.237 8.582C245.141 8.978 245.093 9.416 245.093 9.896V14H243.689V7.574ZM253.871 11.786C254.147 12.134 254.447 12.41 254.771 12.614C255.107 12.818 255.527 12.92 256.031 12.92C256.247 12.92 256.463 12.896 256.679 12.848C256.907 12.8 257.111 12.722 257.291 12.614C257.471 12.506 257.615 12.374 257.723 12.218C257.831 12.05 257.885 11.852 257.885 11.624C257.885 11.396 257.831 11.21 257.723 11.066C257.627 10.922 257.495 10.802 257.327 10.706C257.159 10.598 256.967 10.514 256.751 10.454C256.535 10.394 256.313 10.34 256.085 10.292C255.689 10.208 255.311 10.112 254.951 10.004C254.591 9.896 254.273 9.758 253.997 9.59C253.733 9.41 253.517 9.182 253.349 8.906C253.193 8.63 253.115 8.276 253.115 7.844C253.115 7.436 253.205 7.076 253.385 6.764C253.565 6.452 253.805 6.194 254.105 5.99C254.405 5.786 254.741 5.63 255.113 5.522C255.485 5.414 255.869 5.36 256.265 5.36C256.865 5.36 257.417 5.48 257.921 5.72C258.437 5.96 258.839 6.35 259.127 6.89L257.957 7.664C257.777 7.364 257.537 7.124 257.237 6.944C256.949 6.752 256.595 6.656 256.175 6.656C255.983 6.656 255.785 6.68 255.581 6.728C255.389 6.776 255.215 6.848 255.059 6.944C254.903 7.04 254.771 7.166 254.663 7.322C254.567 7.466 254.519 7.634 254.519 7.826C254.519 8.006 254.573 8.162 254.681 8.294C254.801 8.414 254.957 8.522 255.149 8.618C255.353 8.714 255.581 8.798 255.833 8.87C256.097 8.942 256.367 9.002 256.643 9.05C257.015 9.122 257.369 9.218 257.705 9.338C258.041 9.446 258.335 9.596 258.587 9.788C258.839 9.98 259.037 10.22 259.181 10.508C259.325 10.796 259.397 11.15 259.397 11.57C259.397 12.05 259.301 12.458 259.109 12.794C258.917 13.13 258.659 13.406 258.335 13.622C258.023 13.826 257.663 13.976 257.255 14.072C256.859 14.168 256.451 14.216 256.031 14.216C255.311 14.216 254.687 14.108 254.159 13.892C253.643 13.664 253.175 13.25 252.755 12.65L253.871 11.786ZM261.481 5.576H262.885V14H261.481V5.576ZM261.157 2.282C261.157 2.006 261.253 1.766 261.445 1.562C261.649 1.358 261.895 1.256 262.183 1.256C262.471 1.256 262.711 1.358 262.903 1.562C263.107 1.766 263.209 2.006 263.209 2.282C263.209 2.582 263.113 2.828 262.921 3.02C262.729 3.212 262.483 3.308 262.183 3.308C261.883 3.308 261.637 3.212 261.445 3.02C261.253 2.828 261.157 2.582 261.157 2.282ZM274.086 13.622C274.086 15.158 273.69 16.322 272.898 17.114C272.118 17.918 270.984 18.32 269.496 18.32C268.668 18.32 267.918 18.2 267.246 17.96C266.586 17.72 265.956 17.306 265.356 16.718L266.364 15.566C266.808 16.046 267.276 16.406 267.768 16.646C268.272 16.898 268.848 17.024 269.496 17.024C270.12 17.024 270.636 16.928 271.044 16.736C271.464 16.556 271.794 16.304 272.034 15.98C272.274 15.668 272.442 15.308 272.538 14.9C272.634 14.492 272.682 14.066 272.682 13.622V12.542H272.646C272.31 13.082 271.872 13.478 271.332 13.73C270.792 13.982 270.24 14.108 269.676 14.108C269.016 14.108 268.41 14 267.858 13.784C267.306 13.568 266.832 13.268 266.436 12.884C266.04 12.5 265.734 12.044 265.518 11.516C265.302 10.988 265.194 10.412 265.194 9.788C265.194 9.104 265.302 8.486 265.518 7.934C265.734 7.382 266.034 6.92 266.418 6.548C266.814 6.164 267.288 5.87 267.84 5.666C268.392 5.462 269.004 5.36 269.676 5.36C269.964 5.36 270.252 5.396 270.54 5.468C270.828 5.528 271.104 5.63 271.368 5.774C271.644 5.906 271.89 6.08 272.106 6.296C272.322 6.5 272.502 6.74 272.646 7.016H272.682V5.576H274.086V13.622ZM266.706 9.788C266.706 10.22 266.784 10.622 266.94 10.994C267.096 11.354 267.306 11.672 267.57 11.948C267.846 12.212 268.164 12.422 268.524 12.578C268.884 12.734 269.268 12.812 269.676 12.812C270.156 12.812 270.582 12.728 270.954 12.56C271.326 12.392 271.638 12.17 271.89 11.894C272.154 11.606 272.352 11.282 272.484 10.922C272.616 10.55 272.682 10.16 272.682 9.752C272.682 9.296 272.61 8.882 272.466 8.51C272.322 8.126 272.118 7.796 271.854 7.52C271.59 7.244 271.272 7.034 270.9 6.89C270.528 6.734 270.12 6.656 269.676 6.656C269.232 6.656 268.824 6.74 268.452 6.908C268.092 7.064 267.78 7.286 267.516 7.574C267.264 7.85 267.066 8.18 266.922 8.564C266.778 8.936 266.706 9.344 266.706 9.788ZM276.684 0.391999H278.088V6.746H278.124C278.22 6.578 278.352 6.416 278.52 6.26C278.688 6.092 278.886 5.942 279.114 5.81C279.354 5.678 279.618 5.57 279.906 5.486C280.194 5.402 280.5 5.36 280.824 5.36C281.376 5.36 281.85 5.444 282.246 5.612C282.654 5.78 282.99 6.014 283.254 6.314C283.518 6.614 283.71 6.98 283.83 7.412C283.962 7.832 284.028 8.294 284.028 8.798V14H282.624V8.942C282.624 8.234 282.468 7.676 282.156 7.268C281.844 6.86 281.358 6.656 280.698 6.656C280.242 6.656 279.846 6.734 279.51 6.89C279.186 7.046 278.916 7.268 278.7 7.556C278.496 7.844 278.34 8.186 278.232 8.582C278.136 8.978 278.088 9.416 278.088 9.896V14H276.684V0.391999ZM291.294 6.764H288.81V10.976C288.81 11.252 288.816 11.51 288.828 11.75C288.84 11.978 288.888 12.182 288.972 12.362C289.056 12.53 289.182 12.668 289.35 12.776C289.518 12.872 289.758 12.92 290.07 12.92C290.274 12.92 290.484 12.896 290.7 12.848C290.916 12.8 291.12 12.728 291.312 12.632L291.366 13.91C291.126 14.018 290.856 14.096 290.556 14.144C290.268 14.192 289.992 14.216 289.728 14.216C289.224 14.216 288.822 14.15 288.522 14.018C288.222 13.886 287.988 13.7 287.82 13.46C287.652 13.22 287.538 12.926 287.478 12.578C287.43 12.218 287.406 11.822 287.406 11.39V6.764H285.57V5.576H287.406V3.182H288.81V5.576H291.294V6.764ZM293.194 11.786C293.47 12.134 293.77 12.41 294.094 12.614C294.43 12.818 294.85 12.92 295.354 12.92C295.57 12.92 295.786 12.896 296.002 12.848C296.23 12.8 296.434 12.722 296.614 12.614C296.794 12.506 296.938 12.374 297.046 12.218C297.154 12.05 297.208 11.852 297.208 11.624C297.208 11.396 297.154 11.21 297.046 11.066C296.95 10.922 296.818 10.802 296.65 10.706C296.482 10.598 296.29 10.514 296.074 10.454C295.858 10.394 295.636 10.34 295.408 10.292C295.012 10.208 294.634 10.112 294.274 10.004C293.914 9.896 293.596 9.758 293.32 9.59C293.056 9.41 292.84 9.182 292.672 8.906C292.516 8.63 292.438 8.276 292.438 7.844C292.438 7.436 292.528 7.076 292.708 6.764C292.888 6.452 293.128 6.194 293.428 5.99C293.728 5.786 294.064 5.63 294.436 5.522C294.808 5.414 295.192 5.36 295.588 5.36C296.188 5.36 296.74 5.48 297.244 5.72C297.76 5.96 298.162 6.35 298.45 6.89L297.28 7.664C297.1 7.364 296.86 7.124 296.56 6.944C296.272 6.752 295.918 6.656 295.498 6.656C295.306 6.656 295.108 6.68 294.904 6.728C294.712 6.776 294.538 6.848 294.382 6.944C294.226 7.04 294.094 7.166 293.986 7.322C293.89 7.466 293.842 7.634 293.842 7.826C293.842 8.006 293.896 8.162 294.004 8.294C294.124 8.414 294.28 8.522 294.472 8.618C294.676 8.714 294.904 8.798 295.156 8.87C295.42 8.942 295.69 9.002 295.966 9.05C296.338 9.122 296.692 9.218 297.028 9.338C297.364 9.446 297.658 9.596 297.91 9.788C298.162 9.98 298.36 10.22 298.504 10.508C298.648 10.796 298.72 11.15 298.72 11.57C298.72 12.05 298.624 12.458 298.432 12.794C298.24 13.13 297.982 13.406 297.658 13.622C297.346 13.826 296.986 13.976 296.578 14.072C296.182 14.168 295.774 14.216 295.354 14.216C294.634 14.216 294.01 14.108 293.482 13.892C292.966 13.664 292.498 13.25 292.078 12.65L293.194 11.786ZM29.8314 32.656C30.2634 32.212 30.7734 31.888 31.3614 31.684C31.9614 31.468 32.5674 31.36 33.1794 31.36C34.4274 31.36 35.3274 31.654 35.8794 32.242C36.4314 32.83 36.7074 33.724 36.7074 34.924V38.542C36.7074 38.782 36.7194 39.034 36.7434 39.298C36.7674 39.55 36.7974 39.784 36.8334 40H35.4834C35.4354 39.808 35.4054 39.598 35.3934 39.37C35.3934 39.13 35.3934 38.92 35.3934 38.74H35.3574C35.0814 39.172 34.7094 39.526 34.2414 39.802C33.7854 40.078 33.2334 40.216 32.5854 40.216C32.1534 40.216 31.7454 40.162 31.3614 40.054C30.9894 39.946 30.6594 39.79 30.3714 39.586C30.0954 39.37 29.8734 39.106 29.7054 38.794C29.5374 38.482 29.4534 38.122 29.4534 37.714C29.4534 37.018 29.6334 36.472 29.9934 36.076C30.3534 35.68 30.7974 35.386 31.3254 35.194C31.8654 35.002 32.4414 34.882 33.0534 34.834C33.6774 34.786 34.2474 34.762 34.7634 34.762H35.3034V34.51C35.3034 33.898 35.1174 33.436 34.7454 33.124C34.3854 32.812 33.8754 32.656 33.2154 32.656C32.7594 32.656 32.3094 32.734 31.8654 32.89C31.4334 33.034 31.0494 33.262 30.7134 33.574L29.8314 32.656ZM33.8994 35.95C32.9994 35.95 32.2854 36.076 31.7574 36.328C31.2294 36.58 30.9654 36.994 30.9654 37.57C30.9654 38.098 31.1394 38.476 31.4874 38.704C31.8474 38.92 32.2914 39.028 32.8194 39.028C33.2274 39.028 33.5814 38.962 33.8814 38.83C34.1934 38.686 34.4514 38.5 34.6554 38.272C34.8594 38.044 35.0154 37.78 35.1234 37.48C35.2314 37.168 35.2914 36.838 35.3034 36.49V35.95H33.8994ZM39.2014 26.392H40.6054V32.8H40.6414C41.0254 32.344 41.4694 31.99 41.9734 31.738C42.4894 31.486 43.0534 31.36 43.6654 31.36C44.3254 31.36 44.9254 31.474 45.4654 31.702C46.0174 31.918 46.4854 32.224 46.8694 32.62C47.2534 33.016 47.5534 33.484 47.7694 34.024C47.9854 34.564 48.0934 35.152 48.0934 35.788C48.0934 36.424 47.9854 37.012 47.7694 37.552C47.5534 38.092 47.2534 38.56 46.8694 38.956C46.4974 39.352 46.0534 39.664 45.5374 39.892C45.0214 40.108 44.4694 40.216 43.8814 40.216C43.1254 40.216 42.4594 40.054 41.8834 39.73C41.3194 39.394 40.9054 38.986 40.6414 38.506H40.6054V40H39.2014V26.392ZM40.6054 35.788C40.6054 36.232 40.6714 36.646 40.8034 37.03C40.9474 37.402 41.1514 37.732 41.4154 38.02C41.6794 38.296 41.9914 38.518 42.3514 38.686C42.7234 38.842 43.1374 38.92 43.5934 38.92C44.0494 38.92 44.4574 38.842 44.8174 38.686C45.1894 38.518 45.5074 38.296 45.7714 38.02C46.0354 37.732 46.2334 37.402 46.3654 37.03C46.5094 36.646 46.5814 36.232 46.5814 35.788C46.5814 35.344 46.5094 34.936 46.3654 34.564C46.2334 34.18 46.0354 33.85 45.7714 33.574C45.5074 33.286 45.1894 33.064 44.8174 32.908C44.4574 32.74 44.0494 32.656 43.5934 32.656C43.1374 32.656 42.7234 32.74 42.3514 32.908C41.9914 33.064 41.6794 33.286 41.4154 33.574C41.1514 33.85 40.9474 34.18 40.8034 34.564C40.6714 34.936 40.6054 35.344 40.6054 35.788ZM49.7913 35.788C49.7913 35.128 49.9053 34.528 50.1333 33.988C50.3613 33.448 50.6733 32.986 51.0693 32.602C51.4653 32.206 51.9393 31.9 52.4913 31.684C53.0433 31.468 53.6433 31.36 54.2913 31.36C54.9393 31.36 55.5393 31.468 56.0913 31.684C56.6433 31.9 57.1173 32.206 57.5133 32.602C57.9093 32.986 58.2213 33.448 58.4493 33.988C58.6773 34.528 58.7913 35.128 58.7913 35.788C58.7913 36.448 58.6773 37.048 58.4493 37.588C58.2213 38.128 57.9093 38.596 57.5133 38.992C57.1173 39.376 56.6433 39.676 56.0913 39.892C55.5393 40.108 54.9393 40.216 54.2913 40.216C53.6433 40.216 53.0433 40.108 52.4913 39.892C51.9393 39.676 51.4653 39.376 51.0693 38.992C50.6733 38.596 50.3613 38.128 50.1333 37.588C49.9053 37.048 49.7913 36.448 49.7913 35.788ZM51.3033 35.788C51.3033 36.232 51.3693 36.646 51.5013 37.03C51.6453 37.402 51.8493 37.732 52.1133 38.02C52.3773 38.296 52.6893 38.518 53.0493 38.686C53.4213 38.842 53.8353 38.92 54.2913 38.92C54.7473 38.92 55.1553 38.842 55.5153 38.686C55.8873 38.518 56.2053 38.296 56.4693 38.02C56.7333 37.732 56.9313 37.402 57.0633 37.03C57.2073 36.646 57.2793 36.232 57.2793 35.788C57.2793 35.344 57.2073 34.936 57.0633 34.564C56.9313 34.18 56.7333 33.85 56.4693 33.574C56.2053 33.286 55.8873 33.064 55.5153 32.908C55.1553 32.74 54.7473 32.656 54.2913 32.656C53.8353 32.656 53.4213 32.74 53.0493 32.908C52.6893 33.064 52.3773 33.286 52.1133 33.574C51.8493 33.85 51.6453 34.18 51.5013 34.564C51.3693 34.936 51.3033 35.344 51.3033 35.788ZM68.3088 38.002C68.3088 38.386 68.3208 38.746 68.3448 39.082C68.3688 39.418 68.3808 39.724 68.3808 40H67.0488C67.0488 39.772 67.0428 39.544 67.0308 39.316C67.0188 39.088 67.0128 38.854 67.0128 38.614H66.9768C66.8808 38.818 66.7428 39.016 66.5628 39.208C66.3948 39.4 66.1908 39.574 65.9508 39.73C65.7108 39.874 65.4408 39.988 65.1408 40.072C64.8408 40.168 64.5168 40.216 64.1688 40.216C63.6168 40.216 63.1368 40.132 62.7288 39.964C62.3328 39.796 62.0028 39.562 61.7388 39.262C61.4748 38.962 61.2768 38.602 61.1448 38.182C61.0248 37.75 60.9648 37.282 60.9648 36.778V31.576H62.3688V36.634C62.3688 37.342 62.5248 37.9 62.8368 38.308C63.1488 38.716 63.6348 38.92 64.2948 38.92C64.7508 38.92 65.1408 38.842 65.4648 38.686C65.8008 38.53 66.0708 38.308 66.2748 38.02C66.4908 37.732 66.6468 37.39 66.7428 36.994C66.8508 36.598 66.9048 36.16 66.9048 35.68V31.576H68.3088V38.002ZM75.5748 32.764H73.0908V36.976C73.0908 37.252 73.0968 37.51 73.1088 37.75C73.1208 37.978 73.1688 38.182 73.2528 38.362C73.3368 38.53 73.4628 38.668 73.6308 38.776C73.7988 38.872 74.0388 38.92 74.3508 38.92C74.5548 38.92 74.7648 38.896 74.9808 38.848C75.1968 38.8 75.4008 38.728 75.5928 38.632L75.6468 39.91C75.4068 40.018 75.1368 40.096 74.8368 40.144C74.5488 40.192 74.2728 40.216 74.0088 40.216C73.5048 40.216 73.1028 40.15 72.8028 40.018C72.5028 39.886 72.2688 39.7 72.1008 39.46C71.9328 39.22 71.8188 38.926 71.7588 38.578C71.7108 38.218 71.6868 37.822 71.6868 37.39V32.764H69.8508V31.576H71.6868V29.182H73.0908V31.576H75.5748V32.764ZM86.9127 32.764H84.4287V36.976C84.4287 37.252 84.4347 37.51 84.4467 37.75C84.4587 37.978 84.5067 38.182 84.5907 38.362C84.6747 38.53 84.8007 38.668 84.9687 38.776C85.1367 38.872 85.3767 38.92 85.6887 38.92C85.8927 38.92 86.1027 38.896 86.3187 38.848C86.5347 38.8 86.7387 38.728 86.9307 38.632L86.9847 39.91C86.7447 40.018 86.4747 40.096 86.1747 40.144C85.8867 40.192 85.6107 40.216 85.3467 40.216C84.8427 40.216 84.4407 40.15 84.1407 40.018C83.8407 39.886 83.6067 39.7 83.4387 39.46C83.2707 39.22 83.1567 38.926 83.0967 38.578C83.0487 38.218 83.0247 37.822 83.0247 37.39V32.764H81.1887V31.576H83.0247V29.182H84.4287V31.576H86.9127V32.764ZM88.6504 26.392H90.0544V32.746H90.0904C90.1864 32.578 90.3184 32.416 90.4864 32.26C90.6544 32.092 90.8524 31.942 91.0804 31.81C91.3204 31.678 91.5844 31.57 91.8724 31.486C92.1604 31.402 92.4664 31.36 92.7904 31.36C93.3424 31.36 93.8164 31.444 94.2124 31.612C94.6204 31.78 94.9564 32.014 95.2204 32.314C95.4844 32.614 95.6764 32.98 95.7964 33.412C95.9284 33.832 95.9944 34.294 95.9944 34.798V40H94.5904V34.942C94.5904 34.234 94.4344 33.676 94.1224 33.268C93.8104 32.86 93.3244 32.656 92.6644 32.656C92.2084 32.656 91.8124 32.734 91.4764 32.89C91.1524 33.046 90.8824 33.268 90.6664 33.556C90.4624 33.844 90.3064 34.186 90.1984 34.582C90.1024 34.978 90.0544 35.416 90.0544 35.896V40H88.6504V26.392ZM106.176 38.47C105.672 39.118 105.12 39.574 104.52 39.838C103.92 40.09 103.224 40.216 102.432 40.216C101.772 40.216 101.178 40.102 100.65 39.874C100.122 39.634 99.6723 39.316 99.3003 38.92C98.9403 38.524 98.6583 38.056 98.4543 37.516C98.2623 36.976 98.1663 36.4 98.1663 35.788C98.1663 35.14 98.2743 34.546 98.4903 34.006C98.7063 33.454 99.0063 32.986 99.3903 32.602C99.7743 32.206 100.23 31.9 100.758 31.684C101.286 31.468 101.862 31.36 102.486 31.36C103.074 31.36 103.614 31.462 104.106 31.666C104.598 31.858 105.018 32.146 105.366 32.53C105.726 32.902 106.002 33.364 106.194 33.916C106.386 34.456 106.482 35.074 106.482 35.77V36.22H99.6783C99.7023 36.58 99.7863 36.928 99.9303 37.264C100.086 37.588 100.284 37.876 100.524 38.128C100.764 38.368 101.046 38.56 101.37 38.704C101.694 38.848 102.048 38.92 102.432 38.92C103.044 38.92 103.56 38.812 103.98 38.596C104.4 38.38 104.778 38.062 105.114 37.642L106.176 38.47ZM104.97 35.032C104.946 34.312 104.712 33.736 104.268 33.304C103.824 32.872 103.212 32.656 102.432 32.656C101.652 32.656 101.022 32.872 100.542 33.304C100.062 33.736 99.7743 34.312 99.6783 35.032H104.97ZM113.664 33.574C113.664 33.19 113.652 32.83 113.628 32.494C113.604 32.158 113.592 31.852 113.592 31.576H114.924C114.924 31.804 114.93 32.032 114.942 32.26C114.954 32.488 114.96 32.722 114.96 32.962H114.996C115.092 32.758 115.224 32.56 115.392 32.368C115.572 32.176 115.782 32.008 116.022 31.864C116.262 31.708 116.532 31.588 116.832 31.504C117.132 31.408 117.456 31.36 117.804 31.36C118.26 31.36 118.638 31.42 118.938 31.54C119.25 31.648 119.508 31.786 119.712 31.954C119.916 32.11 120.072 32.284 120.18 32.476C120.3 32.656 120.396 32.818 120.468 32.962C120.78 32.458 121.14 32.068 121.548 31.792C121.956 31.504 122.484 31.36 123.132 31.36C123.732 31.36 124.236 31.444 124.644 31.612C125.052 31.768 125.382 32.002 125.634 32.314C125.886 32.614 126.066 32.986 126.174 33.43C126.282 33.862 126.336 34.348 126.336 34.888V40H124.932V34.96C124.932 34.672 124.902 34.39 124.842 34.114C124.782 33.838 124.674 33.592 124.518 33.376C124.362 33.16 124.152 32.986 123.888 32.854C123.624 32.722 123.288 32.656 122.88 32.656C122.58 32.656 122.298 32.716 122.034 32.836C121.77 32.956 121.536 33.124 121.332 33.34C121.14 33.556 120.984 33.82 120.864 34.132C120.756 34.432 120.702 34.768 120.702 35.14V40H119.298V35.23C119.298 34.294 119.172 33.634 118.92 33.25C118.668 32.854 118.254 32.656 117.678 32.656C117.222 32.656 116.826 32.734 116.49 32.89C116.166 33.046 115.896 33.268 115.68 33.556C115.476 33.844 115.32 34.186 115.212 34.582C115.116 34.978 115.068 35.416 115.068 35.896V40H113.664V33.574ZM128.506 35.788C128.506 35.128 128.62 34.528 128.848 33.988C129.076 33.448 129.388 32.986 129.784 32.602C130.18 32.206 130.654 31.9 131.206 31.684C131.758 31.468 132.358 31.36 133.006 31.36C133.654 31.36 134.254 31.468 134.806 31.684C135.358 31.9 135.832 32.206 136.228 32.602C136.624 32.986 136.936 33.448 137.164 33.988C137.392 34.528 137.506 35.128 137.506 35.788C137.506 36.448 137.392 37.048 137.164 37.588C136.936 38.128 136.624 38.596 136.228 38.992C135.832 39.376 135.358 39.676 134.806 39.892C134.254 40.108 133.654 40.216 133.006 40.216C132.358 40.216 131.758 40.108 131.206 39.892C130.654 39.676 130.18 39.376 129.784 38.992C129.388 38.596 129.076 38.128 128.848 37.588C128.62 37.048 128.506 36.448 128.506 35.788ZM130.018 35.788C130.018 36.232 130.084 36.646 130.216 37.03C130.36 37.402 130.564 37.732 130.828 38.02C131.092 38.296 131.404 38.518 131.764 38.686C132.136 38.842 132.55 38.92 133.006 38.92C133.462 38.92 133.87 38.842 134.23 38.686C134.602 38.518 134.92 38.296 135.184 38.02C135.448 37.732 135.646 37.402 135.778 37.03C135.922 36.646 135.994 36.232 135.994 35.788C135.994 35.344 135.922 34.936 135.778 34.564C135.646 34.18 135.448 33.85 135.184 33.574C134.92 33.286 134.602 33.064 134.23 32.908C133.87 32.74 133.462 32.656 133.006 32.656C132.55 32.656 132.136 32.74 131.764 32.908C131.404 33.064 131.092 33.286 130.828 33.574C130.564 33.85 130.36 34.18 130.216 34.564C130.084 34.936 130.018 35.344 130.018 35.788ZM139.86 37.786C140.136 38.134 140.436 38.41 140.76 38.614C141.096 38.818 141.516 38.92 142.02 38.92C142.236 38.92 142.452 38.896 142.668 38.848C142.896 38.8 143.1 38.722 143.28 38.614C143.46 38.506 143.604 38.374 143.712 38.218C143.82 38.05 143.874 37.852 143.874 37.624C143.874 37.396 143.82 37.21 143.712 37.066C143.616 36.922 143.484 36.802 143.316 36.706C143.148 36.598 142.956 36.514 142.74 36.454C142.524 36.394 142.302 36.34 142.074 36.292C141.678 36.208 141.3 36.112 140.94 36.004C140.58 35.896 140.262 35.758 139.986 35.59C139.722 35.41 139.506 35.182 139.338 34.906C139.182 34.63 139.104 34.276 139.104 33.844C139.104 33.436 139.194 33.076 139.374 32.764C139.554 32.452 139.794 32.194 140.094 31.99C140.394 31.786 140.73 31.63 141.102 31.522C141.474 31.414 141.858 31.36 142.254 31.36C142.854 31.36 143.406 31.48 143.91 31.72C144.426 31.96 144.828 32.35 145.116 32.89L143.946 33.664C143.766 33.364 143.526 33.124 143.226 32.944C142.938 32.752 142.584 32.656 142.164 32.656C141.972 32.656 141.774 32.68 141.57 32.728C141.378 32.776 141.204 32.848 141.048 32.944C140.892 33.04 140.76 33.166 140.652 33.322C140.556 33.466 140.508 33.634 140.508 33.826C140.508 34.006 140.562 34.162 140.67 34.294C140.79 34.414 140.946 34.522 141.138 34.618C141.342 34.714 141.57 34.798 141.822 34.87C142.086 34.942 142.356 35.002 142.632 35.05C143.004 35.122 143.358 35.218 143.694 35.338C144.03 35.446 144.324 35.596 144.576 35.788C144.828 35.98 145.026 36.22 145.17 36.508C145.314 36.796 145.386 37.15 145.386 37.57C145.386 38.05 145.29 38.458 145.098 38.794C144.906 39.13 144.648 39.406 144.324 39.622C144.012 39.826 143.652 39.976 143.244 40.072C142.848 40.168 142.44 40.216 142.02 40.216C141.3 40.216 140.676 40.108 140.148 39.892C139.632 39.664 139.164 39.25 138.744 38.65L139.86 37.786ZM151.952 32.764H149.468V36.976C149.468 37.252 149.474 37.51 149.486 37.75C149.498 37.978 149.546 38.182 149.63 38.362C149.714 38.53 149.84 38.668 150.008 38.776C150.176 38.872 150.416 38.92 150.728 38.92C150.932 38.92 151.142 38.896 151.358 38.848C151.574 38.8 151.778 38.728 151.97 38.632L152.024 39.91C151.784 40.018 151.514 40.096 151.214 40.144C150.926 40.192 150.65 40.216 150.386 40.216C149.882 40.216 149.48 40.15 149.18 40.018C148.88 39.886 148.646 39.7 148.478 39.46C148.31 39.22 148.196 38.926 148.136 38.578C148.088 38.218 148.064 37.822 148.064 37.39V32.764H146.228V31.576H148.064V29.182H149.468V31.576H151.952V32.764ZM162.516 40H160.968L157.53 31.576H159.168L161.796 38.182H161.832L164.334 31.576H165.846L162.516 40ZM167.491 31.576H168.895V40H167.491V31.576ZM167.167 28.282C167.167 28.006 167.263 27.766 167.455 27.562C167.659 27.358 167.905 27.256 168.193 27.256C168.481 27.256 168.721 27.358 168.913 27.562C169.117 27.766 169.219 28.006 169.219 28.282C169.219 28.582 169.123 28.828 168.931 29.02C168.739 29.212 168.493 29.308 168.193 29.308C167.893 29.308 167.647 29.212 167.455 29.02C167.263 28.828 167.167 28.582 167.167 28.282ZM171.689 33.574C171.689 33.19 171.677 32.83 171.653 32.494C171.629 32.158 171.617 31.852 171.617 31.576H172.949C172.949 31.804 172.955 32.032 172.967 32.26C172.979 32.488 172.985 32.722 172.985 32.962H173.021C173.117 32.758 173.249 32.56 173.417 32.368C173.597 32.176 173.807 32.008 174.047 31.864C174.287 31.708 174.557 31.588 174.857 31.504C175.157 31.408 175.481 31.36 175.829 31.36C175.925 31.36 176.021 31.366 176.117 31.378C176.213 31.39 176.309 31.414 176.405 31.45L176.315 32.872C176.075 32.8 175.823 32.764 175.559 32.764C174.695 32.764 174.065 33.046 173.669 33.61C173.285 34.162 173.093 34.924 173.093 35.896V40H171.689V33.574ZM177.91 32.656C178.342 32.212 178.852 31.888 179.44 31.684C180.04 31.468 180.646 31.36 181.258 31.36C182.506 31.36 183.406 31.654 183.958 32.242C184.51 32.83 184.786 33.724 184.786 34.924V38.542C184.786 38.782 184.798 39.034 184.822 39.298C184.846 39.55 184.876 39.784 184.912 40H183.562C183.514 39.808 183.484 39.598 183.472 39.37C183.472 39.13 183.472 38.92 183.472 38.74H183.436C183.16 39.172 182.788 39.526 182.32 39.802C181.864 40.078 181.312 40.216 180.664 40.216C180.232 40.216 179.824 40.162 179.44 40.054C179.068 39.946 178.738 39.79 178.45 39.586C178.174 39.37 177.952 39.106 177.784 38.794C177.616 38.482 177.532 38.122 177.532 37.714C177.532 37.018 177.712 36.472 178.072 36.076C178.432 35.68 178.876 35.386 179.404 35.194C179.944 35.002 180.52 34.882 181.132 34.834C181.756 34.786 182.326 34.762 182.842 34.762H183.382V34.51C183.382 33.898 183.196 33.436 182.824 33.124C182.464 32.812 181.954 32.656 181.294 32.656C180.838 32.656 180.388 32.734 179.944 32.89C179.512 33.034 179.128 33.262 178.792 33.574L177.91 32.656ZM181.978 35.95C181.078 35.95 180.364 36.076 179.836 36.328C179.308 36.58 179.044 36.994 179.044 37.57C179.044 38.098 179.218 38.476 179.566 38.704C179.926 38.92 180.37 39.028 180.898 39.028C181.306 39.028 181.66 38.962 181.96 38.83C182.272 38.686 182.53 38.5 182.734 38.272C182.938 38.044 183.094 37.78 183.202 37.48C183.31 37.168 183.37 36.838 183.382 36.49V35.95H181.978ZM187.478 26.392H188.882V40H187.478V26.392ZM196.614 31.576H198.018V32.8H198.054C198.438 32.344 198.882 31.99 199.386 31.738C199.902 31.486 200.466 31.36 201.078 31.36C201.738 31.36 202.338 31.474 202.878 31.702C203.43 31.918 203.898 32.224 204.282 32.62C204.666 33.016 204.966 33.484 205.182 34.024C205.398 34.564 205.506 35.152 205.506 35.788C205.506 36.424 205.398 37.012 205.182 37.552C204.966 38.092 204.666 38.56 204.282 38.956C203.91 39.352 203.466 39.664 202.95 39.892C202.434 40.108 201.882 40.216 201.294 40.216C200.538 40.216 199.872 40.054 199.296 39.73C198.732 39.394 198.318 38.986 198.054 38.506H198.018V44.104H196.614V31.576ZM198.018 35.788C198.018 36.232 198.084 36.646 198.216 37.03C198.36 37.402 198.564 37.732 198.828 38.02C199.092 38.296 199.404 38.518 199.764 38.686C200.136 38.842 200.55 38.92 201.006 38.92C201.462 38.92 201.87 38.842 202.23 38.686C202.602 38.518 202.92 38.296 203.184 38.02C203.448 37.732 203.646 37.402 203.778 37.03C203.922 36.646 203.994 36.232 203.994 35.788C203.994 35.344 203.922 34.936 203.778 34.564C203.646 34.18 203.448 33.85 203.184 33.574C202.92 33.286 202.602 33.064 202.23 32.908C201.87 32.74 201.462 32.656 201.006 32.656C200.55 32.656 200.136 32.74 199.764 32.908C199.404 33.064 199.092 33.286 198.828 33.574C198.564 33.85 198.36 34.18 198.216 34.564C198.084 34.936 198.018 35.344 198.018 35.788ZM207.815 26.392H209.219V40H207.815V26.392ZM211.906 32.656C212.338 32.212 212.848 31.888 213.436 31.684C214.036 31.468 214.642 31.36 215.254 31.36C216.502 31.36 217.402 31.654 217.954 32.242C218.506 32.83 218.782 33.724 218.782 34.924V38.542C218.782 38.782 218.794 39.034 218.818 39.298C218.842 39.55 218.872 39.784 218.908 40H217.558C217.51 39.808 217.48 39.598 217.468 39.37C217.468 39.13 217.468 38.92 217.468 38.74H217.432C217.156 39.172 216.784 39.526 216.316 39.802C215.86 40.078 215.308 40.216 214.66 40.216C214.228 40.216 213.82 40.162 213.436 40.054C213.064 39.946 212.734 39.79 212.446 39.586C212.17 39.37 211.948 39.106 211.78 38.794C211.612 38.482 211.528 38.122 211.528 37.714C211.528 37.018 211.708 36.472 212.068 36.076C212.428 35.68 212.872 35.386 213.4 35.194C213.94 35.002 214.516 34.882 215.128 34.834C215.752 34.786 216.322 34.762 216.838 34.762H217.378V34.51C217.378 33.898 217.192 33.436 216.82 33.124C216.46 32.812 215.95 32.656 215.29 32.656C214.834 32.656 214.384 32.734 213.94 32.89C213.508 33.034 213.124 33.262 212.788 33.574L211.906 32.656ZM215.974 35.95C215.074 35.95 214.36 36.076 213.832 36.328C213.304 36.58 213.04 36.994 213.04 37.57C213.04 38.098 213.214 38.476 213.562 38.704C213.922 38.92 214.366 39.028 214.894 39.028C215.302 39.028 215.656 38.962 215.956 38.83C216.268 38.686 216.526 38.5 216.73 38.272C216.934 38.044 217.09 37.78 217.198 37.48C217.306 37.168 217.366 36.838 217.378 36.49V35.95H215.974ZM225.956 32.764H223.472V36.976C223.472 37.252 223.478 37.51 223.49 37.75C223.502 37.978 223.55 38.182 223.634 38.362C223.718 38.53 223.844 38.668 224.012 38.776C224.18 38.872 224.42 38.92 224.732 38.92C224.936 38.92 225.146 38.896 225.362 38.848C225.578 38.8 225.782 38.728 225.974 38.632L226.028 39.91C225.788 40.018 225.518 40.096 225.218 40.144C224.93 40.192 224.654 40.216 224.39 40.216C223.886 40.216 223.484 40.15 223.184 40.018C222.884 39.886 222.65 39.7 222.482 39.46C222.314 39.22 222.2 38.926 222.14 38.578C222.092 38.218 222.068 37.822 222.068 37.39V32.764H220.232V31.576H222.068V29.182H223.472V31.576H225.956V32.764ZM228.413 32.764H226.577V31.576H228.413V29.686C228.413 29.17 228.461 28.702 228.557 28.282C228.653 27.85 228.815 27.478 229.043 27.166C229.283 26.854 229.595 26.614 229.979 26.446C230.363 26.266 230.837 26.176 231.401 26.176C231.581 26.176 231.773 26.194 231.977 26.23C232.181 26.266 232.349 26.32 232.481 26.392L232.283 27.652C231.947 27.532 231.629 27.472 231.329 27.472C230.969 27.472 230.687 27.538 230.483 27.67C230.279 27.79 230.123 27.964 230.015 28.192C229.919 28.408 229.859 28.672 229.835 28.984C229.823 29.296 229.817 29.632 229.817 29.992V31.576H231.869V32.764H229.817V40H228.413V32.764ZM232.885 35.788C232.885 35.128 232.999 34.528 233.227 33.988C233.455 33.448 233.767 32.986 234.163 32.602C234.559 32.206 235.033 31.9 235.585 31.684C236.137 31.468 236.737 31.36 237.385 31.36C238.033 31.36 238.633 31.468 239.185 31.684C239.737 31.9 240.211 32.206 240.607 32.602C241.003 32.986 241.315 33.448 241.543 33.988C241.771 34.528 241.885 35.128 241.885 35.788C241.885 36.448 241.771 37.048 241.543 37.588C241.315 38.128 241.003 38.596 240.607 38.992C240.211 39.376 239.737 39.676 239.185 39.892C238.633 40.108 238.033 40.216 237.385 40.216C236.737 40.216 236.137 40.108 235.585 39.892C235.033 39.676 234.559 39.376 234.163 38.992C233.767 38.596 233.455 38.128 233.227 37.588C232.999 37.048 232.885 36.448 232.885 35.788ZM234.397 35.788C234.397 36.232 234.463 36.646 234.595 37.03C234.739 37.402 234.943 37.732 235.207 38.02C235.471 38.296 235.783 38.518 236.143 38.686C236.515 38.842 236.929 38.92 237.385 38.92C237.841 38.92 238.249 38.842 238.609 38.686C238.981 38.518 239.299 38.296 239.563 38.02C239.827 37.732 240.025 37.402 240.157 37.03C240.301 36.646 240.373 36.232 240.373 35.788C240.373 35.344 240.301 34.936 240.157 34.564C240.025 34.18 239.827 33.85 239.563 33.574C239.299 33.286 238.981 33.064 238.609 32.908C238.249 32.74 237.841 32.656 237.385 32.656C236.929 32.656 236.515 32.74 236.143 32.908C235.783 33.064 235.471 33.286 235.207 33.574C234.943 33.85 234.739 34.18 234.595 34.564C234.463 34.936 234.397 35.344 234.397 35.788ZM244.059 33.574C244.059 33.19 244.047 32.83 244.023 32.494C243.999 32.158 243.987 31.852 243.987 31.576H245.319C245.319 31.804 245.325 32.032 245.337 32.26C245.349 32.488 245.355 32.722 245.355 32.962H245.391C245.487 32.758 245.619 32.56 245.787 32.368C245.967 32.176 246.177 32.008 246.417 31.864C246.657 31.708 246.927 31.588 247.227 31.504C247.527 31.408 247.851 31.36 248.199 31.36C248.295 31.36 248.391 31.366 248.487 31.378C248.583 31.39 248.679 31.414 248.775 31.45L248.685 32.872C248.445 32.8 248.193 32.764 247.929 32.764C247.065 32.764 246.435 33.046 246.039 33.61C245.655 34.162 245.463 34.924 245.463 35.896V40H244.059V33.574ZM250.387 33.574C250.387 33.19 250.375 32.83 250.351 32.494C250.327 32.158 250.315 31.852 250.315 31.576H251.647C251.647 31.804 251.653 32.032 251.665 32.26C251.677 32.488 251.683 32.722 251.683 32.962H251.719C251.815 32.758 251.947 32.56 252.115 32.368C252.295 32.176 252.505 32.008 252.745 31.864C252.985 31.708 253.255 31.588 253.555 31.504C253.855 31.408 254.179 31.36 254.527 31.36C254.983 31.36 255.361 31.42 255.661 31.54C255.973 31.648 256.231 31.786 256.435 31.954C256.639 32.11 256.795 32.284 256.903 32.476C257.023 32.656 257.119 32.818 257.191 32.962C257.503 32.458 257.863 32.068 258.271 31.792C258.679 31.504 259.207 31.36 259.855 31.36C260.455 31.36 260.959 31.444 261.367 31.612C261.775 31.768 262.105 32.002 262.357 32.314C262.609 32.614 262.789 32.986 262.897 33.43C263.005 33.862 263.059 34.348 263.059 34.888V40H261.655V34.96C261.655 34.672 261.625 34.39 261.565 34.114C261.505 33.838 261.397 33.592 261.241 33.376C261.085 33.16 260.875 32.986 260.611 32.854C260.347 32.722 260.011 32.656 259.603 32.656C259.303 32.656 259.021 32.716 258.757 32.836C258.493 32.956 258.259 33.124 258.055 33.34C257.863 33.556 257.707 33.82 257.587 34.132C257.479 34.432 257.425 34.768 257.425 35.14V40H256.021V35.23C256.021 34.294 255.895 33.634 255.643 33.25C255.391 32.854 254.977 32.656 254.401 32.656C253.945 32.656 253.549 32.734 253.213 32.89C252.889 33.046 252.619 33.268 252.403 33.556C252.199 33.844 252.043 34.186 251.935 34.582C251.839 34.978 251.791 35.416 251.791 35.896V40H250.387V33.574ZM266.885 37.948C267.185 37.948 267.437 38.056 267.641 38.272C267.857 38.476 267.965 38.728 267.965 39.028C267.965 39.328 267.851 39.586 267.623 39.802C267.407 40.006 267.161 40.108 266.885 40.108C266.609 40.108 266.357 40.006 266.129 39.802C265.913 39.586 265.805 39.328 265.805 39.028C265.805 38.728 265.907 38.476 266.111 38.272C266.327 38.056 266.585 37.948 266.885 37.948Z" fill="white"></path></svg>