<svg xmlns="http://www.w3.org/2000/svg" width="384" height="180" viewBox="0 0 384 180" fill="none"><rect y="39" width="384" height="141" rx="20" fill="#FE2C55"></rect><path d="M46.4412 12.325C48.2412 11.575 49.3162 10.125 49.3162 7.725C49.3162 3.95 46.6162 2.425 42.5162 2.425H29.3912V20H32.5912V14.075H43.4662C45.4662 14.075 45.9162 14.525 45.9162 16.3V20H49.0912V15.525C49.0912 13.725 48.1662 12.6 46.4412 12.325ZM41.6912 5.25C43.5162 5.25 45.8912 5.25 45.8912 8.25C45.8912 11.275 43.5162 11.275 41.6912 11.275H32.5912V5.25H41.6912ZM71.6461 2.425H53.1461V20H71.6461V17.225H56.3461V12.6H71.1461V9.825H56.3461V5.225H71.6461V2.425ZM99.1711 20L88.9961 2.425H84.9461L74.7711 20H78.4211L80.5961 16.2H93.3711L95.5461 20H99.1711ZM86.9711 5.075L91.7711 13.45H82.1711L86.9711 5.075ZM114.427 2.425H101.852V20H114.427C119.077 20 123.052 17.2 123.052 11.225C123.052 5.225 119.077 2.425 114.427 2.425ZM105.052 17.15V5.275H112.802C117.327 5.275 119.627 6.375 119.627 11.225C119.627 16.05 117.327 17.15 112.802 17.15H105.052ZM135.385 11.475L127.36 2.425H123.135L133.66 14.225V20H137.085V14.225L147.61 2.425H143.385L135.385 11.475ZM182.892 2.425H161.392V5.275H170.567V20H173.742V5.275H182.892V2.425ZM195.764 20.5C203.414 20.5 207.064 16.825 207.064 11.2C207.064 5.575 203.414 1.925 195.764 1.925C188.089 1.925 184.439 5.55 184.439 11.2C184.439 16.85 188.089 20.5 195.764 20.5ZM195.764 17.65C190.814 17.65 187.889 15.75 187.889 11.2C187.889 6.65 190.789 4.775 195.764 4.775C200.739 4.775 203.639 6.675 203.639 11.2C203.639 15.725 200.714 17.65 195.764 17.65ZM220.865 14.3C221.115 19 225.59 20.5 232.765 20.5C238.565 20.5 243.215 19.45 243.215 14.875C243.215 10.5 238.94 10.175 232.115 9.7C226.29 9.3 224.99 8.85 224.99 7.15C224.99 5.525 226.29 4.675 231.415 4.675C236.89 4.675 239.04 5.575 239.04 7.85H242.465C242.44 3.875 238.365 1.925 231.84 1.925C225.59 1.925 221.565 3.175 221.565 7C221.565 10.85 224.615 12.05 231.99 12.475C238.565 12.875 239.79 13.175 239.79 15.05C239.79 16.8 237.89 17.75 232.74 17.75C226.265 17.75 224.315 16.475 224.315 14.3H220.865ZM266.193 2.425H244.693V5.275H253.868V20H257.043V5.275H266.193V2.425ZM287.062 20L276.887 2.425H272.837L262.662 20H266.312L268.487 16.2H281.262L283.437 20H287.062ZM274.862 5.075L279.662 13.45H270.062L274.862 5.075ZM306.793 12.325C308.593 11.575 309.668 10.125 309.668 7.725C309.668 3.95 306.968 2.425 302.868 2.425H289.743V20H292.943V14.075H303.818C305.818 14.075 306.268 14.525 306.268 16.3V20H309.443V15.525C309.443 13.725 308.518 12.6 306.793 12.325ZM302.043 5.25C303.868 5.25 306.243 5.25 306.243 8.25C306.243 11.275 303.868 11.275 302.043 11.275H292.943V5.25H302.043ZM333.38 2.425H311.88V5.275H321.055V20H324.23V5.275H333.38V2.425ZM346.814 14.875C346.814 10.9 355.614 12.55 355.614 6.975C355.614 3.45 352.264 1.925 346.614 1.925C341.014 1.925 336.839 3.65 336.789 8.95H340.164C340.164 5.825 342.214 4.65 346.789 4.65C350.789 4.65 352.189 5.675 352.189 7.025C352.189 10.675 343.439 8.8 343.439 14.875H346.814ZM343.439 20H346.614V17.25H343.439V20Z" fill="white"></path><path d="M28.98 70.82L34.48 65.88C34.76 65.6267 35.04 65.34 35.32 65.02C35.6 64.7 35.74 64.3267 35.74 63.9C35.74 63.42 35.5667 63.0467 35.22 62.78C34.8733 62.5 34.4667 62.36 34 62.36C33.44 62.36 33 62.5333 32.68 62.88C32.3733 63.2267 32.2 63.6533 32.16 64.16L29.16 63.94C29.2 63.2067 29.3533 62.5733 29.62 62.04C29.8867 61.4933 30.24 61.04 30.68 60.68C31.12 60.32 31.6333 60.0533 32.22 59.88C32.82 59.6933 33.4667 59.6 34.16 59.6C34.8 59.6 35.4 59.6933 35.96 59.88C36.52 60.0533 37.0067 60.32 37.42 60.68C37.8333 61.0267 38.1533 61.4667 38.38 62C38.62 62.5333 38.74 63.1533 38.74 63.86C38.74 64.3133 38.6933 64.7267 38.6 65.1C38.5067 65.46 38.3733 65.7933 38.2 66.1C38.04 66.3933 37.8467 66.6667 37.62 66.92C37.3933 67.1733 37.1467 67.42 36.88 67.66L32.58 71.36H38.86V74H28.98V70.82ZM40.9559 72.28C40.9559 72.0267 41.0026 71.7867 41.0959 71.56C41.1893 71.3333 41.3159 71.14 41.4759 70.98C41.6493 70.8067 41.8493 70.6733 42.0759 70.58C42.3026 70.4867 42.5426 70.44 42.7959 70.44C43.0493 70.44 43.2893 70.4867 43.5159 70.58C43.7426 70.6733 43.9359 70.8067 44.0959 70.98C44.2693 71.14 44.4026 71.3333 44.4959 71.56C44.5893 71.7867 44.6359 72.0267 44.6359 72.28C44.6359 72.5333 44.5893 72.7733 44.4959 73C44.4026 73.2267 44.2693 73.4267 44.0959 73.6C43.9359 73.76 43.7426 73.8867 43.5159 73.98C43.2893 74.0733 43.0493 74.12 42.7959 74.12C42.5426 74.12 42.3026 74.0733 42.0759 73.98C41.8493 73.8867 41.6493 73.76 41.4759 73.6C41.3159 73.4267 41.1893 73.2267 41.0959 73C41.0026 72.7733 40.9559 72.5333 40.9559 72.28ZM60.1119 63.3C59.8585 62.98 59.5119 62.7467 59.0719 62.6C58.6452 62.44 58.2385 62.36 57.8519 62.36C57.6252 62.36 57.3919 62.3867 57.1519 62.44C56.9119 62.4933 56.6852 62.58 56.4719 62.7C56.2585 62.8067 56.0852 62.9533 55.9519 63.14C55.8185 63.3267 55.7519 63.5533 55.7519 63.82C55.7519 64.2467 55.9119 64.5733 56.2319 64.8C56.5519 65.0267 56.9519 65.22 57.4319 65.38C57.9252 65.54 58.4519 65.7 59.0119 65.86C59.5719 66.02 60.0919 66.2467 60.5719 66.54C61.0652 66.8333 61.4719 67.2267 61.7919 67.72C62.1119 68.2133 62.2719 68.8733 62.2719 69.7C62.2719 70.4867 62.1252 71.1733 61.8319 71.76C61.5385 72.3467 61.1385 72.8333 60.6319 73.22C60.1385 73.6067 59.5585 73.8933 58.8919 74.08C58.2385 74.2667 57.5452 74.36 56.8119 74.36C55.8919 74.36 55.0385 74.22 54.2519 73.94C53.4652 73.66 52.7319 73.2067 52.0519 72.58L54.2719 70.14C54.5919 70.5667 54.9919 70.9 55.4719 71.14C55.9652 71.3667 56.4719 71.48 56.9919 71.48C57.2452 71.48 57.4985 71.4533 57.7519 71.4C58.0185 71.3333 58.2519 71.24 58.4519 71.12C58.6652 71 58.8319 70.8467 58.9519 70.66C59.0852 70.4733 59.1519 70.2533 59.1519 70C59.1519 69.5733 58.9852 69.24 58.6519 69C58.3319 68.7467 57.9252 68.5333 57.4319 68.36C56.9385 68.1867 56.4052 68.0133 55.8319 67.84C55.2585 67.6667 54.7252 67.4333 54.2319 67.14C53.7385 66.8467 53.3252 66.46 52.9919 65.98C52.6719 65.5 52.5119 64.8667 52.5119 64.08C52.5119 63.32 52.6585 62.6533 52.9519 62.08C53.2585 61.5067 53.6585 61.0267 54.1519 60.64C54.6585 60.2533 55.2385 59.9667 55.8919 59.78C56.5452 59.58 57.2185 59.48 57.9119 59.48C58.7119 59.48 59.4852 59.5933 60.2319 59.82C60.9785 60.0467 61.6519 60.4267 62.2519 60.96L60.1119 63.3ZM67.3363 62.6H63.2963V59.84H74.4963V62.6H70.4563V74H67.3363V62.6ZM76.0806 59.84H81.5606C82.2806 59.84 82.9606 59.9133 83.6006 60.06C84.254 60.1933 84.8206 60.4267 85.3006 60.76C85.794 61.08 86.1806 61.52 86.4606 62.08C86.754 62.6267 86.9006 63.3133 86.9006 64.14C86.9006 65.14 86.6406 65.9933 86.1206 66.7C85.6006 67.3933 84.8406 67.8333 83.8406 68.02L87.4406 74H83.7006L80.7406 68.34H79.2006V74H76.0806V59.84ZM79.2006 65.7H81.0406C81.3206 65.7 81.614 65.6933 81.9206 65.68C82.2406 65.6533 82.5273 65.5933 82.7806 65.5C83.034 65.3933 83.2406 65.2333 83.4006 65.02C83.574 64.8067 83.6606 64.5067 83.6606 64.12C83.6606 63.76 83.5873 63.4733 83.4406 63.26C83.294 63.0467 83.1073 62.8867 82.8806 62.78C82.654 62.66 82.394 62.58 82.1006 62.54C81.8073 62.5 81.5206 62.48 81.2406 62.48H79.2006V65.7ZM93.7094 59.84H96.2894L102.449 74H98.9294L97.7094 71H92.2094L91.0294 74H87.5894L93.7094 59.84ZM94.9094 63.96L93.1894 68.36H96.6494L94.9094 63.96ZM104.778 62.6H100.738V59.84H111.938V62.6H107.898V74H104.778V62.6ZM113.642 59.84H123.262V62.72H116.762V65.36H122.902V68.24H116.762V71.12H123.622V74H113.642V59.84ZM138.94 73C138.02 73.48 137.06 73.8267 136.06 74.04C135.06 74.2533 134.04 74.36 133 74.36C131.893 74.36 130.873 74.1867 129.94 73.84C129.006 73.4933 128.2 73 127.52 72.36C126.84 71.7067 126.306 70.92 125.92 70C125.546 69.08 125.36 68.0533 125.36 66.92C125.36 65.7867 125.546 64.76 125.92 63.84C126.306 62.92 126.84 62.14 127.52 61.5C128.2 60.8467 129.006 60.3467 129.94 60C130.873 59.6533 131.893 59.48 133 59.48C134.133 59.48 135.173 59.62 136.12 59.9C137.08 60.1667 137.92 60.6333 138.64 61.3L136.44 63.7C136.013 63.26 135.533 62.9267 135 62.7C134.466 62.4733 133.8 62.36 133 62.36C132.333 62.36 131.726 62.4733 131.18 62.7C130.646 62.9267 130.186 63.2467 129.8 63.66C129.413 64.06 129.113 64.54 128.9 65.1C128.7 65.66 128.6 66.2667 128.6 66.92C128.6 67.5867 128.7 68.2 128.9 68.76C129.113 69.3067 129.413 69.7867 129.8 70.2C130.186 70.6 130.646 70.9133 131.18 71.14C131.726 71.3667 132.333 71.48 133 71.48C133.68 71.48 134.266 71.4067 134.76 71.26C135.253 71.1 135.646 70.94 135.94 70.78V68.48H133.4V65.6H138.94V73ZM145.166 67.96L139.846 59.84H143.726L146.726 65.14L149.906 59.84H153.606L148.286 67.96V74H145.166V67.96ZM171.033 70.66L174.193 74H170.333L169.153 72.66C168.566 73.26 167.933 73.6933 167.253 73.96C166.586 74.2267 165.833 74.36 164.993 74.36C164.353 74.36 163.733 74.2733 163.133 74.1C162.533 73.9267 161.993 73.6667 161.513 73.32C161.046 72.96 160.673 72.5133 160.393 71.98C160.113 71.4467 159.973 70.8267 159.973 70.12C159.973 69.6667 160.046 69.24 160.193 68.84C160.353 68.4267 160.566 68.0533 160.833 67.72C161.113 67.3867 161.433 67.1 161.793 66.86C162.153 66.6067 162.546 66.4067 162.973 66.26C162.746 66.0067 162.533 65.7667 162.333 65.54C162.146 65.3133 161.979 65.0733 161.833 64.82C161.699 64.5667 161.593 64.3 161.513 64.02C161.446 63.74 161.413 63.4267 161.413 63.08C161.413 62.44 161.533 61.8933 161.773 61.44C162.026 60.9867 162.359 60.6133 162.773 60.32C163.186 60.0267 163.659 59.8133 164.193 59.68C164.726 59.5467 165.273 59.48 165.833 59.48C166.379 59.48 166.899 59.5533 167.393 59.7C167.886 59.8333 168.319 60.0467 168.693 60.34C169.079 60.62 169.386 60.98 169.613 61.42C169.839 61.8467 169.953 62.36 169.953 62.96C169.953 63.3867 169.879 63.78 169.733 64.14C169.599 64.5 169.413 64.84 169.173 65.16C168.933 65.4667 168.653 65.7467 168.333 66C168.026 66.24 167.693 66.4533 167.333 66.64L169.153 68.58L170.533 66.7H174.013L171.033 70.66ZM165.793 61.88C165.406 61.88 165.079 62 164.813 62.24C164.546 62.48 164.413 62.8 164.413 63.2C164.413 63.3733 164.453 63.5467 164.533 63.72C164.613 63.88 164.706 64.04 164.813 64.2C164.933 64.3467 165.059 64.4867 165.193 64.62C165.339 64.7533 165.473 64.8733 165.593 64.98C165.753 64.8867 165.926 64.78 166.113 64.66C166.299 64.5267 166.473 64.3867 166.633 64.24C166.793 64.08 166.926 63.9133 167.033 63.74C167.139 63.5533 167.193 63.36 167.193 63.16C167.193 62.7467 167.053 62.4333 166.773 62.22C166.506 61.9933 166.179 61.88 165.793 61.88ZM164.833 67.96C164.633 68.08 164.433 68.2067 164.233 68.34C164.046 68.46 163.873 68.6 163.713 68.76C163.566 68.9067 163.446 69.08 163.353 69.28C163.259 69.48 163.213 69.7133 163.213 69.98C163.213 70.2467 163.266 70.4867 163.373 70.7C163.479 70.9133 163.619 71.0933 163.793 71.24C163.966 71.3867 164.166 71.5067 164.393 71.6C164.633 71.68 164.873 71.72 165.113 71.72C165.579 71.72 165.979 71.62 166.313 71.42C166.659 71.22 166.999 70.9733 167.333 70.68L164.833 67.96ZM181.627 59.84H184.747V74H181.627V59.84ZM187.585 59.84H192.305L195.565 69.08H195.605L198.885 59.84H203.585V74H200.465V63.14H200.425L196.705 74H194.325L190.745 63.14H190.705V74H187.585V59.84ZM206.471 59.84H211.731C212.465 59.84 213.158 59.9067 213.811 60.04C214.465 60.1733 215.031 60.4067 215.511 60.74C216.005 61.06 216.391 61.5 216.671 62.06C216.965 62.6067 217.111 63.3 217.111 64.14C217.111 64.9667 216.978 65.66 216.711 66.22C216.445 66.78 216.078 67.2267 215.611 67.56C215.145 67.8933 214.591 68.1333 213.951 68.28C213.311 68.4133 212.618 68.48 211.871 68.48H209.591V74H206.471V59.84ZM209.591 65.84H211.671C211.951 65.84 212.218 65.8133 212.471 65.76C212.738 65.7067 212.971 65.62 213.171 65.5C213.385 65.3667 213.551 65.1933 213.671 64.98C213.805 64.7533 213.871 64.4733 213.871 64.14C213.871 63.78 213.785 63.4933 213.611 63.28C213.451 63.0533 213.238 62.88 212.971 62.76C212.718 62.64 212.431 62.5667 212.111 62.54C211.791 62.5 211.485 62.48 211.191 62.48H209.591V65.84ZM219.189 59.84H222.309V71.12H228.089V74H219.189V59.84ZM229.931 59.84H239.551V62.72H233.051V65.36H239.191V68.24H233.051V71.12H239.911V74H229.931V59.84ZM242.409 59.84H247.129L250.389 69.08H250.429L253.709 59.84H258.409V74H255.289V63.14H255.249L251.529 74H249.149L245.569 63.14H245.529V74H242.409V59.84ZM261.415 59.84H271.035V62.72H264.535V65.36H270.675V68.24H264.535V71.12H271.395V74H261.415V59.84ZM273.893 59.84H278.133L284.153 69.68H284.193V59.84H287.313V74H283.233L277.053 63.92H277.013V74H273.893V59.84ZM292.942 62.6H288.902V59.84H300.102V62.6H296.062V74H292.942V62.6ZM304.51 59.84H307.09L313.25 74H309.73L308.51 71H303.01L301.83 74H298.39L304.51 59.84ZM305.71 63.96L303.99 68.36H307.45L305.71 63.96ZM315.578 62.6H311.538V59.84H322.738V62.6H318.698V74H315.578V62.6ZM324.283 59.84H327.403V74H324.283V59.84ZM329.481 66.92C329.481 65.7867 329.667 64.76 330.041 63.84C330.427 62.92 330.961 62.14 331.641 61.5C332.321 60.8467 333.127 60.3467 334.061 60C334.994 59.6533 336.014 59.48 337.121 59.48C338.227 59.48 339.247 59.6533 340.181 60C341.114 60.3467 341.921 60.8467 342.601 61.5C343.281 62.14 343.807 62.92 344.181 63.84C344.567 64.76 344.761 65.7867 344.761 66.92C344.761 68.0533 344.567 69.08 344.181 70C343.807 70.92 343.281 71.7067 342.601 72.36C341.921 73 341.114 73.4933 340.181 73.84C339.247 74.1867 338.227 74.36 337.121 74.36C336.014 74.36 334.994 74.1867 334.061 73.84C333.127 73.4933 332.321 73 331.641 72.36C330.961 71.7067 330.427 70.92 330.041 70C329.667 69.08 329.481 68.0533 329.481 66.92ZM332.721 66.92C332.721 67.5867 332.821 68.2 333.021 68.76C333.234 69.3067 333.534 69.7867 333.921 70.2C334.307 70.6 334.767 70.9133 335.301 71.14C335.847 71.3667 336.454 71.48 337.121 71.48C337.787 71.48 338.387 71.3667 338.921 71.14C339.467 70.9133 339.934 70.6 340.321 70.2C340.707 69.7867 341.001 69.3067 341.201 68.76C341.414 68.2 341.521 67.5867 341.521 66.92C341.521 66.2667 341.414 65.66 341.201 65.1C341.001 64.54 340.707 64.06 340.321 63.66C339.934 63.2467 339.467 62.9267 338.921 62.7C338.387 62.4733 337.787 62.36 337.121 62.36C336.454 62.36 335.847 62.4733 335.301 62.7C334.767 62.9267 334.307 63.2467 333.921 63.66C333.534 64.06 333.234 64.54 333.021 65.1C332.821 65.66 332.721 66.2667 332.721 66.92ZM346.881 59.84H351.121L357.141 69.68H357.181V59.84H360.301V74H356.221L350.041 63.92H350.001V74H346.881V59.84ZM29.584 89.256H37.486V90.66H31.096V94.872H37.036V96.276H31.096V102H29.584V89.256ZM46.678 100.002C46.678 100.386 46.69 100.746 46.714 101.082C46.738 101.418 46.75 101.724 46.75 102H45.418C45.418 101.772 45.412 101.544 45.4 101.316C45.388 101.088 45.382 100.854 45.382 100.614H45.346C45.25 100.818 45.112 101.016 44.932 101.208C44.764 101.4 44.56 101.574 44.32 101.73C44.08 101.874 43.81 101.988 43.51 102.072C43.21 102.168 42.886 102.216 42.538 102.216C41.986 102.216 41.506 102.132 41.098 101.964C40.702 101.796 40.372 101.562 40.108 101.262C39.844 100.962 39.646 100.602 39.514 100.182C39.394 99.75 39.334 99.282 39.334 98.778V93.576H40.738V98.634C40.738 99.342 40.894 99.9 41.206 100.308C41.518 100.716 42.004 100.92 42.664 100.92C43.12 100.92 43.51 100.842 43.834 100.686C44.17 100.53 44.44 100.308 44.644 100.02C44.86 99.732 45.016 99.39 45.112 98.994C45.22 98.598 45.274 98.16 45.274 97.68V93.576H46.678V100.002ZM49.4619 88.392H50.8659V102H49.4619V88.392ZM53.8037 88.392H55.2077V102H53.8037V88.392ZM61.0979 103.926C60.9539 104.286 60.8039 104.61 60.6479 104.898C60.5039 105.198 60.3239 105.45 60.1079 105.654C59.9039 105.87 59.6519 106.032 59.3519 106.14C59.0639 106.26 58.7099 106.32 58.2899 106.32C58.0859 106.32 57.8699 106.308 57.6419 106.284C57.4259 106.26 57.2219 106.2 57.0299 106.104L57.2099 104.88C57.3539 104.94 57.5039 104.976 57.6599 104.988C57.8159 105.012 57.9959 105.024 58.1999 105.024C58.6559 105.024 58.9919 104.898 59.2079 104.646C59.4239 104.394 59.6099 104.058 59.7659 103.638L60.3419 102.054L56.8499 93.576H58.4879L61.0979 100.182H61.1339L63.6359 93.576H65.1659L61.0979 103.926ZM77.6893 95.682C77.3893 95.322 77.0653 95.064 76.7173 94.908C76.3693 94.74 75.9853 94.656 75.5653 94.656C75.0973 94.656 74.6833 94.74 74.3233 94.908C73.9633 95.064 73.6633 95.286 73.4233 95.574C73.1953 95.862 73.0213 96.198 72.9013 96.582C72.7813 96.954 72.7213 97.356 72.7213 97.788C72.7213 98.22 72.7873 98.628 72.9193 99.012C73.0633 99.384 73.2553 99.714 73.4953 100.002C73.7473 100.29 74.0473 100.518 74.3953 100.686C74.7433 100.842 75.1333 100.92 75.5653 100.92C76.4893 100.92 77.2033 100.572 77.7073 99.876L78.7513 100.866C78.3433 101.334 77.8633 101.676 77.3113 101.892C76.7593 102.108 76.1773 102.216 75.5653 102.216C74.9173 102.216 74.3233 102.108 73.7833 101.892C73.2433 101.676 72.7813 101.37 72.3973 100.974C72.0253 100.578 71.7313 100.11 71.5153 99.57C71.3113 99.03 71.2093 98.436 71.2093 97.788C71.2093 97.152 71.3113 96.564 71.5153 96.024C71.7313 95.484 72.0313 95.016 72.4153 94.62C72.7993 94.224 73.2553 93.918 73.7833 93.702C74.3233 93.474 74.9173 93.36 75.5653 93.36C76.1893 93.36 76.7773 93.468 77.3293 93.684C77.8933 93.9 78.3853 94.236 78.8053 94.692L77.6893 95.682ZM87.7229 100.002C87.7229 100.386 87.7349 100.746 87.7589 101.082C87.7829 101.418 87.7949 101.724 87.7949 102H86.4629C86.4629 101.772 86.4569 101.544 86.4449 101.316C86.4329 101.088 86.4269 100.854 86.4269 100.614H86.3909C86.2949 100.818 86.1569 101.016 85.9769 101.208C85.8089 101.4 85.6049 101.574 85.3649 101.73C85.1249 101.874 84.8549 101.988 84.5549 102.072C84.2549 102.168 83.9309 102.216 83.5829 102.216C83.0309 102.216 82.5509 102.132 82.1429 101.964C81.7469 101.796 81.4169 101.562 81.1529 101.262C80.8889 100.962 80.6909 100.602 80.5589 100.182C80.4389 99.75 80.3789 99.282 80.3789 98.778V93.576H81.7829V98.634C81.7829 99.342 81.9389 99.9 82.2509 100.308C82.5629 100.716 83.0489 100.92 83.7089 100.92C84.1649 100.92 84.5549 100.842 84.8789 100.686C85.2149 100.53 85.4849 100.308 85.6889 100.02C85.9049 99.732 86.0609 99.39 86.1569 98.994C86.2649 98.598 86.3189 98.16 86.3189 97.68V93.576H87.7229V100.002ZM90.5608 99.786C90.8368 100.134 91.1368 100.41 91.4608 100.614C91.7968 100.818 92.2168 100.92 92.7208 100.92C92.9368 100.92 93.1528 100.896 93.3688 100.848C93.5968 100.8 93.8008 100.722 93.9808 100.614C94.1608 100.506 94.3048 100.374 94.4128 100.218C94.5208 100.05 94.5748 99.852 94.5748 99.624C94.5748 99.396 94.5208 99.21 94.4128 99.066C94.3168 98.922 94.1848 98.802 94.0168 98.706C93.8488 98.598 93.6568 98.514 93.4408 98.454C93.2248 98.394 93.0028 98.34 92.7748 98.292C92.3788 98.208 92.0008 98.112 91.6408 98.004C91.2808 97.896 90.9628 97.758 90.6868 97.59C90.4228 97.41 90.2068 97.182 90.0388 96.906C89.8828 96.63 89.8048 96.276 89.8048 95.844C89.8048 95.436 89.8948 95.076 90.0748 94.764C90.2548 94.452 90.4948 94.194 90.7948 93.99C91.0948 93.786 91.4308 93.63 91.8028 93.522C92.1748 93.414 92.5588 93.36 92.9548 93.36C93.5548 93.36 94.1068 93.48 94.6108 93.72C95.1268 93.96 95.5288 94.35 95.8168 94.89L94.6468 95.664C94.4668 95.364 94.2268 95.124 93.9268 94.944C93.6388 94.752 93.2848 94.656 92.8648 94.656C92.6728 94.656 92.4748 94.68 92.2708 94.728C92.0788 94.776 91.9048 94.848 91.7488 94.944C91.5928 95.04 91.4608 95.166 91.3528 95.322C91.2568 95.466 91.2088 95.634 91.2088 95.826C91.2088 96.006 91.2628 96.162 91.3708 96.294C91.4908 96.414 91.6468 96.522 91.8388 96.618C92.0428 96.714 92.2708 96.798 92.5228 96.87C92.7868 96.942 93.0568 97.002 93.3328 97.05C93.7048 97.122 94.0588 97.218 94.3948 97.338C94.7308 97.446 95.0248 97.596 95.2768 97.788C95.5288 97.98 95.7268 98.22 95.8708 98.508C96.0148 98.796 96.0868 99.15 96.0868 99.57C96.0868 100.05 95.9908 100.458 95.7988 100.794C95.6068 101.13 95.3488 101.406 95.0248 101.622C94.7128 101.826 94.3528 101.976 93.9448 102.072C93.5488 102.168 93.1408 102.216 92.7208 102.216C92.0008 102.216 91.3768 102.108 90.8488 101.892C90.3328 101.664 89.8648 101.25 89.4448 100.65L90.5608 99.786ZM102.653 94.764H100.169V98.976C100.169 99.252 100.175 99.51 100.187 99.75C100.199 99.978 100.247 100.182 100.331 100.362C100.415 100.53 100.541 100.668 100.709 100.776C100.877 100.872 101.117 100.92 101.429 100.92C101.633 100.92 101.843 100.896 102.059 100.848C102.275 100.8 102.479 100.728 102.671 100.632L102.725 101.91C102.485 102.018 102.215 102.096 101.915 102.144C101.627 102.192 101.351 102.216 101.087 102.216C100.583 102.216 100.181 102.15 99.8809 102.018C99.5809 101.886 99.3469 101.7 99.1789 101.46C99.0109 101.22 98.8969 100.926 98.8369 100.578C98.7889 100.218 98.7649 99.822 98.7649 99.39V94.764H96.9289V93.576H98.7649V91.182H100.169V93.576H102.653V94.764ZM103.887 97.788C103.887 97.128 104.001 96.528 104.229 95.988C104.457 95.448 104.769 94.986 105.165 94.602C105.561 94.206 106.035 93.9 106.587 93.684C107.139 93.468 107.739 93.36 108.387 93.36C109.035 93.36 109.635 93.468 110.187 93.684C110.739 93.9 111.213 94.206 111.609 94.602C112.005 94.986 112.317 95.448 112.545 95.988C112.773 96.528 112.887 97.128 112.887 97.788C112.887 98.448 112.773 99.048 112.545 99.588C112.317 100.128 112.005 100.596 111.609 100.992C111.213 101.376 110.739 101.676 110.187 101.892C109.635 102.108 109.035 102.216 108.387 102.216C107.739 102.216 107.139 102.108 106.587 101.892C106.035 101.676 105.561 101.376 105.165 100.992C104.769 100.596 104.457 100.128 104.229 99.588C104.001 99.048 103.887 98.448 103.887 97.788ZM105.399 97.788C105.399 98.232 105.465 98.646 105.597 99.03C105.741 99.402 105.945 99.732 106.209 100.02C106.473 100.296 106.785 100.518 107.145 100.686C107.517 100.842 107.931 100.92 108.387 100.92C108.843 100.92 109.251 100.842 109.611 100.686C109.983 100.518 110.301 100.296 110.565 100.02C110.829 99.732 111.027 99.402 111.159 99.03C111.303 98.646 111.375 98.232 111.375 97.788C111.375 97.344 111.303 96.936 111.159 96.564C111.027 96.18 110.829 95.85 110.565 95.574C110.301 95.286 109.983 95.064 109.611 94.908C109.251 94.74 108.843 94.656 108.387 94.656C107.931 94.656 107.517 94.74 107.145 94.908C106.785 95.064 106.473 95.286 106.209 95.574C105.945 95.85 105.741 96.18 105.597 96.564C105.465 96.936 105.399 97.344 105.399 97.788ZM115.061 95.574C115.061 95.19 115.049 94.83 115.025 94.494C115.001 94.158 114.989 93.852 114.989 93.576H116.321C116.321 93.804 116.327 94.032 116.339 94.26C116.351 94.488 116.357 94.722 116.357 94.962H116.393C116.489 94.758 116.621 94.56 116.789 94.368C116.969 94.176 117.179 94.008 117.419 93.864C117.659 93.708 117.929 93.588 118.229 93.504C118.529 93.408 118.853 93.36 119.201 93.36C119.657 93.36 120.035 93.42 120.335 93.54C120.647 93.648 120.905 93.786 121.109 93.954C121.313 94.11 121.469 94.284 121.577 94.476C121.697 94.656 121.793 94.818 121.865 94.962C122.177 94.458 122.537 94.068 122.945 93.792C123.353 93.504 123.881 93.36 124.529 93.36C125.129 93.36 125.633 93.444 126.041 93.612C126.449 93.768 126.779 94.002 127.031 94.314C127.283 94.614 127.463 94.986 127.571 95.43C127.679 95.862 127.733 96.348 127.733 96.888V102H126.329V96.96C126.329 96.672 126.299 96.39 126.239 96.114C126.179 95.838 126.071 95.592 125.915 95.376C125.759 95.16 125.549 94.986 125.285 94.854C125.021 94.722 124.685 94.656 124.277 94.656C123.977 94.656 123.695 94.716 123.431 94.836C123.167 94.956 122.933 95.124 122.729 95.34C122.537 95.556 122.381 95.82 122.261 96.132C122.153 96.432 122.099 96.768 122.099 97.14V102H120.695V97.23C120.695 96.294 120.569 95.634 120.317 95.25C120.065 94.854 119.651 94.656 119.075 94.656C118.619 94.656 118.223 94.734 117.887 94.89C117.563 95.046 117.293 95.268 117.077 95.556C116.873 95.844 116.717 96.186 116.609 96.582C116.513 96.978 116.465 97.416 116.465 97.896V102H115.061V95.574ZM130.515 93.576H131.919V102H130.515V93.576ZM130.191 90.282C130.191 90.006 130.287 89.766 130.479 89.562C130.683 89.358 130.929 89.256 131.217 89.256C131.505 89.256 131.745 89.358 131.937 89.562C132.141 89.766 132.243 90.006 132.243 90.282C132.243 90.582 132.147 90.828 131.955 91.02C131.763 91.212 131.517 91.308 131.217 91.308C130.917 91.308 130.671 91.212 130.479 91.02C130.287 90.828 130.191 90.582 130.191 90.282ZM133.921 100.902L138.871 94.764H134.137V93.576H140.707V94.656L135.757 100.812H140.833V102H133.921V100.902ZM150.235 100.47C149.731 101.118 149.179 101.574 148.579 101.838C147.979 102.09 147.283 102.216 146.491 102.216C145.831 102.216 145.237 102.102 144.709 101.874C144.181 101.634 143.731 101.316 143.359 100.92C142.999 100.524 142.717 100.056 142.513 99.516C142.321 98.976 142.225 98.4 142.225 97.788C142.225 97.14 142.333 96.546 142.549 96.006C142.765 95.454 143.065 94.986 143.449 94.602C143.833 94.206 144.289 93.9 144.817 93.684C145.345 93.468 145.921 93.36 146.545 93.36C147.133 93.36 147.673 93.462 148.165 93.666C148.657 93.858 149.077 94.146 149.425 94.53C149.785 94.902 150.061 95.364 150.253 95.916C150.445 96.456 150.541 97.074 150.541 97.77V98.22H143.737C143.761 98.58 143.845 98.928 143.989 99.264C144.145 99.588 144.343 99.876 144.583 100.128C144.823 100.368 145.105 100.56 145.429 100.704C145.753 100.848 146.107 100.92 146.491 100.92C147.103 100.92 147.619 100.812 148.039 100.596C148.459 100.38 148.837 100.062 149.173 99.642L150.235 100.47ZM149.029 97.032C149.005 96.312 148.771 95.736 148.327 95.304C147.883 94.872 147.271 94.656 146.491 94.656C145.711 94.656 145.081 94.872 144.601 95.304C144.121 95.736 143.833 96.312 143.737 97.032H149.029ZM159.715 100.506H159.679C159.415 100.986 158.995 101.394 158.419 101.73C157.855 102.054 157.195 102.216 156.439 102.216C155.851 102.216 155.299 102.108 154.783 101.892C154.267 101.664 153.817 101.352 153.433 100.956C153.061 100.56 152.767 100.092 152.551 99.552C152.335 99.012 152.227 98.424 152.227 97.788C152.227 97.152 152.335 96.564 152.551 96.024C152.767 95.484 153.067 95.016 153.451 94.62C153.835 94.224 154.297 93.918 154.837 93.702C155.389 93.474 155.995 93.36 156.655 93.36C157.267 93.36 157.825 93.486 158.329 93.738C158.845 93.99 159.295 94.344 159.679 94.8H159.715V88.392H161.119V102H159.715V100.506ZM159.715 97.788C159.715 97.344 159.643 96.936 159.499 96.564C159.367 96.18 159.169 95.85 158.905 95.574C158.641 95.286 158.323 95.064 157.951 94.908C157.591 94.74 157.183 94.656 156.727 94.656C156.271 94.656 155.857 94.74 155.485 94.908C155.125 95.064 154.813 95.286 154.549 95.574C154.285 95.85 154.081 96.18 153.937 96.564C153.805 96.936 153.739 97.344 153.739 97.788C153.739 98.232 153.805 98.646 153.937 99.03C154.081 99.402 154.285 99.732 154.549 100.02C154.813 100.296 155.125 100.518 155.485 100.686C155.857 100.842 156.271 100.92 156.727 100.92C157.183 100.92 157.591 100.842 157.951 100.686C158.323 100.518 158.641 100.296 158.905 100.02C159.169 99.732 159.367 99.402 159.499 99.03C159.643 98.646 159.715 98.232 159.715 97.788ZM174.721 95.682C174.421 95.322 174.097 95.064 173.749 94.908C173.401 94.74 173.017 94.656 172.597 94.656C172.129 94.656 171.715 94.74 171.355 94.908C170.995 95.064 170.695 95.286 170.455 95.574C170.227 95.862 170.053 96.198 169.933 96.582C169.813 96.954 169.753 97.356 169.753 97.788C169.753 98.22 169.819 98.628 169.951 99.012C170.095 99.384 170.287 99.714 170.527 100.002C170.779 100.29 171.079 100.518 171.427 100.686C171.775 100.842 172.165 100.92 172.597 100.92C173.521 100.92 174.235 100.572 174.739 99.876L175.783 100.866C175.375 101.334 174.895 101.676 174.343 101.892C173.791 102.108 173.209 102.216 172.597 102.216C171.949 102.216 171.355 102.108 170.815 101.892C170.275 101.676 169.813 101.37 169.429 100.974C169.057 100.578 168.763 100.11 168.547 99.57C168.343 99.03 168.241 98.436 168.241 97.788C168.241 97.152 168.343 96.564 168.547 96.024C168.763 95.484 169.063 95.016 169.447 94.62C169.831 94.224 170.287 93.918 170.815 93.702C171.355 93.474 171.949 93.36 172.597 93.36C173.221 93.36 173.809 93.468 174.361 93.684C174.925 93.9 175.417 94.236 175.837 94.692L174.721 95.682ZM177.302 94.656C177.734 94.212 178.244 93.888 178.832 93.684C179.432 93.468 180.038 93.36 180.65 93.36C181.898 93.36 182.798 93.654 183.35 94.242C183.902 94.83 184.178 95.724 184.178 96.924V100.542C184.178 100.782 184.19 101.034 184.214 101.298C184.238 101.55 184.268 101.784 184.304 102H182.954C182.906 101.808 182.876 101.598 182.864 101.37C182.864 101.13 182.864 100.92 182.864 100.74H182.828C182.552 101.172 182.18 101.526 181.712 101.802C181.256 102.078 180.704 102.216 180.056 102.216C179.624 102.216 179.216 102.162 178.832 102.054C178.46 101.946 178.13 101.79 177.842 101.586C177.566 101.37 177.344 101.106 177.176 100.794C177.008 100.482 176.924 100.122 176.924 99.714C176.924 99.018 177.104 98.472 177.464 98.076C177.824 97.68 178.268 97.386 178.796 97.194C179.336 97.002 179.912 96.882 180.524 96.834C181.148 96.786 181.718 96.762 182.234 96.762H182.774V96.51C182.774 95.898 182.588 95.436 182.216 95.124C181.856 94.812 181.346 94.656 180.686 94.656C180.23 94.656 179.78 94.734 179.336 94.89C178.904 95.034 178.52 95.262 178.184 95.574L177.302 94.656ZM181.37 97.95C180.47 97.95 179.756 98.076 179.228 98.328C178.7 98.58 178.436 98.994 178.436 99.57C178.436 100.098 178.61 100.476 178.958 100.704C179.318 100.92 179.762 101.028 180.29 101.028C180.698 101.028 181.052 100.962 181.352 100.83C181.664 100.686 181.922 100.5 182.126 100.272C182.33 100.044 182.486 99.78 182.594 99.48C182.702 99.168 182.762 98.838 182.774 98.49V97.95H181.37ZM186.744 95.574C186.744 95.19 186.732 94.83 186.708 94.494C186.684 94.158 186.672 93.852 186.672 93.576H188.004C188.004 93.804 188.01 94.032 188.022 94.26C188.034 94.488 188.04 94.722 188.04 94.962H188.076C188.172 94.758 188.304 94.56 188.472 94.368C188.652 94.176 188.862 94.008 189.102 93.864C189.342 93.708 189.612 93.588 189.912 93.504C190.212 93.408 190.536 93.36 190.884 93.36C191.34 93.36 191.718 93.42 192.018 93.54C192.33 93.648 192.588 93.786 192.792 93.954C192.996 94.11 193.152 94.284 193.26 94.476C193.38 94.656 193.476 94.818 193.548 94.962C193.86 94.458 194.22 94.068 194.628 93.792C195.036 93.504 195.564 93.36 196.212 93.36C196.812 93.36 197.316 93.444 197.724 93.612C198.132 93.768 198.462 94.002 198.714 94.314C198.966 94.614 199.146 94.986 199.254 95.43C199.362 95.862 199.416 96.348 199.416 96.888V102H198.012V96.96C198.012 96.672 197.982 96.39 197.922 96.114C197.862 95.838 197.754 95.592 197.598 95.376C197.442 95.16 197.232 94.986 196.968 94.854C196.704 94.722 196.368 94.656 195.96 94.656C195.66 94.656 195.378 94.716 195.114 94.836C194.85 94.956 194.616 95.124 194.412 95.34C194.22 95.556 194.064 95.82 193.944 96.132C193.836 96.432 193.782 96.768 193.782 97.14V102H192.378V97.23C192.378 96.294 192.252 95.634 192 95.25C191.748 94.854 191.334 94.656 190.758 94.656C190.302 94.656 189.906 94.734 189.57 94.89C189.246 95.046 188.976 95.268 188.76 95.556C188.556 95.844 188.4 96.186 188.292 96.582C188.196 96.978 188.148 97.416 188.148 97.896V102H186.744V95.574ZM202 93.576H203.404V94.8H203.44C203.824 94.344 204.268 93.99 204.772 93.738C205.288 93.486 205.852 93.36 206.464 93.36C207.124 93.36 207.724 93.474 208.264 93.702C208.816 93.918 209.284 94.224 209.668 94.62C210.052 95.016 210.352 95.484 210.568 96.024C210.784 96.564 210.892 97.152 210.892 97.788C210.892 98.424 210.784 99.012 210.568 99.552C210.352 100.092 210.052 100.56 209.668 100.956C209.296 101.352 208.852 101.664 208.336 101.892C207.82 102.108 207.268 102.216 206.68 102.216C205.924 102.216 205.258 102.054 204.682 101.73C204.118 101.394 203.704 100.986 203.44 100.506H203.404V106.104H202V93.576ZM203.404 97.788C203.404 98.232 203.47 98.646 203.602 99.03C203.746 99.402 203.95 99.732 204.214 100.02C204.478 100.296 204.79 100.518 205.15 100.686C205.522 100.842 205.936 100.92 206.392 100.92C206.848 100.92 207.256 100.842 207.616 100.686C207.988 100.518 208.306 100.296 208.57 100.02C208.834 99.732 209.032 99.402 209.164 99.03C209.308 98.646 209.38 98.232 209.38 97.788C209.38 97.344 209.308 96.936 209.164 96.564C209.032 96.18 208.834 95.85 208.57 95.574C208.306 95.286 207.988 95.064 207.616 94.908C207.256 94.74 206.848 94.656 206.392 94.656C205.936 94.656 205.522 94.74 205.15 94.908C204.79 95.064 204.478 95.286 204.214 95.574C203.95 95.85 203.746 96.18 203.602 96.564C203.47 96.936 203.404 97.344 203.404 97.788ZM212.968 94.656C213.4 94.212 213.91 93.888 214.498 93.684C215.098 93.468 215.704 93.36 216.316 93.36C217.564 93.36 218.464 93.654 219.016 94.242C219.568 94.83 219.844 95.724 219.844 96.924V100.542C219.844 100.782 219.856 101.034 219.88 101.298C219.904 101.55 219.934 101.784 219.97 102H218.62C218.572 101.808 218.542 101.598 218.53 101.37C218.53 101.13 218.53 100.92 218.53 100.74H218.494C218.218 101.172 217.846 101.526 217.378 101.802C216.922 102.078 216.37 102.216 215.722 102.216C215.29 102.216 214.882 102.162 214.498 102.054C214.126 101.946 213.796 101.79 213.508 101.586C213.232 101.37 213.01 101.106 212.842 100.794C212.674 100.482 212.59 100.122 212.59 99.714C212.59 99.018 212.77 98.472 213.13 98.076C213.49 97.68 213.934 97.386 214.462 97.194C215.002 97.002 215.578 96.882 216.19 96.834C216.814 96.786 217.384 96.762 217.9 96.762H218.44V96.51C218.44 95.898 218.254 95.436 217.882 95.124C217.522 94.812 217.012 94.656 216.352 94.656C215.896 94.656 215.446 94.734 215.002 94.89C214.57 95.034 214.186 95.262 213.85 95.574L212.968 94.656ZM217.036 97.95C216.136 97.95 215.422 98.076 214.894 98.328C214.366 98.58 214.102 98.994 214.102 99.57C214.102 100.098 214.276 100.476 214.624 100.704C214.984 100.92 215.428 101.028 215.956 101.028C216.364 101.028 216.718 100.962 217.018 100.83C217.33 100.686 217.588 100.5 217.792 100.272C217.996 100.044 218.152 99.78 218.26 99.48C218.368 99.168 218.428 98.838 218.44 98.49V97.95H217.036ZM222.536 93.576H223.94V102H222.536V93.576ZM222.212 90.282C222.212 90.006 222.308 89.766 222.5 89.562C222.704 89.358 222.95 89.256 223.238 89.256C223.526 89.256 223.766 89.358 223.958 89.562C224.162 89.766 224.264 90.006 224.264 90.282C224.264 90.582 224.168 90.828 223.976 91.02C223.784 91.212 223.538 91.308 223.238 91.308C222.938 91.308 222.692 91.212 222.5 91.02C222.308 90.828 222.212 90.582 222.212 90.282ZM235.14 101.622C235.14 103.158 234.744 104.322 233.952 105.114C233.172 105.918 232.038 106.32 230.55 106.32C229.722 106.32 228.972 106.2 228.3 105.96C227.64 105.72 227.01 105.306 226.41 104.718L227.418 103.566C227.862 104.046 228.33 104.406 228.822 104.646C229.326 104.898 229.902 105.024 230.55 105.024C231.174 105.024 231.69 104.928 232.098 104.736C232.518 104.556 232.848 104.304 233.088 103.98C233.328 103.668 233.496 103.308 233.592 102.9C233.688 102.492 233.736 102.066 233.736 101.622V100.542H233.7C233.364 101.082 232.926 101.478 232.386 101.73C231.846 101.982 231.294 102.108 230.73 102.108C230.07 102.108 229.464 102 228.912 101.784C228.36 101.568 227.886 101.268 227.49 100.884C227.094 100.5 226.788 100.044 226.572 99.516C226.356 98.988 226.248 98.412 226.248 97.788C226.248 97.104 226.356 96.486 226.572 95.934C226.788 95.382 227.088 94.92 227.472 94.548C227.868 94.164 228.342 93.87 228.894 93.666C229.446 93.462 230.058 93.36 230.73 93.36C231.018 93.36 231.306 93.396 231.594 93.468C231.882 93.528 232.158 93.63 232.422 93.774C232.698 93.906 232.944 94.08 233.16 94.296C233.376 94.5 233.556 94.74 233.7 95.016H233.736V93.576H235.14V101.622ZM227.76 97.788C227.76 98.22 227.838 98.622 227.994 98.994C228.15 99.354 228.36 99.672 228.624 99.948C228.9 100.212 229.218 100.422 229.578 100.578C229.938 100.734 230.322 100.812 230.73 100.812C231.21 100.812 231.636 100.728 232.008 100.56C232.38 100.392 232.692 100.17 232.944 99.894C233.208 99.606 233.406 99.282 233.538 98.922C233.67 98.55 233.736 98.16 233.736 97.752C233.736 97.296 233.664 96.882 233.52 96.51C233.376 96.126 233.172 95.796 232.908 95.52C232.644 95.244 232.326 95.034 231.954 94.89C231.582 94.734 231.174 94.656 230.73 94.656C230.286 94.656 229.878 94.74 229.506 94.908C229.146 95.064 228.834 95.286 228.57 95.574C228.318 95.85 228.12 96.18 227.976 96.564C227.832 96.936 227.76 97.344 227.76 97.788ZM237.738 95.574C237.738 95.19 237.726 94.83 237.702 94.494C237.678 94.158 237.666 93.852 237.666 93.576H238.998C238.998 93.804 239.004 94.032 239.016 94.26C239.028 94.488 239.034 94.722 239.034 94.962H239.07C239.166 94.758 239.298 94.56 239.466 94.368C239.646 94.176 239.856 94.008 240.096 93.864C240.336 93.708 240.606 93.588 240.906 93.504C241.206 93.408 241.53 93.36 241.878 93.36C242.43 93.36 242.904 93.444 243.3 93.612C243.708 93.78 244.044 94.014 244.308 94.314C244.572 94.614 244.764 94.98 244.884 95.412C245.016 95.832 245.082 96.294 245.082 96.798V102H243.678V96.942C243.678 96.234 243.522 95.676 243.21 95.268C242.898 94.86 242.412 94.656 241.752 94.656C241.296 94.656 240.9 94.734 240.564 94.89C240.24 95.046 239.97 95.268 239.754 95.556C239.55 95.844 239.394 96.186 239.286 96.582C239.19 96.978 239.142 97.416 239.142 97.896V102H237.738V95.574ZM247.92 99.786C248.196 100.134 248.496 100.41 248.82 100.614C249.156 100.818 249.576 100.92 250.08 100.92C250.296 100.92 250.512 100.896 250.728 100.848C250.956 100.8 251.16 100.722 251.34 100.614C251.52 100.506 251.664 100.374 251.772 100.218C251.88 100.05 251.934 99.852 251.934 99.624C251.934 99.396 251.88 99.21 251.772 99.066C251.676 98.922 251.544 98.802 251.376 98.706C251.208 98.598 251.016 98.514 250.8 98.454C250.584 98.394 250.362 98.34 250.134 98.292C249.738 98.208 249.36 98.112 249 98.004C248.64 97.896 248.322 97.758 248.046 97.59C247.782 97.41 247.566 97.182 247.398 96.906C247.242 96.63 247.164 96.276 247.164 95.844C247.164 95.436 247.254 95.076 247.434 94.764C247.614 94.452 247.854 94.194 248.154 93.99C248.454 93.786 248.79 93.63 249.162 93.522C249.534 93.414 249.918 93.36 250.314 93.36C250.914 93.36 251.466 93.48 251.97 93.72C252.486 93.96 252.888 94.35 253.176 94.89L252.006 95.664C251.826 95.364 251.586 95.124 251.286 94.944C250.998 94.752 250.644 94.656 250.224 94.656C250.032 94.656 249.834 94.68 249.63 94.728C249.438 94.776 249.264 94.848 249.108 94.944C248.952 95.04 248.82 95.166 248.712 95.322C248.616 95.466 248.568 95.634 248.568 95.826C248.568 96.006 248.622 96.162 248.73 96.294C248.85 96.414 249.006 96.522 249.198 96.618C249.402 96.714 249.63 96.798 249.882 96.87C250.146 96.942 250.416 97.002 250.692 97.05C251.064 97.122 251.418 97.218 251.754 97.338C252.09 97.446 252.384 97.596 252.636 97.788C252.888 97.98 253.086 98.22 253.23 98.508C253.374 98.796 253.446 99.15 253.446 99.57C253.446 100.05 253.35 100.458 253.158 100.794C252.966 101.13 252.708 101.406 252.384 101.622C252.072 101.826 251.712 101.976 251.304 102.072C250.908 102.168 250.5 102.216 250.08 102.216C249.36 102.216 248.736 102.108 248.208 101.892C247.692 101.664 247.224 101.25 246.804 100.65L247.92 99.786ZM261.134 94.764H259.298V93.576H261.134V91.686C261.134 91.17 261.182 90.702 261.278 90.282C261.374 89.85 261.536 89.478 261.764 89.166C262.004 88.854 262.316 88.614 262.7 88.446C263.084 88.266 263.558 88.176 264.122 88.176C264.302 88.176 264.494 88.194 264.698 88.23C264.902 88.266 265.07 88.32 265.202 88.392L265.004 89.652C264.668 89.532 264.35 89.472 264.05 89.472C263.69 89.472 263.408 89.538 263.204 89.67C263 89.79 262.844 89.964 262.736 90.192C262.64 90.408 262.58 90.672 262.556 90.984C262.544 91.296 262.538 91.632 262.538 91.992V93.576H264.59V94.764H262.538V102H261.134V94.764ZM265.606 97.788C265.606 97.128 265.72 96.528 265.948 95.988C266.176 95.448 266.488 94.986 266.884 94.602C267.28 94.206 267.754 93.9 268.306 93.684C268.858 93.468 269.458 93.36 270.106 93.36C270.754 93.36 271.354 93.468 271.906 93.684C272.458 93.9 272.932 94.206 273.328 94.602C273.724 94.986 274.036 95.448 274.264 95.988C274.492 96.528 274.606 97.128 274.606 97.788C274.606 98.448 274.492 99.048 274.264 99.588C274.036 100.128 273.724 100.596 273.328 100.992C272.932 101.376 272.458 101.676 271.906 101.892C271.354 102.108 270.754 102.216 270.106 102.216C269.458 102.216 268.858 102.108 268.306 101.892C267.754 101.676 267.28 101.376 266.884 100.992C266.488 100.596 266.176 100.128 265.948 99.588C265.72 99.048 265.606 98.448 265.606 97.788ZM267.118 97.788C267.118 98.232 267.184 98.646 267.316 99.03C267.46 99.402 267.664 99.732 267.928 100.02C268.192 100.296 268.504 100.518 268.864 100.686C269.236 100.842 269.65 100.92 270.106 100.92C270.562 100.92 270.97 100.842 271.33 100.686C271.702 100.518 272.02 100.296 272.284 100.02C272.548 99.732 272.746 99.402 272.878 99.03C273.022 98.646 273.094 98.232 273.094 97.788C273.094 97.344 273.022 96.936 272.878 96.564C272.746 96.18 272.548 95.85 272.284 95.574C272.02 95.286 271.702 95.064 271.33 94.908C270.97 94.74 270.562 94.656 270.106 94.656C269.65 94.656 269.236 94.74 268.864 94.908C268.504 95.064 268.192 95.286 267.928 95.574C267.664 95.85 267.46 96.18 267.316 96.564C267.184 96.936 267.118 97.344 267.118 97.788ZM276.779 95.574C276.779 95.19 276.767 94.83 276.743 94.494C276.719 94.158 276.707 93.852 276.707 93.576H278.039C278.039 93.804 278.045 94.032 278.057 94.26C278.069 94.488 278.075 94.722 278.075 94.962H278.111C278.207 94.758 278.339 94.56 278.507 94.368C278.687 94.176 278.897 94.008 279.137 93.864C279.377 93.708 279.647 93.588 279.947 93.504C280.247 93.408 280.571 93.36 280.919 93.36C281.015 93.36 281.111 93.366 281.207 93.378C281.303 93.39 281.399 93.414 281.495 93.45L281.405 94.872C281.165 94.8 280.913 94.764 280.649 94.764C279.785 94.764 279.155 95.046 278.759 95.61C278.375 96.162 278.183 96.924 278.183 97.896V102H276.779V95.574ZM291.213 103.926C291.069 104.286 290.919 104.61 290.763 104.898C290.619 105.198 290.439 105.45 290.223 105.654C290.019 105.87 289.767 106.032 289.467 106.14C289.179 106.26 288.825 106.32 288.405 106.32C288.201 106.32 287.985 106.308 287.757 106.284C287.541 106.26 287.337 106.2 287.145 106.104L287.325 104.88C287.469 104.94 287.619 104.976 287.775 104.988C287.931 105.012 288.111 105.024 288.315 105.024C288.771 105.024 289.107 104.898 289.323 104.646C289.539 104.394 289.725 104.058 289.881 103.638L290.457 102.054L286.965 93.576H288.603L291.213 100.182H291.249L293.751 93.576H295.281L291.213 103.926ZM296.315 97.788C296.315 97.128 296.429 96.528 296.657 95.988C296.885 95.448 297.197 94.986 297.593 94.602C297.989 94.206 298.463 93.9 299.015 93.684C299.567 93.468 300.167 93.36 300.815 93.36C301.463 93.36 302.063 93.468 302.615 93.684C303.167 93.9 303.641 94.206 304.037 94.602C304.433 94.986 304.745 95.448 304.973 95.988C305.201 96.528 305.315 97.128 305.315 97.788C305.315 98.448 305.201 99.048 304.973 99.588C304.745 100.128 304.433 100.596 304.037 100.992C303.641 101.376 303.167 101.676 302.615 101.892C302.063 102.108 301.463 102.216 300.815 102.216C300.167 102.216 299.567 102.108 299.015 101.892C298.463 101.676 297.989 101.376 297.593 100.992C297.197 100.596 296.885 100.128 296.657 99.588C296.429 99.048 296.315 98.448 296.315 97.788ZM297.827 97.788C297.827 98.232 297.893 98.646 298.025 99.03C298.169 99.402 298.373 99.732 298.637 100.02C298.901 100.296 299.213 100.518 299.573 100.686C299.945 100.842 300.359 100.92 300.815 100.92C301.271 100.92 301.679 100.842 302.039 100.686C302.411 100.518 302.729 100.296 302.993 100.02C303.257 99.732 303.455 99.402 303.587 99.03C303.731 98.646 303.803 98.232 303.803 97.788C303.803 97.344 303.731 96.936 303.587 96.564C303.455 96.18 303.257 95.85 302.993 95.574C302.729 95.286 302.411 95.064 302.039 94.908C301.679 94.74 301.271 94.656 300.815 94.656C300.359 94.656 299.945 94.74 299.573 94.908C299.213 95.064 298.901 95.286 298.637 95.574C298.373 95.85 298.169 96.18 298.025 96.564C297.893 96.936 297.827 97.344 297.827 97.788ZM314.832 100.002C314.832 100.386 314.844 100.746 314.868 101.082C314.892 101.418 314.904 101.724 314.904 102H313.572C313.572 101.772 313.566 101.544 313.554 101.316C313.542 101.088 313.536 100.854 313.536 100.614H313.5C313.404 100.818 313.266 101.016 313.086 101.208C312.918 101.4 312.714 101.574 312.474 101.73C312.234 101.874 311.964 101.988 311.664 102.072C311.364 102.168 311.04 102.216 310.692 102.216C310.14 102.216 309.66 102.132 309.252 101.964C308.856 101.796 308.526 101.562 308.262 101.262C307.998 100.962 307.8 100.602 307.668 100.182C307.548 99.75 307.488 99.282 307.488 98.778V93.576H308.892V98.634C308.892 99.342 309.048 99.9 309.36 100.308C309.672 100.716 310.158 100.92 310.818 100.92C311.274 100.92 311.664 100.842 311.988 100.686C312.324 100.53 312.594 100.308 312.798 100.02C313.014 99.732 313.17 99.39 313.266 98.994C313.374 98.598 313.428 98.16 313.428 97.68V93.576H314.832V100.002ZM317.49 95.574C317.49 95.19 317.478 94.83 317.454 94.494C317.43 94.158 317.418 93.852 317.418 93.576H318.75C318.75 93.804 318.756 94.032 318.768 94.26C318.78 94.488 318.786 94.722 318.786 94.962H318.822C318.918 94.758 319.05 94.56 319.218 94.368C319.398 94.176 319.608 94.008 319.848 93.864C320.088 93.708 320.358 93.588 320.658 93.504C320.958 93.408 321.282 93.36 321.63 93.36C321.726 93.36 321.822 93.366 321.918 93.378C322.014 93.39 322.11 93.414 322.206 93.45L322.116 94.872C321.876 94.8 321.624 94.764 321.36 94.764C320.496 94.764 319.866 95.046 319.47 95.61C319.086 96.162 318.894 96.924 318.894 97.896V102H317.49V95.574ZM29.26 116.392H30.664V122.8H30.7C31.084 122.344 31.528 121.99 32.032 121.738C32.548 121.486 33.112 121.36 33.724 121.36C34.384 121.36 34.984 121.474 35.524 121.702C36.076 121.918 36.544 122.224 36.928 122.62C37.312 123.016 37.612 123.484 37.828 124.024C38.044 124.564 38.152 125.152 38.152 125.788C38.152 126.424 38.044 127.012 37.828 127.552C37.612 128.092 37.312 128.56 36.928 128.956C36.556 129.352 36.112 129.664 35.596 129.892C35.08 130.108 34.528 130.216 33.94 130.216C33.184 130.216 32.518 130.054 31.942 129.73C31.378 129.394 30.964 128.986 30.7 128.506H30.664V130H29.26V116.392ZM30.664 125.788C30.664 126.232 30.73 126.646 30.862 127.03C31.006 127.402 31.21 127.732 31.474 128.02C31.738 128.296 32.05 128.518 32.41 128.686C32.782 128.842 33.196 128.92 33.652 128.92C34.108 128.92 34.516 128.842 34.876 128.686C35.248 128.518 35.566 128.296 35.83 128.02C36.094 127.732 36.292 127.402 36.424 127.03C36.568 126.646 36.64 126.232 36.64 125.788C36.64 125.344 36.568 124.936 36.424 124.564C36.292 124.18 36.094 123.85 35.83 123.574C35.566 123.286 35.248 123.064 34.876 122.908C34.516 122.74 34.108 122.656 33.652 122.656C33.196 122.656 32.782 122.74 32.41 122.908C32.05 123.064 31.738 123.286 31.474 123.574C31.21 123.85 31.006 124.18 30.862 124.564C30.73 124.936 30.664 125.344 30.664 125.788ZM40.3359 123.574C40.3359 123.19 40.3239 122.83 40.2999 122.494C40.2759 122.158 40.2639 121.852 40.2639 121.576H41.5959C41.5959 121.804 41.6019 122.032 41.6139 122.26C41.6259 122.488 41.6319 122.722 41.6319 122.962H41.6679C41.7639 122.758 41.8959 122.56 42.0639 122.368C42.2439 122.176 42.4539 122.008 42.6939 121.864C42.9339 121.708 43.2039 121.588 43.5039 121.504C43.8039 121.408 44.1279 121.36 44.4759 121.36C44.5719 121.36 44.6679 121.366 44.7639 121.378C44.8599 121.39 44.9559 121.414 45.0519 121.45L44.9619 122.872C44.7219 122.8 44.4699 122.764 44.2059 122.764C43.3419 122.764 42.7119 123.046 42.3159 123.61C41.9319 124.162 41.7399 124.924 41.7399 125.896V130H40.3359V123.574ZM46.556 122.656C46.988 122.212 47.498 121.888 48.086 121.684C48.686 121.468 49.292 121.36 49.904 121.36C51.152 121.36 52.052 121.654 52.604 122.242C53.156 122.83 53.432 123.724 53.432 124.924V128.542C53.432 128.782 53.444 129.034 53.468 129.298C53.492 129.55 53.522 129.784 53.558 130H52.208C52.16 129.808 52.13 129.598 52.118 129.37C52.118 129.13 52.118 128.92 52.118 128.74H52.082C51.806 129.172 51.434 129.526 50.966 129.802C50.51 130.078 49.958 130.216 49.31 130.216C48.878 130.216 48.47 130.162 48.086 130.054C47.714 129.946 47.384 129.79 47.096 129.586C46.82 129.37 46.598 129.106 46.43 128.794C46.262 128.482 46.178 128.122 46.178 127.714C46.178 127.018 46.358 126.472 46.718 126.076C47.078 125.68 47.522 125.386 48.05 125.194C48.59 125.002 49.166 124.882 49.778 124.834C50.402 124.786 50.972 124.762 51.488 124.762H52.028V124.51C52.028 123.898 51.842 123.436 51.47 123.124C51.11 122.812 50.6 122.656 49.94 122.656C49.484 122.656 49.034 122.734 48.59 122.89C48.158 123.034 47.774 123.262 47.438 123.574L46.556 122.656ZM50.624 125.95C49.724 125.95 49.01 126.076 48.482 126.328C47.954 126.58 47.69 126.994 47.69 127.57C47.69 128.098 47.864 128.476 48.212 128.704C48.572 128.92 49.016 129.028 49.544 129.028C49.952 129.028 50.306 128.962 50.606 128.83C50.918 128.686 51.176 128.5 51.38 128.272C51.584 128.044 51.74 127.78 51.848 127.48C51.956 127.168 52.016 126.838 52.028 126.49V125.95H50.624ZM55.998 123.574C55.998 123.19 55.986 122.83 55.962 122.494C55.938 122.158 55.926 121.852 55.926 121.576H57.258C57.258 121.804 57.264 122.032 57.276 122.26C57.288 122.488 57.294 122.722 57.294 122.962H57.33C57.426 122.758 57.558 122.56 57.726 122.368C57.906 122.176 58.116 122.008 58.356 121.864C58.596 121.708 58.866 121.588 59.166 121.504C59.466 121.408 59.79 121.36 60.138 121.36C60.69 121.36 61.164 121.444 61.56 121.612C61.968 121.78 62.304 122.014 62.568 122.314C62.832 122.614 63.024 122.98 63.144 123.412C63.276 123.832 63.342 124.294 63.342 124.798V130H61.938V124.942C61.938 124.234 61.782 123.676 61.47 123.268C61.158 122.86 60.672 122.656 60.012 122.656C59.556 122.656 59.16 122.734 58.824 122.89C58.5 123.046 58.23 123.268 58.014 123.556C57.81 123.844 57.654 124.186 57.546 124.582C57.45 124.978 57.402 125.416 57.402 125.896V130H55.998V123.574ZM73.002 128.506H72.966C72.702 128.986 72.282 129.394 71.706 129.73C71.142 130.054 70.482 130.216 69.726 130.216C69.138 130.216 68.586 130.108 68.07 129.892C67.554 129.664 67.104 129.352 66.72 128.956C66.348 128.56 66.054 128.092 65.838 127.552C65.622 127.012 65.514 126.424 65.514 125.788C65.514 125.152 65.622 124.564 65.838 124.024C66.054 123.484 66.354 123.016 66.738 122.62C67.122 122.224 67.584 121.918 68.124 121.702C68.676 121.474 69.282 121.36 69.942 121.36C70.554 121.36 71.112 121.486 71.616 121.738C72.132 121.99 72.582 122.344 72.966 122.8H73.002V116.392H74.406V130H73.002V128.506ZM73.002 125.788C73.002 125.344 72.93 124.936 72.786 124.564C72.654 124.18 72.456 123.85 72.192 123.574C71.928 123.286 71.61 123.064 71.238 122.908C70.878 122.74 70.47 122.656 70.014 122.656C69.558 122.656 69.144 122.74 68.772 122.908C68.412 123.064 68.1 123.286 67.836 123.574C67.572 123.85 67.368 124.18 67.224 124.564C67.092 124.936 67.026 125.344 67.026 125.788C67.026 126.232 67.092 126.646 67.224 127.03C67.368 127.402 67.572 127.732 67.836 128.02C68.1 128.296 68.412 128.518 68.772 128.686C69.144 128.842 69.558 128.92 70.014 128.92C70.47 128.92 70.878 128.842 71.238 128.686C71.61 128.518 71.928 128.296 72.192 128.02C72.456 127.732 72.654 127.402 72.786 127.03C72.93 126.646 73.002 126.232 73.002 125.788ZM81.5276 125.788C81.5276 125.128 81.6416 124.528 81.8696 123.988C82.0976 123.448 82.4096 122.986 82.8056 122.602C83.2016 122.206 83.6756 121.9 84.2276 121.684C84.7796 121.468 85.3796 121.36 86.0276 121.36C86.6756 121.36 87.2756 121.468 87.8276 121.684C88.3796 121.9 88.8536 122.206 89.2496 122.602C89.6456 122.986 89.9576 123.448 90.1856 123.988C90.4136 124.528 90.5276 125.128 90.5276 125.788C90.5276 126.448 90.4136 127.048 90.1856 127.588C89.9576 128.128 89.6456 128.596 89.2496 128.992C88.8536 129.376 88.3796 129.676 87.8276 129.892C87.2756 130.108 86.6756 130.216 86.0276 130.216C85.3796 130.216 84.7796 130.108 84.2276 129.892C83.6756 129.676 83.2016 129.376 82.8056 128.992C82.4096 128.596 82.0976 128.128 81.8696 127.588C81.6416 127.048 81.5276 126.448 81.5276 125.788ZM83.0396 125.788C83.0396 126.232 83.1056 126.646 83.2376 127.03C83.3816 127.402 83.5856 127.732 83.8496 128.02C84.1136 128.296 84.4256 128.518 84.7856 128.686C85.1576 128.842 85.5716 128.92 86.0276 128.92C86.4836 128.92 86.8916 128.842 87.2516 128.686C87.6236 128.518 87.9416 128.296 88.2056 128.02C88.4696 127.732 88.6676 127.402 88.7996 127.03C88.9436 126.646 89.0156 126.232 89.0156 125.788C89.0156 125.344 88.9436 124.936 88.7996 124.564C88.6676 124.18 88.4696 123.85 88.2056 123.574C87.9416 123.286 87.6236 123.064 87.2516 122.908C86.8916 122.74 86.4836 122.656 86.0276 122.656C85.5716 122.656 85.1576 122.74 84.7856 122.908C84.4256 123.064 84.1136 123.286 83.8496 123.574C83.5856 123.85 83.3816 124.18 83.2376 124.564C83.1056 124.936 83.0396 125.344 83.0396 125.788ZM92.7011 123.574C92.7011 123.19 92.6891 122.83 92.6651 122.494C92.6411 122.158 92.6291 121.852 92.6291 121.576H93.9611C93.9611 121.804 93.9671 122.032 93.9791 122.26C93.9911 122.488 93.9971 122.722 93.9971 122.962H94.0331C94.1291 122.758 94.2611 122.56 94.4291 122.368C94.6091 122.176 94.8191 122.008 95.0591 121.864C95.2991 121.708 95.5691 121.588 95.8691 121.504C96.1691 121.408 96.4931 121.36 96.8411 121.36C97.3931 121.36 97.8671 121.444 98.2631 121.612C98.6711 121.78 99.0071 122.014 99.2711 122.314C99.5351 122.614 99.7271 122.98 99.8471 123.412C99.9791 123.832 100.045 124.294 100.045 124.798V130H98.6411V124.942C98.6411 124.234 98.4851 123.676 98.1731 123.268C97.8611 122.86 97.3751 122.656 96.7151 122.656C96.2591 122.656 95.8631 122.734 95.5271 122.89C95.2031 123.046 94.9331 123.268 94.7171 123.556C94.5131 123.844 94.3571 124.186 94.2491 124.582C94.1531 124.978 94.1051 125.416 94.1051 125.896V130H92.7011V123.574ZM116.515 118.66H112.303V130H110.791V118.66H106.579V117.256H116.515V118.66ZM118.175 121.576H119.579V130H118.175V121.576ZM117.851 118.282C117.851 118.006 117.947 117.766 118.139 117.562C118.343 117.358 118.589 117.256 118.877 117.256C119.165 117.256 119.405 117.358 119.597 117.562C119.801 117.766 119.903 118.006 119.903 118.282C119.903 118.582 119.807 118.828 119.615 119.02C119.423 119.212 119.177 119.308 118.877 119.308C118.577 119.308 118.331 119.212 118.139 119.02C117.947 118.828 117.851 118.582 117.851 118.282ZM122.373 116.392H123.777V125.284L127.611 121.576H129.609L125.541 125.41L130.023 130H127.953L123.777 125.572V130H122.373V116.392ZM140.175 118.66H135.963V130H134.451V118.66H130.239V117.256H140.175V118.66ZM139.219 125.788C139.219 125.128 139.333 124.528 139.561 123.988C139.789 123.448 140.101 122.986 140.497 122.602C140.893 122.206 141.367 121.9 141.919 121.684C142.471 121.468 143.071 121.36 143.719 121.36C144.367 121.36 144.967 121.468 145.519 121.684C146.071 121.9 146.545 122.206 146.941 122.602C147.337 122.986 147.649 123.448 147.877 123.988C148.105 124.528 148.219 125.128 148.219 125.788C148.219 126.448 148.105 127.048 147.877 127.588C147.649 128.128 147.337 128.596 146.941 128.992C146.545 129.376 146.071 129.676 145.519 129.892C144.967 130.108 144.367 130.216 143.719 130.216C143.071 130.216 142.471 130.108 141.919 129.892C141.367 129.676 140.893 129.376 140.497 128.992C140.101 128.596 139.789 128.128 139.561 127.588C139.333 127.048 139.219 126.448 139.219 125.788ZM140.731 125.788C140.731 126.232 140.797 126.646 140.929 127.03C141.073 127.402 141.277 127.732 141.541 128.02C141.805 128.296 142.117 128.518 142.477 128.686C142.849 128.842 143.263 128.92 143.719 128.92C144.175 128.92 144.583 128.842 144.943 128.686C145.315 128.518 145.633 128.296 145.897 128.02C146.161 127.732 146.359 127.402 146.491 127.03C146.635 126.646 146.707 126.232 146.707 125.788C146.707 125.344 146.635 124.936 146.491 124.564C146.359 124.18 146.161 123.85 145.897 123.574C145.633 123.286 145.315 123.064 144.943 122.908C144.583 122.74 144.175 122.656 143.719 122.656C143.263 122.656 142.849 122.74 142.477 122.908C142.117 123.064 141.805 123.286 141.541 123.574C141.277 123.85 141.073 124.18 140.929 124.564C140.797 124.936 140.731 125.344 140.731 125.788ZM150.393 116.392H151.797V125.284L155.631 121.576H157.629L153.561 125.41L158.043 130H155.973L151.797 125.572V130H150.393V116.392ZM160.383 132.484H158.997L160.221 128.164H161.859L160.383 132.484ZM169.538 121.576H170.942V130H169.538V121.576ZM169.214 118.282C169.214 118.006 169.31 117.766 169.502 117.562C169.706 117.358 169.952 117.256 170.24 117.256C170.528 117.256 170.768 117.358 170.96 117.562C171.164 117.766 171.266 118.006 171.266 118.282C171.266 118.582 171.17 118.828 170.978 119.02C170.786 119.212 170.54 119.308 170.24 119.308C169.94 119.308 169.694 119.212 169.502 119.02C169.31 118.828 169.214 118.582 169.214 118.282ZM173.736 123.574C173.736 123.19 173.724 122.83 173.7 122.494C173.676 122.158 173.664 121.852 173.664 121.576H174.996C174.996 121.804 175.002 122.032 175.014 122.26C175.026 122.488 175.032 122.722 175.032 122.962H175.068C175.164 122.758 175.296 122.56 175.464 122.368C175.644 122.176 175.854 122.008 176.094 121.864C176.334 121.708 176.604 121.588 176.904 121.504C177.204 121.408 177.528 121.36 177.876 121.36C178.428 121.36 178.902 121.444 179.298 121.612C179.706 121.78 180.042 122.014 180.306 122.314C180.57 122.614 180.762 122.98 180.882 123.412C181.014 123.832 181.08 124.294 181.08 124.798V130H179.676V124.942C179.676 124.234 179.52 123.676 179.208 123.268C178.896 122.86 178.41 122.656 177.75 122.656C177.294 122.656 176.898 122.734 176.562 122.89C176.238 123.046 175.968 123.268 175.752 123.556C175.548 123.844 175.392 124.186 175.284 124.582C175.188 124.978 175.14 125.416 175.14 125.896V130H173.736V123.574ZM189.732 123.682C189.432 123.322 189.108 123.064 188.76 122.908C188.412 122.74 188.028 122.656 187.608 122.656C187.14 122.656 186.726 122.74 186.366 122.908C186.006 123.064 185.706 123.286 185.466 123.574C185.238 123.862 185.064 124.198 184.944 124.582C184.824 124.954 184.764 125.356 184.764 125.788C184.764 126.22 184.83 126.628 184.962 127.012C185.106 127.384 185.298 127.714 185.538 128.002C185.79 128.29 186.09 128.518 186.438 128.686C186.786 128.842 187.176 128.92 187.608 128.92C188.532 128.92 189.246 128.572 189.75 127.876L190.794 128.866C190.386 129.334 189.906 129.676 189.354 129.892C188.802 130.108 188.22 130.216 187.608 130.216C186.96 130.216 186.366 130.108 185.826 129.892C185.286 129.676 184.824 129.37 184.44 128.974C184.068 128.578 183.774 128.11 183.558 127.57C183.354 127.03 183.252 126.436 183.252 125.788C183.252 125.152 183.354 124.564 183.558 124.024C183.774 123.484 184.074 123.016 184.458 122.62C184.842 122.224 185.298 121.918 185.826 121.702C186.366 121.474 186.96 121.36 187.608 121.36C188.232 121.36 188.82 121.468 189.372 121.684C189.936 121.9 190.428 122.236 190.848 122.692L189.732 123.682ZM192.548 116.392H193.952V130H192.548V116.392ZM204.09 128.002C204.09 128.386 204.102 128.746 204.126 129.082C204.15 129.418 204.162 129.724 204.162 130H202.83C202.83 129.772 202.824 129.544 202.812 129.316C202.8 129.088 202.794 128.854 202.794 128.614H202.758C202.662 128.818 202.524 129.016 202.344 129.208C202.176 129.4 201.972 129.574 201.732 129.73C201.492 129.874 201.222 129.988 200.922 130.072C200.622 130.168 200.298 130.216 199.95 130.216C199.398 130.216 198.918 130.132 198.51 129.964C198.114 129.796 197.784 129.562 197.52 129.262C197.256 128.962 197.058 128.602 196.926 128.182C196.806 127.75 196.746 127.282 196.746 126.778V121.576H198.15V126.634C198.15 127.342 198.306 127.9 198.618 128.308C198.93 128.716 199.416 128.92 200.076 128.92C200.532 128.92 200.922 128.842 201.246 128.686C201.582 128.53 201.852 128.308 202.056 128.02C202.272 127.732 202.428 127.39 202.524 126.994C202.632 126.598 202.686 126.16 202.686 125.68V121.576H204.09V128.002ZM213.75 128.506H213.714C213.45 128.986 213.03 129.394 212.454 129.73C211.89 130.054 211.23 130.216 210.474 130.216C209.886 130.216 209.334 130.108 208.818 129.892C208.302 129.664 207.852 129.352 207.468 128.956C207.096 128.56 206.802 128.092 206.586 127.552C206.37 127.012 206.262 126.424 206.262 125.788C206.262 125.152 206.37 124.564 206.586 124.024C206.802 123.484 207.102 123.016 207.486 122.62C207.87 122.224 208.332 121.918 208.872 121.702C209.424 121.474 210.03 121.36 210.69 121.36C211.302 121.36 211.86 121.486 212.364 121.738C212.88 121.99 213.33 122.344 213.714 122.8H213.75V116.392H215.154V130H213.75V128.506ZM213.75 125.788C213.75 125.344 213.678 124.936 213.534 124.564C213.402 124.18 213.204 123.85 212.94 123.574C212.676 123.286 212.358 123.064 211.986 122.908C211.626 122.74 211.218 122.656 210.762 122.656C210.306 122.656 209.892 122.74 209.52 122.908C209.16 123.064 208.848 123.286 208.584 123.574C208.32 123.85 208.116 124.18 207.972 124.564C207.84 124.936 207.774 125.344 207.774 125.788C207.774 126.232 207.84 126.646 207.972 127.03C208.116 127.402 208.32 127.732 208.584 128.02C208.848 128.296 209.16 128.518 209.52 128.686C209.892 128.842 210.306 128.92 210.762 128.92C211.218 128.92 211.626 128.842 211.986 128.686C212.358 128.518 212.676 128.296 212.94 128.02C213.204 127.732 213.402 127.402 213.534 127.03C213.678 126.646 213.75 126.232 213.75 125.788ZM217.896 121.576H219.3V130H217.896V121.576ZM217.572 118.282C217.572 118.006 217.668 117.766 217.86 117.562C218.064 117.358 218.31 117.256 218.598 117.256C218.886 117.256 219.126 117.358 219.318 117.562C219.522 117.766 219.624 118.006 219.624 118.282C219.624 118.582 219.528 118.828 219.336 119.02C219.144 119.212 218.898 119.308 218.598 119.308C218.298 119.308 218.052 119.212 217.86 119.02C217.668 118.828 217.572 118.582 217.572 118.282ZM222.094 123.574C222.094 123.19 222.082 122.83 222.058 122.494C222.034 122.158 222.022 121.852 222.022 121.576H223.354C223.354 121.804 223.36 122.032 223.372 122.26C223.384 122.488 223.39 122.722 223.39 122.962H223.426C223.522 122.758 223.654 122.56 223.822 122.368C224.002 122.176 224.212 122.008 224.452 121.864C224.692 121.708 224.962 121.588 225.262 121.504C225.562 121.408 225.886 121.36 226.234 121.36C226.786 121.36 227.26 121.444 227.656 121.612C228.064 121.78 228.4 122.014 228.664 122.314C228.928 122.614 229.12 122.98 229.24 123.412C229.372 123.832 229.438 124.294 229.438 124.798V130H228.034V124.942C228.034 124.234 227.878 123.676 227.566 123.268C227.254 122.86 226.768 122.656 226.108 122.656C225.652 122.656 225.256 122.734 224.92 122.89C224.596 123.046 224.326 123.268 224.11 123.556C223.906 123.844 223.75 124.186 223.642 124.582C223.546 124.978 223.498 125.416 223.498 125.896V130H222.094V123.574ZM240.502 129.622C240.502 131.158 240.106 132.322 239.314 133.114C238.534 133.918 237.4 134.32 235.912 134.32C235.084 134.32 234.334 134.2 233.662 133.96C233.002 133.72 232.372 133.306 231.772 132.718L232.78 131.566C233.224 132.046 233.692 132.406 234.184 132.646C234.688 132.898 235.264 133.024 235.912 133.024C236.536 133.024 237.052 132.928 237.46 132.736C237.88 132.556 238.21 132.304 238.45 131.98C238.69 131.668 238.858 131.308 238.954 130.9C239.05 130.492 239.098 130.066 239.098 129.622V128.542H239.062C238.726 129.082 238.288 129.478 237.748 129.73C237.208 129.982 236.656 130.108 236.092 130.108C235.432 130.108 234.826 130 234.274 129.784C233.722 129.568 233.248 129.268 232.852 128.884C232.456 128.5 232.15 128.044 231.934 127.516C231.718 126.988 231.61 126.412 231.61 125.788C231.61 125.104 231.718 124.486 231.934 123.934C232.15 123.382 232.45 122.92 232.834 122.548C233.23 122.164 233.704 121.87 234.256 121.666C234.808 121.462 235.42 121.36 236.092 121.36C236.38 121.36 236.668 121.396 236.956 121.468C237.244 121.528 237.52 121.63 237.784 121.774C238.06 121.906 238.306 122.08 238.522 122.296C238.738 122.5 238.918 122.74 239.062 123.016H239.098V121.576H240.502V129.622ZM233.122 125.788C233.122 126.22 233.2 126.622 233.356 126.994C233.512 127.354 233.722 127.672 233.986 127.948C234.262 128.212 234.58 128.422 234.94 128.578C235.3 128.734 235.684 128.812 236.092 128.812C236.572 128.812 236.998 128.728 237.37 128.56C237.742 128.392 238.054 128.17 238.306 127.894C238.57 127.606 238.768 127.282 238.9 126.922C239.032 126.55 239.098 126.16 239.098 125.752C239.098 125.296 239.026 124.882 238.882 124.51C238.738 124.126 238.534 123.796 238.27 123.52C238.006 123.244 237.688 123.034 237.316 122.89C236.944 122.734 236.536 122.656 236.092 122.656C235.648 122.656 235.24 122.74 234.868 122.908C234.508 123.064 234.196 123.286 233.932 123.574C233.68 123.85 233.482 124.18 233.338 124.564C233.194 124.936 233.122 125.344 233.122 125.788ZM254.103 123.682C253.803 123.322 253.479 123.064 253.131 122.908C252.783 122.74 252.399 122.656 251.979 122.656C251.511 122.656 251.097 122.74 250.737 122.908C250.377 123.064 250.077 123.286 249.837 123.574C249.609 123.862 249.435 124.198 249.315 124.582C249.195 124.954 249.135 125.356 249.135 125.788C249.135 126.22 249.201 126.628 249.333 127.012C249.477 127.384 249.669 127.714 249.909 128.002C250.161 128.29 250.461 128.518 250.809 128.686C251.157 128.842 251.547 128.92 251.979 128.92C252.903 128.92 253.617 128.572 254.121 127.876L255.165 128.866C254.757 129.334 254.277 129.676 253.725 129.892C253.173 130.108 252.591 130.216 251.979 130.216C251.331 130.216 250.737 130.108 250.197 129.892C249.657 129.676 249.195 129.37 248.811 128.974C248.439 128.578 248.145 128.11 247.929 127.57C247.725 127.03 247.623 126.436 247.623 125.788C247.623 125.152 247.725 124.564 247.929 124.024C248.145 123.484 248.445 123.016 248.829 122.62C249.213 122.224 249.669 121.918 250.197 121.702C250.737 121.474 251.331 121.36 251.979 121.36C252.603 121.36 253.191 121.468 253.743 121.684C254.307 121.9 254.799 122.236 255.219 122.692L254.103 123.682ZM256.793 123.574C256.793 123.19 256.781 122.83 256.757 122.494C256.733 122.158 256.721 121.852 256.721 121.576H258.053C258.053 121.804 258.059 122.032 258.071 122.26C258.083 122.488 258.089 122.722 258.089 122.962H258.125C258.221 122.758 258.353 122.56 258.521 122.368C258.701 122.176 258.911 122.008 259.151 121.864C259.391 121.708 259.661 121.588 259.961 121.504C260.261 121.408 260.585 121.36 260.933 121.36C261.029 121.36 261.125 121.366 261.221 121.378C261.317 121.39 261.413 121.414 261.509 121.45L261.419 122.872C261.179 122.8 260.927 122.764 260.663 122.764C259.799 122.764 259.169 123.046 258.773 123.61C258.389 124.162 258.197 124.924 258.197 125.896V130H256.793V123.574ZM270.329 128.47C269.825 129.118 269.273 129.574 268.673 129.838C268.073 130.09 267.377 130.216 266.585 130.216C265.925 130.216 265.331 130.102 264.803 129.874C264.275 129.634 263.825 129.316 263.453 128.92C263.093 128.524 262.811 128.056 262.607 127.516C262.415 126.976 262.319 126.4 262.319 125.788C262.319 125.14 262.427 124.546 262.643 124.006C262.859 123.454 263.159 122.986 263.543 122.602C263.927 122.206 264.383 121.9 264.911 121.684C265.439 121.468 266.015 121.36 266.639 121.36C267.227 121.36 267.767 121.462 268.259 121.666C268.751 121.858 269.171 122.146 269.519 122.53C269.879 122.902 270.155 123.364 270.347 123.916C270.539 124.456 270.635 125.074 270.635 125.77V126.22H263.831C263.855 126.58 263.939 126.928 264.083 127.264C264.239 127.588 264.437 127.876 264.677 128.128C264.917 128.368 265.199 128.56 265.523 128.704C265.847 128.848 266.201 128.92 266.585 128.92C267.197 128.92 267.713 128.812 268.133 128.596C268.553 128.38 268.931 128.062 269.267 127.642L270.329 128.47ZM269.123 125.032C269.099 124.312 268.865 123.736 268.421 123.304C267.977 122.872 267.365 122.656 266.585 122.656C265.805 122.656 265.175 122.872 264.695 123.304C264.215 123.736 263.927 124.312 263.831 125.032H269.123ZM272.699 122.656C273.131 122.212 273.641 121.888 274.229 121.684C274.829 121.468 275.435 121.36 276.047 121.36C277.295 121.36 278.195 121.654 278.747 122.242C279.299 122.83 279.575 123.724 279.575 124.924V128.542C279.575 128.782 279.587 129.034 279.611 129.298C279.635 129.55 279.665 129.784 279.701 130H278.351C278.303 129.808 278.273 129.598 278.261 129.37C278.261 129.13 278.261 128.92 278.261 128.74H278.225C277.949 129.172 277.577 129.526 277.109 129.802C276.653 130.078 276.101 130.216 275.453 130.216C275.021 130.216 274.613 130.162 274.229 130.054C273.857 129.946 273.527 129.79 273.239 129.586C272.963 129.37 272.741 129.106 272.573 128.794C272.405 128.482 272.321 128.122 272.321 127.714C272.321 127.018 272.501 126.472 272.861 126.076C273.221 125.68 273.665 125.386 274.193 125.194C274.733 125.002 275.309 124.882 275.921 124.834C276.545 124.786 277.115 124.762 277.631 124.762H278.171V124.51C278.171 123.898 277.985 123.436 277.613 123.124C277.253 122.812 276.743 122.656 276.083 122.656C275.627 122.656 275.177 122.734 274.733 122.89C274.301 123.034 273.917 123.262 273.581 123.574L272.699 122.656ZM276.767 125.95C275.867 125.95 275.153 126.076 274.625 126.328C274.097 126.58 273.833 126.994 273.833 127.57C273.833 128.098 274.007 128.476 274.355 128.704C274.715 128.92 275.159 129.028 275.687 129.028C276.095 129.028 276.449 128.962 276.749 128.83C277.061 128.686 277.319 128.5 277.523 128.272C277.727 128.044 277.883 127.78 277.991 127.48C278.099 127.168 278.159 126.838 278.171 126.49V125.95H276.767ZM286.749 122.764H284.265V126.976C284.265 127.252 284.271 127.51 284.283 127.75C284.295 127.978 284.343 128.182 284.427 128.362C284.511 128.53 284.637 128.668 284.805 128.776C284.973 128.872 285.213 128.92 285.525 128.92C285.729 128.92 285.939 128.896 286.155 128.848C286.371 128.8 286.575 128.728 286.767 128.632L286.821 129.91C286.581 130.018 286.311 130.096 286.011 130.144C285.723 130.192 285.447 130.216 285.183 130.216C284.679 130.216 284.277 130.15 283.977 130.018C283.677 129.886 283.443 129.7 283.275 129.46C283.107 129.22 282.993 128.926 282.933 128.578C282.885 128.218 282.861 127.822 282.861 127.39V122.764H281.025V121.576H282.861V119.182H284.265V121.576H286.749V122.764ZM288.612 121.576H290.016V130H288.612V121.576ZM288.288 118.282C288.288 118.006 288.384 117.766 288.576 117.562C288.78 117.358 289.026 117.256 289.314 117.256C289.602 117.256 289.842 117.358 290.034 117.562C290.238 117.766 290.34 118.006 290.34 118.282C290.34 118.582 290.244 118.828 290.052 119.02C289.86 119.212 289.614 119.308 289.314 119.308C289.014 119.308 288.768 119.212 288.576 119.02C288.384 118.828 288.288 118.582 288.288 118.282ZM296.645 130H295.097L291.659 121.576H293.297L295.925 128.182H295.961L298.463 121.576H299.975L296.645 130ZM301.62 121.576H303.024V130H301.62V121.576ZM301.296 118.282C301.296 118.006 301.392 117.766 301.584 117.562C301.788 117.358 302.034 117.256 302.322 117.256C302.61 117.256 302.85 117.358 303.042 117.562C303.246 117.766 303.348 118.006 303.348 118.282C303.348 118.582 303.252 118.828 303.06 119.02C302.868 119.212 302.622 119.308 302.322 119.308C302.022 119.308 301.776 119.212 301.584 119.02C301.392 118.828 301.296 118.582 301.296 118.282ZM310.426 122.764H307.942V126.976C307.942 127.252 307.948 127.51 307.96 127.75C307.972 127.978 308.02 128.182 308.104 128.362C308.188 128.53 308.314 128.668 308.482 128.776C308.65 128.872 308.89 128.92 309.202 128.92C309.406 128.92 309.616 128.896 309.832 128.848C310.048 128.8 310.252 128.728 310.444 128.632L310.498 129.91C310.258 130.018 309.988 130.096 309.688 130.144C309.4 130.192 309.124 130.216 308.86 130.216C308.356 130.216 307.954 130.15 307.654 130.018C307.354 129.886 307.12 129.7 306.952 129.46C306.784 129.22 306.67 128.926 306.61 128.578C306.562 128.218 306.538 127.822 306.538 127.39V122.764H304.702V121.576H306.538V119.182H307.942V121.576H310.426V122.764ZM315.242 131.926C315.098 132.286 314.948 132.61 314.792 132.898C314.648 133.198 314.468 133.45 314.252 133.654C314.048 133.87 313.796 134.032 313.496 134.14C313.208 134.26 312.854 134.32 312.434 134.32C312.23 134.32 312.014 134.308 311.786 134.284C311.57 134.26 311.366 134.2 311.174 134.104L311.354 132.88C311.498 132.94 311.648 132.976 311.804 132.988C311.96 133.012 312.14 133.024 312.344 133.024C312.8 133.024 313.136 132.898 313.352 132.646C313.568 132.394 313.754 132.058 313.91 131.638L314.486 130.054L310.994 121.576H312.632L315.242 128.182H315.278L317.78 121.576H319.31L315.242 131.926ZM320.484 132.484H319.098L320.322 128.164H321.96L320.484 132.484ZM29.26 149.576H30.664V150.8H30.7C31.084 150.344 31.528 149.99 32.032 149.738C32.548 149.486 33.112 149.36 33.724 149.36C34.384 149.36 34.984 149.474 35.524 149.702C36.076 149.918 36.544 150.224 36.928 150.62C37.312 151.016 37.612 151.484 37.828 152.024C38.044 152.564 38.152 153.152 38.152 153.788C38.152 154.424 38.044 155.012 37.828 155.552C37.612 156.092 37.312 156.56 36.928 156.956C36.556 157.352 36.112 157.664 35.596 157.892C35.08 158.108 34.528 158.216 33.94 158.216C33.184 158.216 32.518 158.054 31.942 157.73C31.378 157.394 30.964 156.986 30.7 156.506H30.664V162.104H29.26V149.576ZM30.664 153.788C30.664 154.232 30.73 154.646 30.862 155.03C31.006 155.402 31.21 155.732 31.474 156.02C31.738 156.296 32.05 156.518 32.41 156.686C32.782 156.842 33.196 156.92 33.652 156.92C34.108 156.92 34.516 156.842 34.876 156.686C35.248 156.518 35.566 156.296 35.83 156.02C36.094 155.732 36.292 155.402 36.424 155.03C36.568 154.646 36.64 154.232 36.64 153.788C36.64 153.344 36.568 152.936 36.424 152.564C36.292 152.18 36.094 151.85 35.83 151.574C35.566 151.286 35.248 151.064 34.876 150.908C34.516 150.74 34.108 150.656 33.652 150.656C33.196 150.656 32.782 150.74 32.41 150.908C32.05 151.064 31.738 151.286 31.474 151.574C31.21 151.85 31.006 152.18 30.862 152.564C30.73 152.936 30.664 153.344 30.664 153.788ZM40.3359 151.574C40.3359 151.19 40.3239 150.83 40.2999 150.494C40.2759 150.158 40.2639 149.852 40.2639 149.576H41.5959C41.5959 149.804 41.6019 150.032 41.6139 150.26C41.6259 150.488 41.6319 150.722 41.6319 150.962H41.6679C41.7639 150.758 41.8959 150.56 42.0639 150.368C42.2439 150.176 42.4539 150.008 42.6939 149.864C42.9339 149.708 43.2039 149.588 43.5039 149.504C43.8039 149.408 44.1279 149.36 44.4759 149.36C44.5719 149.36 44.6679 149.366 44.7639 149.378C44.8599 149.39 44.9559 149.414 45.0519 149.45L44.9619 150.872C44.7219 150.8 44.4699 150.764 44.2059 150.764C43.3419 150.764 42.7119 151.046 42.3159 151.61C41.9319 152.162 41.7399 152.924 41.7399 153.896V158H40.3359V151.574ZM45.8616 153.788C45.8616 153.128 45.9756 152.528 46.2036 151.988C46.4316 151.448 46.7436 150.986 47.1396 150.602C47.5356 150.206 48.0096 149.9 48.5616 149.684C49.1136 149.468 49.7136 149.36 50.3616 149.36C51.0096 149.36 51.6096 149.468 52.1616 149.684C52.7136 149.9 53.1876 150.206 53.5836 150.602C53.9796 150.986 54.2916 151.448 54.5196 151.988C54.7476 152.528 54.8616 153.128 54.8616 153.788C54.8616 154.448 54.7476 155.048 54.5196 155.588C54.2916 156.128 53.9796 156.596 53.5836 156.992C53.1876 157.376 52.7136 157.676 52.1616 157.892C51.6096 158.108 51.0096 158.216 50.3616 158.216C49.7136 158.216 49.1136 158.108 48.5616 157.892C48.0096 157.676 47.5356 157.376 47.1396 156.992C46.7436 156.596 46.4316 156.128 46.2036 155.588C45.9756 155.048 45.8616 154.448 45.8616 153.788ZM47.3736 153.788C47.3736 154.232 47.4396 154.646 47.5716 155.03C47.7156 155.402 47.9196 155.732 48.1836 156.02C48.4476 156.296 48.7596 156.518 49.1196 156.686C49.4916 156.842 49.9056 156.92 50.3616 156.92C50.8176 156.92 51.2256 156.842 51.5856 156.686C51.9576 156.518 52.2756 156.296 52.5396 156.02C52.8036 155.732 53.0016 155.402 53.1336 155.03C53.2776 154.646 53.3496 154.232 53.3496 153.788C53.3496 153.344 53.2776 152.936 53.1336 152.564C53.0016 152.18 52.8036 151.85 52.5396 151.574C52.2756 151.286 51.9576 151.064 51.5856 150.908C51.2256 150.74 50.8176 150.656 50.3616 150.656C49.9056 150.656 49.4916 150.74 49.1196 150.908C48.7596 151.064 48.4476 151.286 48.1836 151.574C47.9196 151.85 47.7156 152.18 47.5716 152.564C47.4396 152.936 47.3736 153.344 47.3736 153.788ZM64.0371 156.506H64.0011C63.7371 156.986 63.3171 157.394 62.7411 157.73C62.1771 158.054 61.5171 158.216 60.7611 158.216C60.1731 158.216 59.6211 158.108 59.1051 157.892C58.5891 157.664 58.1391 157.352 57.7551 156.956C57.3831 156.56 57.0891 156.092 56.8731 155.552C56.6571 155.012 56.5491 154.424 56.5491 153.788C56.5491 153.152 56.6571 152.564 56.8731 152.024C57.0891 151.484 57.3891 151.016 57.7731 150.62C58.1571 150.224 58.6191 149.918 59.1591 149.702C59.7111 149.474 60.3171 149.36 60.9771 149.36C61.5891 149.36 62.1471 149.486 62.6511 149.738C63.1671 149.99 63.6171 150.344 64.0011 150.8H64.0371V144.392H65.4411V158H64.0371V156.506ZM64.0371 153.788C64.0371 153.344 63.9651 152.936 63.8211 152.564C63.6891 152.18 63.4911 151.85 63.2271 151.574C62.9631 151.286 62.6451 151.064 62.2731 150.908C61.9131 150.74 61.5051 150.656 61.0491 150.656C60.5931 150.656 60.1791 150.74 59.8071 150.908C59.4471 151.064 59.1351 151.286 58.8711 151.574C58.6071 151.85 58.4031 152.18 58.2591 152.564C58.1271 152.936 58.0611 153.344 58.0611 153.788C58.0611 154.232 58.1271 154.646 58.2591 155.03C58.4031 155.402 58.6071 155.732 58.8711 156.02C59.1351 156.296 59.4471 156.518 59.8071 156.686C60.1791 156.842 60.5931 156.92 61.0491 156.92C61.5051 156.92 61.9131 156.842 62.2731 156.686C62.6451 156.518 62.9631 156.296 63.2271 156.02C63.4911 155.732 63.6891 155.402 63.8211 155.03C63.9651 154.646 64.0371 154.232 64.0371 153.788ZM75.383 156.002C75.383 156.386 75.395 156.746 75.419 157.082C75.443 157.418 75.455 157.724 75.455 158H74.123C74.123 157.772 74.117 157.544 74.105 157.316C74.093 157.088 74.087 156.854 74.087 156.614H74.051C73.955 156.818 73.817 157.016 73.637 157.208C73.469 157.4 73.265 157.574 73.025 157.73C72.785 157.874 72.515 157.988 72.215 158.072C71.915 158.168 71.591 158.216 71.243 158.216C70.691 158.216 70.211 158.132 69.803 157.964C69.407 157.796 69.077 157.562 68.813 157.262C68.549 156.962 68.351 156.602 68.219 156.182C68.099 155.75 68.039 155.282 68.039 154.778V149.576H69.443V154.634C69.443 155.342 69.599 155.9 69.911 156.308C70.223 156.716 70.709 156.92 71.369 156.92C71.825 156.92 72.215 156.842 72.539 156.686C72.875 156.53 73.145 156.308 73.349 156.02C73.565 155.732 73.721 155.39 73.817 154.994C73.925 154.598 73.979 154.16 73.979 153.68V149.576H75.383V156.002ZM84.035 151.682C83.735 151.322 83.411 151.064 83.063 150.908C82.715 150.74 82.331 150.656 81.911 150.656C81.443 150.656 81.029 150.74 80.669 150.908C80.309 151.064 80.009 151.286 79.769 151.574C79.541 151.862 79.367 152.198 79.247 152.582C79.127 152.954 79.067 153.356 79.067 153.788C79.067 154.22 79.133 154.628 79.265 155.012C79.409 155.384 79.601 155.714 79.841 156.002C80.093 156.29 80.393 156.518 80.741 156.686C81.089 156.842 81.479 156.92 81.911 156.92C82.835 156.92 83.549 156.572 84.053 155.876L85.097 156.866C84.689 157.334 84.209 157.676 83.657 157.892C83.105 158.108 82.523 158.216 81.911 158.216C81.263 158.216 80.669 158.108 80.129 157.892C79.589 157.676 79.127 157.37 78.743 156.974C78.371 156.578 78.077 156.11 77.861 155.57C77.657 155.03 77.555 154.436 77.555 153.788C77.555 153.152 77.657 152.564 77.861 152.024C78.077 151.484 78.377 151.016 78.761 150.62C79.145 150.224 79.601 149.918 80.129 149.702C80.669 149.474 81.263 149.36 81.911 149.36C82.535 149.36 83.123 149.468 83.675 149.684C84.239 149.9 84.731 150.236 85.151 150.692L84.035 151.682ZM91.3326 150.764H88.8486V154.976C88.8486 155.252 88.8546 155.51 88.8666 155.75C88.8786 155.978 88.9266 156.182 89.0106 156.362C89.0946 156.53 89.2206 156.668 89.3886 156.776C89.5566 156.872 89.7966 156.92 90.1086 156.92C90.3126 156.92 90.5226 156.896 90.7386 156.848C90.9546 156.8 91.1586 156.728 91.3506 156.632L91.4046 157.91C91.1646 158.018 90.8946 158.096 90.5946 158.144C90.3066 158.192 90.0306 158.216 89.7666 158.216C89.2626 158.216 88.8606 158.15 88.5606 158.018C88.2606 157.886 88.0266 157.7 87.8586 157.46C87.6906 157.22 87.5766 156.926 87.5166 156.578C87.4686 156.218 87.4446 155.822 87.4446 155.39V150.764H85.6086V149.576H87.4446V147.182H88.8486V149.576H91.3326V150.764ZM93.1963 149.576H94.6003V158H93.1963V149.576ZM92.8723 146.282C92.8723 146.006 92.9683 145.766 93.1603 145.562C93.3643 145.358 93.6103 145.256 93.8983 145.256C94.1863 145.256 94.4263 145.358 94.6183 145.562C94.8223 145.766 94.9243 146.006 94.9243 146.282C94.9243 146.582 94.8283 146.828 94.6363 147.02C94.4443 147.212 94.1983 147.308 93.8983 147.308C93.5983 147.308 93.3523 147.212 93.1603 147.02C92.9683 146.828 92.8723 146.582 92.8723 146.282ZM96.9085 153.788C96.9085 153.128 97.0225 152.528 97.2505 151.988C97.4785 151.448 97.7905 150.986 98.1865 150.602C98.5825 150.206 99.0565 149.9 99.6085 149.684C100.161 149.468 100.761 149.36 101.409 149.36C102.057 149.36 102.657 149.468 103.209 149.684C103.761 149.9 104.235 150.206 104.631 150.602C105.027 150.986 105.339 151.448 105.566 151.988C105.795 152.528 105.909 153.128 105.909 153.788C105.909 154.448 105.795 155.048 105.566 155.588C105.339 156.128 105.027 156.596 104.631 156.992C104.235 157.376 103.761 157.676 103.209 157.892C102.657 158.108 102.057 158.216 101.409 158.216C100.761 158.216 100.161 158.108 99.6085 157.892C99.0565 157.676 98.5825 157.376 98.1865 156.992C97.7905 156.596 97.4785 156.128 97.2505 155.588C97.0225 155.048 96.9085 154.448 96.9085 153.788ZM98.4205 153.788C98.4205 154.232 98.4865 154.646 98.6185 155.03C98.7625 155.402 98.9665 155.732 99.2305 156.02C99.4945 156.296 99.8065 156.518 100.167 156.686C100.539 156.842 100.953 156.92 101.409 156.92C101.865 156.92 102.273 156.842 102.633 156.686C103.005 156.518 103.323 156.296 103.587 156.02C103.851 155.732 104.049 155.402 104.181 155.03C104.325 154.646 104.397 154.232 104.397 153.788C104.397 153.344 104.325 152.936 104.181 152.564C104.049 152.18 103.851 151.85 103.587 151.574C103.323 151.286 103.005 151.064 102.633 150.908C102.273 150.74 101.865 150.656 101.409 150.656C100.953 150.656 100.539 150.74 100.167 150.908C99.8065 151.064 99.4945 151.286 99.2305 151.574C98.9665 151.85 98.7625 152.18 98.6185 152.564C98.4865 152.936 98.4205 153.344 98.4205 153.788ZM108.082 151.574C108.082 151.19 108.07 150.83 108.046 150.494C108.022 150.158 108.01 149.852 108.01 149.576H109.342C109.342 149.804 109.348 150.032 109.36 150.26C109.372 150.488 109.378 150.722 109.378 150.962H109.414C109.51 150.758 109.642 150.56 109.81 150.368C109.99 150.176 110.2 150.008 110.44 149.864C110.68 149.708 110.95 149.588 111.25 149.504C111.55 149.408 111.874 149.36 112.222 149.36C112.774 149.36 113.248 149.444 113.644 149.612C114.052 149.78 114.388 150.014 114.652 150.314C114.916 150.614 115.108 150.98 115.228 151.412C115.36 151.832 115.426 152.294 115.426 152.798V158H114.022V152.942C114.022 152.234 113.866 151.676 113.554 151.268C113.242 150.86 112.756 150.656 112.096 150.656C111.64 150.656 111.244 150.734 110.908 150.89C110.584 151.046 110.314 151.268 110.098 151.556C109.894 151.844 109.738 152.186 109.63 152.582C109.534 152.978 109.486 153.416 109.486 153.896V158H108.082V151.574ZM130.708 156.164C130.192 156.812 129.64 157.316 129.052 157.676C128.464 158.036 127.744 158.216 126.892 158.216C126.352 158.216 125.836 158.138 125.344 157.982C124.852 157.814 124.42 157.574 124.048 157.262C123.688 156.95 123.394 156.572 123.166 156.128C122.95 155.672 122.842 155.156 122.842 154.58C122.842 154.136 122.914 153.728 123.058 153.356C123.214 152.972 123.418 152.63 123.67 152.33C123.934 152.018 124.234 151.748 124.57 151.52C124.918 151.28 125.284 151.07 125.668 150.89C125.248 150.47 124.888 150.026 124.588 149.558C124.288 149.09 124.138 148.55 124.138 147.938C124.138 147.47 124.228 147.056 124.408 146.696C124.588 146.324 124.828 146.018 125.128 145.778C125.428 145.526 125.776 145.34 126.172 145.22C126.568 145.088 126.988 145.022 127.432 145.022C127.864 145.022 128.272 145.082 128.656 145.202C129.04 145.322 129.376 145.502 129.664 145.742C129.964 145.97 130.198 146.264 130.366 146.624C130.534 146.972 130.618 147.38 130.618 147.848C130.618 148.244 130.534 148.61 130.366 148.946C130.21 149.27 130 149.564 129.736 149.828C129.484 150.08 129.196 150.314 128.872 150.53C128.56 150.734 128.242 150.92 127.918 151.088L130.618 153.95L132.328 151.088H134.038L131.59 155.012L134.506 158H132.436L130.708 156.164ZM126.982 150.17C127.222 150.038 127.468 149.9 127.72 149.756C127.972 149.612 128.2 149.45 128.404 149.27C128.608 149.09 128.776 148.88 128.908 148.64C129.04 148.4 129.106 148.124 129.106 147.812C129.106 147.344 128.944 146.978 128.62 146.714C128.308 146.45 127.93 146.318 127.486 146.318C126.982 146.318 126.55 146.474 126.19 146.786C125.83 147.086 125.65 147.5 125.65 148.028C125.65 148.376 125.74 148.688 125.92 148.964C126.112 149.228 126.316 149.474 126.532 149.702L126.982 150.17ZM126.604 151.808C126.328 151.952 126.058 152.114 125.794 152.294C125.53 152.462 125.29 152.654 125.074 152.87C124.858 153.086 124.684 153.332 124.552 153.608C124.42 153.884 124.354 154.19 124.354 154.526C124.354 154.874 124.42 155.192 124.552 155.48C124.684 155.768 124.864 156.02 125.092 156.236C125.32 156.452 125.584 156.62 125.884 156.74C126.184 156.86 126.502 156.92 126.838 156.92C127.162 156.92 127.462 156.872 127.738 156.776C128.014 156.68 128.266 156.554 128.494 156.398C128.734 156.23 128.956 156.044 129.16 155.84C129.376 155.624 129.586 155.396 129.79 155.156L126.604 151.808ZM140.986 150.656C141.418 150.212 141.928 149.888 142.516 149.684C143.116 149.468 143.722 149.36 144.334 149.36C145.582 149.36 146.482 149.654 147.034 150.242C147.586 150.83 147.862 151.724 147.862 152.924V156.542C147.862 156.782 147.874 157.034 147.898 157.298C147.922 157.55 147.952 157.784 147.988 158H146.638C146.59 157.808 146.56 157.598 146.548 157.37C146.548 157.13 146.548 156.92 146.548 156.74H146.512C146.236 157.172 145.864 157.526 145.396 157.802C144.94 158.078 144.388 158.216 143.74 158.216C143.308 158.216 142.9 158.162 142.516 158.054C142.144 157.946 141.814 157.79 141.526 157.586C141.25 157.37 141.028 157.106 140.86 156.794C140.692 156.482 140.608 156.122 140.608 155.714C140.608 155.018 140.788 154.472 141.148 154.076C141.508 153.68 141.952 153.386 142.48 153.194C143.02 153.002 143.596 152.882 144.208 152.834C144.832 152.786 145.402 152.762 145.918 152.762H146.458V152.51C146.458 151.898 146.272 151.436 145.9 151.124C145.54 150.812 145.03 150.656 144.37 150.656C143.914 150.656 143.464 150.734 143.02 150.89C142.588 151.034 142.204 151.262 141.868 151.574L140.986 150.656ZM145.054 153.95C144.154 153.95 143.44 154.076 142.912 154.328C142.384 154.58 142.12 154.994 142.12 155.57C142.12 156.098 142.294 156.476 142.642 156.704C143.002 156.92 143.446 157.028 143.974 157.028C144.382 157.028 144.736 156.962 145.036 156.83C145.348 156.686 145.606 156.5 145.81 156.272C146.014 156.044 146.17 155.78 146.278 155.48C146.386 155.168 146.446 154.838 146.458 154.49V153.95H145.054ZM157.43 156.506H157.394C157.13 156.986 156.71 157.394 156.134 157.73C155.57 158.054 154.91 158.216 154.154 158.216C153.566 158.216 153.014 158.108 152.498 157.892C151.982 157.664 151.532 157.352 151.148 156.956C150.776 156.56 150.482 156.092 150.266 155.552C150.05 155.012 149.942 154.424 149.942 153.788C149.942 153.152 150.05 152.564 150.266 152.024C150.482 151.484 150.782 151.016 151.166 150.62C151.55 150.224 152.012 149.918 152.552 149.702C153.104 149.474 153.71 149.36 154.37 149.36C154.982 149.36 155.54 149.486 156.044 149.738C156.56 149.99 157.01 150.344 157.394 150.8H157.43V144.392H158.834V158H157.43V156.506ZM157.43 153.788C157.43 153.344 157.358 152.936 157.214 152.564C157.082 152.18 156.884 151.85 156.62 151.574C156.356 151.286 156.038 151.064 155.666 150.908C155.306 150.74 154.898 150.656 154.442 150.656C153.986 150.656 153.572 150.74 153.2 150.908C152.84 151.064 152.528 151.286 152.264 151.574C152 151.85 151.796 152.18 151.652 152.564C151.52 152.936 151.454 153.344 151.454 153.788C151.454 154.232 151.52 154.646 151.652 155.03C151.796 155.402 152 155.732 152.264 156.02C152.528 156.296 152.84 156.518 153.2 156.686C153.572 156.842 153.986 156.92 154.442 156.92C154.898 156.92 155.306 156.842 155.666 156.686C156.038 156.518 156.356 156.296 156.62 156.02C156.884 155.732 157.082 155.402 157.214 155.03C157.358 154.646 157.43 154.232 157.43 153.788ZM161.612 155.786C161.888 156.134 162.188 156.41 162.512 156.614C162.848 156.818 163.268 156.92 163.772 156.92C163.988 156.92 164.204 156.896 164.42 156.848C164.648 156.8 164.852 156.722 165.032 156.614C165.212 156.506 165.356 156.374 165.464 156.218C165.572 156.05 165.626 155.852 165.626 155.624C165.626 155.396 165.572 155.21 165.464 155.066C165.368 154.922 165.236 154.802 165.068 154.706C164.9 154.598 164.708 154.514 164.492 154.454C164.276 154.394 164.054 154.34 163.826 154.292C163.43 154.208 163.052 154.112 162.692 154.004C162.332 153.896 162.014 153.758 161.738 153.59C161.474 153.41 161.258 153.182 161.09 152.906C160.934 152.63 160.856 152.276 160.856 151.844C160.856 151.436 160.946 151.076 161.126 150.764C161.306 150.452 161.546 150.194 161.846 149.99C162.146 149.786 162.482 149.63 162.854 149.522C163.226 149.414 163.61 149.36 164.006 149.36C164.606 149.36 165.158 149.48 165.662 149.72C166.178 149.96 166.58 150.35 166.868 150.89L165.698 151.664C165.518 151.364 165.278 151.124 164.978 150.944C164.69 150.752 164.336 150.656 163.916 150.656C163.724 150.656 163.526 150.68 163.322 150.728C163.13 150.776 162.956 150.848 162.8 150.944C162.644 151.04 162.512 151.166 162.404 151.322C162.308 151.466 162.26 151.634 162.26 151.826C162.26 152.006 162.314 152.162 162.422 152.294C162.542 152.414 162.698 152.522 162.89 152.618C163.094 152.714 163.322 152.798 163.574 152.87C163.838 152.942 164.108 153.002 164.384 153.05C164.756 153.122 165.11 153.218 165.446 153.338C165.782 153.446 166.076 153.596 166.328 153.788C166.58 153.98 166.778 154.22 166.922 154.508C167.066 154.796 167.138 155.15 167.138 155.57C167.138 156.05 167.042 156.458 166.85 156.794C166.658 157.13 166.4 157.406 166.076 157.622C165.764 157.826 165.404 157.976 164.996 158.072C164.6 158.168 164.192 158.216 163.772 158.216C163.052 158.216 162.428 158.108 161.9 157.892C161.384 157.664 160.916 157.25 160.496 156.65L161.612 155.786ZM170.266 155.948C170.566 155.948 170.818 156.056 171.022 156.272C171.238 156.476 171.346 156.728 171.346 157.028C171.346 157.328 171.232 157.586 171.004 157.802C170.788 158.006 170.542 158.108 170.266 158.108C169.99 158.108 169.738 158.006 169.51 157.802C169.294 157.586 169.186 157.328 169.186 157.028C169.186 156.728 169.288 156.476 169.492 156.272C169.708 156.056 169.966 155.948 170.266 155.948Z" fill="white"></path><path d="M28 76H361.741V77H28V76Z" fill="white"></path></svg>