<svg xmlns="http://www.w3.org/2000/svg" width="384" height="183" viewBox="0 0 384 183" fill="none"><rect y="39" width="384" height="141" rx="20" fill="#25F4EE"></rect><path d="M68.9036 16.95L54.8036 2.425H50.2286V20H53.4286V5.475L67.5286 20H72.1036V2.425H68.9036V16.95ZM86.7675 20.5C94.4175 20.5 98.0675 16.825 98.0675 11.2C98.0675 5.575 94.4175 1.925 86.7675 1.925C79.0925 1.925 75.4425 5.55 75.4425 11.2C75.4425 16.85 79.0925 20.5 86.7675 20.5ZM86.7675 17.65C81.8175 17.65 78.8925 15.75 78.8925 11.2C78.8925 6.65 81.7925 4.775 86.7675 4.775C91.7425 4.775 94.6425 6.675 94.6425 11.2C94.6425 15.725 91.7175 17.65 86.7675 17.65ZM121.112 2.425H99.6124V5.275H108.787V20H111.962V5.275H121.112V2.425ZM134.915 14.3C135.165 19 139.64 20.5 146.815 20.5C152.615 20.5 157.265 19.45 157.265 14.875C157.265 10.5 152.99 10.175 146.165 9.7C140.34 9.3 139.04 8.85 139.04 7.15C139.04 5.525 140.34 4.675 145.465 4.675C150.94 4.675 153.09 5.575 153.09 7.85H156.515C156.49 3.875 152.415 1.925 145.89 1.925C139.64 1.925 135.615 3.175 135.615 7C135.615 10.85 138.665 12.05 146.04 12.475C152.615 12.875 153.84 13.175 153.84 15.05C153.84 16.8 151.94 17.75 146.79 17.75C140.315 17.75 138.365 16.475 138.365 14.3H134.915ZM182.385 2.425H179.21V11.4C179.21 14.175 178.51 17.65 171.385 17.65C164.285 17.65 163.585 14.2 163.585 11.4V2.425H160.385V11.45C160.385 17.55 163.685 20.5 171.385 20.5C179.06 20.5 182.385 17.525 182.385 11.45V2.425ZM203.289 12.325C205.089 11.575 206.164 10.125 206.164 7.725C206.164 3.95 203.464 2.425 199.364 2.425H186.239V20H189.439V14.075H200.314C202.314 14.075 202.764 14.525 202.764 16.3V20H205.939V15.525C205.939 13.725 205.014 12.6 203.289 12.325ZM198.539 5.25C200.364 5.25 202.739 5.25 202.739 8.25C202.739 11.275 200.364 11.275 198.539 11.275H189.439V5.25H198.539ZM228.494 2.425H209.994V20H228.494V17.225H213.194V12.6H227.994V9.825H213.194V5.225H228.494V2.425ZM254.587 11.475L246.562 2.425H242.337L252.862 14.225V20H256.287V14.225L266.812 2.425H262.587L254.587 11.475ZM287.918 2.425H269.418V20H287.918V17.225H272.618V12.6H287.418V9.825H272.618V5.225H287.918V2.425ZM312.543 2.425H291.043V5.275H300.218V20H303.393V5.275H312.543V2.425ZM325.976 14.875C325.976 10.9 334.776 12.55 334.776 6.975C334.776 3.45 331.426 1.925 325.776 1.925C320.176 1.925 316.001 3.65 315.951 8.95H319.326C319.326 5.825 321.376 4.65 325.951 4.65C329.951 4.65 331.351 5.675 331.351 7.025C331.351 10.675 322.601 8.8 322.601 14.875H325.976ZM322.601 20H325.776V17.25H322.601V20Z" fill="white"></path><path d="M33.76 78.2L30.92 80.7L29.22 78.74L33.84 74.84H36.64V89H33.76V78.2ZM40.9559 87.28C40.9559 87.0267 41.0026 86.7867 41.0959 86.56C41.1893 86.3333 41.3159 86.14 41.4759 85.98C41.6493 85.8067 41.8493 85.6733 42.0759 85.58C42.3026 85.4867 42.5426 85.44 42.7959 85.44C43.0493 85.44 43.2893 85.4867 43.5159 85.58C43.7426 85.6733 43.9359 85.8067 44.0959 85.98C44.2693 86.14 44.4026 86.3333 44.4959 86.56C44.5893 86.7867 44.6359 87.0267 44.6359 87.28C44.6359 87.5333 44.5893 87.7733 44.4959 88C44.4026 88.2267 44.2693 88.4267 44.0959 88.6C43.9359 88.76 43.7426 88.8867 43.5159 88.98C43.2893 89.0733 43.0493 89.12 42.7959 89.12C42.5426 89.12 42.3026 89.0733 42.0759 88.98C41.8493 88.8867 41.6493 88.76 41.4759 88.6C41.3159 88.4267 41.1893 88.2267 41.0959 88C41.0026 87.7733 40.9559 87.5333 40.9559 87.28ZM53.1119 74.84H58.3919C59.0052 74.84 59.6185 74.8867 60.2319 74.98C60.8585 75.06 61.4185 75.2333 61.9119 75.5C62.4052 75.7533 62.8052 76.1133 63.1119 76.58C63.4185 77.0467 63.5719 77.6667 63.5719 78.44C63.5719 79.24 63.3452 79.9067 62.8919 80.44C62.4519 80.96 61.8652 81.3333 61.1319 81.56V81.6C61.5985 81.6667 62.0185 81.8 62.3919 82C62.7785 82.1867 63.1052 82.4333 63.3719 82.74C63.6519 83.0333 63.8652 83.38 64.0119 83.78C64.1585 84.18 64.2319 84.6067 64.2319 85.06C64.2319 85.8067 64.0719 86.4333 63.7519 86.94C63.4319 87.4333 63.0185 87.8333 62.5119 88.14C62.0052 88.4467 61.4319 88.6667 60.7919 88.8C60.1652 88.9333 59.5385 89 58.9119 89H53.1119V74.84ZM56.2319 80.5H58.4919C58.7319 80.5 58.9652 80.4733 59.1919 80.42C59.4319 80.3667 59.6452 80.28 59.8319 80.16C60.0185 80.04 60.1652 79.88 60.2719 79.68C60.3919 79.48 60.4519 79.24 60.4519 78.96C60.4519 78.6667 60.3852 78.4267 60.2519 78.24C60.1319 78.04 59.9719 77.8867 59.7719 77.78C59.5719 77.6733 59.3452 77.6 59.0919 77.56C58.8385 77.5067 58.5919 77.48 58.3519 77.48H56.2319V80.5ZM56.2319 86.36H59.0319C59.2719 86.36 59.5119 86.3333 59.7519 86.28C60.0052 86.2267 60.2319 86.1333 60.4319 86C60.6319 85.8667 60.7919 85.6933 60.9119 85.48C61.0452 85.2667 61.1119 85.0067 61.1119 84.7C61.1119 84.3667 61.0252 84.1 60.8519 83.9C60.6919 83.6867 60.4852 83.5267 60.2319 83.42C59.9785 83.3133 59.7052 83.24 59.4119 83.2C59.1185 83.16 58.8452 83.14 58.5919 83.14H56.2319V86.36ZM66.0806 74.84H71.5606C72.2806 74.84 72.9606 74.9133 73.6006 75.06C74.254 75.1933 74.8206 75.4267 75.3006 75.76C75.794 76.08 76.1806 76.52 76.4606 77.08C76.754 77.6267 76.9006 78.3133 76.9006 79.14C76.9006 80.14 76.6406 80.9933 76.1206 81.7C75.6006 82.3933 74.8406 82.8333 73.8406 83.02L77.4406 89H73.7006L70.7406 83.34H69.2006V89H66.0806V74.84ZM69.2006 80.7H71.0406C71.3206 80.7 71.614 80.6933 71.9206 80.68C72.2406 80.6533 72.5273 80.5933 72.7806 80.5C73.034 80.3933 73.2406 80.2333 73.4006 80.02C73.574 79.8067 73.6606 79.5067 73.6606 79.12C73.6606 78.76 73.5873 78.4733 73.4406 78.26C73.294 78.0467 73.1073 77.8867 72.8806 77.78C72.654 77.66 72.394 77.58 72.1006 77.54C71.8073 77.5 71.5206 77.48 71.2406 77.48H69.2006V80.7ZM83.7094 74.84H86.2894L92.4494 89H88.9294L87.7094 86H82.2094L81.0294 89H77.5894L83.7094 74.84ZM84.9094 78.96L83.1894 83.36H86.6494L84.9094 78.96ZM93.8736 74.84H98.1136L104.134 84.68H104.174V74.84H107.294V89H103.214L97.0336 78.92H96.9936V89H93.8736V74.84ZM110.182 74.84H114.862C115.996 74.84 117.069 74.9667 118.082 75.22C119.109 75.4733 120.002 75.8867 120.762 76.46C121.522 77.02 122.122 77.7533 122.562 78.66C123.016 79.5667 123.242 80.6667 123.242 81.96C123.242 83.1067 123.022 84.12 122.582 85C122.156 85.8667 121.576 86.6 120.842 87.2C120.109 87.7867 119.262 88.2333 118.302 88.54C117.342 88.8467 116.336 89 115.282 89H110.182V74.84ZM113.302 86.12H114.922C115.642 86.12 116.309 86.0467 116.922 85.9C117.549 85.7533 118.089 85.5133 118.542 85.18C118.996 84.8333 119.349 84.3867 119.602 83.84C119.869 83.28 120.002 82.6 120.002 81.8C120.002 81.1067 119.869 80.5067 119.602 80C119.349 79.48 119.002 79.0533 118.562 78.72C118.122 78.3867 117.602 78.14 117.002 77.98C116.416 77.8067 115.796 77.72 115.142 77.72H113.302V86.12ZM135.936 74.84H138.516L144.676 89H141.156L139.936 86H134.436L133.256 89H129.816L135.936 74.84ZM137.136 78.96L135.416 83.36H138.876L137.136 78.96ZM146.1 74.84H150.34L156.36 84.68H156.4V74.84H159.52V89H155.44L149.26 78.92H149.22V89H146.1V74.84ZM167.069 74.84H169.649L175.809 89H172.289L171.069 86H165.569L164.389 89H160.949L167.069 74.84ZM168.269 78.96L166.549 83.36H170.009L168.269 78.96ZM177.353 74.84H180.473V86.12H186.253V89H177.353V74.84ZM189.229 82.96L183.909 74.84H187.789L190.789 80.14L193.969 74.84H197.669L192.349 82.96V89H189.229V82.96ZM205.717 78.3C205.464 77.98 205.117 77.7467 204.677 77.6C204.251 77.44 203.844 77.36 203.457 77.36C203.231 77.36 202.997 77.3867 202.757 77.44C202.517 77.4933 202.291 77.58 202.077 77.7C201.864 77.8067 201.691 77.9533 201.557 78.14C201.424 78.3267 201.357 78.5533 201.357 78.82C201.357 79.2467 201.517 79.5733 201.837 79.8C202.157 80.0267 202.557 80.22 203.037 80.38C203.531 80.54 204.057 80.7 204.617 80.86C205.177 81.02 205.697 81.2467 206.177 81.54C206.671 81.8333 207.077 82.2267 207.397 82.72C207.717 83.2133 207.877 83.8733 207.877 84.7C207.877 85.4867 207.731 86.1733 207.437 86.76C207.144 87.3467 206.744 87.8333 206.237 88.22C205.744 88.6067 205.164 88.8933 204.497 89.08C203.844 89.2667 203.151 89.36 202.417 89.36C201.497 89.36 200.644 89.22 199.857 88.94C199.071 88.66 198.337 88.2067 197.657 87.58L199.877 85.14C200.197 85.5667 200.597 85.9 201.077 86.14C201.571 86.3667 202.077 86.48 202.597 86.48C202.851 86.48 203.104 86.4533 203.357 86.4C203.624 86.3333 203.857 86.24 204.057 86.12C204.271 86 204.437 85.8467 204.557 85.66C204.691 85.4733 204.757 85.2533 204.757 85C204.757 84.5733 204.591 84.24 204.257 84C203.937 83.7467 203.531 83.5333 203.037 83.36C202.544 83.1867 202.011 83.0133 201.437 82.84C200.864 82.6667 200.331 82.4333 199.837 82.14C199.344 81.8467 198.931 81.46 198.597 80.98C198.277 80.5 198.117 79.8667 198.117 79.08C198.117 78.32 198.264 77.6533 198.557 77.08C198.864 76.5067 199.264 76.0267 199.757 75.64C200.264 75.2533 200.844 74.9667 201.497 74.78C202.151 74.58 202.824 74.48 203.517 74.48C204.317 74.48 205.091 74.5933 205.837 74.82C206.584 75.0467 207.257 75.4267 207.857 75.96L205.717 78.3ZM210.162 74.84H213.282V89H210.162V74.84ZM223.12 78.3C222.866 77.98 222.52 77.7467 222.08 77.6C221.653 77.44 221.246 77.36 220.86 77.36C220.633 77.36 220.4 77.3867 220.16 77.44C219.92 77.4933 219.693 77.58 219.48 77.7C219.266 77.8067 219.093 77.9533 218.96 78.14C218.826 78.3267 218.76 78.5533 218.76 78.82C218.76 79.2467 218.92 79.5733 219.24 79.8C219.56 80.0267 219.96 80.22 220.44 80.38C220.933 80.54 221.46 80.7 222.02 80.86C222.58 81.02 223.1 81.2467 223.58 81.54C224.073 81.8333 224.48 82.2267 224.8 82.72C225.12 83.2133 225.28 83.8733 225.28 84.7C225.28 85.4867 225.133 86.1733 224.84 86.76C224.546 87.3467 224.146 87.8333 223.64 88.22C223.146 88.6067 222.566 88.8933 221.9 89.08C221.246 89.2667 220.553 89.36 219.82 89.36C218.9 89.36 218.046 89.22 217.26 88.94C216.473 88.66 215.74 88.2067 215.06 87.58L217.28 85.14C217.6 85.5667 218 85.9 218.48 86.14C218.973 86.3667 219.48 86.48 220 86.48C220.253 86.48 220.506 86.4533 220.76 86.4C221.026 86.3333 221.26 86.24 221.46 86.12C221.673 86 221.84 85.8467 221.96 85.66C222.093 85.4733 222.16 85.2533 222.16 85C222.16 84.5733 221.993 84.24 221.66 84C221.34 83.7467 220.933 83.5333 220.44 83.36C219.946 83.1867 219.413 83.0133 218.84 82.84C218.266 82.6667 217.733 82.4333 217.24 82.14C216.746 81.8467 216.333 81.46 216 80.98C215.68 80.5 215.52 79.8667 215.52 79.08C215.52 78.32 215.666 77.6533 215.96 77.08C216.266 76.5067 216.666 76.0267 217.16 75.64C217.666 75.2533 218.246 74.9667 218.9 74.78C219.553 74.58 220.226 74.48 220.92 74.48C221.72 74.48 222.493 74.5933 223.24 74.82C223.986 75.0467 224.66 75.4267 225.26 75.96L223.12 78.3ZM233.642 74.84H243.142V77.72H236.762V80.6H242.662V83.48H236.762V89H233.642V74.84ZM244.618 81.92C244.618 80.7867 244.804 79.76 245.178 78.84C245.564 77.92 246.098 77.14 246.778 76.5C247.458 75.8467 248.264 75.3467 249.198 75C250.131 74.6533 251.151 74.48 252.258 74.48C253.364 74.48 254.384 74.6533 255.318 75C256.251 75.3467 257.058 75.8467 257.738 76.5C258.418 77.14 258.944 77.92 259.318 78.84C259.704 79.76 259.898 80.7867 259.898 81.92C259.898 83.0533 259.704 84.08 259.318 85C258.944 85.92 258.418 86.7067 257.738 87.36C257.058 88 256.251 88.4933 255.318 88.84C254.384 89.1867 253.364 89.36 252.258 89.36C251.151 89.36 250.131 89.1867 249.198 88.84C248.264 88.4933 247.458 88 246.778 87.36C246.098 86.7067 245.564 85.92 245.178 85C244.804 84.08 244.618 83.0533 244.618 81.92ZM247.858 81.92C247.858 82.5867 247.958 83.2 248.158 83.76C248.371 84.3067 248.671 84.7867 249.058 85.2C249.444 85.6 249.904 85.9133 250.438 86.14C250.984 86.3667 251.591 86.48 252.258 86.48C252.924 86.48 253.524 86.3667 254.058 86.14C254.604 85.9133 255.071 85.6 255.458 85.2C255.844 84.7867 256.138 84.3067 256.338 83.76C256.551 83.2 256.658 82.5867 256.658 81.92C256.658 81.2667 256.551 80.66 256.338 80.1C256.138 79.54 255.844 79.06 255.458 78.66C255.071 78.2467 254.604 77.9267 254.058 77.7C253.524 77.4733 252.924 77.36 252.258 77.36C251.591 77.36 250.984 77.4733 250.438 77.7C249.904 77.9267 249.444 78.2467 249.058 78.66C248.671 79.06 248.371 79.54 248.158 80.1C247.958 80.66 247.858 81.2667 247.858 81.92ZM262.018 74.84H267.498C268.218 74.84 268.898 74.9133 269.538 75.06C270.191 75.1933 270.758 75.4267 271.238 75.76C271.731 76.08 272.118 76.52 272.398 77.08C272.691 77.6267 272.838 78.3133 272.838 79.14C272.838 80.14 272.578 80.9933 272.058 81.7C271.538 82.3933 270.778 82.8333 269.778 83.02L273.378 89H269.638L266.678 83.34H265.138V89H262.018V74.84ZM265.138 80.7H266.978C267.258 80.7 267.551 80.6933 267.858 80.68C268.178 80.6533 268.465 80.5933 268.718 80.5C268.971 80.3933 269.178 80.2333 269.338 80.02C269.511 79.8067 269.598 79.5067 269.598 79.12C269.598 78.76 269.525 78.4733 269.378 78.26C269.231 78.0467 269.045 77.8867 268.818 77.78C268.591 77.66 268.331 77.58 268.038 77.54C267.745 77.5 267.458 77.48 267.178 77.48H265.138V80.7ZM283.645 77.6H279.605V74.84H290.805V77.6H286.765V89H283.645V77.6ZM292.349 74.84H295.469V89H292.349V74.84ZM298.427 74.84H301.547V80.72L307.047 74.84H311.127L304.827 81.42L311.667 89H307.307L301.547 82.28V89H298.427V74.84ZM315.481 77.6H311.441V74.84H322.641V77.6H318.601V89H315.481V77.6ZM323.465 81.92C323.465 80.7867 323.652 79.76 324.025 78.84C324.412 77.92 324.945 77.14 325.625 76.5C326.305 75.8467 327.112 75.3467 328.045 75C328.978 74.6533 329.998 74.48 331.105 74.48C332.212 74.48 333.232 74.6533 334.165 75C335.098 75.3467 335.905 75.8467 336.585 76.5C337.265 77.14 337.792 77.92 338.165 78.84C338.552 79.76 338.745 80.7867 338.745 81.92C338.745 83.0533 338.552 84.08 338.165 85C337.792 85.92 337.265 86.7067 336.585 87.36C335.905 88 335.098 88.4933 334.165 88.84C333.232 89.1867 332.212 89.36 331.105 89.36C329.998 89.36 328.978 89.1867 328.045 88.84C327.112 88.4933 326.305 88 325.625 87.36C324.945 86.7067 324.412 85.92 324.025 85C323.652 84.08 323.465 83.0533 323.465 81.92ZM326.705 81.92C326.705 82.5867 326.805 83.2 327.005 83.76C327.218 84.3067 327.518 84.7867 327.905 85.2C328.292 85.6 328.752 85.9133 329.285 86.14C329.832 86.3667 330.438 86.48 331.105 86.48C331.772 86.48 332.372 86.3667 332.905 86.14C333.452 85.9133 333.918 85.6 334.305 85.2C334.692 84.7867 334.985 84.3067 335.185 83.76C335.398 83.2 335.505 82.5867 335.505 81.92C335.505 81.2667 335.398 80.66 335.185 80.1C334.985 79.54 334.692 79.06 334.305 78.66C333.918 78.2467 333.452 77.9267 332.905 77.7C332.372 77.4733 331.772 77.36 331.105 77.36C330.438 77.36 329.832 77.4733 329.285 77.7C328.752 77.9267 328.292 78.2467 327.905 78.66C327.518 79.06 327.218 79.54 327.005 80.1C326.805 80.66 326.705 81.2667 326.705 81.92ZM340.986 74.84H344.106V80.72L349.606 74.84H353.686L347.386 81.42L354.226 89H349.866L344.106 82.28V89H340.986V74.84ZM38.512 106.884C38.128 106.368 37.654 105.984 37.09 105.732C36.526 105.468 35.938 105.336 35.326 105.336C34.618 105.336 33.964 105.48 33.364 105.768C32.776 106.056 32.266 106.446 31.834 106.938C31.402 107.418 31.066 107.982 30.826 108.63C30.586 109.266 30.466 109.932 30.466 110.628C30.466 111.372 30.586 112.068 30.826 112.716C31.066 113.352 31.396 113.91 31.816 114.39C32.248 114.858 32.758 115.23 33.346 115.506C33.946 115.782 34.606 115.92 35.326 115.92C36.106 115.92 36.802 115.77 37.414 115.47C38.026 115.158 38.56 114.714 39.016 114.138L40.15 115.092C39.574 115.86 38.878 116.424 38.062 116.784C37.258 117.144 36.346 117.324 35.326 117.324C34.414 117.324 33.562 117.156 32.77 116.82C31.978 116.484 31.288 116.022 30.7 115.434C30.124 114.834 29.668 114.126 29.332 113.31C29.008 112.494 28.846 111.6 28.846 110.628C28.846 109.692 29.002 108.816 29.314 108C29.638 107.184 30.088 106.476 30.664 105.876C31.24 105.276 31.924 104.802 32.716 104.454C33.508 104.106 34.378 103.932 35.326 103.932C36.19 103.932 37.018 104.088 37.81 104.4C38.614 104.712 39.286 105.222 39.826 105.93L38.512 106.884ZM42.0058 110.574C42.0058 110.19 41.9938 109.83 41.9698 109.494C41.9458 109.158 41.9338 108.852 41.9338 108.576H43.2658C43.2658 108.804 43.2718 109.032 43.2838 109.26C43.2958 109.488 43.3018 109.722 43.3018 109.962H43.3378C43.4338 109.758 43.5658 109.56 43.7338 109.368C43.9138 109.176 44.1238 109.008 44.3638 108.864C44.6038 108.708 44.8738 108.588 45.1738 108.504C45.4738 108.408 45.7978 108.36 46.1458 108.36C46.2418 108.36 46.3378 108.366 46.4338 108.378C46.5298 108.39 46.6258 108.414 46.7218 108.45L46.6318 109.872C46.3918 109.8 46.1398 109.764 45.8758 109.764C45.0118 109.764 44.3818 110.046 43.9858 110.61C43.6018 111.162 43.4098 111.924 43.4098 112.896V117H42.0058V110.574ZM55.5415 115.47C55.0375 116.118 54.4855 116.574 53.8855 116.838C53.2855 117.09 52.5895 117.216 51.7975 117.216C51.1375 117.216 50.5435 117.102 50.0155 116.874C49.4875 116.634 49.0375 116.316 48.6655 115.92C48.3055 115.524 48.0235 115.056 47.8195 114.516C47.6275 113.976 47.5315 113.4 47.5315 112.788C47.5315 112.14 47.6395 111.546 47.8555 111.006C48.0715 110.454 48.3715 109.986 48.7555 109.602C49.1395 109.206 49.5955 108.9 50.1235 108.684C50.6515 108.468 51.2275 108.36 51.8515 108.36C52.4395 108.36 52.9795 108.462 53.4715 108.666C53.9635 108.858 54.3835 109.146 54.7315 109.53C55.0915 109.902 55.3675 110.364 55.5595 110.916C55.7515 111.456 55.8475 112.074 55.8475 112.77V113.22H49.0435C49.0675 113.58 49.1515 113.928 49.2955 114.264C49.4515 114.588 49.6495 114.876 49.8895 115.128C50.1295 115.368 50.4115 115.56 50.7355 115.704C51.0595 115.848 51.4135 115.92 51.7975 115.92C52.4095 115.92 52.9255 115.812 53.3455 115.596C53.7655 115.38 54.1435 115.062 54.4795 114.642L55.5415 115.47ZM54.3355 112.032C54.3115 111.312 54.0775 110.736 53.6335 110.304C53.1895 109.872 52.5775 109.656 51.7975 109.656C51.0175 109.656 50.3875 109.872 49.9075 110.304C49.4275 110.736 49.1395 111.312 49.0435 112.032H54.3355ZM57.9115 109.656C58.3435 109.212 58.8535 108.888 59.4415 108.684C60.0415 108.468 60.6475 108.36 61.2595 108.36C62.5075 108.36 63.4075 108.654 63.9595 109.242C64.5115 109.83 64.7875 110.724 64.7875 111.924V115.542C64.7875 115.782 64.7995 116.034 64.8235 116.298C64.8475 116.55 64.8775 116.784 64.9135 117H63.5635C63.5155 116.808 63.4855 116.598 63.4735 116.37C63.4735 116.13 63.4735 115.92 63.4735 115.74H63.4375C63.1615 116.172 62.7895 116.526 62.3215 116.802C61.8655 117.078 61.3135 117.216 60.6655 117.216C60.2335 117.216 59.8255 117.162 59.4415 117.054C59.0695 116.946 58.7395 116.79 58.4515 116.586C58.1755 116.37 57.9535 116.106 57.7855 115.794C57.6175 115.482 57.5335 115.122 57.5335 114.714C57.5335 114.018 57.7135 113.472 58.0735 113.076C58.4335 112.68 58.8775 112.386 59.4055 112.194C59.9455 112.002 60.5215 111.882 61.1335 111.834C61.7575 111.786 62.3275 111.762 62.8435 111.762H63.3835V111.51C63.3835 110.898 63.1975 110.436 62.8255 110.124C62.4655 109.812 61.9555 109.656 61.2955 109.656C60.8395 109.656 60.3895 109.734 59.9455 109.89C59.5135 110.034 59.1295 110.262 58.7935 110.574L57.9115 109.656ZM61.9795 112.95C61.0795 112.95 60.3655 113.076 59.8375 113.328C59.3095 113.58 59.0455 113.994 59.0455 114.57C59.0455 115.098 59.2195 115.476 59.5675 115.704C59.9275 115.92 60.3715 116.028 60.8995 116.028C61.3075 116.028 61.6615 115.962 61.9615 115.83C62.2735 115.686 62.5315 115.5 62.7355 115.272C62.9395 115.044 63.0955 114.78 63.2035 114.48C63.3115 114.168 63.3715 113.838 63.3835 113.49V112.95H61.9795ZM71.9615 109.764H69.4775V113.976C69.4775 114.252 69.4835 114.51 69.4955 114.75C69.5075 114.978 69.5555 115.182 69.6395 115.362C69.7235 115.53 69.8495 115.668 70.0175 115.776C70.1855 115.872 70.4255 115.92 70.7375 115.92C70.9415 115.92 71.1515 115.896 71.3675 115.848C71.5835 115.8 71.7875 115.728 71.9795 115.632L72.0335 116.91C71.7935 117.018 71.5235 117.096 71.2235 117.144C70.9355 117.192 70.6595 117.216 70.3955 117.216C69.8915 117.216 69.4895 117.15 69.1895 117.018C68.8895 116.886 68.6555 116.7 68.4875 116.46C68.3195 116.22 68.2055 115.926 68.1455 115.578C68.0975 115.218 68.0735 114.822 68.0735 114.39V109.764H66.2375V108.576H68.0735V106.182H69.4775V108.576H71.9615V109.764ZM81.2056 115.47C80.7016 116.118 80.1496 116.574 79.5496 116.838C78.9496 117.09 78.2536 117.216 77.4616 117.216C76.8016 117.216 76.2076 117.102 75.6796 116.874C75.1516 116.634 74.7016 116.316 74.3296 115.92C73.9696 115.524 73.6876 115.056 73.4836 114.516C73.2916 113.976 73.1956 113.4 73.1956 112.788C73.1956 112.14 73.3036 111.546 73.5196 111.006C73.7356 110.454 74.0356 109.986 74.4196 109.602C74.8036 109.206 75.2596 108.9 75.7876 108.684C76.3156 108.468 76.8916 108.36 77.5156 108.36C78.1036 108.36 78.6436 108.462 79.1356 108.666C79.6276 108.858 80.0476 109.146 80.3956 109.53C80.7556 109.902 81.0316 110.364 81.2236 110.916C81.4156 111.456 81.5116 112.074 81.5116 112.77V113.22H74.7076C74.7316 113.58 74.8156 113.928 74.9596 114.264C75.1156 114.588 75.3136 114.876 75.5536 115.128C75.7936 115.368 76.0756 115.56 76.3996 115.704C76.7236 115.848 77.0776 115.92 77.4616 115.92C78.0736 115.92 78.5896 115.812 79.0096 115.596C79.4296 115.38 79.8076 115.062 80.1436 114.642L81.2056 115.47ZM79.9996 112.032C79.9756 111.312 79.7416 110.736 79.2976 110.304C78.8536 109.872 78.2416 109.656 77.4616 109.656C76.6816 109.656 76.0516 109.872 75.5716 110.304C75.0916 110.736 74.8036 111.312 74.7076 112.032H79.9996ZM88.5853 109.656C89.0173 109.212 89.5273 108.888 90.1153 108.684C90.7153 108.468 91.3213 108.36 91.9333 108.36C93.1813 108.36 94.0813 108.654 94.6333 109.242C95.1853 109.83 95.4613 110.724 95.4613 111.924V115.542C95.4613 115.782 95.4733 116.034 95.4973 116.298C95.5213 116.55 95.5513 116.784 95.5873 117H94.2373C94.1893 116.808 94.1593 116.598 94.1473 116.37C94.1473 116.13 94.1473 115.92 94.1473 115.74H94.1113C93.8353 116.172 93.4633 116.526 92.9953 116.802C92.5393 117.078 91.9873 117.216 91.3393 117.216C90.9073 117.216 90.4993 117.162 90.1153 117.054C89.7433 116.946 89.4133 116.79 89.1253 116.586C88.8493 116.37 88.6273 116.106 88.4593 115.794C88.2913 115.482 88.2073 115.122 88.2073 114.714C88.2073 114.018 88.3873 113.472 88.7473 113.076C89.1073 112.68 89.5513 112.386 90.0793 112.194C90.6193 112.002 91.1953 111.882 91.8073 111.834C92.4313 111.786 93.0013 111.762 93.5173 111.762H94.0573V111.51C94.0573 110.898 93.8713 110.436 93.4993 110.124C93.1393 109.812 92.6293 109.656 91.9693 109.656C91.5133 109.656 91.0633 109.734 90.6193 109.89C90.1873 110.034 89.8033 110.262 89.4673 110.574L88.5853 109.656ZM92.6533 112.95C91.7533 112.95 91.0393 113.076 90.5113 113.328C89.9833 113.58 89.7193 113.994 89.7193 114.57C89.7193 115.098 89.8933 115.476 90.2413 115.704C90.6013 115.92 91.0453 116.028 91.5733 116.028C91.9813 116.028 92.3353 115.962 92.6353 115.83C92.9473 115.686 93.2053 115.5 93.4093 115.272C93.6133 115.044 93.7693 114.78 93.8773 114.48C93.9853 114.168 94.0453 113.838 94.0573 113.49V112.95H92.6533ZM111.839 105.66H107.627V117H106.115V105.66H101.903V104.256H111.839V105.66ZM113.499 108.576H114.903V117H113.499V108.576ZM113.175 105.282C113.175 105.006 113.271 104.766 113.463 104.562C113.667 104.358 113.913 104.256 114.201 104.256C114.489 104.256 114.729 104.358 114.921 104.562C115.125 104.766 115.227 105.006 115.227 105.282C115.227 105.582 115.131 105.828 114.939 106.02C114.747 106.212 114.501 106.308 114.201 106.308C113.901 106.308 113.655 106.212 113.463 106.02C113.271 105.828 113.175 105.582 113.175 105.282ZM117.697 103.392H119.101V112.284L122.935 108.576H124.933L120.865 112.41L125.347 117H123.277L119.101 112.572V117H117.697V103.392ZM135.499 105.66H131.287V117H129.775V105.66H125.563V104.256H135.499V105.66ZM134.543 112.788C134.543 112.128 134.657 111.528 134.885 110.988C135.113 110.448 135.425 109.986 135.821 109.602C136.217 109.206 136.691 108.9 137.243 108.684C137.795 108.468 138.395 108.36 139.043 108.36C139.691 108.36 140.291 108.468 140.843 108.684C141.395 108.9 141.869 109.206 142.265 109.602C142.661 109.986 142.973 110.448 143.201 110.988C143.429 111.528 143.543 112.128 143.543 112.788C143.543 113.448 143.429 114.048 143.201 114.588C142.973 115.128 142.661 115.596 142.265 115.992C141.869 116.376 141.395 116.676 140.843 116.892C140.291 117.108 139.691 117.216 139.043 117.216C138.395 117.216 137.795 117.108 137.243 116.892C136.691 116.676 136.217 116.376 135.821 115.992C135.425 115.596 135.113 115.128 134.885 114.588C134.657 114.048 134.543 113.448 134.543 112.788ZM136.055 112.788C136.055 113.232 136.121 113.646 136.253 114.03C136.397 114.402 136.601 114.732 136.865 115.02C137.129 115.296 137.441 115.518 137.801 115.686C138.173 115.842 138.587 115.92 139.043 115.92C139.499 115.92 139.907 115.842 140.267 115.686C140.639 115.518 140.957 115.296 141.221 115.02C141.485 114.732 141.683 114.402 141.815 114.03C141.959 113.646 142.031 113.232 142.031 112.788C142.031 112.344 141.959 111.936 141.815 111.564C141.683 111.18 141.485 110.85 141.221 110.574C140.957 110.286 140.639 110.064 140.267 109.908C139.907 109.74 139.499 109.656 139.043 109.656C138.587 109.656 138.173 109.74 137.801 109.908C137.441 110.064 137.129 110.286 136.865 110.574C136.601 110.85 136.397 111.18 136.253 111.564C136.121 111.936 136.055 112.344 136.055 112.788ZM145.717 103.392H147.121V112.284L150.955 108.576H152.953L148.885 112.41L153.367 117H151.297L147.121 112.572V117H145.717V103.392ZM159.025 112.626C159.025 111.93 159.151 111.3 159.403 110.736C159.655 110.172 159.997 109.692 160.429 109.296C160.873 108.888 161.389 108.576 161.977 108.36C162.577 108.144 163.213 108.036 163.885 108.036C164.557 108.036 165.187 108.144 165.775 108.36C166.375 108.576 166.891 108.888 167.323 109.296C167.767 109.692 168.115 110.172 168.367 110.736C168.619 111.3 168.745 111.93 168.745 112.626C168.745 113.322 168.619 113.952 168.367 114.516C168.115 115.08 167.767 115.566 167.323 115.974C166.891 116.37 166.375 116.676 165.775 116.892C165.187 117.108 164.557 117.216 163.885 117.216C163.213 117.216 162.577 117.108 161.977 116.892C161.389 116.676 160.873 116.37 160.429 115.974C159.997 115.566 159.655 115.08 159.403 114.516C159.151 113.952 159.025 113.322 159.025 112.626ZM161.725 112.626C161.725 113.286 161.911 113.82 162.283 114.228C162.667 114.636 163.201 114.84 163.885 114.84C164.569 114.84 165.097 114.636 165.469 114.228C165.853 113.82 166.045 113.286 166.045 112.626C166.045 111.966 165.853 111.432 165.469 111.024C165.097 110.616 164.569 110.412 163.885 110.412C163.201 110.412 162.667 110.616 162.283 111.024C161.911 111.432 161.725 111.966 161.725 112.626ZM170.587 108.252H173.071V109.404H173.107C173.215 109.248 173.353 109.092 173.521 108.936C173.701 108.768 173.905 108.618 174.133 108.486C174.373 108.354 174.631 108.246 174.907 108.162C175.183 108.078 175.477 108.036 175.789 108.036C176.437 108.036 177.025 108.15 177.553 108.378C178.081 108.594 178.531 108.906 178.903 109.314C179.287 109.71 179.581 110.184 179.785 110.736C179.989 111.288 180.091 111.894 180.091 112.554C180.091 113.166 179.995 113.754 179.803 114.318C179.623 114.87 179.359 115.362 179.011 115.794C178.675 116.226 178.261 116.574 177.769 116.838C177.277 117.09 176.719 117.216 176.095 117.216C175.531 117.216 175.003 117.132 174.511 116.964C174.031 116.784 173.635 116.484 173.323 116.064H173.287V121.104H170.587V108.252ZM173.071 112.626C173.071 113.286 173.257 113.82 173.629 114.228C174.013 114.636 174.547 114.84 175.231 114.84C175.915 114.84 176.443 114.636 176.815 114.228C177.199 113.82 177.391 113.286 177.391 112.626C177.391 111.966 177.199 111.432 176.815 111.024C176.443 110.616 175.915 110.412 175.231 110.412C174.547 110.412 174.013 110.616 173.629 111.024C173.257 111.432 173.071 111.966 173.071 112.626ZM181.925 108.252H184.409V109.404H184.445C184.553 109.248 184.691 109.092 184.859 108.936C185.039 108.768 185.243 108.618 185.471 108.486C185.711 108.354 185.969 108.246 186.245 108.162C186.521 108.078 186.815 108.036 187.127 108.036C187.775 108.036 188.363 108.15 188.891 108.378C189.419 108.594 189.869 108.906 190.241 109.314C190.625 109.71 190.919 110.184 191.123 110.736C191.327 111.288 191.429 111.894 191.429 112.554C191.429 113.166 191.333 113.754 191.141 114.318C190.961 114.87 190.697 115.362 190.349 115.794C190.013 116.226 189.599 116.574 189.107 116.838C188.615 117.09 188.057 117.216 187.433 117.216C186.869 117.216 186.341 117.132 185.849 116.964C185.369 116.784 184.973 116.484 184.661 116.064H184.625V121.104H181.925V108.252ZM184.409 112.626C184.409 113.286 184.595 113.82 184.967 114.228C185.351 114.636 185.885 114.84 186.569 114.84C187.253 114.84 187.781 114.636 188.153 114.228C188.537 113.82 188.729 113.286 188.729 112.626C188.729 111.966 188.537 111.432 188.153 111.024C187.781 110.616 187.253 110.412 186.569 110.412C185.885 110.412 185.351 110.616 184.967 111.024C184.595 111.432 184.409 111.966 184.409 112.626ZM192.687 112.626C192.687 111.93 192.813 111.3 193.065 110.736C193.317 110.172 193.659 109.692 194.091 109.296C194.535 108.888 195.051 108.576 195.639 108.36C196.239 108.144 196.875 108.036 197.547 108.036C198.219 108.036 198.849 108.144 199.437 108.36C200.037 108.576 200.553 108.888 200.985 109.296C201.429 109.692 201.777 110.172 202.029 110.736C202.281 111.3 202.407 111.93 202.407 112.626C202.407 113.322 202.281 113.952 202.029 114.516C201.777 115.08 201.429 115.566 200.985 115.974C200.553 116.37 200.037 116.676 199.437 116.892C198.849 117.108 198.219 117.216 197.547 117.216C196.875 117.216 196.239 117.108 195.639 116.892C195.051 116.676 194.535 116.37 194.091 115.974C193.659 115.566 193.317 115.08 193.065 114.516C192.813 113.952 192.687 113.322 192.687 112.626ZM195.387 112.626C195.387 113.286 195.573 113.82 195.945 114.228C196.329 114.636 196.863 114.84 197.547 114.84C198.231 114.84 198.759 114.636 199.131 114.228C199.515 113.82 199.707 113.286 199.707 112.626C199.707 111.966 199.515 111.432 199.131 111.024C198.759 110.616 198.231 110.412 197.547 110.412C196.863 110.412 196.329 110.616 195.945 111.024C195.573 111.432 195.387 111.966 195.387 112.626ZM203.997 108.252H206.697V109.656H206.733C207.021 109.116 207.363 108.714 207.759 108.45C208.155 108.174 208.653 108.036 209.253 108.036C209.409 108.036 209.565 108.042 209.721 108.054C209.877 108.066 210.021 108.09 210.153 108.126V110.592C209.961 110.532 209.769 110.49 209.577 110.466C209.397 110.43 209.205 110.412 209.001 110.412C208.485 110.412 208.077 110.484 207.777 110.628C207.477 110.772 207.243 110.976 207.075 111.24C206.919 111.492 206.817 111.798 206.769 112.158C206.721 112.518 206.697 112.914 206.697 113.346V117H203.997V108.252ZM217.285 110.412H214.909V113.328C214.909 113.568 214.921 113.79 214.945 113.994C214.969 114.186 215.023 114.354 215.107 114.498C215.191 114.642 215.317 114.756 215.485 114.84C215.665 114.912 215.899 114.948 216.187 114.948C216.331 114.948 216.517 114.936 216.745 114.912C216.985 114.876 217.165 114.804 217.285 114.696V116.946C216.985 117.054 216.673 117.126 216.349 117.162C216.025 117.198 215.707 117.216 215.395 117.216C214.939 117.216 214.519 117.168 214.135 117.072C213.751 116.976 213.415 116.826 213.127 116.622C212.839 116.406 212.611 116.13 212.443 115.794C212.287 115.458 212.209 115.05 212.209 114.57V110.412H210.481V108.252H212.209V105.66H214.909V108.252H217.285V110.412ZM227.081 117H224.489V115.812H224.453C224.357 115.98 224.231 116.148 224.075 116.316C223.931 116.484 223.751 116.634 223.535 116.766C223.319 116.898 223.073 117.006 222.797 117.09C222.521 117.174 222.221 117.216 221.897 117.216C221.213 117.216 220.655 117.114 220.223 116.91C219.803 116.694 219.473 116.4 219.233 116.028C219.005 115.656 218.849 115.218 218.765 114.714C218.693 114.21 218.657 113.664 218.657 113.076V108.252H221.357V112.536C221.357 112.788 221.363 113.052 221.375 113.328C221.399 113.592 221.453 113.838 221.537 114.066C221.633 114.294 221.771 114.48 221.951 114.624C222.143 114.768 222.413 114.84 222.761 114.84C223.109 114.84 223.391 114.78 223.607 114.66C223.823 114.528 223.985 114.36 224.093 114.156C224.213 113.94 224.291 113.7 224.327 113.436C224.363 113.172 224.381 112.896 224.381 112.608V108.252H227.081V117ZM228.993 108.252H231.585V109.44H231.621C231.705 109.272 231.825 109.104 231.981 108.936C232.137 108.768 232.323 108.618 232.539 108.486C232.755 108.354 233.001 108.246 233.277 108.162C233.553 108.078 233.853 108.036 234.177 108.036C234.861 108.036 235.413 108.144 235.833 108.36C236.253 108.564 236.577 108.852 236.805 109.224C237.045 109.596 237.207 110.034 237.291 110.538C237.375 111.042 237.417 111.588 237.417 112.176V117H234.717V112.716C234.717 112.464 234.705 112.206 234.681 111.942C234.669 111.666 234.615 111.414 234.519 111.186C234.435 110.958 234.297 110.772 234.105 110.628C233.925 110.484 233.661 110.412 233.313 110.412C232.965 110.412 232.683 110.478 232.467 110.61C232.251 110.73 232.083 110.898 231.963 111.114C231.855 111.318 231.783 111.552 231.747 111.816C231.711 112.08 231.693 112.356 231.693 112.644V117H228.993V108.252ZM239.365 108.252H242.065V117H239.365V108.252ZM239.149 105.498C239.149 105.066 239.299 104.7 239.599 104.4C239.911 104.088 240.283 103.932 240.715 103.932C241.147 103.932 241.513 104.088 241.813 104.4C242.125 104.7 242.281 105.066 242.281 105.498C242.281 105.93 242.125 106.302 241.813 106.614C241.513 106.914 241.147 107.064 240.715 107.064C240.283 107.064 239.911 106.914 239.599 106.614C239.299 106.302 239.149 105.93 239.149 105.498ZM249.963 110.412H247.587V113.328C247.587 113.568 247.599 113.79 247.623 113.994C247.647 114.186 247.701 114.354 247.785 114.498C247.869 114.642 247.995 114.756 248.163 114.84C248.343 114.912 248.577 114.948 248.865 114.948C249.009 114.948 249.195 114.936 249.423 114.912C249.663 114.876 249.843 114.804 249.963 114.696V116.946C249.663 117.054 249.351 117.126 249.027 117.162C248.703 117.198 248.385 117.216 248.073 117.216C247.617 117.216 247.197 117.168 246.813 117.072C246.429 116.976 246.093 116.826 245.805 116.622C245.517 116.406 245.289 116.13 245.121 115.794C244.965 115.458 244.887 115.05 244.887 114.57V110.412H243.159V108.252H244.887V105.66H247.587V108.252H249.963V110.412ZM256.375 118.422C256.195 118.89 256.021 119.304 255.853 119.664C255.685 120.024 255.469 120.324 255.205 120.564C254.953 120.816 254.629 121.002 254.233 121.122C253.837 121.254 253.315 121.32 252.667 121.32C251.971 121.32 251.299 121.212 250.651 120.996L251.011 118.782C251.419 118.962 251.839 119.052 252.271 119.052C252.571 119.052 252.817 119.016 253.009 118.944C253.201 118.884 253.357 118.788 253.477 118.656C253.609 118.536 253.717 118.386 253.801 118.206C253.885 118.026 253.975 117.816 254.071 117.576L254.269 117.072L250.435 108.252H253.351L255.601 114.03H255.637L257.563 108.252H260.335L256.375 118.422ZM274.043 115.506H274.007C273.743 115.986 273.323 116.394 272.747 116.73C272.183 117.054 271.523 117.216 270.767 117.216C270.179 117.216 269.627 117.108 269.111 116.892C268.595 116.664 268.145 116.352 267.761 115.956C267.389 115.56 267.095 115.092 266.879 114.552C266.663 114.012 266.555 113.424 266.555 112.788C266.555 112.152 266.663 111.564 266.879 111.024C267.095 110.484 267.395 110.016 267.779 109.62C268.163 109.224 268.625 108.918 269.165 108.702C269.717 108.474 270.323 108.36 270.983 108.36C271.595 108.36 272.153 108.486 272.657 108.738C273.173 108.99 273.623 109.344 274.007 109.8H274.043V103.392H275.447V117H274.043V115.506ZM274.043 112.788C274.043 112.344 273.971 111.936 273.827 111.564C273.695 111.18 273.497 110.85 273.233 110.574C272.969 110.286 272.651 110.064 272.279 109.908C271.919 109.74 271.511 109.656 271.055 109.656C270.599 109.656 270.185 109.74 269.813 109.908C269.453 110.064 269.141 110.286 268.877 110.574C268.613 110.85 268.409 111.18 268.265 111.564C268.133 111.936 268.067 112.344 268.067 112.788C268.067 113.232 268.133 113.646 268.265 114.03C268.409 114.402 268.613 114.732 268.877 115.02C269.141 115.296 269.453 115.518 269.813 115.686C270.185 115.842 270.599 115.92 271.055 115.92C271.511 115.92 271.919 115.842 272.279 115.686C272.651 115.518 272.969 115.296 273.233 115.02C273.497 114.732 273.695 114.402 273.827 114.03C273.971 113.646 274.043 113.232 274.043 112.788ZM277.559 112.788C277.559 112.128 277.673 111.528 277.901 110.988C278.129 110.448 278.441 109.986 278.837 109.602C279.233 109.206 279.707 108.9 280.259 108.684C280.811 108.468 281.411 108.36 282.059 108.36C282.707 108.36 283.307 108.468 283.859 108.684C284.411 108.9 284.885 109.206 285.281 109.602C285.677 109.986 285.989 110.448 286.217 110.988C286.445 111.528 286.559 112.128 286.559 112.788C286.559 113.448 286.445 114.048 286.217 114.588C285.989 115.128 285.677 115.596 285.281 115.992C284.885 116.376 284.411 116.676 283.859 116.892C283.307 117.108 282.707 117.216 282.059 117.216C281.411 117.216 280.811 117.108 280.259 116.892C279.707 116.676 279.233 116.376 278.837 115.992C278.441 115.596 278.129 115.128 277.901 114.588C277.673 114.048 277.559 113.448 277.559 112.788ZM279.071 112.788C279.071 113.232 279.137 113.646 279.269 114.03C279.413 114.402 279.617 114.732 279.881 115.02C280.145 115.296 280.457 115.518 280.817 115.686C281.189 115.842 281.603 115.92 282.059 115.92C282.515 115.92 282.923 115.842 283.283 115.686C283.655 115.518 283.973 115.296 284.237 115.02C284.501 114.732 284.699 114.402 284.831 114.03C284.975 113.646 285.047 113.232 285.047 112.788C285.047 112.344 284.975 111.936 284.831 111.564C284.699 111.18 284.501 110.85 284.237 110.574C283.973 110.286 283.655 110.064 283.283 109.908C282.923 109.74 282.515 109.656 282.059 109.656C281.603 109.656 281.189 109.74 280.817 109.908C280.457 110.064 280.145 110.286 279.881 110.574C279.617 110.85 279.413 111.18 279.269 111.564C279.137 111.936 279.071 112.344 279.071 112.788ZM294.726 110.682C294.426 110.322 294.102 110.064 293.754 109.908C293.406 109.74 293.022 109.656 292.602 109.656C292.134 109.656 291.72 109.74 291.36 109.908C291 110.064 290.7 110.286 290.46 110.574C290.232 110.862 290.058 111.198 289.938 111.582C289.818 111.954 289.758 112.356 289.758 112.788C289.758 113.22 289.824 113.628 289.956 114.012C290.1 114.384 290.292 114.714 290.532 115.002C290.784 115.29 291.084 115.518 291.432 115.686C291.78 115.842 292.17 115.92 292.602 115.92C293.526 115.92 294.24 115.572 294.744 114.876L295.788 115.866C295.38 116.334 294.9 116.676 294.348 116.892C293.796 117.108 293.214 117.216 292.602 117.216C291.954 117.216 291.36 117.108 290.82 116.892C290.28 116.676 289.818 116.37 289.434 115.974C289.062 115.578 288.768 115.11 288.552 114.57C288.348 114.03 288.246 113.436 288.246 112.788C288.246 112.152 288.348 111.564 288.552 111.024C288.768 110.484 289.068 110.016 289.452 109.62C289.836 109.224 290.292 108.918 290.82 108.702C291.36 108.474 291.954 108.36 292.602 108.36C293.226 108.36 293.814 108.468 294.366 108.684C294.93 108.9 295.422 109.236 295.842 109.692L294.726 110.682ZM304.76 115.002C304.76 115.386 304.772 115.746 304.796 116.082C304.82 116.418 304.832 116.724 304.832 117H303.5C303.5 116.772 303.494 116.544 303.482 116.316C303.47 116.088 303.464 115.854 303.464 115.614H303.428C303.332 115.818 303.194 116.016 303.014 116.208C302.846 116.4 302.642 116.574 302.402 116.73C302.162 116.874 301.892 116.988 301.592 117.072C301.292 117.168 300.968 117.216 300.62 117.216C300.068 117.216 299.588 117.132 299.18 116.964C298.784 116.796 298.454 116.562 298.19 116.262C297.926 115.962 297.728 115.602 297.596 115.182C297.476 114.75 297.416 114.282 297.416 113.778V108.576H298.82V113.634C298.82 114.342 298.976 114.9 299.288 115.308C299.6 115.716 300.086 115.92 300.746 115.92C301.202 115.92 301.592 115.842 301.916 115.686C302.252 115.53 302.522 115.308 302.726 115.02C302.942 114.732 303.098 114.39 303.194 113.994C303.302 113.598 303.356 113.16 303.356 112.68V108.576H304.76V115.002ZM307.418 110.574C307.418 110.19 307.406 109.83 307.382 109.494C307.358 109.158 307.346 108.852 307.346 108.576H308.678C308.678 108.804 308.684 109.032 308.696 109.26C308.708 109.488 308.714 109.722 308.714 109.962H308.75C308.846 109.758 308.978 109.56 309.146 109.368C309.326 109.176 309.536 109.008 309.776 108.864C310.016 108.708 310.286 108.588 310.586 108.504C310.886 108.408 311.21 108.36 311.558 108.36C312.014 108.36 312.392 108.42 312.692 108.54C313.004 108.648 313.262 108.786 313.466 108.954C313.67 109.11 313.826 109.284 313.934 109.476C314.054 109.656 314.15 109.818 314.222 109.962C314.534 109.458 314.894 109.068 315.302 108.792C315.71 108.504 316.238 108.36 316.886 108.36C317.486 108.36 317.99 108.444 318.398 108.612C318.806 108.768 319.136 109.002 319.388 109.314C319.64 109.614 319.82 109.986 319.928 110.43C320.036 110.862 320.09 111.348 320.09 111.888V117H318.686V111.96C318.686 111.672 318.656 111.39 318.596 111.114C318.536 110.838 318.428 110.592 318.272 110.376C318.116 110.16 317.906 109.986 317.642 109.854C317.378 109.722 317.042 109.656 316.634 109.656C316.334 109.656 316.052 109.716 315.788 109.836C315.524 109.956 315.29 110.124 315.086 110.34C314.894 110.556 314.738 110.82 314.618 111.132C314.51 111.432 314.456 111.768 314.456 112.14V117H313.052V112.23C313.052 111.294 312.926 110.634 312.674 110.25C312.422 109.854 312.008 109.656 311.432 109.656C310.976 109.656 310.58 109.734 310.244 109.89C309.92 110.046 309.65 110.268 309.434 110.556C309.23 110.844 309.074 111.186 308.966 111.582C308.87 111.978 308.822 112.416 308.822 112.896V117H307.418V110.574ZM330.27 115.47C329.766 116.118 329.214 116.574 328.614 116.838C328.014 117.09 327.318 117.216 326.526 117.216C325.866 117.216 325.272 117.102 324.744 116.874C324.216 116.634 323.766 116.316 323.394 115.92C323.034 115.524 322.752 115.056 322.548 114.516C322.356 113.976 322.26 113.4 322.26 112.788C322.26 112.14 322.368 111.546 322.584 111.006C322.8 110.454 323.1 109.986 323.484 109.602C323.868 109.206 324.324 108.9 324.852 108.684C325.38 108.468 325.956 108.36 326.58 108.36C327.168 108.36 327.708 108.462 328.2 108.666C328.692 108.858 329.112 109.146 329.46 109.53C329.82 109.902 330.096 110.364 330.288 110.916C330.48 111.456 330.576 112.074 330.576 112.77V113.22H323.772C323.796 113.58 323.88 113.928 324.024 114.264C324.18 114.588 324.378 114.876 324.618 115.128C324.858 115.368 325.14 115.56 325.464 115.704C325.788 115.848 326.142 115.92 326.526 115.92C327.138 115.92 327.654 115.812 328.074 115.596C328.494 115.38 328.872 115.062 329.208 114.642L330.27 115.47ZM329.064 112.032C329.04 111.312 328.806 110.736 328.362 110.304C327.918 109.872 327.306 109.656 326.526 109.656C325.746 109.656 325.116 109.872 324.636 110.304C324.156 110.736 323.868 111.312 323.772 112.032H329.064ZM332.748 110.574C332.748 110.19 332.736 109.83 332.712 109.494C332.688 109.158 332.676 108.852 332.676 108.576H334.008C334.008 108.804 334.014 109.032 334.026 109.26C334.038 109.488 334.044 109.722 334.044 109.962H334.08C334.176 109.758 334.308 109.56 334.476 109.368C334.656 109.176 334.866 109.008 335.106 108.864C335.346 108.708 335.616 108.588 335.916 108.504C336.216 108.408 336.54 108.36 336.888 108.36C337.44 108.36 337.914 108.444 338.31 108.612C338.718 108.78 339.054 109.014 339.318 109.314C339.582 109.614 339.774 109.98 339.894 110.412C340.026 110.832 340.092 111.294 340.092 111.798V117H338.688V111.942C338.688 111.234 338.532 110.676 338.22 110.268C337.908 109.86 337.422 109.656 336.762 109.656C336.306 109.656 335.91 109.734 335.574 109.89C335.25 110.046 334.98 110.268 334.764 110.556C334.56 110.844 334.404 111.186 334.296 111.582C334.2 111.978 334.152 112.416 334.152 112.896V117H332.748V110.574ZM347.358 109.764H344.874V113.976C344.874 114.252 344.88 114.51 344.892 114.75C344.904 114.978 344.952 115.182 345.036 115.362C345.12 115.53 345.246 115.668 345.414 115.776C345.582 115.872 345.822 115.92 346.134 115.92C346.338 115.92 346.548 115.896 346.764 115.848C346.98 115.8 347.184 115.728 347.376 115.632L347.43 116.91C347.19 117.018 346.92 117.096 346.62 117.144C346.332 117.192 346.056 117.216 345.792 117.216C345.288 117.216 344.886 117.15 344.586 117.018C344.286 116.886 344.052 116.7 343.884 116.46C343.716 116.22 343.602 115.926 343.542 115.578C343.494 115.218 343.47 114.822 343.47 114.39V109.764H341.634V108.576H343.47V106.182H344.874V108.576H347.358V109.764ZM29.26 131.392H30.664V137.8H30.7C31.084 137.344 31.528 136.99 32.032 136.738C32.548 136.486 33.112 136.36 33.724 136.36C34.384 136.36 34.984 136.474 35.524 136.702C36.076 136.918 36.544 137.224 36.928 137.62C37.312 138.016 37.612 138.484 37.828 139.024C38.044 139.564 38.152 140.152 38.152 140.788C38.152 141.424 38.044 142.012 37.828 142.552C37.612 143.092 37.312 143.56 36.928 143.956C36.556 144.352 36.112 144.664 35.596 144.892C35.08 145.108 34.528 145.216 33.94 145.216C33.184 145.216 32.518 145.054 31.942 144.73C31.378 144.394 30.964 143.986 30.7 143.506H30.664V145H29.26V131.392ZM30.664 140.788C30.664 141.232 30.73 141.646 30.862 142.03C31.006 142.402 31.21 142.732 31.474 143.02C31.738 143.296 32.05 143.518 32.41 143.686C32.782 143.842 33.196 143.92 33.652 143.92C34.108 143.92 34.516 143.842 34.876 143.686C35.248 143.518 35.566 143.296 35.83 143.02C36.094 142.732 36.292 142.402 36.424 142.03C36.568 141.646 36.64 141.232 36.64 140.788C36.64 140.344 36.568 139.936 36.424 139.564C36.292 139.18 36.094 138.85 35.83 138.574C35.566 138.286 35.248 138.064 34.876 137.908C34.516 137.74 34.108 137.656 33.652 137.656C33.196 137.656 32.782 137.74 32.41 137.908C32.05 138.064 31.738 138.286 31.474 138.574C31.21 138.85 31.006 139.18 30.862 139.564C30.73 139.936 30.664 140.344 30.664 140.788ZM40.2279 137.656C40.6599 137.212 41.1699 136.888 41.7579 136.684C42.3579 136.468 42.9639 136.36 43.5759 136.36C44.8239 136.36 45.7239 136.654 46.2759 137.242C46.8279 137.83 47.1039 138.724 47.1039 139.924V143.542C47.1039 143.782 47.1159 144.034 47.1399 144.298C47.1639 144.55 47.1939 144.784 47.2299 145H45.8799C45.8319 144.808 45.8019 144.598 45.7899 144.37C45.7899 144.13 45.7899 143.92 45.7899 143.74H45.7539C45.4779 144.172 45.1059 144.526 44.6379 144.802C44.1819 145.078 43.6299 145.216 42.9819 145.216C42.5499 145.216 42.1419 145.162 41.7579 145.054C41.3859 144.946 41.0559 144.79 40.7679 144.586C40.4919 144.37 40.2699 144.106 40.1019 143.794C39.9339 143.482 39.8499 143.122 39.8499 142.714C39.8499 142.018 40.0299 141.472 40.3899 141.076C40.7499 140.68 41.1939 140.386 41.7219 140.194C42.2619 140.002 42.8379 139.882 43.4499 139.834C44.0739 139.786 44.6439 139.762 45.1599 139.762H45.6999V139.51C45.6999 138.898 45.5139 138.436 45.1419 138.124C44.7819 137.812 44.2719 137.656 43.6119 137.656C43.1559 137.656 42.7059 137.734 42.2619 137.89C41.8299 138.034 41.4459 138.262 41.1099 138.574L40.2279 137.656ZM44.2959 140.95C43.3959 140.95 42.6819 141.076 42.1539 141.328C41.6259 141.58 41.3619 141.994 41.3619 142.57C41.3619 143.098 41.5359 143.476 41.8839 143.704C42.2439 143.92 42.6879 144.028 43.2159 144.028C43.6239 144.028 43.9779 143.962 44.2779 143.83C44.5899 143.686 44.8479 143.5 45.0519 143.272C45.2559 143.044 45.4119 142.78 45.5199 142.48C45.6279 142.168 45.6879 141.838 45.6999 141.49V140.95H44.2959ZM49.8499 142.786C50.1259 143.134 50.4259 143.41 50.7499 143.614C51.0859 143.818 51.5059 143.92 52.0099 143.92C52.2259 143.92 52.4419 143.896 52.6579 143.848C52.8859 143.8 53.0899 143.722 53.2699 143.614C53.4499 143.506 53.5939 143.374 53.7019 143.218C53.8099 143.05 53.8639 142.852 53.8639 142.624C53.8639 142.396 53.8099 142.21 53.7019 142.066C53.6059 141.922 53.4739 141.802 53.3059 141.706C53.1379 141.598 52.9459 141.514 52.7299 141.454C52.5139 141.394 52.2919 141.34 52.0639 141.292C51.6679 141.208 51.2899 141.112 50.9299 141.004C50.5699 140.896 50.2519 140.758 49.9759 140.59C49.7119 140.41 49.4959 140.182 49.3279 139.906C49.1719 139.63 49.0939 139.276 49.0939 138.844C49.0939 138.436 49.1839 138.076 49.3639 137.764C49.5439 137.452 49.7839 137.194 50.0839 136.99C50.3839 136.786 50.7199 136.63 51.0919 136.522C51.4639 136.414 51.8479 136.36 52.2439 136.36C52.8439 136.36 53.3959 136.48 53.8999 136.72C54.4159 136.96 54.8179 137.35 55.1059 137.89L53.9359 138.664C53.7559 138.364 53.5159 138.124 53.2159 137.944C52.9279 137.752 52.5739 137.656 52.1539 137.656C51.9619 137.656 51.7639 137.68 51.5599 137.728C51.3679 137.776 51.1939 137.848 51.0379 137.944C50.8819 138.04 50.7499 138.166 50.6419 138.322C50.5459 138.466 50.4979 138.634 50.4979 138.826C50.4979 139.006 50.5519 139.162 50.6599 139.294C50.7799 139.414 50.9359 139.522 51.1279 139.618C51.3319 139.714 51.5599 139.798 51.8119 139.87C52.0759 139.942 52.3459 140.002 52.6219 140.05C52.9939 140.122 53.3479 140.218 53.6839 140.338C54.0199 140.446 54.3139 140.596 54.5659 140.788C54.8179 140.98 55.0159 141.22 55.1599 141.508C55.3039 141.796 55.3759 142.15 55.3759 142.57C55.3759 143.05 55.2799 143.458 55.0879 143.794C54.8959 144.13 54.6379 144.406 54.3139 144.622C54.0019 144.826 53.6419 144.976 53.2339 145.072C52.8379 145.168 52.4299 145.216 52.0099 145.216C51.2899 145.216 50.6659 145.108 50.1379 144.892C49.6219 144.664 49.1539 144.25 48.7339 143.65L49.8499 142.786ZM64.858 143.47C64.354 144.118 63.802 144.574 63.202 144.838C62.602 145.09 61.906 145.216 61.114 145.216C60.454 145.216 59.86 145.102 59.332 144.874C58.804 144.634 58.354 144.316 57.982 143.92C57.622 143.524 57.34 143.056 57.136 142.516C56.944 141.976 56.848 141.4 56.848 140.788C56.848 140.14 56.956 139.546 57.172 139.006C57.388 138.454 57.688 137.986 58.072 137.602C58.456 137.206 58.912 136.9 59.44 136.684C59.968 136.468 60.544 136.36 61.168 136.36C61.756 136.36 62.296 136.462 62.788 136.666C63.28 136.858 63.7 137.146 64.048 137.53C64.408 137.902 64.684 138.364 64.876 138.916C65.068 139.456 65.164 140.074 65.164 140.77V141.22H58.36C58.384 141.58 58.468 141.928 58.612 142.264C58.768 142.588 58.966 142.876 59.206 143.128C59.446 143.368 59.728 143.56 60.052 143.704C60.376 143.848 60.73 143.92 61.114 143.92C61.726 143.92 62.242 143.812 62.662 143.596C63.082 143.38 63.46 143.062 63.796 142.642L64.858 143.47ZM63.652 140.032C63.628 139.312 63.394 138.736 62.95 138.304C62.506 137.872 61.894 137.656 61.114 137.656C60.334 137.656 59.704 137.872 59.224 138.304C58.744 138.736 58.456 139.312 58.36 140.032H63.652ZM74.3379 143.506H74.3019C74.0379 143.986 73.6179 144.394 73.0419 144.73C72.4779 145.054 71.8179 145.216 71.0619 145.216C70.4739 145.216 69.9219 145.108 69.4059 144.892C68.8899 144.664 68.4399 144.352 68.0559 143.956C67.6839 143.56 67.3899 143.092 67.1739 142.552C66.9579 142.012 66.8499 141.424 66.8499 140.788C66.8499 140.152 66.9579 139.564 67.1739 139.024C67.3899 138.484 67.6899 138.016 68.0739 137.62C68.4579 137.224 68.9199 136.918 69.4599 136.702C70.0119 136.474 70.6179 136.36 71.2779 136.36C71.8899 136.36 72.4479 136.486 72.9519 136.738C73.4679 136.99 73.9179 137.344 74.3019 137.8H74.3379V131.392H75.7419V145H74.3379V143.506ZM74.3379 140.788C74.3379 140.344 74.2659 139.936 74.1219 139.564C73.9899 139.18 73.7919 138.85 73.5279 138.574C73.2639 138.286 72.9459 138.064 72.5739 137.908C72.2139 137.74 71.8059 137.656 71.3499 137.656C70.8939 137.656 70.4799 137.74 70.1079 137.908C69.7479 138.064 69.4359 138.286 69.1719 138.574C68.9079 138.85 68.7039 139.18 68.5599 139.564C68.4279 139.936 68.3619 140.344 68.3619 140.788C68.3619 141.232 68.4279 141.646 68.5599 142.03C68.7039 142.402 68.9079 142.732 69.1719 143.02C69.4359 143.296 69.7479 143.518 70.1079 143.686C70.4799 143.842 70.8939 143.92 71.3499 143.92C71.8059 143.92 72.2139 143.842 72.5739 143.686C72.9459 143.518 73.2639 143.296 73.5279 143.02C73.7919 142.732 73.9899 142.402 74.1219 142.03C74.2659 141.646 74.3379 141.232 74.3379 140.788ZM82.8636 140.788C82.8636 140.128 82.9776 139.528 83.2056 138.988C83.4336 138.448 83.7456 137.986 84.1416 137.602C84.5376 137.206 85.0116 136.9 85.5636 136.684C86.1156 136.468 86.7156 136.36 87.3636 136.36C88.0116 136.36 88.6116 136.468 89.1636 136.684C89.7156 136.9 90.1896 137.206 90.5856 137.602C90.9816 137.986 91.2936 138.448 91.5216 138.988C91.7496 139.528 91.8636 140.128 91.8636 140.788C91.8636 141.448 91.7496 142.048 91.5216 142.588C91.2936 143.128 90.9816 143.596 90.5856 143.992C90.1896 144.376 89.7156 144.676 89.1636 144.892C88.6116 145.108 88.0116 145.216 87.3636 145.216C86.7156 145.216 86.1156 145.108 85.5636 144.892C85.0116 144.676 84.5376 144.376 84.1416 143.992C83.7456 143.596 83.4336 143.128 83.2056 142.588C82.9776 142.048 82.8636 141.448 82.8636 140.788ZM84.3756 140.788C84.3756 141.232 84.4416 141.646 84.5736 142.03C84.7176 142.402 84.9216 142.732 85.1856 143.02C85.4496 143.296 85.7616 143.518 86.1216 143.686C86.4936 143.842 86.9076 143.92 87.3636 143.92C87.8196 143.92 88.2276 143.842 88.5876 143.686C88.9596 143.518 89.2776 143.296 89.5416 143.02C89.8056 142.732 90.0036 142.402 90.1356 142.03C90.2796 141.646 90.3516 141.232 90.3516 140.788C90.3516 140.344 90.2796 139.936 90.1356 139.564C90.0036 139.18 89.8056 138.85 89.5416 138.574C89.2776 138.286 88.9596 138.064 88.5876 137.908C88.2276 137.74 87.8196 137.656 87.3636 137.656C86.9076 137.656 86.4936 137.74 86.1216 137.908C85.7616 138.064 85.4496 138.286 85.1856 138.574C84.9216 138.85 84.7176 139.18 84.5736 139.564C84.4416 139.936 84.3756 140.344 84.3756 140.788ZM94.0371 138.574C94.0371 138.19 94.0251 137.83 94.0011 137.494C93.9771 137.158 93.9651 136.852 93.9651 136.576H95.2971C95.2971 136.804 95.3031 137.032 95.3151 137.26C95.3271 137.488 95.3331 137.722 95.3331 137.962H95.3691C95.4651 137.758 95.5971 137.56 95.7651 137.368C95.9451 137.176 96.1551 137.008 96.3951 136.864C96.6351 136.708 96.9051 136.588 97.2051 136.504C97.5051 136.408 97.8291 136.36 98.1771 136.36C98.7291 136.36 99.2031 136.444 99.5991 136.612C100.007 136.78 100.343 137.014 100.607 137.314C100.871 137.614 101.063 137.98 101.183 138.412C101.315 138.832 101.381 139.294 101.381 139.798V145H99.9771V139.942C99.9771 139.234 99.8211 138.676 99.5091 138.268C99.1971 137.86 98.7111 137.656 98.0511 137.656C97.5951 137.656 97.1991 137.734 96.8631 137.89C96.5391 138.046 96.2691 138.268 96.0531 138.556C95.8491 138.844 95.6931 139.186 95.5851 139.582C95.4891 139.978 95.4411 140.416 95.4411 140.896V145H94.0371V138.574ZM112.145 146.926C112.001 147.286 111.851 147.61 111.695 147.898C111.551 148.198 111.371 148.45 111.155 148.654C110.951 148.87 110.699 149.032 110.399 149.14C110.111 149.26 109.757 149.32 109.337 149.32C109.133 149.32 108.917 149.308 108.689 149.284C108.473 149.26 108.269 149.2 108.077 149.104L108.257 147.88C108.401 147.94 108.551 147.976 108.707 147.988C108.863 148.012 109.043 148.024 109.247 148.024C109.703 148.024 110.039 147.898 110.255 147.646C110.471 147.394 110.657 147.058 110.813 146.638L111.389 145.054L107.897 136.576H109.535L112.145 143.182H112.181L114.683 136.576H116.213L112.145 146.926ZM117.246 140.788C117.246 140.128 117.36 139.528 117.588 138.988C117.816 138.448 118.128 137.986 118.524 137.602C118.92 137.206 119.394 136.9 119.946 136.684C120.498 136.468 121.098 136.36 121.746 136.36C122.394 136.36 122.994 136.468 123.546 136.684C124.098 136.9 124.572 137.206 124.968 137.602C125.364 137.986 125.676 138.448 125.904 138.988C126.132 139.528 126.246 140.128 126.246 140.788C126.246 141.448 126.132 142.048 125.904 142.588C125.676 143.128 125.364 143.596 124.968 143.992C124.572 144.376 124.098 144.676 123.546 144.892C122.994 145.108 122.394 145.216 121.746 145.216C121.098 145.216 120.498 145.108 119.946 144.892C119.394 144.676 118.92 144.376 118.524 143.992C118.128 143.596 117.816 143.128 117.588 142.588C117.36 142.048 117.246 141.448 117.246 140.788ZM118.758 140.788C118.758 141.232 118.824 141.646 118.956 142.03C119.1 142.402 119.304 142.732 119.568 143.02C119.832 143.296 120.144 143.518 120.504 143.686C120.876 143.842 121.29 143.92 121.746 143.92C122.202 143.92 122.61 143.842 122.97 143.686C123.342 143.518 123.66 143.296 123.924 143.02C124.188 142.732 124.386 142.402 124.518 142.03C124.662 141.646 124.734 141.232 124.734 140.788C124.734 140.344 124.662 139.936 124.518 139.564C124.386 139.18 124.188 138.85 123.924 138.574C123.66 138.286 123.342 138.064 122.97 137.908C122.61 137.74 122.202 137.656 121.746 137.656C121.29 137.656 120.876 137.74 120.504 137.908C120.144 138.064 119.832 138.286 119.568 138.574C119.304 138.85 119.1 139.18 118.956 139.564C118.824 139.936 118.758 140.344 118.758 140.788ZM135.764 143.002C135.764 143.386 135.776 143.746 135.8 144.082C135.824 144.418 135.836 144.724 135.836 145H134.504C134.504 144.772 134.498 144.544 134.486 144.316C134.474 144.088 134.468 143.854 134.468 143.614H134.432C134.336 143.818 134.198 144.016 134.018 144.208C133.85 144.4 133.646 144.574 133.406 144.73C133.166 144.874 132.896 144.988 132.596 145.072C132.296 145.168 131.972 145.216 131.624 145.216C131.072 145.216 130.592 145.132 130.184 144.964C129.788 144.796 129.458 144.562 129.194 144.262C128.93 143.962 128.732 143.602 128.6 143.182C128.48 142.75 128.42 142.282 128.42 141.778V136.576H129.824V141.634C129.824 142.342 129.98 142.9 130.292 143.308C130.604 143.716 131.09 143.92 131.75 143.92C132.206 143.92 132.596 143.842 132.92 143.686C133.256 143.53 133.526 143.308 133.73 143.02C133.946 142.732 134.102 142.39 134.198 141.994C134.306 141.598 134.36 141.16 134.36 140.68V136.576H135.764V143.002ZM138.422 138.574C138.422 138.19 138.41 137.83 138.386 137.494C138.362 137.158 138.35 136.852 138.35 136.576H139.682C139.682 136.804 139.688 137.032 139.7 137.26C139.712 137.488 139.718 137.722 139.718 137.962H139.754C139.85 137.758 139.982 137.56 140.15 137.368C140.33 137.176 140.54 137.008 140.78 136.864C141.02 136.708 141.29 136.588 141.59 136.504C141.89 136.408 142.214 136.36 142.562 136.36C142.658 136.36 142.754 136.366 142.85 136.378C142.946 136.39 143.042 136.414 143.138 136.45L143.048 137.872C142.808 137.8 142.556 137.764 142.292 137.764C141.428 137.764 140.798 138.046 140.402 138.61C140.018 139.162 139.826 139.924 139.826 140.896V145H138.422V138.574ZM149.688 131.392H151.092V137.8H151.128C151.512 137.344 151.956 136.99 152.46 136.738C152.976 136.486 153.54 136.36 154.152 136.36C154.812 136.36 155.412 136.474 155.952 136.702C156.504 136.918 156.972 137.224 157.356 137.62C157.74 138.016 158.04 138.484 158.256 139.024C158.472 139.564 158.58 140.152 158.58 140.788C158.58 141.424 158.472 142.012 158.256 142.552C158.04 143.092 157.74 143.56 157.356 143.956C156.984 144.352 156.54 144.664 156.024 144.892C155.508 145.108 154.956 145.216 154.368 145.216C153.612 145.216 152.946 145.054 152.37 144.73C151.806 144.394 151.392 143.986 151.128 143.506H151.092V145H149.688V131.392ZM151.092 140.788C151.092 141.232 151.158 141.646 151.29 142.03C151.434 142.402 151.638 142.732 151.902 143.02C152.166 143.296 152.478 143.518 152.838 143.686C153.21 143.842 153.624 143.92 154.08 143.92C154.536 143.92 154.944 143.842 155.304 143.686C155.676 143.518 155.994 143.296 156.258 143.02C156.522 142.732 156.72 142.402 156.852 142.03C156.996 141.646 157.068 141.232 157.068 140.788C157.068 140.344 156.996 139.936 156.852 139.564C156.72 139.18 156.522 138.85 156.258 138.574C155.994 138.286 155.676 138.064 155.304 137.908C154.944 137.74 154.536 137.656 154.08 137.656C153.624 137.656 153.21 137.74 152.838 137.908C152.478 138.064 152.166 138.286 151.902 138.574C151.638 138.85 151.434 139.18 151.29 139.564C151.158 139.936 151.092 140.344 151.092 140.788ZM160.764 138.574C160.764 138.19 160.752 137.83 160.728 137.494C160.704 137.158 160.692 136.852 160.692 136.576H162.024C162.024 136.804 162.03 137.032 162.042 137.26C162.054 137.488 162.06 137.722 162.06 137.962H162.096C162.192 137.758 162.324 137.56 162.492 137.368C162.672 137.176 162.882 137.008 163.122 136.864C163.362 136.708 163.632 136.588 163.932 136.504C164.232 136.408 164.556 136.36 164.904 136.36C165 136.36 165.096 136.366 165.192 136.378C165.288 136.39 165.384 136.414 165.48 136.45L165.39 137.872C165.15 137.8 164.898 137.764 164.634 137.764C163.77 137.764 163.14 138.046 162.744 138.61C162.36 139.162 162.168 139.924 162.168 140.896V145H160.764V138.574ZM166.984 137.656C167.416 137.212 167.926 136.888 168.514 136.684C169.114 136.468 169.72 136.36 170.332 136.36C171.58 136.36 172.48 136.654 173.032 137.242C173.584 137.83 173.86 138.724 173.86 139.924V143.542C173.86 143.782 173.872 144.034 173.896 144.298C173.92 144.55 173.95 144.784 173.986 145H172.636C172.588 144.808 172.558 144.598 172.546 144.37C172.546 144.13 172.546 143.92 172.546 143.74H172.51C172.234 144.172 171.862 144.526 171.394 144.802C170.938 145.078 170.386 145.216 169.738 145.216C169.306 145.216 168.898 145.162 168.514 145.054C168.142 144.946 167.812 144.79 167.524 144.586C167.248 144.37 167.026 144.106 166.858 143.794C166.69 143.482 166.606 143.122 166.606 142.714C166.606 142.018 166.786 141.472 167.146 141.076C167.506 140.68 167.95 140.386 168.478 140.194C169.018 140.002 169.594 139.882 170.206 139.834C170.83 139.786 171.4 139.762 171.916 139.762H172.456V139.51C172.456 138.898 172.27 138.436 171.898 138.124C171.538 137.812 171.028 137.656 170.368 137.656C169.912 137.656 169.462 137.734 169.018 137.89C168.586 138.034 168.202 138.262 167.866 138.574L166.984 137.656ZM171.052 140.95C170.152 140.95 169.438 141.076 168.91 141.328C168.382 141.58 168.118 141.994 168.118 142.57C168.118 143.098 168.292 143.476 168.64 143.704C169 143.92 169.444 144.028 169.972 144.028C170.38 144.028 170.734 143.962 171.034 143.83C171.346 143.686 171.604 143.5 171.808 143.272C172.012 143.044 172.168 142.78 172.276 142.48C172.384 142.168 172.444 141.838 172.456 141.49V140.95H171.052ZM176.426 138.574C176.426 138.19 176.414 137.83 176.39 137.494C176.366 137.158 176.354 136.852 176.354 136.576H177.686C177.686 136.804 177.692 137.032 177.704 137.26C177.716 137.488 177.722 137.722 177.722 137.962H177.758C177.854 137.758 177.986 137.56 178.154 137.368C178.334 137.176 178.544 137.008 178.784 136.864C179.024 136.708 179.294 136.588 179.594 136.504C179.894 136.408 180.218 136.36 180.566 136.36C181.118 136.36 181.592 136.444 181.988 136.612C182.396 136.78 182.732 137.014 182.996 137.314C183.26 137.614 183.452 137.98 183.572 138.412C183.704 138.832 183.77 139.294 183.77 139.798V145H182.366V139.942C182.366 139.234 182.21 138.676 181.898 138.268C181.586 137.86 181.1 137.656 180.44 137.656C179.984 137.656 179.588 137.734 179.252 137.89C178.928 138.046 178.658 138.268 178.442 138.556C178.238 138.844 178.082 139.186 177.974 139.582C177.878 139.978 177.83 140.416 177.83 140.896V145H176.426V138.574ZM193.43 143.506H193.394C193.13 143.986 192.71 144.394 192.134 144.73C191.57 145.054 190.91 145.216 190.154 145.216C189.566 145.216 189.014 145.108 188.498 144.892C187.982 144.664 187.532 144.352 187.148 143.956C186.776 143.56 186.482 143.092 186.266 142.552C186.05 142.012 185.942 141.424 185.942 140.788C185.942 140.152 186.05 139.564 186.266 139.024C186.482 138.484 186.782 138.016 187.166 137.62C187.55 137.224 188.012 136.918 188.552 136.702C189.104 136.474 189.71 136.36 190.37 136.36C190.982 136.36 191.54 136.486 192.044 136.738C192.56 136.99 193.01 137.344 193.394 137.8H193.43V131.392H194.834V145H193.43V143.506ZM193.43 140.788C193.43 140.344 193.358 139.936 193.214 139.564C193.082 139.18 192.884 138.85 192.62 138.574C192.356 138.286 192.038 138.064 191.666 137.908C191.306 137.74 190.898 137.656 190.442 137.656C189.986 137.656 189.572 137.74 189.2 137.908C188.84 138.064 188.528 138.286 188.264 138.574C188 138.85 187.796 139.18 187.652 139.564C187.52 139.936 187.454 140.344 187.454 140.788C187.454 141.232 187.52 141.646 187.652 142.03C187.796 142.402 188 142.732 188.264 143.02C188.528 143.296 188.84 143.518 189.2 143.686C189.572 143.842 189.986 143.92 190.442 143.92C190.898 143.92 191.306 143.842 191.666 143.686C192.038 143.518 192.356 143.296 192.62 143.02C192.884 142.732 193.082 142.402 193.214 142.03C193.358 141.646 193.43 141.232 193.43 140.788ZM202.333 137.656C202.765 137.212 203.275 136.888 203.863 136.684C204.463 136.468 205.069 136.36 205.681 136.36C206.929 136.36 207.829 136.654 208.381 137.242C208.933 137.83 209.209 138.724 209.209 139.924V143.542C209.209 143.782 209.221 144.034 209.245 144.298C209.269 144.55 209.299 144.784 209.335 145H207.985C207.937 144.808 207.907 144.598 207.895 144.37C207.895 144.13 207.895 143.92 207.895 143.74H207.859C207.583 144.172 207.211 144.526 206.743 144.802C206.287 145.078 205.735 145.216 205.087 145.216C204.655 145.216 204.247 145.162 203.863 145.054C203.491 144.946 203.161 144.79 202.873 144.586C202.597 144.37 202.375 144.106 202.207 143.794C202.039 143.482 201.955 143.122 201.955 142.714C201.955 142.018 202.135 141.472 202.495 141.076C202.855 140.68 203.299 140.386 203.827 140.194C204.367 140.002 204.943 139.882 205.555 139.834C206.179 139.786 206.749 139.762 207.265 139.762H207.805V139.51C207.805 138.898 207.619 138.436 207.247 138.124C206.887 137.812 206.377 137.656 205.717 137.656C205.261 137.656 204.811 137.734 204.367 137.89C203.935 138.034 203.551 138.262 203.215 138.574L202.333 137.656ZM206.401 140.95C205.501 140.95 204.787 141.076 204.259 141.328C203.731 141.58 203.467 141.994 203.467 142.57C203.467 143.098 203.641 143.476 203.989 143.704C204.349 143.92 204.793 144.028 205.321 144.028C205.729 144.028 206.083 143.962 206.383 143.83C206.695 143.686 206.953 143.5 207.157 143.272C207.361 143.044 207.517 142.78 207.625 142.48C207.733 142.168 207.793 141.838 207.805 141.49V140.95H206.401ZM211.775 138.574C211.775 138.19 211.763 137.83 211.739 137.494C211.715 137.158 211.703 136.852 211.703 136.576H213.035C213.035 136.804 213.041 137.032 213.053 137.26C213.065 137.488 213.071 137.722 213.071 137.962H213.107C213.203 137.758 213.335 137.56 213.503 137.368C213.683 137.176 213.893 137.008 214.133 136.864C214.373 136.708 214.643 136.588 214.943 136.504C215.243 136.408 215.567 136.36 215.915 136.36C216.467 136.36 216.941 136.444 217.337 136.612C217.745 136.78 218.081 137.014 218.345 137.314C218.609 137.614 218.801 137.98 218.921 138.412C219.053 138.832 219.119 139.294 219.119 139.798V145H217.715V139.942C217.715 139.234 217.559 138.676 217.247 138.268C216.935 137.86 216.449 137.656 215.789 137.656C215.333 137.656 214.937 137.734 214.601 137.89C214.277 138.046 214.007 138.268 213.791 138.556C213.587 138.844 213.431 139.186 213.323 139.582C213.227 139.978 213.179 140.416 213.179 140.896V145H211.775V138.574ZM228.779 143.506H228.743C228.479 143.986 228.059 144.394 227.483 144.73C226.919 145.054 226.259 145.216 225.503 145.216C224.915 145.216 224.363 145.108 223.847 144.892C223.331 144.664 222.881 144.352 222.497 143.956C222.125 143.56 221.831 143.092 221.615 142.552C221.399 142.012 221.291 141.424 221.291 140.788C221.291 140.152 221.399 139.564 221.615 139.024C221.831 138.484 222.131 138.016 222.515 137.62C222.899 137.224 223.361 136.918 223.901 136.702C224.453 136.474 225.059 136.36 225.719 136.36C226.331 136.36 226.889 136.486 227.393 136.738C227.909 136.99 228.359 137.344 228.743 137.8H228.779V131.392H230.183V145H228.779V143.506ZM228.779 140.788C228.779 140.344 228.707 139.936 228.563 139.564C228.431 139.18 228.233 138.85 227.969 138.574C227.705 138.286 227.387 138.064 227.015 137.908C226.655 137.74 226.247 137.656 225.791 137.656C225.335 137.656 224.921 137.74 224.549 137.908C224.189 138.064 223.877 138.286 223.613 138.574C223.349 138.85 223.145 139.18 223.001 139.564C222.869 139.936 222.803 140.344 222.803 140.788C222.803 141.232 222.869 141.646 223.001 142.03C223.145 142.402 223.349 142.732 223.613 143.02C223.877 143.296 224.189 143.518 224.549 143.686C224.921 143.842 225.335 143.92 225.791 143.92C226.247 143.92 226.655 143.842 227.015 143.686C227.387 143.518 227.705 143.296 227.969 143.02C228.233 142.732 228.431 142.402 228.563 142.03C228.707 141.646 228.779 141.232 228.779 140.788ZM246.197 144.622C246.197 146.158 245.801 147.322 245.009 148.114C244.229 148.918 243.095 149.32 241.607 149.32C240.779 149.32 240.029 149.2 239.357 148.96C238.697 148.72 238.067 148.306 237.467 147.718L238.475 146.566C238.919 147.046 239.387 147.406 239.879 147.646C240.383 147.898 240.959 148.024 241.607 148.024C242.231 148.024 242.747 147.928 243.155 147.736C243.575 147.556 243.905 147.304 244.145 146.98C244.385 146.668 244.553 146.308 244.649 145.9C244.745 145.492 244.793 145.066 244.793 144.622V143.542H244.757C244.421 144.082 243.983 144.478 243.443 144.73C242.903 144.982 242.351 145.108 241.787 145.108C241.127 145.108 240.521 145 239.969 144.784C239.417 144.568 238.943 144.268 238.547 143.884C238.151 143.5 237.845 143.044 237.629 142.516C237.413 141.988 237.305 141.412 237.305 140.788C237.305 140.104 237.413 139.486 237.629 138.934C237.845 138.382 238.145 137.92 238.529 137.548C238.925 137.164 239.399 136.87 239.951 136.666C240.503 136.462 241.115 136.36 241.787 136.36C242.075 136.36 242.363 136.396 242.651 136.468C242.939 136.528 243.215 136.63 243.479 136.774C243.755 136.906 244.001 137.08 244.217 137.296C244.433 137.5 244.613 137.74 244.757 138.016H244.793V136.576H246.197V144.622ZM238.817 140.788C238.817 141.22 238.895 141.622 239.051 141.994C239.207 142.354 239.417 142.672 239.681 142.948C239.957 143.212 240.275 143.422 240.635 143.578C240.995 143.734 241.379 143.812 241.787 143.812C242.267 143.812 242.693 143.728 243.065 143.56C243.437 143.392 243.749 143.17 244.001 142.894C244.265 142.606 244.463 142.282 244.595 141.922C244.727 141.55 244.793 141.16 244.793 140.752C244.793 140.296 244.721 139.882 244.577 139.51C244.433 139.126 244.229 138.796 243.965 138.52C243.701 138.244 243.383 138.034 243.011 137.89C242.639 137.734 242.231 137.656 241.787 137.656C241.343 137.656 240.935 137.74 240.563 137.908C240.203 138.064 239.891 138.286 239.627 138.574C239.375 138.85 239.177 139.18 239.033 139.564C238.889 139.936 238.817 140.344 238.817 140.788ZM248.309 140.788C248.309 140.128 248.423 139.528 248.651 138.988C248.879 138.448 249.191 137.986 249.587 137.602C249.983 137.206 250.457 136.9 251.009 136.684C251.561 136.468 252.161 136.36 252.809 136.36C253.457 136.36 254.057 136.468 254.609 136.684C255.161 136.9 255.635 137.206 256.031 137.602C256.427 137.986 256.739 138.448 256.967 138.988C257.195 139.528 257.309 140.128 257.309 140.788C257.309 141.448 257.195 142.048 256.967 142.588C256.739 143.128 256.427 143.596 256.031 143.992C255.635 144.376 255.161 144.676 254.609 144.892C254.057 145.108 253.457 145.216 252.809 145.216C252.161 145.216 251.561 145.108 251.009 144.892C250.457 144.676 249.983 144.376 249.587 143.992C249.191 143.596 248.879 143.128 248.651 142.588C248.423 142.048 248.309 141.448 248.309 140.788ZM249.821 140.788C249.821 141.232 249.887 141.646 250.019 142.03C250.163 142.402 250.367 142.732 250.631 143.02C250.895 143.296 251.207 143.518 251.567 143.686C251.939 143.842 252.353 143.92 252.809 143.92C253.265 143.92 253.673 143.842 254.033 143.686C254.405 143.518 254.723 143.296 254.987 143.02C255.251 142.732 255.449 142.402 255.581 142.03C255.725 141.646 255.797 141.232 255.797 140.788C255.797 140.344 255.725 139.936 255.581 139.564C255.449 139.18 255.251 138.85 254.987 138.574C254.723 138.286 254.405 138.064 254.033 137.908C253.673 137.74 253.265 137.656 252.809 137.656C252.353 137.656 251.939 137.74 251.567 137.908C251.207 138.064 250.895 138.286 250.631 138.574C250.367 138.85 250.163 139.18 250.019 139.564C249.887 139.936 249.821 140.344 249.821 140.788ZM259.374 137.656C259.806 137.212 260.316 136.888 260.904 136.684C261.504 136.468 262.11 136.36 262.722 136.36C263.97 136.36 264.87 136.654 265.422 137.242C265.974 137.83 266.25 138.724 266.25 139.924V143.542C266.25 143.782 266.262 144.034 266.286 144.298C266.31 144.55 266.34 144.784 266.376 145H265.026C264.978 144.808 264.948 144.598 264.936 144.37C264.936 144.13 264.936 143.92 264.936 143.74H264.9C264.624 144.172 264.252 144.526 263.784 144.802C263.328 145.078 262.776 145.216 262.128 145.216C261.696 145.216 261.288 145.162 260.904 145.054C260.532 144.946 260.202 144.79 259.914 144.586C259.638 144.37 259.416 144.106 259.248 143.794C259.08 143.482 258.996 143.122 258.996 142.714C258.996 142.018 259.176 141.472 259.536 141.076C259.896 140.68 260.34 140.386 260.868 140.194C261.408 140.002 261.984 139.882 262.596 139.834C263.22 139.786 263.79 139.762 264.306 139.762H264.846V139.51C264.846 138.898 264.66 138.436 264.288 138.124C263.928 137.812 263.418 137.656 262.758 137.656C262.302 137.656 261.852 137.734 261.408 137.89C260.976 138.034 260.592 138.262 260.256 138.574L259.374 137.656ZM263.442 140.95C262.542 140.95 261.828 141.076 261.3 141.328C260.772 141.58 260.508 141.994 260.508 142.57C260.508 143.098 260.682 143.476 261.03 143.704C261.39 143.92 261.834 144.028 262.362 144.028C262.77 144.028 263.124 143.962 263.424 143.83C263.736 143.686 263.994 143.5 264.198 143.272C264.402 143.044 264.558 142.78 264.666 142.48C264.774 142.168 264.834 141.838 264.846 141.49V140.95H263.442ZM268.942 131.392H270.346V145H268.942V131.392ZM273.321 142.786C273.597 143.134 273.897 143.41 274.221 143.614C274.557 143.818 274.977 143.92 275.481 143.92C275.697 143.92 275.913 143.896 276.129 143.848C276.357 143.8 276.561 143.722 276.741 143.614C276.921 143.506 277.065 143.374 277.173 143.218C277.281 143.05 277.335 142.852 277.335 142.624C277.335 142.396 277.281 142.21 277.173 142.066C277.077 141.922 276.945 141.802 276.777 141.706C276.609 141.598 276.417 141.514 276.201 141.454C275.985 141.394 275.763 141.34 275.535 141.292C275.139 141.208 274.761 141.112 274.401 141.004C274.041 140.896 273.723 140.758 273.447 140.59C273.183 140.41 272.967 140.182 272.799 139.906C272.643 139.63 272.565 139.276 272.565 138.844C272.565 138.436 272.655 138.076 272.835 137.764C273.015 137.452 273.255 137.194 273.555 136.99C273.855 136.786 274.191 136.63 274.563 136.522C274.935 136.414 275.319 136.36 275.715 136.36C276.315 136.36 276.867 136.48 277.371 136.72C277.887 136.96 278.289 137.35 278.577 137.89L277.407 138.664C277.227 138.364 276.987 138.124 276.687 137.944C276.399 137.752 276.045 137.656 275.625 137.656C275.433 137.656 275.235 137.68 275.031 137.728C274.839 137.776 274.665 137.848 274.509 137.944C274.353 138.04 274.221 138.166 274.113 138.322C274.017 138.466 273.969 138.634 273.969 138.826C273.969 139.006 274.023 139.162 274.131 139.294C274.251 139.414 274.407 139.522 274.599 139.618C274.803 139.714 275.031 139.798 275.283 139.87C275.547 139.942 275.817 140.002 276.093 140.05C276.465 140.122 276.819 140.218 277.155 140.338C277.491 140.446 277.785 140.596 278.037 140.788C278.289 140.98 278.487 141.22 278.631 141.508C278.775 141.796 278.847 142.15 278.847 142.57C278.847 143.05 278.751 143.458 278.559 143.794C278.367 144.13 278.109 144.406 277.785 144.622C277.473 144.826 277.113 144.976 276.705 145.072C276.309 145.168 275.901 145.216 275.481 145.216C274.761 145.216 274.137 145.108 273.609 144.892C273.093 144.664 272.625 144.25 272.205 143.65L273.321 142.786ZM281.975 142.948C282.275 142.948 282.527 143.056 282.731 143.272C282.947 143.476 283.055 143.728 283.055 144.028C283.055 144.328 282.941 144.586 282.713 144.802C282.497 145.006 282.251 145.108 281.975 145.108C281.699 145.108 281.447 145.006 281.219 144.802C281.003 144.586 280.895 144.328 280.895 144.028C280.895 143.728 280.997 143.476 281.201 143.272C281.417 143.056 281.675 142.948 281.975 142.948Z" fill="black"></path><path d="M28 91H353.866V92H28V91Z" fill="black"></path></svg>