<svg xmlns="http://www.w3.org/2000/svg" width="1416" height="504" viewBox="0 0 1416 504" fill="none"><path d="M175.591 483.2C223.111 483.2 250.791 461.12 250.791 422.24C250.791 383.52 223.111 361.6 175.591 361.6C127.911 361.6 100.391 383.36 100.391 422.24C100.391 461.28 127.911 483.2 175.591 483.2ZM175.591 449.6C149.511 449.6 141.991 437.44 141.991 422.24C141.991 407.2 149.351 395.2 175.591 395.2C201.831 395.2 209.191 407.36 209.191 422.24C209.191 437.28 201.671 449.6 175.591 449.6ZM380.754 440.96L326.034 364.8H266.834V480H306.834V403.84L361.554 480H420.754V364.8H380.754V440.96ZM638.303 364.8H500.703V398.4H549.503V480H589.503V398.4H638.303V364.8ZM654.334 364.8V480H694.334V364.8H654.334ZM800.593 364.8L753.553 408.16V364.8H713.553V480H753.553V456.16L777.553 435.52L810.833 480H859.473L805.873 411.04L859.473 364.8H800.593ZM1010.02 364.8H872.422V398.4H921.222V480H961.222V398.4H1010.02V364.8ZM1096.37 483.2C1143.89 483.2 1171.57 461.12 1171.57 422.24C1171.57 383.52 1143.89 361.6 1096.37 361.6C1048.69 361.6 1021.17 383.36 1021.17 422.24C1021.17 461.28 1048.69 483.2 1096.37 483.2ZM1096.37 449.6C1070.29 449.6 1062.77 437.44 1062.77 422.24C1062.77 407.2 1070.13 395.2 1096.37 395.2C1122.61 395.2 1129.97 407.36 1129.97 422.24C1129.97 437.28 1122.45 449.6 1096.37 449.6ZM1274.66 364.8L1227.62 408.16V364.8H1187.62V480H1227.62V456.16L1251.62 435.52L1284.9 480H1333.54L1279.94 411.04L1333.54 364.8H1274.66Z" fill="#FE2C55"></path><path d="M175.591 485.2C199.628 485.2 218.933 479.619 232.267 468.856C245.662 458.044 252.791 442.196 252.791 422.24H248.791C248.791 441.164 242.079 455.796 229.754 465.744C217.368 475.741 199.073 481.2 175.591 481.2V485.2ZM252.791 422.24C252.791 402.361 245.659 386.591 232.262 375.84C218.928 365.14 199.625 359.6 175.591 359.6V363.6C199.076 363.6 217.373 369.02 229.759 378.96C242.082 388.849 248.791 403.399 248.791 422.24H252.791ZM175.591 359.6C151.48 359.6 132.176 365.098 118.859 375.78C105.478 386.514 98.3906 402.286 98.3906 422.24H102.391C102.391 403.314 109.063 388.766 121.362 378.9C133.726 368.982 152.021 363.6 175.591 363.6V359.6ZM98.3906 422.24C98.3906 442.271 105.475 458.121 118.855 468.917C132.171 479.661 151.477 485.2 175.591 485.2V481.2C152.024 481.2 133.73 475.779 121.367 465.803C109.066 455.879 102.391 441.249 102.391 422.24H98.3906ZM175.591 447.6C162.823 447.6 155.019 444.62 150.397 440.178C145.792 435.753 143.991 429.533 143.991 422.24H139.991C139.991 430.147 141.949 437.607 147.625 443.062C153.282 448.5 162.278 451.6 175.591 451.6V447.6ZM143.991 422.24C143.991 415.022 145.754 408.89 150.331 404.528C154.93 400.144 162.733 397.2 175.591 397.2V393.2C162.208 393.2 153.212 396.256 147.571 401.632C141.907 407.03 139.991 414.418 139.991 422.24H143.991ZM175.591 397.2C188.441 397.2 196.246 400.181 200.848 404.585C205.429 408.969 207.191 415.107 207.191 422.24H211.191C211.191 414.493 209.272 407.111 203.613 401.695C197.975 396.299 188.98 393.2 175.591 393.2V397.2ZM207.191 422.24C207.191 429.449 205.391 435.673 200.782 440.121C196.157 444.584 188.351 447.6 175.591 447.6V451.6C188.91 451.6 197.904 448.456 203.559 442.999C209.23 437.527 211.191 430.071 211.191 422.24H207.191ZM380.754 440.96L379.13 442.127L382.754 447.171V440.96H380.754ZM326.034 364.8L327.659 363.633L327.06 362.8H326.034V364.8ZM266.834 364.8V362.8H264.834V364.8H266.834ZM266.834 480H264.834V482H266.834V480ZM306.834 480V482H308.834V480H306.834ZM306.834 403.84L308.459 402.673L304.834 397.629V403.84H306.834ZM361.554 480L359.93 481.167L360.529 482H361.554V480ZM420.754 480V482H422.754V480H420.754ZM420.754 364.8H422.754V362.8H420.754V364.8ZM380.754 364.8V362.8H378.754V364.8H380.754ZM382.379 439.793L327.659 363.633L324.41 365.967L379.13 442.127L382.379 439.793ZM326.034 362.8H266.834V366.8H326.034V362.8ZM264.834 364.8V480H268.834V364.8H264.834ZM266.834 482H306.834V478H266.834V482ZM308.834 480V403.84H304.834V480H308.834ZM305.21 405.007L359.93 481.167L363.179 478.833L308.459 402.673L305.21 405.007ZM361.554 482H420.754V478H361.554V482ZM422.754 480V364.8H418.754V480H422.754ZM420.754 362.8H380.754V366.8H420.754V362.8ZM378.754 364.8V440.96H382.754V364.8H378.754ZM638.303 364.8H640.303V362.8H638.303V364.8ZM500.703 364.8V362.8H498.703V364.8H500.703ZM500.703 398.4H498.703V400.4H500.703V398.4ZM549.503 398.4H551.503V396.4H549.503V398.4ZM549.503 480H547.503V482H549.503V480ZM589.503 480V482H591.503V480H589.503ZM589.503 398.4V396.4H587.503V398.4H589.503ZM638.303 398.4V400.4H640.303V398.4H638.303ZM638.303 362.8H500.703V366.8H638.303V362.8ZM498.703 364.8V398.4H502.703V364.8H498.703ZM500.703 400.4H549.503V396.4H500.703V400.4ZM547.503 398.4V480H551.503V398.4H547.503ZM549.503 482H589.503V478H549.503V482ZM591.503 480V398.4H587.503V480H591.503ZM589.503 400.4H638.303V396.4H589.503V400.4ZM640.303 398.4V364.8H636.303V398.4H640.303ZM654.334 364.8V362.8H652.334V364.8H654.334ZM654.334 480H652.334V482H654.334V480ZM694.334 480V482H696.334V480H694.334ZM694.334 364.8H696.334V362.8H694.334V364.8ZM652.334 364.8V480H656.334V364.8H652.334ZM654.334 482H694.334V478H654.334V482ZM696.334 480V364.8H692.334V480H696.334ZM694.334 362.8H654.334V366.8H694.334V362.8ZM800.593 364.8V362.8H799.812L799.238 363.329L800.593 364.8ZM753.553 408.16H751.553V412.724L754.909 409.631L753.553 408.16ZM753.553 364.8H755.553V362.8H753.553V364.8ZM713.553 364.8V362.8H711.553V364.8H713.553ZM713.553 480H711.553V482H713.553V480ZM753.553 480V482H755.553V480H753.553ZM753.553 456.16L752.249 454.644L751.553 455.242V456.16H753.553ZM777.553 435.52L779.154 434.322L777.872 432.608L776.249 434.004L777.553 435.52ZM810.833 480L809.232 481.198L809.832 482H810.833V480ZM859.473 480V482H863.561L861.052 478.773L859.473 480ZM805.873 411.04L804.567 409.526L803.128 410.767L804.294 412.267L805.873 411.04ZM859.473 364.8L860.78 366.314L864.853 362.8H859.473V364.8ZM799.238 363.329L752.198 406.689L754.909 409.631L801.949 366.271L799.238 363.329ZM755.553 408.16V364.8H751.553V408.16H755.553ZM753.553 362.8H713.553V366.8H753.553V362.8ZM711.553 364.8V480H715.553V364.8H711.553ZM713.553 482H753.553V478H713.553V482ZM755.553 480V456.16H751.553V480H755.553ZM754.857 457.676L778.857 437.036L776.249 434.004L752.249 454.644L754.857 457.676ZM775.952 436.718L809.232 481.198L812.435 478.802L779.154 434.322L775.952 436.718ZM810.833 482H859.473V478H810.833V482ZM861.052 478.773L807.452 409.813L804.294 412.267L857.894 481.227L861.052 478.773ZM807.18 412.554L860.78 366.314L858.167 363.286L804.567 409.526L807.18 412.554ZM859.473 362.8H800.593V366.8H859.473V362.8ZM1010.02 364.8H1012.02V362.8H1010.02V364.8ZM872.422 364.8V362.8H870.422V364.8H872.422ZM872.422 398.4H870.422V400.4H872.422V398.4ZM921.222 398.4H923.222V396.4H921.222V398.4ZM921.222 480H919.222V482H921.222V480ZM961.222 480V482H963.222V480H961.222ZM961.222 398.4V396.4H959.222V398.4H961.222ZM1010.02 398.4V400.4H1012.02V398.4H1010.02ZM1010.02 362.8H872.422V366.8H1010.02V362.8ZM870.422 364.8V398.4H874.422V364.8H870.422ZM872.422 400.4H921.222V396.4H872.422V400.4ZM919.222 398.4V480H923.222V398.4H919.222ZM921.222 482H961.222V478H921.222V482ZM963.222 480V398.4H959.222V480H963.222ZM961.222 400.4H1010.02V396.4H961.222V400.4ZM1012.02 398.4V364.8H1008.02V398.4H1012.02ZM1096.37 485.2C1120.41 485.2 1139.71 479.619 1153.05 468.856C1166.44 458.044 1173.57 442.196 1173.57 422.24H1169.57C1169.57 441.164 1162.86 455.796 1150.54 465.744C1138.15 475.741 1119.85 481.2 1096.37 481.2V485.2ZM1173.57 422.24C1173.57 402.361 1166.44 386.591 1153.04 375.84C1139.71 365.14 1120.41 359.6 1096.37 359.6V363.6C1119.86 363.6 1138.15 369.02 1150.54 378.96C1162.86 388.849 1169.57 403.399 1169.57 422.24H1173.57ZM1096.37 359.6C1072.26 359.6 1052.96 365.098 1039.64 375.78C1026.26 386.514 1019.17 402.286 1019.17 422.24H1023.17C1023.17 403.314 1029.84 388.766 1042.14 378.9C1054.51 368.982 1072.8 363.6 1096.37 363.6V359.6ZM1019.17 422.24C1019.17 442.271 1026.26 458.121 1039.64 468.917C1052.95 479.661 1072.26 485.2 1096.37 485.2V481.2C1072.81 481.2 1054.51 475.779 1042.15 465.803C1029.85 455.879 1023.17 441.249 1023.17 422.24H1019.17ZM1096.37 447.6C1083.6 447.6 1075.8 444.62 1071.18 440.178C1066.57 435.753 1064.77 429.533 1064.77 422.24H1060.77C1060.77 430.147 1062.73 437.607 1068.41 443.062C1074.06 448.5 1083.06 451.6 1096.37 451.6V447.6ZM1064.77 422.24C1064.77 415.022 1066.54 408.89 1071.11 404.528C1075.71 400.144 1083.51 397.2 1096.37 397.2V393.2C1082.99 393.2 1073.99 396.256 1068.35 401.632C1062.69 407.03 1060.77 414.418 1060.77 422.24H1064.77ZM1096.37 397.2C1109.22 397.2 1117.03 400.181 1121.63 404.585C1126.21 408.969 1127.97 415.107 1127.97 422.24H1131.97C1131.97 414.493 1130.05 407.111 1124.39 401.695C1118.76 396.299 1109.76 393.2 1096.37 393.2V397.2ZM1127.97 422.24C1127.97 429.449 1126.17 435.673 1121.56 440.121C1116.94 444.584 1109.13 447.6 1096.37 447.6V451.6C1109.69 451.6 1118.69 448.456 1124.34 442.999C1130.01 437.527 1131.97 430.071 1131.97 422.24H1127.97ZM1274.66 364.8V362.8H1273.87L1273.3 363.329L1274.66 364.8ZM1227.62 408.16H1225.62V412.724L1228.97 409.631L1227.62 408.16ZM1227.62 364.8H1229.62V362.8H1227.62V364.8ZM1187.62 364.8V362.8H1185.62V364.8H1187.62ZM1187.62 480H1185.62V482H1187.62V480ZM1227.62 480V482H1229.62V480H1227.62ZM1227.62 456.16L1226.31 454.644L1225.62 455.242V456.16H1227.62ZM1251.62 435.52L1253.22 434.322L1251.93 432.608L1250.31 434.004L1251.62 435.52ZM1284.9 480L1283.29 481.198L1283.89 482H1284.9V480ZM1333.54 480V482H1337.62L1335.11 478.773L1333.54 480ZM1279.94 411.04L1278.63 409.526L1277.19 410.767L1278.36 412.267L1279.94 411.04ZM1333.54 364.8L1334.84 366.314L1338.92 362.8H1333.54V364.8ZM1273.3 363.329L1226.26 406.689L1228.97 409.631L1276.01 366.271L1273.3 363.329ZM1229.62 408.16V364.8H1225.62V408.16H1229.62ZM1227.62 362.8H1187.62V366.8H1227.62V362.8ZM1185.62 364.8V480H1189.62V364.8H1185.62ZM1187.62 482H1227.62V478H1187.62V482ZM1229.62 480V456.16H1225.62V480H1229.62ZM1228.92 457.676L1252.92 437.036L1250.31 434.004L1226.31 454.644L1228.92 457.676ZM1250.01 436.718L1283.29 481.198L1286.5 478.802L1253.22 434.322L1250.01 436.718ZM1284.9 482H1333.54V478H1284.9V482ZM1335.11 478.773L1281.51 409.813L1278.36 412.267L1331.96 481.227L1335.11 478.773ZM1281.24 412.554L1334.84 366.314L1332.23 363.286L1278.63 409.526L1281.24 412.554ZM1333.54 362.8H1274.66V366.8H1333.54V362.8Z" fill="#FE2C55"></path><path d="M162.591 476.2C210.111 476.2 237.791 454.12 237.791 415.24C237.791 376.52 210.111 354.6 162.591 354.6C114.911 354.6 87.3906 376.36 87.3906 415.24C87.3906 454.28 114.911 476.2 162.591 476.2ZM162.591 442.6C136.511 442.6 128.991 430.44 128.991 415.24C128.991 400.2 136.351 388.2 162.591 388.2C188.831 388.2 196.191 400.36 196.191 415.24C196.191 430.28 188.671 442.6 162.591 442.6ZM367.754 433.96L313.034 357.8H253.834V473H293.834V396.84L348.554 473H407.754V357.8H367.754V433.96ZM625.303 357.8H487.703V391.4H536.503V473H576.503V391.4H625.303V357.8ZM641.334 357.8V473H681.334V357.8H641.334ZM787.593 357.8L740.553 401.16V357.8H700.553V473H740.553V449.16L764.553 428.52L797.833 473H846.473L792.873 404.04L846.473 357.8H787.593ZM997.022 357.8H859.422V391.4H908.222V473H948.222V391.4H997.022V357.8ZM1083.37 476.2C1130.89 476.2 1158.57 454.12 1158.57 415.24C1158.57 376.52 1130.89 354.6 1083.37 354.6C1035.69 354.6 1008.17 376.36 1008.17 415.24C1008.17 454.28 1035.69 476.2 1083.37 476.2ZM1083.37 442.6C1057.29 442.6 1049.77 430.44 1049.77 415.24C1049.77 400.2 1057.13 388.2 1083.37 388.2C1109.61 388.2 1116.97 400.36 1116.97 415.24C1116.97 430.28 1109.45 442.6 1083.37 442.6ZM1261.66 357.8L1214.62 401.16V357.8H1174.62V473H1214.62V449.16L1238.62 428.52L1271.9 473H1320.54L1266.94 404.04L1320.54 357.8H1261.66Z" fill="#25F4EE"></path><path d="M162.591 478.2C186.628 478.2 205.933 472.619 219.267 461.856C232.662 451.044 239.791 435.196 239.791 415.24H235.791C235.791 434.164 229.079 448.796 216.754 458.744C204.368 468.741 186.073 474.2 162.591 474.2V478.2ZM239.791 415.24C239.791 395.361 232.659 379.591 219.262 368.84C205.928 358.14 186.625 352.6 162.591 352.6V356.6C186.076 356.6 204.373 362.02 216.759 371.96C229.082 381.849 235.791 396.399 235.791 415.24H239.791ZM162.591 352.6C138.48 352.6 119.176 358.098 105.859 368.78C92.478 379.514 85.3906 395.286 85.3906 415.24H89.3906C89.3906 396.314 96.0633 381.766 108.362 371.9C120.726 361.982 139.021 356.6 162.591 356.6V352.6ZM85.3906 415.24C85.3906 435.271 92.4755 451.121 105.855 461.917C119.171 472.661 138.477 478.2 162.591 478.2V474.2C139.024 474.2 120.73 468.779 108.367 458.803C96.0658 448.879 89.3906 434.249 89.3906 415.24H85.3906ZM162.591 440.6C149.823 440.6 142.019 437.62 137.397 433.178C132.792 428.753 130.991 422.533 130.991 415.24H126.991C126.991 423.147 128.949 430.607 134.625 436.062C140.282 441.5 149.278 444.6 162.591 444.6V440.6ZM130.991 415.24C130.991 408.022 132.754 401.89 137.331 397.528C141.93 393.144 149.733 390.2 162.591 390.2V386.2C149.208 386.2 140.212 389.256 134.571 394.632C128.907 400.03 126.991 407.418 126.991 415.24H130.991ZM162.591 390.2C175.441 390.2 183.246 393.181 187.848 397.585C192.429 401.969 194.191 408.107 194.191 415.24H198.191C198.191 407.493 196.272 400.111 190.613 394.695C184.975 389.299 175.98 386.2 162.591 386.2V390.2ZM194.191 415.24C194.191 422.449 192.391 428.673 187.782 433.121C183.157 437.584 175.351 440.6 162.591 440.6V444.6C175.91 444.6 184.904 441.456 190.559 435.999C196.23 430.527 198.191 423.071 198.191 415.24H194.191ZM367.754 433.96L366.13 435.127L369.754 440.171V433.96H367.754ZM313.034 357.8L314.659 356.633L314.06 355.8H313.034V357.8ZM253.834 357.8V355.8H251.834V357.8H253.834ZM253.834 473H251.834V475H253.834V473ZM293.834 473V475H295.834V473H293.834ZM293.834 396.84L295.459 395.673L291.834 390.629V396.84H293.834ZM348.554 473L346.93 474.167L347.529 475H348.554V473ZM407.754 473V475H409.754V473H407.754ZM407.754 357.8H409.754V355.8H407.754V357.8ZM367.754 357.8V355.8H365.754V357.8H367.754ZM369.379 432.793L314.659 356.633L311.41 358.967L366.13 435.127L369.379 432.793ZM313.034 355.8H253.834V359.8H313.034V355.8ZM251.834 357.8V473H255.834V357.8H251.834ZM253.834 475H293.834V471H253.834V475ZM295.834 473V396.84H291.834V473H295.834ZM292.21 398.007L346.93 474.167L350.179 471.833L295.459 395.673L292.21 398.007ZM348.554 475H407.754V471H348.554V475ZM409.754 473V357.8H405.754V473H409.754ZM407.754 355.8H367.754V359.8H407.754V355.8ZM365.754 357.8V433.96H369.754V357.8H365.754ZM625.303 357.8H627.303V355.8H625.303V357.8ZM487.703 357.8V355.8H485.703V357.8H487.703ZM487.703 391.4H485.703V393.4H487.703V391.4ZM536.503 391.4H538.503V389.4H536.503V391.4ZM536.503 473H534.503V475H536.503V473ZM576.503 473V475H578.503V473H576.503ZM576.503 391.4V389.4H574.503V391.4H576.503ZM625.303 391.4V393.4H627.303V391.4H625.303ZM625.303 355.8H487.703V359.8H625.303V355.8ZM485.703 357.8V391.4H489.703V357.8H485.703ZM487.703 393.4H536.503V389.4H487.703V393.4ZM534.503 391.4V473H538.503V391.4H534.503ZM536.503 475H576.503V471H536.503V475ZM578.503 473V391.4H574.503V473H578.503ZM576.503 393.4H625.303V389.4H576.503V393.4ZM627.303 391.4V357.8H623.303V391.4H627.303ZM641.334 357.8V355.8H639.334V357.8H641.334ZM641.334 473H639.334V475H641.334V473ZM681.334 473V475H683.334V473H681.334ZM681.334 357.8H683.334V355.8H681.334V357.8ZM639.334 357.8V473H643.334V357.8H639.334ZM641.334 475H681.334V471H641.334V475ZM683.334 473V357.8H679.334V473H683.334ZM681.334 355.8H641.334V359.8H681.334V355.8ZM787.593 357.8V355.8H786.812L786.238 356.329L787.593 357.8ZM740.553 401.16H738.553V405.724L741.909 402.631L740.553 401.16ZM740.553 357.8H742.553V355.8H740.553V357.8ZM700.553 357.8V355.8H698.553V357.8H700.553ZM700.553 473H698.553V475H700.553V473ZM740.553 473V475H742.553V473H740.553ZM740.553 449.16L739.249 447.644L738.553 448.242V449.16H740.553ZM764.553 428.52L766.154 427.322L764.872 425.608L763.249 427.004L764.553 428.52ZM797.833 473L796.232 474.198L796.832 475H797.833V473ZM846.473 473V475H850.561L848.052 471.773L846.473 473ZM792.873 404.04L791.567 402.526L790.128 403.767L791.294 405.267L792.873 404.04ZM846.473 357.8L847.78 359.314L851.853 355.8H846.473V357.8ZM786.238 356.329L739.198 399.689L741.909 402.631L788.949 359.271L786.238 356.329ZM742.553 401.16V357.8H738.553V401.16H742.553ZM740.553 355.8H700.553V359.8H740.553V355.8ZM698.553 357.8V473H702.553V357.8H698.553ZM700.553 475H740.553V471H700.553V475ZM742.553 473V449.16H738.553V473H742.553ZM741.857 450.676L765.857 430.036L763.249 427.004L739.249 447.644L741.857 450.676ZM762.952 429.718L796.232 474.198L799.435 471.802L766.154 427.322L762.952 429.718ZM797.833 475H846.473V471H797.833V475ZM848.052 471.773L794.452 402.813L791.294 405.267L844.894 474.227L848.052 471.773ZM794.18 405.554L847.78 359.314L845.167 356.286L791.567 402.526L794.18 405.554ZM846.473 355.8H787.593V359.8H846.473V355.8ZM997.022 357.8H999.022V355.8H997.022V357.8ZM859.422 357.8V355.8H857.422V357.8H859.422ZM859.422 391.4H857.422V393.4H859.422V391.4ZM908.222 391.4H910.222V389.4H908.222V391.4ZM908.222 473H906.222V475H908.222V473ZM948.222 473V475H950.222V473H948.222ZM948.222 391.4V389.4H946.222V391.4H948.222ZM997.022 391.4V393.4H999.022V391.4H997.022ZM997.022 355.8H859.422V359.8H997.022V355.8ZM857.422 357.8V391.4H861.422V357.8H857.422ZM859.422 393.4H908.222V389.4H859.422V393.4ZM906.222 391.4V473H910.222V391.4H906.222ZM908.222 475H948.222V471H908.222V475ZM950.222 473V391.4H946.222V473H950.222ZM948.222 393.4H997.022V389.4H948.222V393.4ZM999.022 391.4V357.8H995.022V391.4H999.022ZM1083.37 478.2C1107.41 478.2 1126.71 472.619 1140.05 461.856C1153.44 451.044 1160.57 435.196 1160.57 415.24H1156.57C1156.57 434.164 1149.86 448.796 1137.54 458.744C1125.15 468.741 1106.85 474.2 1083.37 474.2V478.2ZM1160.57 415.24C1160.57 395.361 1153.44 379.591 1140.04 368.84C1126.71 358.14 1107.41 352.6 1083.37 352.6V356.6C1106.86 356.6 1125.15 362.02 1137.54 371.96C1149.86 381.849 1156.57 396.399 1156.57 415.24H1160.57ZM1083.37 352.6C1059.26 352.6 1039.96 358.098 1026.64 368.78C1013.26 379.514 1006.17 395.286 1006.17 415.24H1010.17C1010.17 396.314 1016.84 381.766 1029.14 371.9C1041.51 361.982 1059.8 356.6 1083.37 356.6V352.6ZM1006.17 415.24C1006.17 435.271 1013.26 451.121 1026.64 461.917C1039.95 472.661 1059.26 478.2 1083.37 478.2V474.2C1059.81 474.2 1041.51 468.779 1029.15 458.803C1016.85 448.879 1010.17 434.249 1010.17 415.24H1006.17ZM1083.37 440.6C1070.6 440.6 1062.8 437.62 1058.18 433.178C1053.57 428.753 1051.77 422.533 1051.77 415.24H1047.77C1047.77 423.147 1049.73 430.607 1055.41 436.062C1061.06 441.5 1070.06 444.6 1083.37 444.6V440.6ZM1051.77 415.24C1051.77 408.022 1053.54 401.89 1058.11 397.528C1062.71 393.144 1070.51 390.2 1083.37 390.2V386.2C1069.99 386.2 1060.99 389.256 1055.35 394.632C1049.69 400.03 1047.77 407.418 1047.77 415.24H1051.77ZM1083.37 390.2C1096.22 390.2 1104.03 393.181 1108.63 397.585C1113.21 401.969 1114.97 408.107 1114.97 415.24H1118.97C1118.97 407.493 1117.05 400.111 1111.39 394.695C1105.76 389.299 1096.76 386.2 1083.37 386.2V390.2ZM1114.97 415.24C1114.97 422.449 1113.17 428.673 1108.56 433.121C1103.94 437.584 1096.13 440.6 1083.37 440.6V444.6C1096.69 444.6 1105.69 441.456 1111.34 435.999C1117.01 430.527 1118.97 423.071 1118.97 415.24H1114.97ZM1261.66 357.8V355.8H1260.87L1260.3 356.329L1261.66 357.8ZM1214.62 401.16H1212.62V405.724L1215.97 402.631L1214.62 401.16ZM1214.62 357.8H1216.62V355.8H1214.62V357.8ZM1174.62 357.8V355.8H1172.62V357.8H1174.62ZM1174.62 473H1172.62V475H1174.62V473ZM1214.62 473V475H1216.62V473H1214.62ZM1214.62 449.16L1213.31 447.644L1212.62 448.242V449.16H1214.62ZM1238.62 428.52L1240.22 427.322L1238.93 425.608L1237.31 427.004L1238.62 428.52ZM1271.9 473L1270.29 474.198L1270.89 475H1271.9V473ZM1320.54 473V475H1324.62L1322.11 471.773L1320.54 473ZM1266.94 404.04L1265.63 402.526L1264.19 403.767L1265.36 405.267L1266.94 404.04ZM1320.54 357.8L1321.84 359.314L1325.92 355.8H1320.54V357.8ZM1260.3 356.329L1213.26 399.689L1215.97 402.631L1263.01 359.271L1260.3 356.329ZM1216.62 401.16V357.8H1212.62V401.16H1216.62ZM1214.62 355.8H1174.62V359.8H1214.62V355.8ZM1172.62 357.8V473H1176.62V357.8H1172.62ZM1174.62 475H1214.62V471H1174.62V475ZM1216.62 473V449.16H1212.62V473H1216.62ZM1215.92 450.676L1239.92 430.036L1237.31 427.004L1213.31 447.644L1215.92 450.676ZM1237.01 429.718L1270.29 474.198L1273.5 471.802L1240.22 427.322L1237.01 429.718ZM1271.9 475H1320.54V471H1271.9V475ZM1322.11 471.773L1268.51 402.813L1265.36 405.267L1318.96 474.227L1322.11 471.773ZM1268.24 405.554L1321.84 359.314L1319.23 356.286L1265.63 402.526L1268.24 405.554ZM1320.54 355.8H1261.66V359.8H1320.54V355.8Z" fill="#25F4EE"></path><path d="M166.591 480.2C214.111 480.2 241.791 458.12 241.791 419.24C241.791 380.52 214.111 358.6 166.591 358.6C118.911 358.6 91.3906 380.36 91.3906 419.24C91.3906 458.28 118.911 480.2 166.591 480.2ZM166.591 446.6C140.511 446.6 132.991 434.44 132.991 419.24C132.991 404.2 140.351 392.2 166.591 392.2C192.831 392.2 200.191 404.36 200.191 419.24C200.191 434.28 192.671 446.6 166.591 446.6ZM371.754 437.96L317.034 361.8H257.834V477H297.834V400.84L352.554 477H411.754V361.8H371.754V437.96ZM629.303 361.8H491.703V395.4H540.503V477H580.503V395.4H629.303V361.8ZM645.334 361.8V477H685.334V361.8H645.334ZM791.593 361.8L744.553 405.16V361.8H704.553V477H744.553V453.16L768.553 432.52L801.833 477H850.473L796.873 408.04L850.473 361.8H791.593ZM1001.02 361.8H863.422V395.4H912.222V477H952.222V395.4H1001.02V361.8ZM1087.37 480.2C1134.89 480.2 1162.57 458.12 1162.57 419.24C1162.57 380.52 1134.89 358.6 1087.37 358.6C1039.69 358.6 1012.17 380.36 1012.17 419.24C1012.17 458.28 1039.69 480.2 1087.37 480.2ZM1087.37 446.6C1061.29 446.6 1053.77 434.44 1053.77 419.24C1053.77 404.2 1061.13 392.2 1087.37 392.2C1113.61 392.2 1120.97 404.36 1120.97 419.24C1120.97 434.28 1113.45 446.6 1087.37 446.6ZM1265.66 361.8L1218.62 405.16V361.8H1178.62V477H1218.62V453.16L1242.62 432.52L1275.9 477H1324.54L1270.94 408.04L1324.54 361.8H1265.66Z" fill="white"></path><path d="M90.345 124L58.025 80.8H8.42499L70.345 157.6V196H110.345V157.6L172.265 80.8H122.665L90.345 124ZM230.725 199.2C278.245 199.2 305.925 177.12 305.925 138.24C305.925 99.52 278.245 77.6 230.725 77.6C183.045 77.6 155.525 99.36 155.525 138.24C155.525 177.28 183.045 199.2 230.725 199.2ZM230.725 165.6C204.645 165.6 197.125 153.44 197.125 138.24C197.125 123.2 204.485 111.2 230.725 111.2C256.965 111.2 264.325 123.36 264.325 138.24C264.325 153.28 256.805 165.6 230.725 165.6ZM452.369 80.8H412.369V138.24C412.369 151.68 406.449 165.6 381.969 165.6C357.489 165.6 351.569 151.84 351.569 138.24V80.8H311.569V139.84C311.569 178.88 332.689 199.2 381.969 199.2C431.089 199.2 452.369 178.72 452.369 139.84V80.8ZM575.446 150.72C589.366 145.92 596.886 135.68 596.886 118.08C596.886 93.92 581.046 80.8 549.206 80.8H459.606V196H499.606V166.56H544.086C554.326 166.56 556.886 169.44 556.886 179.68V196H596.886V172.96C596.886 159.2 588.726 151.52 575.446 150.72ZM539.606 112.8C548.566 112.8 555.286 112.8 555.286 123.68C555.286 134.56 548.566 134.56 539.606 134.56H499.606V112.8H539.606ZM768.715 135.68C780.395 131.36 788.555 122.88 788.555 108.96C788.555 92.32 779.115 80.8 748.875 80.8H659.275V196H755.275C783.915 196 794.955 182.88 794.955 164.16C794.955 147.36 783.115 139.36 768.715 135.68ZM736.075 109.6C743.435 109.6 748.555 109.6 748.555 117.92C748.555 126.24 743.435 126.24 736.075 126.24H699.275V109.6H736.075ZM699.275 167.2V150.56H742.475C748.235 150.56 753.355 150.56 753.355 158.88C753.355 167.2 748.235 167.2 742.475 167.2H699.275ZM913.934 150.72C927.854 145.92 935.374 135.68 935.374 118.08C935.374 93.92 919.534 80.8 887.694 80.8H798.094V196H838.094V166.56H882.574C892.814 166.56 895.374 169.44 895.374 179.68V196H935.374V172.96C935.374 159.2 927.214 151.52 913.934 150.72ZM878.094 112.8C887.054 112.8 893.774 112.8 893.774 123.68C893.774 134.56 887.054 134.56 878.094 134.56H838.094V112.8H878.094ZM1106.74 196L1051.54 80.8H994.575L939.375 196H981.935L991.375 175.84H1054.74L1064.18 196H1106.74ZM1023.06 108.32L1041.3 147.04H1004.82L1023.06 108.32ZM1223.09 156.96L1168.37 80.8H1109.17V196H1149.17V119.84L1203.89 196H1263.09V80.8H1223.09V156.96ZM1355.09 80.8H1271.89V196H1355.09C1382.13 196 1407.57 178.08 1407.57 138.4C1407.57 98.72 1382.13 80.8 1355.09 80.8ZM1311.89 162.4V114.4H1339.09C1351.25 114.4 1365.97 114.4 1365.97 138.4C1365.97 162.4 1351.25 162.4 1339.09 162.4H1311.89Z" fill="white"></path><path d="M90.345 124L88.7436 125.198L90.345 127.339L91.9464 125.198L90.345 124ZM58.025 80.8L59.6264 79.6019L59.0265 78.8H58.025V80.8ZM8.42499 80.8V78.8H4.24341L6.86801 82.0553L8.42499 80.8ZM70.345 157.6H72.345V156.894L71.902 156.345L70.345 157.6ZM70.345 196H68.345V198H70.345V196ZM110.345 196V198H112.345V196H110.345ZM110.345 157.6L108.788 156.345L108.345 156.894V157.6H110.345ZM172.265 80.8L173.822 82.0553L176.447 78.8H172.265V80.8ZM122.665 80.8V78.8H121.664L121.064 79.6019L122.665 80.8ZM91.9464 122.802L59.6264 79.6019L56.4236 81.9981L88.7436 125.198L91.9464 122.802ZM58.025 78.8H8.42499V82.8H58.025V78.8ZM6.86801 82.0553L68.788 158.855L71.902 156.345L9.98197 79.5447L6.86801 82.0553ZM68.345 157.6V196H72.345V157.6H68.345ZM70.345 198H110.345V194H70.345V198ZM112.345 196V157.6H108.345V196H112.345ZM111.902 158.855L173.822 82.0553L170.708 79.5447L108.788 156.345L111.902 158.855ZM172.265 78.8H122.665V82.8H172.265V78.8ZM121.064 79.6019L88.7436 122.802L91.9464 125.198L124.266 81.9981L121.064 79.6019ZM230.725 201.2C254.763 201.2 274.067 195.619 287.401 184.856C300.796 174.044 307.925 158.196 307.925 138.24H303.925C303.925 157.164 297.214 171.796 284.889 181.744C272.503 191.741 254.207 197.2 230.725 197.2V201.2ZM307.925 138.24C307.925 118.361 300.794 102.591 287.397 91.8402C274.063 81.1398 254.76 75.6 230.725 75.6V79.6C254.21 79.6 272.507 85.0202 284.893 94.9598C297.216 104.849 303.925 119.399 303.925 138.24H307.925ZM230.725 75.6C206.615 75.6 187.31 81.0978 173.994 91.7799C160.612 102.514 153.525 118.286 153.525 138.24H157.525C157.525 119.314 164.198 104.766 176.496 94.9001C188.86 84.9822 207.155 79.6 230.725 79.6V75.6ZM153.525 138.24C153.525 158.271 160.61 174.121 173.989 184.917C187.305 195.661 206.612 201.2 230.725 201.2V197.2C207.158 197.2 188.865 191.779 176.501 181.803C164.2 171.879 157.525 157.249 157.525 138.24H153.525ZM230.725 163.6C217.957 163.6 210.153 160.62 205.531 156.178C200.927 151.753 199.125 145.533 199.125 138.24H195.125C195.125 146.147 197.083 153.607 202.759 159.062C208.417 164.5 217.413 167.6 230.725 167.6V163.6ZM199.125 138.24C199.125 131.022 200.889 124.89 205.465 120.528C210.064 116.144 217.868 113.2 230.725 113.2V109.2C217.342 109.2 208.346 112.256 202.705 117.632C197.041 123.03 195.125 130.418 195.125 138.24H199.125ZM230.725 113.2C243.576 113.2 251.381 116.181 255.982 120.585C260.564 124.969 262.325 131.107 262.325 138.24H266.325C266.325 130.493 264.406 123.111 258.748 117.695C253.109 112.299 244.114 109.2 230.725 109.2V113.2ZM262.325 138.24C262.325 145.449 260.525 151.673 255.916 156.121C251.291 160.584 243.486 163.6 230.725 163.6V167.6C244.044 167.6 253.039 164.456 258.694 158.999C264.365 153.527 266.325 146.071 266.325 138.24H262.325ZM452.369 80.8H454.369V78.8H452.369V80.8ZM412.369 80.8V78.8H410.369V80.8H412.369ZM351.569 80.8H353.569V78.8H351.569V80.8ZM311.569 80.8V78.8H309.569V80.8H311.569ZM452.369 78.8H412.369V82.8H452.369V78.8ZM410.369 80.8V138.24H414.369V80.8H410.369ZM410.369 138.24C410.369 144.71 408.938 150.989 404.847 155.639C400.799 160.24 393.829 163.6 381.969 163.6V167.6C394.589 167.6 402.818 164 407.85 158.281C412.839 152.611 414.369 145.21 414.369 138.24H410.369ZM381.969 163.6C370.101 163.6 363.133 160.276 359.088 155.696C355.001 151.069 353.569 144.794 353.569 138.24H349.569C349.569 145.286 351.097 152.691 356.09 158.344C361.125 164.044 369.356 167.6 381.969 167.6V163.6ZM353.569 138.24V80.8H349.569V138.24H353.569ZM351.569 78.8H311.569V82.8H351.569V78.8ZM309.569 80.8V139.84H313.569V80.8H309.569ZM309.569 139.84C309.569 159.714 314.954 175.202 326.975 185.668C338.938 196.083 357.108 201.2 381.969 201.2V197.2C357.549 197.2 340.52 192.157 329.602 182.652C318.743 173.198 313.569 159.006 313.569 139.84H309.569ZM381.969 201.2C406.754 201.2 424.922 196.041 436.902 185.608C448.94 175.125 454.369 159.64 454.369 139.84H450.369C450.369 158.92 445.158 173.115 434.275 182.592C423.335 192.119 406.303 197.2 381.969 197.2V201.2ZM454.369 139.84V80.8H450.369V139.84H454.369ZM575.446 150.72L574.794 148.829L575.326 152.716L575.446 150.72ZM459.606 80.8V78.8H457.606V80.8H459.606ZM459.606 196H457.606V198H459.606V196ZM499.606 196V198H501.606V196H499.606ZM499.606 166.56V164.56H497.606V166.56H499.606ZM556.886 196H554.886V198H556.886V196ZM596.886 196V198H598.886V196H596.886ZM499.606 134.56H497.606V136.56H499.606V134.56ZM499.606 112.8V110.8H497.606V112.8H499.606ZM576.098 152.611C583.379 150.1 589.133 146.11 593.044 140.319C596.945 134.542 598.886 127.16 598.886 118.08H594.886C594.886 126.6 593.067 133.138 589.729 138.081C586.4 143.01 581.434 146.54 574.794 148.829L576.098 152.611ZM598.886 118.08C598.886 105.53 594.748 95.5721 586.229 88.8133C577.793 82.1194 565.353 78.8 549.206 78.8V82.8C564.899 82.8 576.299 86.0406 583.743 91.9467C591.105 97.7879 594.886 106.47 594.886 118.08H598.886ZM549.206 78.8H459.606V82.8H549.206V78.8ZM457.606 80.8V196H461.606V80.8H457.606ZM459.606 198H499.606V194H459.606V198ZM501.606 196V166.56H497.606V196H501.606ZM499.606 168.56H544.086V164.56H499.606V168.56ZM544.086 168.56C549.18 168.56 551.591 169.318 552.883 170.665C554.201 172.037 554.886 174.556 554.886 179.68H558.886C558.886 174.564 558.292 170.523 555.769 167.895C553.222 165.242 549.232 164.56 544.086 164.56V168.56ZM554.886 179.68V196H558.886V179.68H554.886ZM556.886 198H596.886V194H556.886V198ZM598.886 196V172.96H594.886V196H598.886ZM598.886 172.96C598.886 165.675 596.716 159.767 592.568 155.573C588.433 151.394 582.557 149.145 575.566 148.724L575.326 152.716C581.616 153.095 586.459 155.086 589.724 158.387C592.976 161.673 594.886 166.484 594.886 172.96H598.886ZM539.606 114.8C541.869 114.8 543.874 114.802 545.657 114.962C547.441 115.122 548.846 115.431 549.932 115.959C550.967 116.462 551.751 117.179 552.31 118.289C552.892 119.446 553.286 121.146 553.286 123.68H557.286C557.286 120.774 556.841 118.394 555.883 116.491C554.901 114.541 553.445 113.218 551.68 112.361C549.966 111.529 548.011 111.158 546.015 110.978C544.019 110.798 541.823 110.8 539.606 110.8V114.8ZM553.286 123.68C553.286 126.214 552.892 127.914 552.31 129.071C551.751 130.181 550.967 130.898 549.932 131.401C548.846 131.929 547.441 132.238 545.657 132.398C543.874 132.558 541.869 132.56 539.606 132.56V136.56C541.823 136.56 544.019 136.562 546.015 136.382C548.011 136.202 549.966 135.831 551.68 134.999C553.445 134.142 554.901 132.819 555.883 130.869C556.841 128.966 557.286 126.586 557.286 123.68H553.286ZM539.606 132.56H499.606V136.56H539.606V132.56ZM501.606 134.56V112.8H497.606V134.56H501.606ZM499.606 114.8H539.606V110.8H499.606V114.8ZM768.715 135.68L768.021 133.804L762.005 136.029L768.22 137.618L768.715 135.68ZM659.275 80.8V78.8H657.275V80.8H659.275ZM659.275 196H657.275V198H659.275V196ZM699.275 126.24H697.275V128.24H699.275V126.24ZM699.275 109.6V107.6H697.275V109.6H699.275ZM699.275 167.2H697.275V169.2H699.275V167.2ZM699.275 150.56V148.56H697.275V150.56H699.275ZM769.409 137.556C775.497 135.304 780.797 131.921 784.58 127.165C788.382 122.385 790.555 116.338 790.555 108.96H786.555C786.555 115.502 784.648 120.655 781.45 124.675C778.233 128.719 773.613 131.736 768.021 133.804L769.409 137.556ZM790.555 108.96C790.555 100.25 788.067 92.5408 781.312 87.0842C774.652 81.7046 764.185 78.8 748.875 78.8V82.8C763.805 82.8 773.178 85.6554 778.798 90.1958C784.323 94.6592 786.555 101.03 786.555 108.96H790.555ZM748.875 78.8H659.275V82.8H748.875V78.8ZM657.275 80.8V196H661.275V80.8H657.275ZM659.275 198H755.275V194H659.275V198ZM755.275 198C769.864 198 780.339 194.662 787.182 188.597C794.065 182.495 796.955 173.917 796.955 164.16H792.955C792.955 173.123 790.325 180.465 784.528 185.603C778.691 190.778 769.326 194 755.275 194V198ZM796.955 164.16C796.955 155.229 793.782 148.503 788.619 143.556C783.515 138.667 776.588 135.628 769.21 133.742L768.22 137.618C775.242 139.412 781.435 142.213 785.851 146.444C790.208 150.617 792.955 156.291 792.955 164.16H796.955ZM736.075 111.6C737.938 111.6 739.546 111.601 740.959 111.723C742.375 111.844 743.432 112.076 744.22 112.448C744.954 112.795 745.48 113.274 745.857 114.017C746.26 114.809 746.555 116.024 746.555 117.92H750.555C750.555 115.656 750.21 113.751 749.423 112.203C748.61 110.606 747.396 109.525 745.93 108.832C744.518 108.164 742.915 107.876 741.301 107.737C739.684 107.599 737.892 107.6 736.075 107.6V111.6ZM746.555 117.92C746.555 119.816 746.26 121.031 745.857 121.823C745.48 122.566 744.954 123.045 744.22 123.392C743.432 123.764 742.375 123.996 740.959 124.117C739.546 124.239 737.938 124.24 736.075 124.24V128.24C737.892 128.24 739.684 128.241 741.301 128.103C742.915 127.964 744.518 127.676 745.93 127.008C747.396 126.315 748.61 125.234 749.423 123.637C750.21 122.089 750.555 120.184 750.555 117.92H746.555ZM736.075 124.24H699.275V128.24H736.075V124.24ZM701.275 126.24V109.6H697.275V126.24H701.275ZM699.275 111.6H736.075V107.6H699.275V111.6ZM701.275 167.2V150.56H697.275V167.2H701.275ZM699.275 152.56H742.475V148.56H699.275V152.56ZM742.475 152.56C743.938 152.56 745.233 152.562 746.404 152.68C747.573 152.798 748.47 153.02 749.152 153.374C749.789 153.706 750.293 154.179 750.667 154.946C751.061 155.755 751.355 156.988 751.355 158.88H755.355C755.355 156.612 755.009 154.725 754.263 153.194C753.497 151.621 752.361 150.534 750.998 149.826C749.68 149.14 748.217 148.842 746.806 148.7C745.397 148.558 743.892 148.56 742.475 148.56V152.56ZM751.355 158.88C751.355 160.772 751.061 162.005 750.667 162.814C750.293 163.581 749.789 164.054 749.152 164.386C748.47 164.74 747.573 164.962 746.404 165.08C745.233 165.198 743.938 165.2 742.475 165.2V169.2C743.892 169.2 745.397 169.202 746.806 169.06C748.217 168.918 749.68 168.62 750.998 167.934C752.361 167.226 753.497 166.139 754.263 164.566C755.009 163.035 755.355 161.148 755.355 158.88H751.355ZM742.475 165.2H699.275V169.2H742.475V165.2ZM913.934 150.72L913.282 148.829L913.813 152.716L913.934 150.72ZM798.094 80.8V78.8H796.094V80.8H798.094ZM798.094 196H796.094V198H798.094V196ZM838.094 196V198H840.094V196H838.094ZM838.094 166.56V164.56H836.094V166.56H838.094ZM895.374 196H893.374V198H895.374V196ZM935.374 196V198H937.374V196H935.374ZM838.094 134.56H836.094V136.56H838.094V134.56ZM838.094 112.8V110.8H836.094V112.8H838.094ZM914.586 152.611C921.866 150.1 927.62 146.11 931.531 140.319C935.433 134.542 937.374 127.16 937.374 118.08H933.374C933.374 126.6 931.555 133.138 928.216 138.081C924.887 143.01 919.921 146.54 913.282 148.829L914.586 152.611ZM937.374 118.08C937.374 105.53 933.235 95.5721 924.717 88.8133C916.281 82.1194 903.841 78.8 887.694 78.8V82.8C903.387 82.8 914.787 86.0406 922.231 91.9467C929.592 97.7879 933.374 106.47 933.374 118.08H937.374ZM887.694 78.8H798.094V82.8H887.694V78.8ZM796.094 80.8V196H800.094V80.8H796.094ZM798.094 198H838.094V194H798.094V198ZM840.094 196V166.56H836.094V196H840.094ZM838.094 168.56H882.574V164.56H838.094V168.56ZM882.574 168.56C887.668 168.56 890.078 169.318 891.371 170.665C892.688 172.037 893.374 174.556 893.374 179.68H897.374C897.374 174.564 896.779 170.523 894.256 167.895C891.709 165.242 887.72 164.56 882.574 164.56V168.56ZM893.374 179.68V196H897.374V179.68H893.374ZM895.374 198H935.374V194H895.374V198ZM937.374 196V172.96H933.374V196H937.374ZM937.374 172.96C937.374 165.675 935.204 159.767 931.056 155.573C926.921 151.394 921.044 149.145 914.054 148.724L913.813 152.716C920.103 153.095 924.946 155.086 928.212 158.387C931.464 161.673 933.374 166.484 933.374 172.96H937.374ZM878.094 114.8C880.357 114.8 882.361 114.802 884.145 114.962C885.929 115.122 887.334 115.431 888.42 115.959C889.455 116.462 890.239 117.179 890.797 118.289C891.379 119.446 891.774 121.146 891.774 123.68H895.774C895.774 120.774 895.328 118.394 894.37 116.491C893.389 114.541 891.933 113.218 890.168 112.361C888.454 111.529 886.499 111.158 884.503 110.978C882.506 110.798 880.31 110.8 878.094 110.8V114.8ZM891.774 123.68C891.774 126.214 891.379 127.914 890.797 129.071C890.239 130.181 889.455 130.898 888.42 131.401C887.334 131.929 885.929 132.238 884.145 132.398C882.361 132.558 880.357 132.56 878.094 132.56V136.56C880.31 136.56 882.506 136.562 884.503 136.382C886.499 136.202 888.454 135.831 890.168 134.999C891.933 134.142 893.389 132.819 894.37 130.869C895.328 128.966 895.774 126.586 895.774 123.68H891.774ZM878.094 132.56H838.094V136.56H878.094V132.56ZM840.094 134.56V112.8H836.094V134.56H840.094ZM838.094 114.8H878.094V110.8H838.094V114.8ZM1106.73 196V198H1109.91L1108.54 195.136L1106.73 196ZM1051.54 80.8L1053.34 79.9358L1052.79 78.8H1051.54V80.8ZM994.575 80.8V78.8H993.316L992.771 79.9358L994.575 80.8ZM939.375 196L937.571 195.136L936.199 198H939.375V196ZM981.935 196V198H983.207L983.746 196.848L981.935 196ZM991.375 175.84V173.84H990.103L989.564 174.992L991.375 175.84ZM1054.73 175.84L1056.55 174.992L1056.01 173.84H1054.73V175.84ZM1064.18 196L1062.36 196.848L1062.9 198H1064.18V196ZM1023.05 108.32L1024.86 107.468L1023.05 103.627L1021.25 107.468L1023.05 108.32ZM1041.3 147.04V149.04H1044.45L1043.1 146.188L1041.3 147.04ZM1004.82 147.04L1003.01 146.188L1001.66 149.04H1004.82V147.04ZM1108.54 195.136L1053.34 79.9358L1049.73 81.6642L1104.93 196.864L1108.54 195.136ZM1051.54 78.8H994.575V82.8H1051.54V78.8ZM992.771 79.9358L937.571 195.136L941.179 196.864L996.379 81.6642L992.771 79.9358ZM939.375 198H981.935V194H939.375V198ZM983.746 196.848L993.186 176.688L989.564 174.992L980.124 195.152L983.746 196.848ZM991.375 177.84H1054.73V173.84H991.375V177.84ZM1052.92 176.688L1062.36 196.848L1065.99 195.152L1056.55 174.992L1052.92 176.688ZM1064.18 198H1106.73V194H1064.18V198ZM1021.25 109.172L1039.49 147.892L1043.1 146.188L1024.86 107.468L1021.25 109.172ZM1041.3 145.04H1004.82V149.04H1041.3V145.04ZM1006.62 147.892L1024.86 109.172L1021.25 107.468L1003.01 146.188L1006.62 147.892ZM1223.09 156.96L1221.46 158.127L1225.09 163.171V156.96H1223.09ZM1168.37 80.8L1169.99 79.633L1169.39 78.8H1168.37V80.8ZM1109.17 80.8V78.8H1107.17V80.8H1109.17ZM1109.17 196H1107.17V198H1109.17V196ZM1149.17 196V198H1151.17V196H1149.17ZM1149.17 119.84L1150.79 118.673L1147.17 113.629V119.84H1149.17ZM1203.89 196L1202.26 197.167L1202.86 198H1203.89V196ZM1263.09 196V198H1265.09V196H1263.09ZM1263.09 80.8H1265.09V78.8H1263.09V80.8ZM1223.09 80.8V78.8H1221.09V80.8H1223.09ZM1224.71 155.793L1169.99 79.633L1166.74 81.967L1221.46 158.127L1224.71 155.793ZM1168.37 78.8H1109.17V82.8H1168.37V78.8ZM1107.17 80.8V196H1111.17V80.8H1107.17ZM1109.17 198H1149.17V194H1109.17V198ZM1151.17 196V119.84H1147.17V196H1151.17ZM1147.54 121.007L1202.26 197.167L1205.51 194.833L1150.79 118.673L1147.54 121.007ZM1203.89 198H1263.09V194H1203.89V198ZM1265.09 196V80.8H1261.09V196H1265.09ZM1263.09 78.8H1223.09V82.8H1263.09V78.8ZM1221.09 80.8V156.96H1225.09V80.8H1221.09ZM1271.89 80.8V78.8H1269.89V80.8H1271.89ZM1271.89 196H1269.89V198H1271.89V196ZM1311.89 162.4H1309.89V164.4H1311.89V162.4ZM1311.89 114.4V112.4H1309.89V114.4H1311.89ZM1355.09 78.8H1271.89V82.8H1355.09V78.8ZM1269.89 80.8V196H1273.89V80.8H1269.89ZM1271.89 198H1355.09V194H1271.89V198ZM1355.09 198C1369.05 198 1382.69 193.374 1392.87 183.516C1403.06 173.638 1409.57 158.687 1409.57 138.4H1405.57C1405.57 157.793 1399.37 171.642 1390.08 180.644C1380.77 189.666 1368.18 194 1355.09 194V198ZM1409.57 138.4C1409.57 118.113 1403.06 103.162 1392.87 93.2838C1382.69 83.4263 1369.05 78.8 1355.09 78.8V82.8C1368.18 82.8 1380.77 87.1337 1390.08 96.1562C1399.37 105.158 1405.57 119.007 1405.57 138.4H1409.57ZM1313.89 162.4V114.4H1309.89V162.4H1313.89ZM1311.89 116.4H1339.09V112.4H1311.89V116.4ZM1339.09 116.4C1345.31 116.4 1351.45 116.45 1356.09 119.132C1360.46 121.65 1363.97 126.822 1363.97 138.4H1367.97C1367.97 125.978 1364.13 119.15 1358.09 115.668C1352.34 112.35 1345.03 112.4 1339.09 112.4V116.4ZM1363.97 138.4C1363.97 149.978 1360.46 155.15 1356.09 157.668C1351.45 160.35 1345.31 160.4 1339.09 160.4V164.4C1345.03 164.4 1352.34 164.45 1358.09 161.132C1364.13 157.65 1367.97 150.822 1367.97 138.4H1363.97ZM1339.09 160.4H1311.89V164.4H1339.09V160.4ZM257.378 258.6V260.6H259.378V258.6H257.378ZM191.778 258.6H189.778V260.6H191.778V258.6ZM191.778 217.8H193.778V215.8H191.778V217.8ZM151.778 217.8V215.8H149.778V217.8H151.778ZM151.778 333H149.778V335H151.778V333ZM191.778 333V335H193.778V333H191.778ZM191.778 292.2V290.2H189.778V292.2H191.778ZM257.378 292.2H259.378V290.2H257.378V292.2ZM257.378 333H255.378V335H257.378V333ZM297.378 333V335H299.378V333H297.378ZM297.378 217.8H299.378V215.8H297.378V217.8ZM257.378 217.8V215.8H255.378V217.8H257.378ZM257.378 256.6H191.778V260.6H257.378V256.6ZM193.778 258.6V217.8H189.778V258.6H193.778ZM191.778 215.8H151.778V219.8H191.778V215.8ZM149.778 217.8V333H153.778V217.8H149.778ZM151.778 335H191.778V331H151.778V335ZM193.778 333V292.2H189.778V333H193.778ZM191.778 294.2H257.378V290.2H191.778V294.2ZM255.378 292.2V333H259.378V292.2H255.378ZM257.378 335H297.378V331H257.378V335ZM299.378 333V217.8H295.378V333H299.378ZM297.378 215.8H257.378V219.8H297.378V215.8ZM255.378 217.8V258.6H259.378V217.8H255.378ZM467.138 333V335H470.314L468.942 332.136L467.138 333ZM411.938 217.8L413.742 216.936L413.198 215.8H411.938V217.8ZM354.978 217.8V215.8H353.719L353.174 216.936L354.978 217.8ZM299.778 333L297.974 332.136L296.602 335H299.778V333ZM342.338 333V335H343.61L344.149 333.848L342.338 333ZM351.778 312.84V310.84H350.506L349.967 311.992L351.778 312.84ZM415.138 312.84L416.949 311.992L416.41 310.84H415.138V312.84ZM424.578 333L422.767 333.848L423.306 335H424.578V333ZM383.458 245.32L385.267 244.468L383.458 240.627L381.649 244.468L383.458 245.32ZM401.698 284.04V286.04H404.851L403.507 283.188L401.698 284.04ZM365.218 284.04L363.409 283.188L362.065 286.04H365.218V284.04ZM468.942 332.136L413.742 216.936L410.134 218.664L465.334 333.864L468.942 332.136ZM411.938 215.8H354.978V219.8H411.938V215.8ZM353.174 216.936L297.974 332.136L301.582 333.864L356.782 218.664L353.174 216.936ZM299.778 335H342.338V331H299.778V335ZM344.149 333.848L353.589 313.688L349.967 311.992L340.527 332.152L344.149 333.848ZM351.778 314.84H415.138V310.84H351.778V314.84ZM413.327 313.688L422.767 333.848L426.389 332.152L416.949 311.992L413.327 313.688ZM424.578 335H467.138V331H424.578V335ZM381.649 246.172L399.889 284.892L403.507 283.188L385.267 244.468L381.649 246.172ZM401.698 282.04H365.218V286.04H401.698V282.04ZM367.027 284.892L385.267 246.172L381.649 244.468L363.409 283.188L367.027 284.892ZM458.441 295.08V293.08H456.331L456.443 295.186L458.441 295.08ZM533.161 259.72L532.987 261.712L532.989 261.713L533.161 259.72ZM555.081 253.8H553.081V255.8H555.081V253.8ZM596.681 253.8V255.8H598.81L598.677 253.674L596.681 253.8ZM526.761 289.48L526.912 287.486L526.907 287.485L526.761 289.48ZM500.041 295.08H502.041V293.08H500.041V295.08ZM456.443 295.186C456.859 303.005 458.927 309.691 462.618 315.295C466.307 320.897 471.548 325.311 478.147 328.699C491.28 335.441 509.951 338.2 533.161 338.2V334.2C510.13 334.2 492.241 331.439 479.974 325.141C473.874 322.009 469.204 318.023 465.958 313.095C462.714 308.169 460.822 302.195 460.438 294.974L456.443 295.186ZM533.161 338.2C554.588 338.2 572.07 335.847 584.253 329.6C590.385 326.455 595.224 322.3 598.518 316.928C601.812 311.556 603.481 305.098 603.481 297.48H599.481C599.481 304.502 597.949 310.204 595.108 314.837C592.267 319.47 588.036 323.165 582.428 326.04C571.131 331.833 554.454 334.2 533.161 334.2V338.2ZM603.481 297.48C603.481 289.458 601.7 283.041 598.219 277.923C594.742 272.81 589.693 269.177 583.47 266.503C571.151 261.208 553.708 259.478 533.332 257.727L532.989 261.713C553.573 263.482 570.29 265.192 581.891 270.177C587.629 272.643 591.979 275.859 594.912 280.172C597.841 284.479 599.481 290.062 599.481 297.48H603.481ZM533.334 257.728C519.528 256.524 511.875 255.455 507.682 254.133C505.594 253.474 504.646 252.834 504.197 252.324C503.822 251.898 503.641 251.389 503.641 250.44H499.641C499.641 251.971 499.959 253.562 501.194 254.966C502.355 256.286 504.127 257.206 506.479 257.947C511.166 259.425 519.273 260.516 532.987 261.712L533.334 257.728ZM503.641 250.44C503.641 249.802 503.789 249.33 504.131 248.904C504.505 248.437 505.253 247.853 506.768 247.298C509.854 246.168 515.428 245.4 525.161 245.4V241.4C515.373 241.4 509.187 242.152 505.393 243.542C503.468 244.247 501.996 245.173 501.011 246.401C499.993 247.67 499.641 249.078 499.641 250.44H503.641ZM525.161 245.4C535.293 245.4 542.493 246.127 547.104 247.676C549.392 248.445 550.882 249.366 551.789 250.354C552.651 251.294 553.081 252.394 553.081 253.8H557.081C557.081 251.446 556.311 249.366 554.737 247.651C553.209 245.984 551.029 244.775 548.378 243.884C543.108 242.113 535.348 241.4 525.161 241.4V245.4ZM555.081 255.8H596.681V251.8H555.081V255.8ZM598.677 253.674C597.83 240.205 590.823 229.824 578.265 222.908C565.822 216.055 547.953 212.6 525.161 212.6V216.6C547.648 216.6 564.739 220.025 576.336 226.412C587.818 232.736 593.932 241.955 594.685 253.926L598.677 253.674ZM525.161 212.6C505.323 212.6 488.675 215.657 476.909 221.85C465.05 228.093 458.041 237.614 458.041 250.28H462.041C462.041 239.426 467.911 231.107 478.772 225.39C489.726 219.623 505.638 216.6 525.161 216.6V212.6ZM458.041 250.28C458.041 256.959 459.41 262.761 462.301 267.737C465.193 272.714 469.531 276.732 475.258 279.962C486.629 286.374 503.692 289.792 526.614 291.475L526.907 287.485C504.069 285.808 487.772 282.426 477.223 276.478C471.991 273.528 468.228 269.976 465.76 265.728C463.291 261.479 462.041 256.401 462.041 250.28H458.041ZM526.609 291.474C541.418 292.601 549.449 293.432 553.801 294.7C555.954 295.327 556.855 295.97 557.277 296.503C557.666 296.995 557.881 297.685 557.881 299.08H561.881C561.881 297.355 561.635 295.565 560.414 294.022C559.226 292.52 557.367 291.573 554.92 290.86C550.072 289.448 541.543 288.599 526.912 287.486L526.609 291.474ZM557.881 299.08C557.881 300.069 557.7 300.746 557.298 301.303C556.882 301.881 556.05 302.573 554.275 303.221C550.641 304.548 543.882 305.4 531.561 305.4V309.4C543.879 309.4 551.28 308.572 555.646 306.979C557.871 306.167 559.5 305.089 560.543 303.642C561.602 302.174 561.881 300.571 561.881 299.08H557.881ZM531.561 305.4C519.807 305.4 512.267 304.08 507.737 302.054C505.496 301.052 504.087 299.919 503.24 298.781C502.411 297.667 502.041 296.443 502.041 295.08H498.041C498.041 297.237 498.65 299.313 500.031 301.169C501.394 303.001 503.425 304.508 506.104 305.706C511.414 308.08 519.635 309.4 531.561 309.4V305.4ZM500.041 293.08H458.441V297.08H500.041V293.08ZM796.647 217.8H798.647V215.8H796.647V217.8ZM659.047 217.8V215.8H657.047V217.8H659.047ZM659.047 251.4H657.047V253.4H659.047V251.4ZM707.847 251.4H709.847V249.4H707.847V251.4ZM707.847 333H705.847V335H707.847V333ZM747.847 333V335H749.847V333H747.847ZM747.847 251.4V249.4H745.847V251.4H747.847ZM796.647 251.4V253.4H798.647V251.4H796.647ZM796.647 215.8H659.047V219.8H796.647V215.8ZM657.047 217.8V251.4H661.047V217.8H657.047ZM659.047 253.4H707.847V249.4H659.047V253.4ZM705.847 251.4V333H709.847V251.4H705.847ZM707.847 335H747.847V331H707.847V335ZM749.847 333V251.4H745.847V333H749.847ZM747.847 253.4H796.647V249.4H747.847V253.4ZM798.647 251.4V217.8H794.647V251.4H798.647ZM872.597 338.2C896.635 338.2 915.939 332.619 929.273 321.856C942.668 311.044 949.797 295.196 949.797 275.24H945.797C945.797 294.164 939.086 308.796 926.761 318.744C914.375 328.741 896.079 334.2 872.597 334.2V338.2ZM949.797 275.24C949.797 255.361 942.666 239.591 929.269 228.84C915.935 218.14 896.632 212.6 872.597 212.6V216.6C896.082 216.6 914.379 222.02 926.765 231.96C939.088 241.849 945.797 256.399 945.797 275.24H949.797ZM872.597 212.6C848.487 212.6 829.182 218.098 815.865 228.78C802.484 239.514 795.397 255.286 795.397 275.24H799.397C799.397 256.314 806.07 241.766 818.368 231.9C830.732 221.982 849.027 216.6 872.597 216.6V212.6ZM795.397 275.24C795.397 295.27 802.482 311.121 815.861 321.917C829.177 332.661 848.484 338.2 872.597 338.2V334.2C849.03 334.2 830.736 328.779 818.373 318.803C806.072 308.879 799.397 294.249 799.397 275.24H795.397ZM872.597 300.6C859.829 300.6 852.025 297.62 847.403 293.178C842.799 288.753 840.997 282.533 840.997 275.24H836.997C836.997 283.147 838.955 290.607 844.631 296.062C850.289 301.5 859.284 304.6 872.597 304.6V300.6ZM840.997 275.24C840.997 268.022 842.76 261.89 847.337 257.528C851.936 253.144 859.739 250.2 872.597 250.2V246.2C859.214 246.2 850.218 249.256 844.577 254.632C838.913 260.03 836.997 267.418 836.997 275.24H840.997ZM872.597 250.2C885.448 250.2 893.252 253.181 897.854 257.585C902.435 261.969 904.197 268.107 904.197 275.24H908.197C908.197 267.493 906.278 260.111 900.62 254.695C894.981 249.299 885.986 246.2 872.597 246.2V250.2ZM904.197 275.24C904.197 282.449 902.397 288.673 897.788 293.121C893.163 297.584 885.358 300.6 872.597 300.6V304.6C885.916 304.6 894.911 301.456 900.566 295.999C906.236 290.527 908.197 283.071 908.197 275.24H904.197ZM1116.39 272.68L1115.69 270.804L1109.68 273.029L1115.89 274.618L1116.39 272.68ZM1006.95 217.8V215.8H1004.95V217.8H1006.95ZM1006.95 333H1004.95V335H1006.95V333ZM1046.95 263.24H1044.95V265.24H1046.95V263.24ZM1046.95 246.6V244.6H1044.95V246.6H1046.95ZM1046.95 304.2H1044.95V306.2H1046.95V304.2ZM1046.95 287.56V285.56H1044.95V287.56H1046.95ZM1117.08 274.556C1123.17 272.304 1128.47 268.921 1132.25 264.165C1136.05 259.385 1138.23 253.338 1138.23 245.96H1134.23C1134.23 252.502 1132.32 257.655 1129.12 261.675C1125.9 265.719 1121.28 268.736 1115.69 270.804L1117.08 274.556ZM1138.23 245.96C1138.23 237.25 1135.74 229.541 1128.98 224.084C1122.32 218.705 1111.86 215.8 1096.55 215.8V219.8C1111.48 219.8 1120.85 222.655 1126.47 227.196C1132 231.659 1134.23 238.03 1134.23 245.96H1138.23ZM1096.55 215.8H1006.95V219.8H1096.55V215.8ZM1004.95 217.8V333H1008.95V217.8H1004.95ZM1006.95 335H1102.95V331H1006.95V335ZM1102.95 335C1117.54 335 1128.01 331.662 1134.85 325.597C1141.74 319.495 1144.63 310.917 1144.63 301.16H1140.63C1140.63 310.123 1138 317.465 1132.2 322.603C1126.36 327.778 1117 331 1102.95 331V335ZM1144.63 301.16C1144.63 292.229 1141.45 285.503 1136.29 280.556C1131.19 275.667 1124.26 272.628 1116.88 270.742L1115.89 274.618C1122.91 276.412 1129.11 279.213 1133.52 283.444C1137.88 287.617 1140.63 293.291 1140.63 301.16H1144.63ZM1083.75 248.6C1085.61 248.6 1087.22 248.601 1088.63 248.723C1090.05 248.844 1091.1 249.076 1091.89 249.448C1092.63 249.795 1093.15 250.274 1093.53 251.017C1093.93 251.809 1094.23 253.024 1094.23 254.92H1098.23C1098.23 252.656 1097.88 250.751 1097.09 249.203C1096.28 247.606 1095.07 246.525 1093.6 245.832C1092.19 245.164 1090.59 244.876 1088.97 244.737C1087.36 244.599 1085.56 244.6 1083.75 244.6V248.6ZM1094.23 254.92C1094.23 256.816 1093.93 258.031 1093.53 258.823C1093.15 259.566 1092.63 260.045 1091.89 260.392C1091.1 260.764 1090.05 260.996 1088.63 261.117C1087.22 261.239 1085.61 261.24 1083.75 261.24V265.24C1085.56 265.24 1087.36 265.241 1088.97 265.103C1090.59 264.964 1092.19 264.676 1093.6 264.008C1095.07 263.315 1096.28 262.234 1097.09 260.637C1097.88 259.089 1098.23 257.184 1098.23 254.92H1094.23ZM1083.75 261.24H1046.95V265.24H1083.75V261.24ZM1048.95 263.24V246.6H1044.95V263.24H1048.95ZM1046.95 248.6H1083.75V244.6H1046.95V248.6ZM1048.95 304.2V287.56H1044.95V304.2H1048.95ZM1046.95 289.56H1090.15V285.56H1046.95V289.56ZM1090.15 289.56C1091.61 289.56 1092.91 289.562 1094.08 289.68C1095.24 289.798 1096.14 290.02 1096.82 290.374C1097.46 290.706 1097.97 291.179 1098.34 291.946C1098.73 292.755 1099.03 293.988 1099.03 295.88H1103.03C1103.03 293.612 1102.68 291.725 1101.93 290.194C1101.17 288.621 1100.03 287.534 1098.67 286.826C1097.35 286.14 1095.89 285.842 1094.48 285.7C1093.07 285.558 1091.56 285.56 1090.15 285.56V289.56ZM1099.03 295.88C1099.03 297.772 1098.73 299.005 1098.34 299.814C1097.97 300.581 1097.46 301.054 1096.82 301.386C1096.14 301.74 1095.24 301.962 1094.08 302.08C1092.91 302.198 1091.61 302.2 1090.15 302.2V306.2C1091.56 306.2 1093.07 306.202 1094.48 306.06C1095.89 305.918 1097.35 305.62 1098.67 304.934C1100.03 304.226 1101.17 303.139 1101.93 301.566C1102.68 300.035 1103.03 298.148 1103.03 295.88H1099.03ZM1090.15 302.2H1046.95V306.2H1090.15V302.2ZM1264.17 217.8H1266.17V215.8H1264.17V217.8ZM1145.77 217.8V215.8H1143.77V217.8H1145.77ZM1145.77 333H1143.77V335H1145.77V333ZM1264.17 333V335H1266.17V333H1264.17ZM1264.17 302.6H1266.17V300.6H1264.17V302.6ZM1185.77 302.6H1183.77V304.6H1185.77V302.6ZM1185.77 290.6V288.6H1183.77V290.6H1185.77ZM1260.97 290.6V292.6H1262.97V290.6H1260.97ZM1260.97 260.2H1262.97V258.2H1260.97V260.2ZM1185.77 260.2H1183.77V262.2H1185.77V260.2ZM1185.77 248.2V246.2H1183.77V248.2H1185.77ZM1264.17 248.2V250.2H1266.17V248.2H1264.17ZM1264.17 215.8H1145.77V219.8H1264.17V215.8ZM1143.77 217.8V333H1147.77V217.8H1143.77ZM1145.77 335H1264.17V331H1145.77V335ZM1266.17 333V302.6H1262.17V333H1266.17ZM1264.17 300.6H1185.77V304.6H1264.17V300.6ZM1187.77 302.6V290.6H1183.77V302.6H1187.77ZM1185.77 292.6H1260.97V288.6H1185.77V292.6ZM1262.97 290.6V260.2H1258.97V290.6H1262.97ZM1260.97 258.2H1185.77V262.2H1260.97V258.2ZM1187.77 260.2V248.2H1183.77V260.2H1187.77ZM1185.77 250.2H1264.17V246.2H1185.77V250.2ZM1266.17 248.2V217.8H1262.17V248.2H1266.17Z" fill="white"></path><path d="M306.66 19.68C306.66 27.625 311.805 32.7 322.445 32.7C331.79 32.7 336.585 28.43 337.355 23.04H332.49C331.825 26.54 328.395 28.71 322.445 28.71C315.655 28.71 311.49 26.05 311.49 19.68C311.49 13.31 315.62 10.685 322.445 10.685C328.43 10.685 331.825 12.785 332.49 16.285H337.32C336.585 10.93 331.79 6.695 322.445 6.695C311.805 6.695 306.66 11.735 306.66 19.68ZM363.673 21.255C366.193 20.205 367.698 18.175 367.698 14.815C367.698 9.53 363.918 7.395 358.178 7.395H339.803V32H344.283V23.705H359.508C362.308 23.705 362.938 24.335 362.938 26.82V32H367.383V25.735C367.383 23.215 366.088 21.64 363.673 21.255ZM357.023 11.35C359.578 11.35 362.903 11.35 362.903 15.55C362.903 19.785 359.578 19.785 357.023 19.785H344.283V11.35H357.023ZM385.607 32.7C396.317 32.7 401.427 27.555 401.427 19.68C401.427 11.805 396.317 6.695 385.607 6.695C374.862 6.695 369.752 11.77 369.752 19.68C369.752 27.59 374.862 32.7 385.607 32.7ZM385.607 28.71C378.677 28.71 374.582 26.05 374.582 19.68C374.582 13.31 378.642 10.685 385.607 10.685C392.572 10.685 396.632 13.345 396.632 19.68C396.632 26.015 392.537 28.71 385.607 28.71ZM403.852 7.395V32H408.332V7.395H403.852ZM437.908 27.73L418.168 7.395H411.763V32H416.243V11.665L435.983 32H442.388V7.395H437.908V27.73ZM444.787 19.715C444.787 27.66 450.912 32.7 460.957 32.7C466.207 32.7 470.197 31.685 475.482 28.815V19.19H460.257V22.9H470.932V26.89C467.852 28.22 465.402 28.815 460.992 28.815C451.262 28.815 449.617 22.795 449.617 19.75C449.617 16.705 450.947 10.685 460.572 10.685C466.557 10.685 469.952 12.82 470.652 16.18H475.482C474.782 10.965 469.847 6.695 460.572 6.695C450.597 6.695 444.787 11.77 444.787 19.715ZM490.626 37.25H494.931V4H490.626V37.25ZM540.128 7.395H510.028V11.385H522.873V32H527.318V11.385H540.128V7.395ZM542.282 7.395V32H546.762V7.395H542.282ZM572.873 7.395L554.673 21.64V7.395H550.193V32H554.673V27.205L562.338 21.22L573.643 32H579.978L565.838 18.455L579.978 7.395H572.873ZM611.198 7.395H581.098V11.385H593.943V32H598.388V11.385H611.198V7.395ZM626.944 32.7C637.654 32.7 642.764 27.555 642.764 19.68C642.764 11.805 637.654 6.695 626.944 6.695C616.199 6.695 611.089 11.77 611.089 19.68C611.089 27.59 616.199 32.7 626.944 32.7ZM626.944 28.71C620.014 28.71 615.919 26.05 615.919 19.68C615.919 13.31 619.979 10.685 626.944 10.685C633.909 10.685 637.969 13.345 637.969 19.68C637.969 26.015 633.874 28.71 626.944 28.71ZM667.869 7.395L649.669 21.64V7.395H645.189V32H649.669V27.205L657.334 21.22L668.639 32H674.974L660.834 18.455L674.974 7.395H667.869ZM709.103 7.395H690.063V32H694.543V25H709.103C714.773 25 718.588 21.71 718.588 16.215C718.588 10.685 714.773 7.395 709.103 7.395ZM694.543 21.01V11.385H707.318C709.838 11.385 713.758 11.385 713.758 16.215C713.758 21.01 709.838 21.01 707.318 21.01H694.543ZM749.318 32L735.073 7.395H729.403L715.158 32H720.268L723.313 26.68H741.198L744.243 32H749.318ZM732.238 11.105L738.958 22.83H725.518L732.238 11.105ZM774.666 21.255C777.186 20.205 778.691 18.175 778.691 14.815C778.691 9.53 774.911 7.395 769.171 7.395H750.796V32H755.276V23.705H770.501C773.301 23.705 773.931 24.335 773.931 26.82V32H778.376V25.735C778.376 23.215 777.081 21.64 774.666 21.255ZM768.016 11.35C770.571 11.35 773.896 11.35 773.896 15.55C773.896 19.785 770.571 19.785 768.016 19.785H755.276V11.35H768.016ZM809.614 7.395H779.514V11.385H792.359V32H796.804V11.385H809.614V7.395ZM837.914 27.73L818.174 7.395H811.769V32H816.249V11.665L835.989 32H842.394V7.395H837.914V27.73ZM871.727 7.395H845.827V32H871.727V28.115H850.307V21.64H871.027V17.755H850.307V11.315H871.727V7.395ZM898.423 21.255C900.943 20.205 902.448 18.175 902.448 14.815C902.448 9.53 898.668 7.395 892.928 7.395H874.553V32H879.033V23.705H894.258C897.058 23.705 897.688 24.335 897.688 26.82V32H902.133V25.735C902.133 23.215 900.838 21.64 898.423 21.255ZM891.773 11.35C894.328 11.35 897.653 11.35 897.653 15.55C897.653 19.785 894.328 19.785 891.773 19.785H879.033V11.35H891.773ZM952.04 32L937.795 7.395H932.125L917.88 32H922.99L926.035 26.68H943.92L946.965 32H952.04ZM934.96 11.105L941.68 22.83H928.24L934.96 11.105ZM950.366 19.715C950.366 27.66 956.491 32.7 966.536 32.7C971.786 32.7 975.776 31.685 981.061 28.815V19.19H965.836V22.9H976.511V26.89C973.431 28.22 970.981 28.815 966.571 28.815C956.841 28.815 955.196 22.795 955.196 19.75C955.196 16.705 956.526 10.685 966.151 10.685C972.136 10.685 975.531 12.82 976.231 16.18H981.061C980.361 10.965 975.426 6.695 966.151 6.695C956.176 6.695 950.366 11.77 950.366 19.715ZM1009.79 7.395H983.885V32H1009.79V28.115H988.365V21.64H1009.09V17.755H988.365V11.315H1009.79V7.395ZM1038.76 27.73L1019.02 7.395H1012.61V32H1017.09V11.665L1036.83 32H1043.24V7.395H1038.76V27.73ZM1045.64 19.68C1045.64 27.625 1050.78 32.7 1061.42 32.7C1070.77 32.7 1075.56 28.43 1076.33 23.04H1071.47C1070.8 26.54 1067.37 28.71 1061.42 28.71C1054.63 28.71 1050.47 26.05 1050.47 19.68C1050.47 13.31 1054.6 10.685 1061.42 10.685C1067.41 10.685 1070.8 12.785 1071.47 16.285H1076.3C1075.56 10.93 1070.77 6.695 1061.42 6.695C1050.78 6.695 1045.64 11.735 1045.64 19.68ZM1091.34 20.065L1080.11 7.395H1074.19L1088.93 23.915V32H1093.72V23.915L1108.46 7.395H1102.54L1091.34 20.065Z" fill="white"></path></svg>