<svg xmlns="http://www.w3.org/2000/svg" width="820" height="300" viewBox="0 0 820 300" fill="none"><rect y="60" width="820" height="226" rx="20" fill="#25F4EE"></rect><path d="M211.746 27.12L189.186 3.88H181.866V32H186.986V8.76L209.546 32H216.866V3.88H211.746V27.12ZM240.328 32.8C252.568 32.8 258.408 26.92 258.408 17.92C258.408 8.92 252.568 3.08 240.328 3.08C228.048 3.08 222.208 8.88 222.208 17.92C222.208 26.96 228.048 32.8 240.328 32.8ZM240.328 28.24C232.408 28.24 227.728 25.2 227.728 17.92C227.728 10.64 232.368 7.64 240.328 7.64C248.288 7.64 252.928 10.68 252.928 17.92C252.928 25.16 248.248 28.24 240.328 28.24ZM295.28 3.88H260.88V8.44H275.56V32H280.64V8.44H295.28V3.88ZM317.364 22.88C317.764 30.4 324.924 32.8 336.404 32.8C345.684 32.8 353.124 31.12 353.124 23.8C353.124 16.8 346.284 16.28 335.364 15.52C326.044 14.88 323.964 14.16 323.964 11.44C323.964 8.84 326.044 7.48 334.244 7.48C343.004 7.48 346.444 8.92 346.444 12.56H351.924C351.884 6.2 345.364 3.08 334.924 3.08C324.924 3.08 318.484 5.08 318.484 11.2C318.484 17.36 323.364 19.28 335.164 19.96C345.684 20.6 347.644 21.08 347.644 24.08C347.644 26.88 344.604 28.4 336.364 28.4C326.004 28.4 322.884 26.36 322.884 22.88H317.364ZM393.316 3.88H388.236V18.24C388.236 22.68 387.116 28.24 375.716 28.24C364.356 28.24 363.236 22.72 363.236 18.24V3.88H358.116V18.32C358.116 28.08 363.396 32.8 375.716 32.8C387.996 32.8 393.316 28.04 393.316 18.32V3.88ZM426.763 19.72C429.643 18.52 431.363 16.2 431.363 12.36C431.363 6.32 427.043 3.88 420.483 3.88H399.483V32H404.603V22.52H422.003C425.203 22.52 425.923 23.24 425.923 26.08V32H431.003V24.84C431.003 21.96 429.523 20.16 426.763 19.72ZM419.163 8.4C422.083 8.4 425.883 8.4 425.883 13.2C425.883 18.04 422.083 18.04 419.163 18.04H404.603V8.4H419.163ZM467.091 3.88H437.491V32H467.091V27.56H442.611V20.16H466.291V15.72H442.611V8.36H467.091V3.88ZM508.839 18.36L495.999 3.88H489.239L506.079 22.76V32H511.559V22.76L528.399 3.88H521.639L508.839 18.36ZM562.169 3.88H532.569V32H562.169V27.56H537.689V20.16H561.369V15.72H537.689V8.36H562.169V3.88ZM601.569 3.88H567.169V8.44H581.849V32H586.929V8.44H601.569V3.88ZM623.062 23.8C623.062 17.44 637.142 20.08 637.142 11.16C637.142 5.52 631.782 3.08 622.742 3.08C613.782 3.08 607.102 5.84 607.022 14.32H612.422C612.422 9.32 615.702 7.44 623.022 7.44C629.422 7.44 631.662 9.08 631.662 11.24C631.662 17.08 617.662 14.08 617.662 23.8H623.062ZM617.662 32H622.742V27.6H617.662V32Z" fill="white"></path><path d="M232.52 128.22H241.76C242.833 128.22 243.907 128.302 244.98 128.465C246.077 128.605 247.057 128.908 247.92 129.375C248.783 129.818 249.483 130.448 250.02 131.265C250.557 132.082 250.825 133.167 250.825 134.52C250.825 135.92 250.428 137.087 249.635 138.02C248.865 138.93 247.838 139.583 246.555 139.98V140.05C247.372 140.167 248.107 140.4 248.76 140.75C249.437 141.077 250.008 141.508 250.475 142.045C250.965 142.558 251.338 143.165 251.595 143.865C251.852 144.565 251.98 145.312 251.98 146.105C251.98 147.412 251.7 148.508 251.14 149.395C250.58 150.258 249.857 150.958 248.97 151.495C248.083 152.032 247.08 152.417 245.96 152.65C244.863 152.883 243.767 153 242.67 153H232.52V128.22ZM237.98 138.125H241.935C242.355 138.125 242.763 138.078 243.16 137.985C243.58 137.892 243.953 137.74 244.28 137.53C244.607 137.32 244.863 137.04 245.05 136.69C245.26 136.34 245.365 135.92 245.365 135.43C245.365 134.917 245.248 134.497 245.015 134.17C244.805 133.82 244.525 133.552 244.175 133.365C243.825 133.178 243.428 133.05 242.985 132.98C242.542 132.887 242.11 132.84 241.69 132.84H237.98V138.125ZM237.98 148.38H242.88C243.3 148.38 243.72 148.333 244.14 148.24C244.583 148.147 244.98 147.983 245.33 147.75C245.68 147.517 245.96 147.213 246.17 146.84C246.403 146.467 246.52 146.012 246.52 145.475C246.52 144.892 246.368 144.425 246.065 144.075C245.785 143.702 245.423 143.422 244.98 143.235C244.537 143.048 244.058 142.92 243.545 142.85C243.032 142.78 242.553 142.745 242.11 142.745H237.98V148.38ZM255.215 128.22H264.805C266.065 128.22 267.255 128.348 268.375 128.605C269.519 128.838 270.51 129.247 271.35 129.83C272.214 130.39 272.89 131.16 273.38 132.14C273.894 133.097 274.15 134.298 274.15 135.745C274.15 137.495 273.695 138.988 272.785 140.225C271.875 141.438 270.545 142.208 268.795 142.535L275.095 153H268.55L263.37 143.095H260.675V153H255.215V128.22ZM260.675 138.475H263.895C264.385 138.475 264.899 138.463 265.435 138.44C265.995 138.393 266.497 138.288 266.94 138.125C267.384 137.938 267.745 137.658 268.025 137.285C268.329 136.912 268.48 136.387 268.48 135.71C268.48 135.08 268.352 134.578 268.095 134.205C267.839 133.832 267.512 133.552 267.115 133.365C266.719 133.155 266.264 133.015 265.75 132.945C265.237 132.875 264.735 132.84 264.245 132.84H260.675V138.475ZM286.066 128.22H290.581L301.361 153H295.201L293.066 147.75H283.441L281.376 153H275.356L286.066 128.22ZM288.166 135.43L285.156 143.13H291.211L288.166 135.43ZM303.853 128.22H311.273L321.808 145.44H321.878V128.22H327.338V153H320.198L309.383 135.36H309.313V153H303.853V128.22ZM332.393 128.22H340.583C342.566 128.22 344.445 128.442 346.218 128.885C348.015 129.328 349.578 130.052 350.908 131.055C352.238 132.035 353.288 133.318 354.058 134.905C354.851 136.492 355.248 138.417 355.248 140.68C355.248 142.687 354.863 144.46 354.093 146C353.346 147.517 352.331 148.8 351.048 149.85C349.765 150.877 348.283 151.658 346.603 152.195C344.923 152.732 343.161 153 341.318 153H332.393V128.22ZM337.853 147.96H340.688C341.948 147.96 343.115 147.832 344.188 147.575C345.285 147.318 346.23 146.898 347.023 146.315C347.816 145.708 348.435 144.927 348.878 143.97C349.345 142.99 349.578 141.8 349.578 140.4C349.578 139.187 349.345 138.137 348.878 137.25C348.435 136.34 347.828 135.593 347.058 135.01C346.288 134.427 345.378 133.995 344.328 133.715C343.301 133.412 342.216 133.26 341.073 133.26H337.853V147.96ZM377.462 128.22H381.977L392.757 153H386.597L384.462 147.75H374.837L372.772 153H366.752L377.462 128.22ZM379.562 135.43L376.552 143.13H382.607L379.562 135.43ZM395.249 128.22H402.669L413.204 145.44H413.274V128.22H418.734V153H411.594L400.779 135.36H400.709V153H395.249V128.22ZM431.945 128.22H436.46L447.24 153H441.08L438.945 147.75H429.32L427.255 153H421.235L431.945 128.22ZM434.045 135.43L431.035 143.13H437.09L434.045 135.43ZM449.942 128.22H455.402V147.96H465.517V153H449.942V128.22ZM470.724 142.43L461.414 128.22H468.204L473.454 137.495L479.019 128.22H485.494L476.184 142.43V153H470.724V142.43ZM499.58 134.275C499.136 133.715 498.53 133.307 497.76 133.05C497.013 132.77 496.301 132.63 495.625 132.63C495.228 132.63 494.82 132.677 494.4 132.77C493.98 132.863 493.583 133.015 493.21 133.225C492.836 133.412 492.533 133.668 492.3 133.995C492.066 134.322 491.95 134.718 491.95 135.185C491.95 135.932 492.23 136.503 492.79 136.9C493.35 137.297 494.05 137.635 494.89 137.915C495.753 138.195 496.675 138.475 497.655 138.755C498.635 139.035 499.545 139.432 500.385 139.945C501.248 140.458 501.96 141.147 502.52 142.01C503.08 142.873 503.36 144.028 503.36 145.475C503.36 146.852 503.103 148.053 502.59 149.08C502.076 150.107 501.376 150.958 500.49 151.635C499.626 152.312 498.611 152.813 497.445 153.14C496.301 153.467 495.088 153.63 493.805 153.63C492.195 153.63 490.701 153.385 489.325 152.895C487.948 152.405 486.665 151.612 485.475 150.515L489.36 146.245C489.92 146.992 490.62 147.575 491.46 147.995C492.323 148.392 493.21 148.59 494.12 148.59C494.563 148.59 495.006 148.543 495.45 148.45C495.916 148.333 496.325 148.17 496.675 147.96C497.048 147.75 497.34 147.482 497.55 147.155C497.783 146.828 497.9 146.443 497.9 146C497.9 145.253 497.608 144.67 497.025 144.25C496.465 143.807 495.753 143.433 494.89 143.13C494.026 142.827 493.093 142.523 492.09 142.22C491.086 141.917 490.153 141.508 489.29 140.995C488.426 140.482 487.703 139.805 487.12 138.965C486.56 138.125 486.28 137.017 486.28 135.64C486.28 134.31 486.536 133.143 487.05 132.14C487.586 131.137 488.286 130.297 489.15 129.62C490.036 128.943 491.051 128.442 492.195 128.115C493.338 127.765 494.516 127.59 495.73 127.59C497.13 127.59 498.483 127.788 499.79 128.185C501.096 128.582 502.275 129.247 503.325 130.18L499.58 134.275ZM507.357 128.22H512.817V153H507.357V128.22ZM530.034 134.275C529.59 133.715 528.984 133.307 528.214 133.05C527.467 132.77 526.755 132.63 526.079 132.63C525.682 132.63 525.274 132.677 524.854 132.77C524.434 132.863 524.037 133.015 523.664 133.225C523.29 133.412 522.987 133.668 522.754 133.995C522.52 134.322 522.404 134.718 522.404 135.185C522.404 135.932 522.684 136.503 523.244 136.9C523.804 137.297 524.504 137.635 525.344 137.915C526.207 138.195 527.129 138.475 528.109 138.755C529.089 139.035 529.999 139.432 530.839 139.945C531.702 140.458 532.414 141.147 532.974 142.01C533.534 142.873 533.814 144.028 533.814 145.475C533.814 146.852 533.557 148.053 533.044 149.08C532.53 150.107 531.83 150.958 530.944 151.635C530.08 152.312 529.065 152.813 527.899 153.14C526.755 153.467 525.542 153.63 524.259 153.63C522.649 153.63 521.155 153.385 519.779 152.895C518.402 152.405 517.119 151.612 515.929 150.515L519.814 146.245C520.374 146.992 521.074 147.575 521.914 147.995C522.777 148.392 523.664 148.59 524.574 148.59C525.017 148.59 525.46 148.543 525.904 148.45C526.37 148.333 526.779 148.17 527.129 147.96C527.502 147.75 527.794 147.482 528.004 147.155C528.237 146.828 528.354 146.443 528.354 146C528.354 145.253 528.062 144.67 527.479 144.25C526.919 143.807 526.207 143.433 525.344 143.13C524.48 142.827 523.547 142.523 522.544 142.22C521.54 141.917 520.607 141.508 519.744 140.995C518.88 140.482 518.157 139.805 517.574 138.965C517.014 138.125 516.734 137.017 516.734 135.64C516.734 134.31 516.99 133.143 517.504 132.14C518.04 131.137 518.74 130.297 519.604 129.62C520.49 128.943 521.505 128.442 522.649 128.115C523.792 127.765 524.97 127.59 526.184 127.59C527.584 127.59 528.937 127.788 530.244 128.185C531.55 128.582 532.729 129.247 533.779 130.18L530.034 134.275ZM548.448 128.22H565.073V133.26H553.908V138.3H564.233V143.34H553.908V153H548.448V128.22ZM567.655 140.61C567.655 138.627 567.982 136.83 568.635 135.22C569.312 133.61 570.245 132.245 571.435 131.125C572.625 129.982 574.037 129.107 575.67 128.5C577.303 127.893 579.088 127.59 581.025 127.59C582.962 127.59 584.747 127.893 586.38 128.5C588.013 129.107 589.425 129.982 590.615 131.125C591.805 132.245 592.727 133.61 593.38 135.22C594.057 136.83 594.395 138.627 594.395 140.61C594.395 142.593 594.057 144.39 593.38 146C592.727 147.61 591.805 148.987 590.615 150.13C589.425 151.25 588.013 152.113 586.38 152.72C584.747 153.327 582.962 153.63 581.025 153.63C579.088 153.63 577.303 153.327 575.67 152.72C574.037 152.113 572.625 151.25 571.435 150.13C570.245 148.987 569.312 147.61 568.635 146C567.982 144.39 567.655 142.593 567.655 140.61ZM573.325 140.61C573.325 141.777 573.5 142.85 573.85 143.83C574.223 144.787 574.748 145.627 575.425 146.35C576.102 147.05 576.907 147.598 577.84 147.995C578.797 148.392 579.858 148.59 581.025 148.59C582.192 148.59 583.242 148.392 584.175 147.995C585.132 147.598 585.948 147.05 586.625 146.35C587.302 145.627 587.815 144.787 588.165 143.83C588.538 142.85 588.725 141.777 588.725 140.61C588.725 139.467 588.538 138.405 588.165 137.425C587.815 136.445 587.302 135.605 586.625 134.905C585.948 134.182 585.132 133.622 584.175 133.225C583.242 132.828 582.192 132.63 581.025 132.63C579.858 132.63 578.797 132.828 577.84 133.225C576.907 133.622 576.102 134.182 575.425 134.905C574.748 135.605 574.223 136.445 573.85 137.425C573.5 138.405 573.325 139.467 573.325 140.61ZM598.106 128.22H607.696C608.956 128.22 610.146 128.348 611.266 128.605C612.409 128.838 613.401 129.247 614.241 129.83C615.104 130.39 615.781 131.16 616.271 132.14C616.784 133.097 617.041 134.298 617.041 135.745C617.041 137.495 616.586 138.988 615.676 140.225C614.766 141.438 613.436 142.208 611.686 142.535L617.986 153H611.441L606.261 143.095H603.566V153H598.106V128.22ZM603.566 138.475H606.786C607.276 138.475 607.789 138.463 608.326 138.44C608.886 138.393 609.388 138.288 609.831 138.125C610.274 137.938 610.636 137.658 610.916 137.285C611.219 136.912 611.371 136.387 611.371 135.71C611.371 135.08 611.243 134.578 610.986 134.205C610.729 133.832 610.403 133.552 610.006 133.365C609.609 133.155 609.154 133.015 608.641 132.945C608.128 132.875 607.626 132.84 607.136 132.84H603.566V138.475ZM635.953 133.05H628.883V128.22H648.483V133.05H641.413V153H635.953V133.05ZM651.185 128.22H656.645V153H651.185V128.22ZM661.822 128.22H667.282V138.51L676.907 128.22H684.047L673.022 139.735L684.992 153H677.362L667.282 141.24V153H661.822V128.22ZM691.666 133.05H684.596V128.22H704.196V133.05H697.126V153H691.666V133.05ZM705.638 140.61C705.638 138.627 705.965 136.83 706.618 135.22C707.295 133.61 708.228 132.245 709.418 131.125C710.608 129.982 712.02 129.107 713.653 128.5C715.287 127.893 717.072 127.59 719.008 127.59C720.945 127.59 722.73 127.893 724.363 128.5C725.997 129.107 727.408 129.982 728.598 131.125C729.788 132.245 730.71 133.61 731.363 135.22C732.04 136.83 732.378 138.627 732.378 140.61C732.378 142.593 732.04 144.39 731.363 146C730.71 147.61 729.788 148.987 728.598 150.13C727.408 151.25 725.997 152.113 724.363 152.72C722.73 153.327 720.945 153.63 719.008 153.63C717.072 153.63 715.287 153.327 713.653 152.72C712.02 152.113 710.608 151.25 709.418 150.13C708.228 148.987 707.295 147.61 706.618 146C705.965 144.39 705.638 142.593 705.638 140.61ZM711.308 140.61C711.308 141.777 711.483 142.85 711.833 143.83C712.207 144.787 712.732 145.627 713.408 146.35C714.085 147.05 714.89 147.598 715.823 147.995C716.78 148.392 717.842 148.59 719.008 148.59C720.175 148.59 721.225 148.392 722.158 147.995C723.115 147.598 723.932 147.05 724.608 146.35C725.285 145.627 725.798 144.787 726.148 143.83C726.522 142.85 726.708 141.777 726.708 140.61C726.708 139.467 726.522 138.405 726.148 137.425C725.798 136.445 725.285 135.605 724.608 134.905C723.932 134.182 723.115 133.622 722.158 133.225C721.225 132.828 720.175 132.63 719.008 132.63C717.842 132.63 716.78 132.828 715.823 133.225C714.89 133.622 714.085 134.182 713.408 134.905C712.732 135.605 712.207 136.445 711.833 137.425C711.483 138.405 711.308 139.467 711.308 140.61ZM736.299 128.22H741.759V138.51L751.384 128.22H758.524L747.499 139.735L759.469 153H751.839L741.759 141.24V153H736.299V128.22ZM244.016 176.512C243.504 175.824 242.872 175.312 242.12 174.976C241.368 174.624 240.584 174.448 239.768 174.448C238.824 174.448 237.952 174.64 237.152 175.024C236.368 175.408 235.688 175.928 235.112 176.584C234.536 177.224 234.088 177.976 233.768 178.84C233.448 179.688 233.288 180.576 233.288 181.504C233.288 182.496 233.448 183.424 233.768 184.288C234.088 185.136 234.528 185.88 235.088 186.52C235.664 187.144 236.344 187.64 237.128 188.008C237.928 188.376 238.808 188.56 239.768 188.56C240.808 188.56 241.736 188.36 242.552 187.96C243.368 187.544 244.08 186.952 244.688 186.184L246.2 187.456C245.432 188.48 244.504 189.232 243.416 189.712C242.344 190.192 241.128 190.432 239.768 190.432C238.552 190.432 237.416 190.208 236.36 189.76C235.304 189.312 234.384 188.696 233.6 187.912C232.832 187.112 232.224 186.168 231.776 185.08C231.344 183.992 231.128 182.8 231.128 181.504C231.128 180.256 231.336 179.088 231.752 178C232.184 176.912 232.784 175.968 233.552 175.168C234.32 174.368 235.232 173.736 236.288 173.272C237.344 172.808 238.504 172.576 239.768 172.576C240.92 172.576 242.024 172.784 243.08 173.2C244.152 173.616 245.048 174.296 245.768 175.24L244.016 176.512ZM248.674 181.432C248.674 180.92 248.658 180.44 248.626 179.992C248.594 179.544 248.578 179.136 248.578 178.768H250.354C250.354 179.072 250.362 179.376 250.378 179.68C250.394 179.984 250.402 180.296 250.402 180.616H250.45C250.578 180.344 250.754 180.08 250.978 179.824C251.218 179.568 251.498 179.344 251.818 179.152C252.138 178.944 252.498 178.784 252.898 178.672C253.298 178.544 253.73 178.48 254.194 178.48C254.322 178.48 254.45 178.488 254.578 178.504C254.706 178.52 254.834 178.552 254.962 178.6L254.842 180.496C254.522 180.4 254.186 180.352 253.834 180.352C252.682 180.352 251.842 180.728 251.314 181.48C250.802 182.216 250.546 183.232 250.546 184.528V190H248.674V181.432ZM266.722 187.96C266.05 188.824 265.314 189.432 264.514 189.784C263.714 190.12 262.786 190.288 261.73 190.288C260.85 190.288 260.058 190.136 259.354 189.832C258.65 189.512 258.05 189.088 257.554 188.56C257.074 188.032 256.698 187.408 256.426 186.688C256.17 185.968 256.042 185.2 256.042 184.384C256.042 183.52 256.186 182.728 256.474 182.008C256.762 181.272 257.162 180.648 257.674 180.136C258.186 179.608 258.794 179.2 259.498 178.912C260.202 178.624 260.97 178.48 261.802 178.48C262.586 178.48 263.306 178.616 263.962 178.888C264.618 179.144 265.178 179.528 265.642 180.04C266.122 180.536 266.49 181.152 266.746 181.888C267.002 182.608 267.13 183.432 267.13 184.36V184.96H258.058C258.09 185.44 258.202 185.904 258.394 186.352C258.602 186.784 258.866 187.168 259.186 187.504C259.506 187.824 259.882 188.08 260.314 188.272C260.746 188.464 261.218 188.56 261.73 188.56C262.546 188.56 263.234 188.416 263.794 188.128C264.354 187.84 264.858 187.416 265.306 186.856L266.722 187.96ZM265.114 183.376C265.082 182.416 264.77 181.648 264.178 181.072C263.586 180.496 262.77 180.208 261.73 180.208C260.69 180.208 259.85 180.496 259.21 181.072C258.57 181.648 258.186 182.416 258.058 183.376H265.114ZM269.882 180.208C270.458 179.616 271.138 179.184 271.922 178.912C272.722 178.624 273.53 178.48 274.346 178.48C276.01 178.48 277.21 178.872 277.946 179.656C278.682 180.44 279.05 181.632 279.05 183.232V188.056C279.05 188.376 279.066 188.712 279.098 189.064C279.13 189.4 279.17 189.712 279.218 190H277.418C277.354 189.744 277.314 189.464 277.298 189.16C277.298 188.84 277.298 188.56 277.298 188.32H277.25C276.882 188.896 276.386 189.368 275.762 189.736C275.154 190.104 274.418 190.288 273.554 190.288C272.978 190.288 272.434 190.216 271.922 190.072C271.426 189.928 270.986 189.72 270.602 189.448C270.234 189.16 269.938 188.808 269.714 188.392C269.49 187.976 269.378 187.496 269.378 186.952C269.378 186.024 269.618 185.296 270.098 184.768C270.578 184.24 271.17 183.848 271.874 183.592C272.594 183.336 273.362 183.176 274.178 183.112C275.01 183.048 275.77 183.016 276.458 183.016H277.178V182.68C277.178 181.864 276.93 181.248 276.434 180.832C275.954 180.416 275.274 180.208 274.394 180.208C273.786 180.208 273.186 180.312 272.594 180.52C272.018 180.712 271.506 181.016 271.058 181.432L269.882 180.208ZM275.306 184.6C274.106 184.6 273.154 184.768 272.45 185.104C271.746 185.44 271.394 185.992 271.394 186.76C271.394 187.464 271.626 187.968 272.09 188.272C272.57 188.56 273.162 188.704 273.866 188.704C274.41 188.704 274.882 188.616 275.282 188.44C275.698 188.248 276.042 188 276.314 187.696C276.586 187.392 276.794 187.04 276.938 186.64C277.082 186.224 277.162 185.784 277.178 185.32V184.6H275.306ZM288.615 180.352H285.303V185.968C285.303 186.336 285.311 186.68 285.327 187C285.343 187.304 285.407 187.576 285.519 187.816C285.631 188.04 285.799 188.224 286.023 188.368C286.247 188.496 286.567 188.56 286.983 188.56C287.255 188.56 287.535 188.528 287.823 188.464C288.111 188.4 288.383 188.304 288.639 188.176L288.711 189.88C288.391 190.024 288.031 190.128 287.631 190.192C287.247 190.256 286.879 190.288 286.527 190.288C285.855 190.288 285.319 190.2 284.919 190.024C284.519 189.848 284.207 189.6 283.983 189.28C283.759 188.96 283.607 188.568 283.527 188.104C283.463 187.624 283.431 187.096 283.431 186.52V180.352H280.983V178.768H283.431V175.576H285.303V178.768H288.615V180.352ZM300.941 187.96C300.269 188.824 299.533 189.432 298.733 189.784C297.933 190.12 297.005 190.288 295.949 190.288C295.069 190.288 294.277 190.136 293.573 189.832C292.869 189.512 292.269 189.088 291.773 188.56C291.293 188.032 290.917 187.408 290.645 186.688C290.389 185.968 290.261 185.2 290.261 184.384C290.261 183.52 290.405 182.728 290.693 182.008C290.981 181.272 291.381 180.648 291.893 180.136C292.405 179.608 293.013 179.2 293.717 178.912C294.421 178.624 295.189 178.48 296.021 178.48C296.805 178.48 297.525 178.616 298.181 178.888C298.837 179.144 299.397 179.528 299.861 180.04C300.341 180.536 300.709 181.152 300.965 181.888C301.221 182.608 301.349 183.432 301.349 184.36V184.96H292.277C292.309 185.44 292.421 185.904 292.613 186.352C292.821 186.784 293.085 187.168 293.405 187.504C293.725 187.824 294.101 188.08 294.533 188.272C294.965 188.464 295.437 188.56 295.949 188.56C296.765 188.56 297.453 188.416 298.013 188.128C298.573 187.84 299.077 187.416 299.525 186.856L300.941 187.96ZM299.333 183.376C299.301 182.416 298.989 181.648 298.397 181.072C297.805 180.496 296.989 180.208 295.949 180.208C294.909 180.208 294.069 180.496 293.429 181.072C292.789 181.648 292.405 182.416 292.277 183.376H299.333ZM310.78 180.208C311.356 179.616 312.036 179.184 312.82 178.912C313.62 178.624 314.428 178.48 315.244 178.48C316.908 178.48 318.108 178.872 318.844 179.656C319.58 180.44 319.948 181.632 319.948 183.232V188.056C319.948 188.376 319.964 188.712 319.996 189.064C320.028 189.4 320.068 189.712 320.116 190H318.316C318.252 189.744 318.212 189.464 318.196 189.16C318.196 188.84 318.196 188.56 318.196 188.32H318.148C317.78 188.896 317.284 189.368 316.66 189.736C316.052 190.104 315.316 190.288 314.452 190.288C313.876 190.288 313.332 190.216 312.82 190.072C312.324 189.928 311.884 189.72 311.5 189.448C311.132 189.16 310.836 188.808 310.612 188.392C310.388 187.976 310.276 187.496 310.276 186.952C310.276 186.024 310.516 185.296 310.996 184.768C311.476 184.24 312.068 183.848 312.772 183.592C313.492 183.336 314.26 183.176 315.076 183.112C315.908 183.048 316.668 183.016 317.356 183.016H318.076V182.68C318.076 181.864 317.828 181.248 317.332 180.832C316.852 180.416 316.172 180.208 315.292 180.208C314.684 180.208 314.084 180.312 313.492 180.52C312.916 180.712 312.404 181.016 311.956 181.432L310.78 180.208ZM316.204 184.6C315.004 184.6 314.052 184.768 313.348 185.104C312.644 185.44 312.292 185.992 312.292 186.76C312.292 187.464 312.524 187.968 312.988 188.272C313.468 188.56 314.06 188.704 314.764 188.704C315.308 188.704 315.78 188.616 316.18 188.44C316.596 188.248 316.94 188 317.212 187.696C317.484 187.392 317.692 187.04 317.836 186.64C317.98 186.224 318.06 185.784 318.076 185.32V184.6H316.204ZM341.785 174.88H336.169V190H334.153V174.88H328.537V173.008H341.785V174.88ZM343.999 178.768H345.871V190H343.999V178.768ZM343.567 174.376C343.567 174.008 343.695 173.688 343.951 173.416C344.223 173.144 344.551 173.008 344.935 173.008C345.319 173.008 345.639 173.144 345.895 173.416C346.167 173.688 346.303 174.008 346.303 174.376C346.303 174.776 346.175 175.104 345.919 175.36C345.663 175.616 345.335 175.744 344.935 175.744C344.535 175.744 344.207 175.616 343.951 175.36C343.695 175.104 343.567 174.776 343.567 174.376ZM349.596 171.856H351.468V183.712L356.58 178.768H359.244L353.82 183.88L359.796 190H357.036L351.468 184.096V190H349.596V171.856ZM373.332 174.88H367.716V190H365.7V174.88H360.084V173.008H373.332V174.88ZM372.058 184.384C372.058 183.504 372.21 182.704 372.514 181.984C372.818 181.264 373.234 180.648 373.762 180.136C374.29 179.608 374.922 179.2 375.658 178.912C376.394 178.624 377.194 178.48 378.058 178.48C378.922 178.48 379.722 178.624 380.458 178.912C381.194 179.2 381.826 179.608 382.354 180.136C382.882 180.648 383.298 181.264 383.602 181.984C383.906 182.704 384.058 183.504 384.058 184.384C384.058 185.264 383.906 186.064 383.602 186.784C383.298 187.504 382.882 188.128 382.354 188.656C381.826 189.168 381.194 189.568 380.458 189.856C379.722 190.144 378.922 190.288 378.058 190.288C377.194 190.288 376.394 190.144 375.658 189.856C374.922 189.568 374.29 189.168 373.762 188.656C373.234 188.128 372.818 187.504 372.514 186.784C372.21 186.064 372.058 185.264 372.058 184.384ZM374.074 184.384C374.074 184.976 374.162 185.528 374.338 186.04C374.53 186.536 374.802 186.976 375.154 187.36C375.506 187.728 375.922 188.024 376.402 188.248C376.898 188.456 377.45 188.56 378.058 188.56C378.666 188.56 379.21 188.456 379.69 188.248C380.186 188.024 380.61 187.728 380.962 187.36C381.314 186.976 381.578 186.536 381.754 186.04C381.946 185.528 382.042 184.976 382.042 184.384C382.042 183.792 381.946 183.248 381.754 182.752C381.578 182.24 381.314 181.8 380.962 181.432C380.61 181.048 380.186 180.752 379.69 180.544C379.21 180.32 378.666 180.208 378.058 180.208C377.45 180.208 376.898 180.32 376.402 180.544C375.922 180.752 375.506 181.048 375.154 181.432C374.802 181.8 374.53 182.24 374.338 182.752C374.162 183.248 374.074 183.792 374.074 184.384ZM386.956 171.856H388.828V183.712L393.94 178.768H396.604L391.18 183.88L397.156 190H394.396L388.828 184.096V190H386.956V171.856ZM404.699 184.168C404.699 183.24 404.867 182.4 405.203 181.648C405.539 180.896 405.995 180.256 406.571 179.728C407.163 179.184 407.851 178.768 408.635 178.48C409.435 178.192 410.283 178.048 411.179 178.048C412.075 178.048 412.915 178.192 413.699 178.48C414.499 178.768 415.187 179.184 415.763 179.728C416.355 180.256 416.819 180.896 417.155 181.648C417.491 182.4 417.659 183.24 417.659 184.168C417.659 185.096 417.491 185.936 417.155 186.688C416.819 187.44 416.355 188.088 415.763 188.632C415.187 189.16 414.499 189.568 413.699 189.856C412.915 190.144 412.075 190.288 411.179 190.288C410.283 190.288 409.435 190.144 408.635 189.856C407.851 189.568 407.163 189.16 406.571 188.632C405.995 188.088 405.539 187.44 405.203 186.688C404.867 185.936 404.699 185.096 404.699 184.168ZM408.299 184.168C408.299 185.048 408.547 185.76 409.043 186.304C409.555 186.848 410.267 187.12 411.179 187.12C412.091 187.12 412.795 186.848 413.291 186.304C413.803 185.76 414.059 185.048 414.059 184.168C414.059 183.288 413.803 182.576 413.291 182.032C412.795 181.488 412.091 181.216 411.179 181.216C410.267 181.216 409.555 181.488 409.043 182.032C408.547 182.576 408.299 183.288 408.299 184.168ZM420.116 178.336H423.428V179.872H423.476C423.62 179.664 423.804 179.456 424.028 179.248C424.268 179.024 424.54 178.824 424.844 178.648C425.164 178.472 425.508 178.328 425.876 178.216C426.244 178.104 426.636 178.048 427.052 178.048C427.916 178.048 428.7 178.2 429.404 178.504C430.108 178.792 430.708 179.208 431.204 179.752C431.716 180.28 432.108 180.912 432.38 181.648C432.652 182.384 432.788 183.192 432.788 184.072C432.788 184.888 432.66 185.672 432.404 186.424C432.164 187.16 431.812 187.816 431.348 188.392C430.9 188.968 430.348 189.432 429.692 189.784C429.036 190.12 428.292 190.288 427.46 190.288C426.708 190.288 426.004 190.176 425.348 189.952C424.708 189.712 424.18 189.312 423.764 188.752H423.716V195.472H420.116V178.336ZM423.428 184.168C423.428 185.048 423.676 185.76 424.172 186.304C424.684 186.848 425.396 187.12 426.308 187.12C427.22 187.12 427.924 186.848 428.42 186.304C428.932 185.76 429.188 185.048 429.188 184.168C429.188 183.288 428.932 182.576 428.42 182.032C427.924 181.488 427.22 181.216 426.308 181.216C425.396 181.216 424.684 181.488 424.172 182.032C423.676 182.576 423.428 183.288 423.428 184.168ZM435.233 178.336H438.545V179.872H438.593C438.737 179.664 438.921 179.456 439.145 179.248C439.385 179.024 439.657 178.824 439.961 178.648C440.281 178.472 440.625 178.328 440.993 178.216C441.361 178.104 441.753 178.048 442.169 178.048C443.033 178.048 443.817 178.2 444.521 178.504C445.225 178.792 445.825 179.208 446.321 179.752C446.833 180.28 447.225 180.912 447.497 181.648C447.769 182.384 447.905 183.192 447.905 184.072C447.905 184.888 447.777 185.672 447.521 186.424C447.281 187.16 446.929 187.816 446.465 188.392C446.017 188.968 445.465 189.432 444.809 189.784C444.153 190.12 443.409 190.288 442.577 190.288C441.825 190.288 441.121 190.176 440.465 189.952C439.825 189.712 439.297 189.312 438.881 188.752H438.833V195.472H435.233V178.336ZM438.545 184.168C438.545 185.048 438.793 185.76 439.289 186.304C439.801 186.848 440.513 187.12 441.425 187.12C442.337 187.12 443.041 186.848 443.537 186.304C444.049 185.76 444.305 185.048 444.305 184.168C444.305 183.288 444.049 182.576 443.537 182.032C443.041 181.488 442.337 181.216 441.425 181.216C440.513 181.216 439.801 181.488 439.289 182.032C438.793 182.576 438.545 183.288 438.545 184.168ZM449.582 184.168C449.582 183.24 449.75 182.4 450.086 181.648C450.422 180.896 450.878 180.256 451.454 179.728C452.046 179.184 452.734 178.768 453.518 178.48C454.318 178.192 455.166 178.048 456.062 178.048C456.958 178.048 457.798 178.192 458.582 178.48C459.382 178.768 460.07 179.184 460.646 179.728C461.238 180.256 461.702 180.896 462.038 181.648C462.374 182.4 462.542 183.24 462.542 184.168C462.542 185.096 462.374 185.936 462.038 186.688C461.702 187.44 461.238 188.088 460.646 188.632C460.07 189.16 459.382 189.568 458.582 189.856C457.798 190.144 456.958 190.288 456.062 190.288C455.166 190.288 454.318 190.144 453.518 189.856C452.734 189.568 452.046 189.16 451.454 188.632C450.878 188.088 450.422 187.44 450.086 186.688C449.75 185.936 449.582 185.096 449.582 184.168ZM453.182 184.168C453.182 185.048 453.43 185.76 453.926 186.304C454.438 186.848 455.15 187.12 456.062 187.12C456.974 187.12 457.678 186.848 458.174 186.304C458.686 185.76 458.942 185.048 458.942 184.168C458.942 183.288 458.686 182.576 458.174 182.032C457.678 181.488 456.974 181.216 456.062 181.216C455.15 181.216 454.438 181.488 453.926 182.032C453.43 182.576 453.182 183.288 453.182 184.168ZM464.663 178.336H468.263V180.208H468.311C468.695 179.488 469.151 178.952 469.679 178.6C470.207 178.232 470.871 178.048 471.671 178.048C471.879 178.048 472.087 178.056 472.295 178.072C472.503 178.088 472.695 178.12 472.871 178.168V181.456C472.615 181.376 472.359 181.32 472.103 181.288C471.863 181.24 471.607 181.216 471.335 181.216C470.647 181.216 470.103 181.312 469.703 181.504C469.303 181.696 468.991 181.968 468.767 182.32C468.559 182.656 468.423 183.064 468.359 183.544C468.295 184.024 468.263 184.552 468.263 185.128V190H464.663V178.336ZM482.38 181.216H479.212V185.104C479.212 185.424 479.228 185.72 479.26 185.992C479.292 186.248 479.364 186.472 479.476 186.664C479.588 186.856 479.756 187.008 479.98 187.12C480.22 187.216 480.532 187.264 480.916 187.264C481.108 187.264 481.356 187.248 481.66 187.216C481.98 187.168 482.22 187.072 482.38 186.928V189.928C481.98 190.072 481.564 190.168 481.132 190.216C480.7 190.264 480.276 190.288 479.86 190.288C479.252 190.288 478.692 190.224 478.18 190.096C477.668 189.968 477.22 189.768 476.836 189.496C476.452 189.208 476.148 188.84 475.924 188.392C475.716 187.944 475.612 187.4 475.612 186.76V181.216H473.308V178.336H475.612V174.88H479.212V178.336H482.38V181.216ZM495.442 190H491.986V188.416H491.938C491.81 188.64 491.642 188.864 491.434 189.088C491.242 189.312 491.002 189.512 490.714 189.688C490.426 189.864 490.098 190.008 489.73 190.12C489.362 190.232 488.962 190.288 488.53 190.288C487.618 190.288 486.874 190.152 486.298 189.88C485.738 189.592 485.298 189.2 484.978 188.704C484.674 188.208 484.466 187.624 484.354 186.952C484.258 186.28 484.21 185.552 484.21 184.768V178.336H487.81V184.048C487.81 184.384 487.818 184.736 487.834 185.104C487.866 185.456 487.938 185.784 488.05 186.088C488.178 186.392 488.362 186.64 488.602 186.832C488.858 187.024 489.218 187.12 489.682 187.12C490.146 187.12 490.522 187.04 490.81 186.88C491.098 186.704 491.314 186.48 491.458 186.208C491.618 185.92 491.722 185.6 491.77 185.248C491.818 184.896 491.842 184.528 491.842 184.144V178.336H495.442V190ZM497.991 178.336H501.447V179.92H501.495C501.607 179.696 501.767 179.472 501.975 179.248C502.183 179.024 502.431 178.824 502.719 178.648C503.007 178.472 503.335 178.328 503.703 178.216C504.071 178.104 504.471 178.048 504.903 178.048C505.815 178.048 506.551 178.192 507.111 178.48C507.671 178.752 508.103 179.136 508.407 179.632C508.727 180.128 508.943 180.712 509.055 181.384C509.167 182.056 509.223 182.784 509.223 183.568V190H505.623V184.288C505.623 183.952 505.607 183.608 505.575 183.256C505.559 182.888 505.487 182.552 505.359 182.248C505.247 181.944 505.063 181.696 504.807 181.504C504.567 181.312 504.215 181.216 503.751 181.216C503.287 181.216 502.911 181.304 502.623 181.48C502.335 181.64 502.111 181.864 501.951 182.152C501.807 182.424 501.711 182.736 501.663 183.088C501.615 183.44 501.591 183.808 501.591 184.192V190H497.991V178.336ZM511.82 178.336H515.42V190H511.82V178.336ZM511.532 174.664C511.532 174.088 511.732 173.6 512.132 173.2C512.548 172.784 513.044 172.576 513.62 172.576C514.196 172.576 514.684 172.784 515.084 173.2C515.5 173.6 515.708 174.088 515.708 174.664C515.708 175.24 515.5 175.736 515.084 176.152C514.684 176.552 514.196 176.752 513.62 176.752C513.044 176.752 512.548 176.552 512.132 176.152C511.732 175.736 511.532 175.24 511.532 174.664ZM525.95 181.216H522.782V185.104C522.782 185.424 522.798 185.72 522.83 185.992C522.862 186.248 522.934 186.472 523.046 186.664C523.158 186.856 523.326 187.008 523.55 187.12C523.79 187.216 524.102 187.264 524.486 187.264C524.678 187.264 524.926 187.248 525.23 187.216C525.55 187.168 525.79 187.072 525.95 186.928V189.928C525.55 190.072 525.134 190.168 524.702 190.216C524.27 190.264 523.846 190.288 523.43 190.288C522.822 190.288 522.262 190.224 521.75 190.096C521.238 189.968 520.79 189.768 520.406 189.496C520.022 189.208 519.718 188.84 519.494 188.392C519.286 187.944 519.182 187.4 519.182 186.76V181.216H516.878V178.336H519.182V174.88H522.782V178.336H525.95V181.216ZM534.5 191.896C534.26 192.52 534.028 193.072 533.804 193.552C533.58 194.032 533.292 194.432 532.94 194.752C532.604 195.088 532.172 195.336 531.644 195.496C531.116 195.672 530.42 195.76 529.556 195.76C528.628 195.76 527.732 195.616 526.868 195.328L527.348 192.376C527.892 192.616 528.452 192.736 529.028 192.736C529.428 192.736 529.756 192.688 530.012 192.592C530.268 192.512 530.476 192.384 530.636 192.208C530.812 192.048 530.956 191.848 531.068 191.608C531.18 191.368 531.3 191.088 531.428 190.768L531.692 190.096L526.58 178.336H530.468L533.468 186.04H533.516L536.084 178.336H539.78L534.5 191.896ZM558.057 188.008H558.009C557.657 188.648 557.097 189.192 556.329 189.64C555.577 190.072 554.697 190.288 553.689 190.288C552.905 190.288 552.169 190.144 551.481 189.856C550.793 189.552 550.193 189.136 549.681 188.608C549.185 188.08 548.793 187.456 548.505 186.736C548.217 186.016 548.073 185.232 548.073 184.384C548.073 183.536 548.217 182.752 548.505 182.032C548.793 181.312 549.193 180.688 549.705 180.16C550.217 179.632 550.833 179.224 551.553 178.936C552.289 178.632 553.097 178.48 553.977 178.48C554.793 178.48 555.537 178.648 556.209 178.984C556.897 179.32 557.497 179.792 558.009 180.4H558.057V171.856H559.929V190H558.057V188.008ZM558.057 184.384C558.057 183.792 557.961 183.248 557.769 182.752C557.593 182.24 557.329 181.8 556.977 181.432C556.625 181.048 556.201 180.752 555.705 180.544C555.225 180.32 554.681 180.208 554.073 180.208C553.465 180.208 552.913 180.32 552.417 180.544C551.937 180.752 551.521 181.048 551.169 181.432C550.817 181.8 550.545 182.24 550.353 182.752C550.177 183.248 550.089 183.792 550.089 184.384C550.089 184.976 550.177 185.528 550.353 186.04C550.545 186.536 550.817 186.976 551.169 187.36C551.521 187.728 551.937 188.024 552.417 188.248C552.913 188.456 553.465 188.56 554.073 188.56C554.681 188.56 555.225 188.456 555.705 188.248C556.201 188.024 556.625 187.728 556.977 187.36C557.329 186.976 557.593 186.536 557.769 186.04C557.961 185.528 558.057 184.976 558.057 184.384ZM562.745 184.384C562.745 183.504 562.897 182.704 563.201 181.984C563.505 181.264 563.921 180.648 564.449 180.136C564.977 179.608 565.609 179.2 566.345 178.912C567.081 178.624 567.881 178.48 568.745 178.48C569.609 178.48 570.409 178.624 571.145 178.912C571.881 179.2 572.513 179.608 573.041 180.136C573.569 180.648 573.985 181.264 574.289 181.984C574.593 182.704 574.745 183.504 574.745 184.384C574.745 185.264 574.593 186.064 574.289 186.784C573.985 187.504 573.569 188.128 573.041 188.656C572.513 189.168 571.881 189.568 571.145 189.856C570.409 190.144 569.609 190.288 568.745 190.288C567.881 190.288 567.081 190.144 566.345 189.856C565.609 189.568 564.977 189.168 564.449 188.656C563.921 188.128 563.505 187.504 563.201 186.784C562.897 186.064 562.745 185.264 562.745 184.384ZM564.761 184.384C564.761 184.976 564.849 185.528 565.025 186.04C565.217 186.536 565.489 186.976 565.841 187.36C566.193 187.728 566.609 188.024 567.089 188.248C567.585 188.456 568.137 188.56 568.745 188.56C569.353 188.56 569.897 188.456 570.377 188.248C570.873 188.024 571.297 187.728 571.649 187.36C572.001 186.976 572.265 186.536 572.441 186.04C572.633 185.528 572.729 184.976 572.729 184.384C572.729 183.792 572.633 183.248 572.441 182.752C572.265 182.24 572.001 181.8 571.649 181.432C571.297 181.048 570.873 180.752 570.377 180.544C569.897 180.32 569.353 180.208 568.745 180.208C568.137 180.208 567.585 180.32 567.089 180.544C566.609 180.752 566.193 181.048 565.841 181.432C565.489 181.8 565.217 182.24 565.025 182.752C564.849 183.248 564.761 183.792 564.761 184.384ZM585.635 181.576C585.235 181.096 584.803 180.752 584.339 180.544C583.875 180.32 583.363 180.208 582.803 180.208C582.179 180.208 581.627 180.32 581.147 180.544C580.667 180.752 580.267 181.048 579.947 181.432C579.643 181.816 579.411 182.264 579.251 182.776C579.091 183.272 579.011 183.808 579.011 184.384C579.011 184.96 579.099 185.504 579.275 186.016C579.467 186.512 579.723 186.952 580.043 187.336C580.379 187.72 580.779 188.024 581.243 188.248C581.707 188.456 582.227 188.56 582.803 188.56C584.035 188.56 584.987 188.096 585.659 187.168L587.051 188.488C586.507 189.112 585.867 189.568 585.131 189.856C584.395 190.144 583.619 190.288 582.803 190.288C581.939 190.288 581.147 190.144 580.427 189.856C579.707 189.568 579.091 189.16 578.579 188.632C578.083 188.104 577.691 187.48 577.403 186.76C577.131 186.04 576.995 185.248 576.995 184.384C576.995 183.536 577.131 182.752 577.403 182.032C577.691 181.312 578.091 180.688 578.603 180.16C579.115 179.632 579.723 179.224 580.427 178.936C581.147 178.632 581.939 178.48 582.803 178.48C583.635 178.48 584.419 178.624 585.155 178.912C585.907 179.2 586.563 179.648 587.123 180.256L585.635 181.576ZM599.013 187.336C599.013 187.848 599.029 188.328 599.061 188.776C599.093 189.224 599.109 189.632 599.109 190H597.333C597.333 189.696 597.325 189.392 597.309 189.088C597.293 188.784 597.285 188.472 597.285 188.152H597.237C597.109 188.424 596.925 188.688 596.685 188.944C596.461 189.2 596.189 189.432 595.869 189.64C595.549 189.832 595.189 189.984 594.789 190.096C594.389 190.224 593.957 190.288 593.493 190.288C592.757 190.288 592.117 190.176 591.573 189.952C591.045 189.728 590.605 189.416 590.253 189.016C589.901 188.616 589.637 188.136 589.461 187.576C589.301 187 589.221 186.376 589.221 185.704V178.768H591.093V185.512C591.093 186.456 591.301 187.2 591.717 187.744C592.133 188.288 592.781 188.56 593.661 188.56C594.269 188.56 594.789 188.456 595.221 188.248C595.669 188.04 596.029 187.744 596.301 187.36C596.589 186.976 596.797 186.52 596.925 185.992C597.069 185.464 597.141 184.88 597.141 184.24V178.768H599.013V187.336ZM602.557 181.432C602.557 180.92 602.541 180.44 602.509 179.992C602.477 179.544 602.461 179.136 602.461 178.768H604.237C604.237 179.072 604.245 179.376 604.261 179.68C604.277 179.984 604.285 180.296 604.285 180.616H604.333C604.461 180.344 604.637 180.08 604.861 179.824C605.101 179.568 605.381 179.344 605.701 179.152C606.021 178.944 606.381 178.784 606.781 178.672C607.181 178.544 607.613 178.48 608.077 178.48C608.685 178.48 609.189 178.56 609.589 178.72C610.005 178.864 610.349 179.048 610.621 179.272C610.893 179.48 611.101 179.712 611.245 179.968C611.405 180.208 611.533 180.424 611.629 180.616C612.045 179.944 612.525 179.424 613.069 179.056C613.613 178.672 614.317 178.48 615.181 178.48C615.981 178.48 616.653 178.592 617.197 178.816C617.741 179.024 618.181 179.336 618.517 179.752C618.853 180.152 619.093 180.648 619.237 181.24C619.381 181.816 619.453 182.464 619.453 183.184V190H617.581V183.28C617.581 182.896 617.541 182.52 617.461 182.152C617.381 181.784 617.237 181.456 617.029 181.168C616.821 180.88 616.541 180.648 616.189 180.472C615.837 180.296 615.389 180.208 614.845 180.208C614.445 180.208 614.069 180.288 613.717 180.448C613.365 180.608 613.053 180.832 612.781 181.12C612.525 181.408 612.317 181.76 612.157 182.176C612.013 182.576 611.941 183.024 611.941 183.52V190H610.069V183.64C610.069 182.392 609.901 181.512 609.565 181C609.229 180.472 608.677 180.208 607.909 180.208C607.301 180.208 606.773 180.312 606.325 180.52C605.893 180.728 605.533 181.024 605.245 181.408C604.973 181.792 604.765 182.248 604.621 182.776C604.493 183.304 604.429 183.888 604.429 184.528V190H602.557V181.432ZM633.027 187.96C632.355 188.824 631.619 189.432 630.819 189.784C630.019 190.12 629.091 190.288 628.035 190.288C627.155 190.288 626.363 190.136 625.659 189.832C624.955 189.512 624.355 189.088 623.859 188.56C623.379 188.032 623.003 187.408 622.731 186.688C622.475 185.968 622.347 185.2 622.347 184.384C622.347 183.52 622.491 182.728 622.779 182.008C623.067 181.272 623.467 180.648 623.979 180.136C624.491 179.608 625.099 179.2 625.803 178.912C626.507 178.624 627.275 178.48 628.107 178.48C628.891 178.48 629.611 178.616 630.267 178.888C630.923 179.144 631.483 179.528 631.947 180.04C632.427 180.536 632.795 181.152 633.051 181.888C633.307 182.608 633.435 183.432 633.435 184.36V184.96H624.363C624.395 185.44 624.507 185.904 624.699 186.352C624.907 186.784 625.171 187.168 625.491 187.504C625.811 187.824 626.187 188.08 626.619 188.272C627.051 188.464 627.523 188.56 628.035 188.56C628.851 188.56 629.539 188.416 630.099 188.128C630.659 187.84 631.163 187.416 631.611 186.856L633.027 187.96ZM631.419 183.376C631.387 182.416 631.075 181.648 630.483 181.072C629.891 180.496 629.075 180.208 628.035 180.208C626.995 180.208 626.155 180.496 625.515 181.072C624.875 181.648 624.491 182.416 624.363 183.376H631.419ZM636.331 181.432C636.331 180.92 636.315 180.44 636.283 179.992C636.251 179.544 636.235 179.136 636.235 178.768H638.011C638.011 179.072 638.019 179.376 638.035 179.68C638.051 179.984 638.059 180.296 638.059 180.616H638.107C638.235 180.344 638.411 180.08 638.635 179.824C638.875 179.568 639.155 179.344 639.475 179.152C639.795 178.944 640.155 178.784 640.555 178.672C640.955 178.544 641.387 178.48 641.851 178.48C642.587 178.48 643.219 178.592 643.747 178.816C644.291 179.04 644.739 179.352 645.091 179.752C645.443 180.152 645.699 180.64 645.859 181.216C646.035 181.776 646.123 182.392 646.123 183.064V190H644.251V183.256C644.251 182.312 644.043 181.568 643.627 181.024C643.211 180.48 642.563 180.208 641.683 180.208C641.075 180.208 640.547 180.312 640.099 180.52C639.667 180.728 639.307 181.024 639.019 181.408C638.747 181.792 638.539 182.248 638.395 182.776C638.267 183.304 638.203 183.888 638.203 184.528V190H636.331V181.432ZM655.811 180.352H652.499V185.968C652.499 186.336 652.507 186.68 652.523 187C652.539 187.304 652.603 187.576 652.715 187.816C652.827 188.04 652.995 188.224 653.219 188.368C653.443 188.496 653.763 188.56 654.179 188.56C654.451 188.56 654.731 188.528 655.019 188.464C655.307 188.4 655.579 188.304 655.835 188.176L655.907 189.88C655.587 190.024 655.227 190.128 654.827 190.192C654.443 190.256 654.075 190.288 653.723 190.288C653.051 190.288 652.515 190.2 652.115 190.024C651.715 189.848 651.403 189.6 651.179 189.28C650.955 188.96 650.803 188.568 650.723 188.104C650.659 187.624 650.627 187.096 650.627 186.52V180.352H648.179V178.768H650.627V175.576H652.499V178.768H655.811V180.352ZM664.688 171.856H666.56V180.4H666.608C667.12 179.792 667.712 179.32 668.384 178.984C669.072 178.648 669.824 178.48 670.64 178.48C671.52 178.48 672.32 178.632 673.04 178.936C673.776 179.224 674.4 179.632 674.912 180.16C675.424 180.688 675.824 181.312 676.112 182.032C676.4 182.752 676.544 183.536 676.544 184.384C676.544 185.232 676.4 186.016 676.112 186.736C675.824 187.456 675.424 188.08 674.912 188.608C674.416 189.136 673.824 189.552 673.136 189.856C672.448 190.144 671.712 190.288 670.928 190.288C669.92 190.288 669.032 190.072 668.264 189.64C667.512 189.192 666.96 188.648 666.608 188.008H666.56V190H664.688V171.856ZM666.56 184.384C666.56 184.976 666.648 185.528 666.824 186.04C667.016 186.536 667.288 186.976 667.64 187.36C667.992 187.728 668.408 188.024 668.888 188.248C669.384 188.456 669.936 188.56 670.544 188.56C671.152 188.56 671.696 188.456 672.176 188.248C672.672 188.024 673.096 187.728 673.448 187.36C673.8 186.976 674.064 186.536 674.24 186.04C674.432 185.528 674.528 184.976 674.528 184.384C674.528 183.792 674.432 183.248 674.24 182.752C674.064 182.24 673.8 181.8 673.448 181.432C673.096 181.048 672.672 180.752 672.176 180.544C671.696 180.32 671.152 180.208 670.544 180.208C669.936 180.208 669.384 180.32 668.888 180.544C668.408 180.752 667.992 181.048 667.64 181.432C667.288 181.8 667.016 182.24 666.824 182.752C666.648 183.248 666.56 183.792 666.56 184.384ZM679.312 180.208C679.888 179.616 680.568 179.184 681.352 178.912C682.152 178.624 682.96 178.48 683.776 178.48C685.44 178.48 686.64 178.872 687.376 179.656C688.112 180.44 688.48 181.632 688.48 183.232V188.056C688.48 188.376 688.496 188.712 688.528 189.064C688.56 189.4 688.6 189.712 688.648 190H686.848C686.784 189.744 686.744 189.464 686.728 189.16C686.728 188.84 686.728 188.56 686.728 188.32H686.68C686.312 188.896 685.816 189.368 685.192 189.736C684.584 190.104 683.848 190.288 682.984 190.288C682.408 190.288 681.864 190.216 681.352 190.072C680.856 189.928 680.416 189.72 680.032 189.448C679.664 189.16 679.368 188.808 679.144 188.392C678.92 187.976 678.808 187.496 678.808 186.952C678.808 186.024 679.048 185.296 679.528 184.768C680.008 184.24 680.6 183.848 681.304 183.592C682.024 183.336 682.792 183.176 683.608 183.112C684.44 183.048 685.2 183.016 685.888 183.016H686.608V182.68C686.608 181.864 686.36 181.248 685.864 180.832C685.384 180.416 684.704 180.208 683.824 180.208C683.216 180.208 682.616 180.312 682.024 180.52C681.448 180.712 680.936 181.016 680.488 181.432L679.312 180.208ZM684.736 184.6C683.536 184.6 682.584 184.768 681.88 185.104C681.176 185.44 680.824 185.992 680.824 186.76C680.824 187.464 681.056 187.968 681.52 188.272C682 188.56 682.592 188.704 683.296 188.704C683.84 188.704 684.312 188.616 684.712 188.44C685.128 188.248 685.472 188 685.744 187.696C686.016 187.392 686.224 187.04 686.368 186.64C686.512 186.224 686.592 185.784 686.608 185.32V184.6H684.736ZM692.141 187.048C692.509 187.512 692.909 187.88 693.341 188.152C693.789 188.424 694.349 188.56 695.021 188.56C695.309 188.56 695.597 188.528 695.885 188.464C696.189 188.4 696.461 188.296 696.701 188.152C696.941 188.008 697.133 187.832 697.277 187.624C697.421 187.4 697.493 187.136 697.493 186.832C697.493 186.528 697.421 186.28 697.277 186.088C697.149 185.896 696.973 185.736 696.749 185.608C696.525 185.464 696.269 185.352 695.981 185.272C695.693 185.192 695.397 185.12 695.093 185.056C694.565 184.944 694.061 184.816 693.581 184.672C693.101 184.528 692.677 184.344 692.309 184.12C691.957 183.88 691.669 183.576 691.445 183.208C691.237 182.84 691.133 182.368 691.133 181.792C691.133 181.248 691.253 180.768 691.493 180.352C691.733 179.936 692.053 179.592 692.453 179.32C692.853 179.048 693.301 178.84 693.797 178.696C694.293 178.552 694.805 178.48 695.333 178.48C696.133 178.48 696.869 178.64 697.541 178.96C698.229 179.28 698.765 179.8 699.149 180.52L697.589 181.552C697.349 181.152 697.029 180.832 696.629 180.592C696.245 180.336 695.773 180.208 695.213 180.208C694.957 180.208 694.693 180.24 694.421 180.304C694.165 180.368 693.933 180.464 693.725 180.592C693.517 180.72 693.341 180.888 693.197 181.096C693.069 181.288 693.005 181.512 693.005 181.768C693.005 182.008 693.077 182.216 693.221 182.392C693.381 182.552 693.589 182.696 693.845 182.824C694.117 182.952 694.421 183.064 694.757 183.16C695.109 183.256 695.469 183.336 695.837 183.4C696.333 183.496 696.805 183.624 697.253 183.784C697.701 183.928 698.093 184.128 698.429 184.384C698.765 184.64 699.029 184.96 699.221 185.344C699.413 185.728 699.509 186.2 699.509 186.76C699.509 187.4 699.381 187.944 699.125 188.392C698.869 188.84 698.525 189.208 698.093 189.496C697.677 189.768 697.197 189.968 696.653 190.096C696.125 190.224 695.581 190.288 695.021 190.288C694.061 190.288 693.229 190.144 692.525 189.856C691.837 189.552 691.213 189 690.653 188.2L692.141 187.048ZM712.152 187.96C711.48 188.824 710.744 189.432 709.944 189.784C709.144 190.12 708.216 190.288 707.16 190.288C706.28 190.288 705.488 190.136 704.784 189.832C704.08 189.512 703.48 189.088 702.984 188.56C702.504 188.032 702.128 187.408 701.856 186.688C701.6 185.968 701.472 185.2 701.472 184.384C701.472 183.52 701.616 182.728 701.904 182.008C702.192 181.272 702.592 180.648 703.104 180.136C703.616 179.608 704.224 179.2 704.928 178.912C705.632 178.624 706.4 178.48 707.232 178.48C708.016 178.48 708.736 178.616 709.392 178.888C710.048 179.144 710.608 179.528 711.072 180.04C711.552 180.536 711.92 181.152 712.176 181.888C712.432 182.608 712.56 183.432 712.56 184.36V184.96H703.488C703.52 185.44 703.632 185.904 703.824 186.352C704.032 186.784 704.296 187.168 704.616 187.504C704.936 187.824 705.312 188.08 705.744 188.272C706.176 188.464 706.648 188.56 707.16 188.56C707.976 188.56 708.664 188.416 709.224 188.128C709.784 187.84 710.288 187.416 710.736 186.856L712.152 187.96ZM710.544 183.376C710.512 182.416 710.2 181.648 709.608 181.072C709.016 180.496 708.2 180.208 707.16 180.208C706.12 180.208 705.28 180.496 704.64 181.072C704 181.648 703.616 182.416 703.488 183.376H710.544ZM724.792 188.008H724.744C724.392 188.648 723.832 189.192 723.064 189.64C722.312 190.072 721.432 190.288 720.424 190.288C719.64 190.288 718.904 190.144 718.216 189.856C717.528 189.552 716.928 189.136 716.416 188.608C715.92 188.08 715.528 187.456 715.24 186.736C714.952 186.016 714.808 185.232 714.808 184.384C714.808 183.536 714.952 182.752 715.24 182.032C715.528 181.312 715.928 180.688 716.44 180.16C716.952 179.632 717.568 179.224 718.288 178.936C719.024 178.632 719.832 178.48 720.712 178.48C721.528 178.48 722.272 178.648 722.944 178.984C723.632 179.32 724.232 179.792 724.744 180.4H724.792V171.856H726.664V190H724.792V188.008ZM724.792 184.384C724.792 183.792 724.696 183.248 724.504 182.752C724.328 182.24 724.064 181.8 723.712 181.432C723.36 181.048 722.936 180.752 722.44 180.544C721.96 180.32 721.416 180.208 720.808 180.208C720.2 180.208 719.648 180.32 719.152 180.544C718.672 180.752 718.256 181.048 717.904 181.432C717.552 181.8 717.28 182.24 717.088 182.752C716.912 183.248 716.824 183.792 716.824 184.384C716.824 184.976 716.912 185.528 717.088 186.04C717.28 186.536 717.552 186.976 717.904 187.36C718.256 187.728 718.672 188.024 719.152 188.248C719.648 188.456 720.2 188.56 720.808 188.56C721.416 188.56 721.96 188.456 722.44 188.248C722.936 188.024 723.36 187.728 723.712 187.36C724.064 186.976 724.328 186.536 724.504 186.04C724.696 185.528 724.792 184.976 724.792 184.384ZM231.128 221.384C231.128 220.504 231.28 219.704 231.584 218.984C231.888 218.264 232.304 217.648 232.832 217.136C233.36 216.608 233.992 216.2 234.728 215.912C235.464 215.624 236.264 215.48 237.128 215.48C237.992 215.48 238.792 215.624 239.528 215.912C240.264 216.2 240.896 216.608 241.424 217.136C241.952 217.648 242.368 218.264 242.672 218.984C242.976 219.704 243.128 220.504 243.128 221.384C243.128 222.264 242.976 223.064 242.672 223.784C242.368 224.504 241.952 225.128 241.424 225.656C240.896 226.168 240.264 226.568 239.528 226.856C238.792 227.144 237.992 227.288 237.128 227.288C236.264 227.288 235.464 227.144 234.728 226.856C233.992 226.568 233.36 226.168 232.832 225.656C232.304 225.128 231.888 224.504 231.584 223.784C231.28 223.064 231.128 222.264 231.128 221.384ZM233.144 221.384C233.144 221.976 233.232 222.528 233.408 223.04C233.6 223.536 233.872 223.976 234.224 224.36C234.576 224.728 234.992 225.024 235.472 225.248C235.968 225.456 236.52 225.56 237.128 225.56C237.736 225.56 238.28 225.456 238.76 225.248C239.256 225.024 239.68 224.728 240.032 224.36C240.384 223.976 240.648 223.536 240.824 223.04C241.016 222.528 241.112 221.976 241.112 221.384C241.112 220.792 241.016 220.248 240.824 219.752C240.648 219.24 240.384 218.8 240.032 218.432C239.68 218.048 239.256 217.752 238.76 217.544C238.28 217.32 237.736 217.208 237.128 217.208C236.52 217.208 235.968 217.32 235.472 217.544C234.992 217.752 234.576 218.048 234.224 218.432C233.872 218.8 233.6 219.24 233.408 219.752C233.232 220.248 233.144 220.792 233.144 221.384ZM246.026 218.432C246.026 217.92 246.01 217.44 245.978 216.992C245.946 216.544 245.93 216.136 245.93 215.768H247.706C247.706 216.072 247.714 216.376 247.73 216.68C247.746 216.984 247.754 217.296 247.754 217.616H247.802C247.93 217.344 248.106 217.08 248.33 216.824C248.57 216.568 248.85 216.344 249.17 216.152C249.49 215.944 249.85 215.784 250.25 215.672C250.65 215.544 251.082 215.48 251.546 215.48C252.282 215.48 252.914 215.592 253.442 215.816C253.986 216.04 254.434 216.352 254.786 216.752C255.138 217.152 255.394 217.64 255.554 218.216C255.73 218.776 255.818 219.392 255.818 220.064V227H253.946V220.256C253.946 219.312 253.738 218.568 253.322 218.024C252.906 217.48 252.258 217.208 251.378 217.208C250.77 217.208 250.242 217.312 249.794 217.52C249.362 217.728 249.002 218.024 248.714 218.408C248.442 218.792 248.234 219.248 248.09 219.776C247.962 220.304 247.898 220.888 247.898 221.528V227H246.026V218.432ZM270.17 229.568C269.978 230.048 269.778 230.48 269.57 230.864C269.378 231.264 269.138 231.6 268.85 231.872C268.578 232.16 268.242 232.376 267.842 232.52C267.458 232.68 266.986 232.76 266.426 232.76C266.154 232.76 265.866 232.744 265.562 232.712C265.274 232.68 265.002 232.6 264.746 232.472L264.986 230.84C265.178 230.92 265.378 230.968 265.586 230.984C265.794 231.016 266.034 231.032 266.306 231.032C266.914 231.032 267.362 230.864 267.65 230.528C267.938 230.192 268.186 229.744 268.394 229.184L269.162 227.072L264.506 215.768H266.69L270.17 224.576H270.218L273.554 215.768H275.594L270.17 229.568ZM276.972 221.384C276.972 220.504 277.124 219.704 277.428 218.984C277.732 218.264 278.148 217.648 278.676 217.136C279.204 216.608 279.836 216.2 280.572 215.912C281.308 215.624 282.108 215.48 282.972 215.48C283.836 215.48 284.636 215.624 285.372 215.912C286.108 216.2 286.74 216.608 287.268 217.136C287.796 217.648 288.212 218.264 288.516 218.984C288.82 219.704 288.972 220.504 288.972 221.384C288.972 222.264 288.82 223.064 288.516 223.784C288.212 224.504 287.796 225.128 287.268 225.656C286.74 226.168 286.108 226.568 285.372 226.856C284.636 227.144 283.836 227.288 282.972 227.288C282.108 227.288 281.308 227.144 280.572 226.856C279.836 226.568 279.204 226.168 278.676 225.656C278.148 225.128 277.732 224.504 277.428 223.784C277.124 223.064 276.972 222.264 276.972 221.384ZM278.988 221.384C278.988 221.976 279.076 222.528 279.252 223.04C279.444 223.536 279.716 223.976 280.068 224.36C280.42 224.728 280.836 225.024 281.316 225.248C281.812 225.456 282.364 225.56 282.972 225.56C283.58 225.56 284.124 225.456 284.604 225.248C285.1 225.024 285.524 224.728 285.876 224.36C286.228 223.976 286.492 223.536 286.668 223.04C286.86 222.528 286.956 221.976 286.956 221.384C286.956 220.792 286.86 220.248 286.668 219.752C286.492 219.24 286.228 218.8 285.876 218.432C285.524 218.048 285.1 217.752 284.604 217.544C284.124 217.32 283.58 217.208 282.972 217.208C282.364 217.208 281.812 217.32 281.316 217.544C280.836 217.752 280.42 218.048 280.068 218.432C279.716 218.8 279.444 219.24 279.252 219.752C279.076 220.248 278.988 220.792 278.988 221.384ZM301.662 224.336C301.662 224.848 301.678 225.328 301.71 225.776C301.742 226.224 301.758 226.632 301.758 227H299.982C299.982 226.696 299.974 226.392 299.958 226.088C299.942 225.784 299.934 225.472 299.934 225.152H299.886C299.758 225.424 299.574 225.688 299.334 225.944C299.11 226.2 298.838 226.432 298.518 226.64C298.198 226.832 297.838 226.984 297.438 227.096C297.038 227.224 296.606 227.288 296.142 227.288C295.406 227.288 294.766 227.176 294.222 226.952C293.694 226.728 293.254 226.416 292.902 226.016C292.55 225.616 292.286 225.136 292.11 224.576C291.95 224 291.87 223.376 291.87 222.704V215.768H293.742V222.512C293.742 223.456 293.95 224.2 294.366 224.744C294.782 225.288 295.43 225.56 296.31 225.56C296.918 225.56 297.438 225.456 297.87 225.248C298.318 225.04 298.678 224.744 298.95 224.36C299.238 223.976 299.446 223.52 299.574 222.992C299.718 222.464 299.79 221.88 299.79 221.24V215.768H301.662V224.336ZM305.206 218.432C305.206 217.92 305.19 217.44 305.158 216.992C305.126 216.544 305.11 216.136 305.11 215.768H306.886C306.886 216.072 306.894 216.376 306.91 216.68C306.926 216.984 306.934 217.296 306.934 217.616H306.982C307.11 217.344 307.286 217.08 307.51 216.824C307.75 216.568 308.03 216.344 308.35 216.152C308.67 215.944 309.03 215.784 309.43 215.672C309.83 215.544 310.262 215.48 310.726 215.48C310.854 215.48 310.982 215.488 311.11 215.504C311.238 215.52 311.366 215.552 311.494 215.6L311.374 217.496C311.054 217.4 310.718 217.352 310.366 217.352C309.214 217.352 308.374 217.728 307.846 218.48C307.334 219.216 307.078 220.232 307.078 221.528V227H305.206V218.432ZM320.227 208.856H322.099V217.4H322.147C322.659 216.792 323.251 216.32 323.923 215.984C324.611 215.648 325.363 215.48 326.179 215.48C327.059 215.48 327.859 215.632 328.579 215.936C329.315 216.224 329.939 216.632 330.451 217.16C330.963 217.688 331.363 218.312 331.651 219.032C331.939 219.752 332.083 220.536 332.083 221.384C332.083 222.232 331.939 223.016 331.651 223.736C331.363 224.456 330.963 225.08 330.451 225.608C329.955 226.136 329.363 226.552 328.675 226.856C327.987 227.144 327.251 227.288 326.467 227.288C325.459 227.288 324.571 227.072 323.803 226.64C323.051 226.192 322.499 225.648 322.147 225.008H322.099V227H320.227V208.856ZM322.099 221.384C322.099 221.976 322.187 222.528 322.363 223.04C322.555 223.536 322.827 223.976 323.179 224.36C323.531 224.728 323.947 225.024 324.427 225.248C324.923 225.456 325.475 225.56 326.083 225.56C326.691 225.56 327.235 225.456 327.715 225.248C328.211 225.024 328.635 224.728 328.987 224.36C329.339 223.976 329.603 223.536 329.779 223.04C329.971 222.528 330.067 221.976 330.067 221.384C330.067 220.792 329.971 220.248 329.779 219.752C329.603 219.24 329.339 218.8 328.987 218.432C328.635 218.048 328.211 217.752 327.715 217.544C327.235 217.32 326.691 217.208 326.083 217.208C325.475 217.208 324.923 217.32 324.427 217.544C323.947 217.752 323.531 218.048 323.179 218.432C322.827 218.8 322.555 219.24 322.363 219.752C322.187 220.248 322.099 220.792 322.099 221.384ZM334.995 218.432C334.995 217.92 334.979 217.44 334.947 216.992C334.915 216.544 334.899 216.136 334.899 215.768H336.675C336.675 216.072 336.683 216.376 336.699 216.68C336.715 216.984 336.723 217.296 336.723 217.616H336.771C336.899 217.344 337.075 217.08 337.299 216.824C337.539 216.568 337.819 216.344 338.139 216.152C338.459 215.944 338.819 215.784 339.219 215.672C339.619 215.544 340.051 215.48 340.515 215.48C340.643 215.48 340.771 215.488 340.899 215.504C341.027 215.52 341.155 215.552 341.283 215.6L341.163 217.496C340.843 217.4 340.507 217.352 340.155 217.352C339.003 217.352 338.163 217.728 337.635 218.48C337.123 219.216 336.867 220.232 336.867 221.528V227H334.995V218.432ZM343.288 217.208C343.864 216.616 344.544 216.184 345.328 215.912C346.128 215.624 346.936 215.48 347.752 215.48C349.416 215.48 350.616 215.872 351.352 216.656C352.088 217.44 352.456 218.632 352.456 220.232V225.056C352.456 225.376 352.472 225.712 352.504 226.064C352.536 226.4 352.576 226.712 352.624 227H350.824C350.76 226.744 350.72 226.464 350.704 226.16C350.704 225.84 350.704 225.56 350.704 225.32H350.656C350.288 225.896 349.792 226.368 349.168 226.736C348.56 227.104 347.824 227.288 346.96 227.288C346.384 227.288 345.84 227.216 345.328 227.072C344.832 226.928 344.392 226.72 344.008 226.448C343.64 226.16 343.344 225.808 343.12 225.392C342.896 224.976 342.784 224.496 342.784 223.952C342.784 223.024 343.024 222.296 343.504 221.768C343.984 221.24 344.576 220.848 345.28 220.592C346 220.336 346.768 220.176 347.584 220.112C348.416 220.048 349.176 220.016 349.864 220.016H350.584V219.68C350.584 218.864 350.336 218.248 349.84 217.832C349.36 217.416 348.68 217.208 347.8 217.208C347.192 217.208 346.592 217.312 346 217.52C345.424 217.712 344.912 218.016 344.464 218.432L343.288 217.208ZM348.712 221.6C347.512 221.6 346.56 221.768 345.856 222.104C345.152 222.44 344.8 222.992 344.8 223.76C344.8 224.464 345.032 224.968 345.496 225.272C345.976 225.56 346.568 225.704 347.272 225.704C347.816 225.704 348.288 225.616 348.688 225.44C349.104 225.248 349.448 225 349.72 224.696C349.992 224.392 350.2 224.04 350.344 223.64C350.488 223.224 350.568 222.784 350.584 222.32V221.6H348.712ZM355.878 218.432C355.878 217.92 355.862 217.44 355.83 216.992C355.798 216.544 355.782 216.136 355.782 215.768H357.558C357.558 216.072 357.566 216.376 357.582 216.68C357.598 216.984 357.606 217.296 357.606 217.616H357.654C357.782 217.344 357.958 217.08 358.182 216.824C358.422 216.568 358.702 216.344 359.022 216.152C359.342 215.944 359.702 215.784 360.102 215.672C360.502 215.544 360.934 215.48 361.398 215.48C362.134 215.48 362.766 215.592 363.294 215.816C363.838 216.04 364.286 216.352 364.638 216.752C364.99 217.152 365.246 217.64 365.406 218.216C365.582 218.776 365.67 219.392 365.67 220.064V227H363.798V220.256C363.798 219.312 363.59 218.568 363.174 218.024C362.758 217.48 362.11 217.208 361.23 217.208C360.622 217.208 360.094 217.312 359.646 217.52C359.214 217.728 358.854 218.024 358.566 218.408C358.294 218.792 358.086 219.248 357.942 219.776C357.814 220.304 357.75 220.888 357.75 221.528V227H355.878V218.432ZM378.55 225.008H378.502C378.15 225.648 377.59 226.192 376.822 226.64C376.07 227.072 375.19 227.288 374.182 227.288C373.398 227.288 372.662 227.144 371.974 226.856C371.286 226.552 370.686 226.136 370.174 225.608C369.678 225.08 369.286 224.456 368.998 223.736C368.71 223.016 368.566 222.232 368.566 221.384C368.566 220.536 368.71 219.752 368.998 219.032C369.286 218.312 369.686 217.688 370.198 217.16C370.71 216.632 371.326 216.224 372.046 215.936C372.782 215.632 373.59 215.48 374.47 215.48C375.286 215.48 376.03 215.648 376.702 215.984C377.39 216.32 377.99 216.792 378.502 217.4H378.55V208.856H380.422V227H378.55V225.008ZM378.55 221.384C378.55 220.792 378.454 220.248 378.262 219.752C378.086 219.24 377.822 218.8 377.47 218.432C377.118 218.048 376.694 217.752 376.198 217.544C375.718 217.32 375.174 217.208 374.566 217.208C373.958 217.208 373.406 217.32 372.91 217.544C372.43 217.752 372.014 218.048 371.662 218.432C371.31 218.8 371.038 219.24 370.846 219.752C370.67 220.248 370.582 220.792 370.582 221.384C370.582 221.976 370.67 222.528 370.846 223.04C371.038 223.536 371.31 223.976 371.662 224.36C372.014 224.728 372.43 225.024 372.91 225.248C373.406 225.456 373.958 225.56 374.566 225.56C375.174 225.56 375.718 225.456 376.198 225.248C376.694 225.024 377.118 224.728 377.47 224.36C377.822 223.976 378.086 223.536 378.262 223.04C378.454 222.528 378.55 221.976 378.55 221.384ZM390.421 217.208C390.997 216.616 391.677 216.184 392.461 215.912C393.261 215.624 394.069 215.48 394.885 215.48C396.549 215.48 397.749 215.872 398.485 216.656C399.221 217.44 399.589 218.632 399.589 220.232V225.056C399.589 225.376 399.605 225.712 399.637 226.064C399.669 226.4 399.709 226.712 399.757 227H397.957C397.893 226.744 397.853 226.464 397.837 226.16C397.837 225.84 397.837 225.56 397.837 225.32H397.789C397.421 225.896 396.925 226.368 396.301 226.736C395.693 227.104 394.957 227.288 394.093 227.288C393.517 227.288 392.973 227.216 392.461 227.072C391.965 226.928 391.525 226.72 391.141 226.448C390.773 226.16 390.477 225.808 390.253 225.392C390.029 224.976 389.917 224.496 389.917 223.952C389.917 223.024 390.157 222.296 390.637 221.768C391.117 221.24 391.709 220.848 392.413 220.592C393.133 220.336 393.901 220.176 394.717 220.112C395.549 220.048 396.309 220.016 396.997 220.016H397.717V219.68C397.717 218.864 397.469 218.248 396.973 217.832C396.493 217.416 395.813 217.208 394.933 217.208C394.325 217.208 393.725 217.312 393.133 217.52C392.557 217.712 392.045 218.016 391.597 218.432L390.421 217.208ZM395.845 221.6C394.645 221.6 393.693 221.768 392.989 222.104C392.285 222.44 391.933 222.992 391.933 223.76C391.933 224.464 392.165 224.968 392.629 225.272C393.109 225.56 393.701 225.704 394.405 225.704C394.949 225.704 395.421 225.616 395.821 225.44C396.237 225.248 396.581 225 396.853 224.696C397.125 224.392 397.333 224.04 397.477 223.64C397.621 223.224 397.701 222.784 397.717 222.32V221.6H395.845ZM403.01 218.432C403.01 217.92 402.994 217.44 402.962 216.992C402.93 216.544 402.914 216.136 402.914 215.768H404.69C404.69 216.072 404.698 216.376 404.714 216.68C404.73 216.984 404.738 217.296 404.738 217.616H404.786C404.914 217.344 405.09 217.08 405.314 216.824C405.554 216.568 405.834 216.344 406.154 216.152C406.474 215.944 406.834 215.784 407.234 215.672C407.634 215.544 408.066 215.48 408.53 215.48C409.266 215.48 409.898 215.592 410.426 215.816C410.97 216.04 411.418 216.352 411.77 216.752C412.122 217.152 412.378 217.64 412.538 218.216C412.714 218.776 412.802 219.392 412.802 220.064V227H410.93V220.256C410.93 219.312 410.722 218.568 410.306 218.024C409.89 217.48 409.242 217.208 408.362 217.208C407.754 217.208 407.226 217.312 406.778 217.52C406.346 217.728 405.986 218.024 405.698 218.408C405.426 218.792 405.218 219.248 405.074 219.776C404.946 220.304 404.882 220.888 404.882 221.528V227H403.01V218.432ZM425.682 225.008H425.634C425.282 225.648 424.722 226.192 423.954 226.64C423.202 227.072 422.322 227.288 421.314 227.288C420.53 227.288 419.794 227.144 419.106 226.856C418.418 226.552 417.818 226.136 417.306 225.608C416.81 225.08 416.418 224.456 416.13 223.736C415.842 223.016 415.698 222.232 415.698 221.384C415.698 220.536 415.842 219.752 416.13 219.032C416.418 218.312 416.818 217.688 417.33 217.16C417.842 216.632 418.458 216.224 419.178 215.936C419.914 215.632 420.722 215.48 421.602 215.48C422.418 215.48 423.162 215.648 423.834 215.984C424.522 216.32 425.122 216.792 425.634 217.4H425.682V208.856H427.554V227H425.682V225.008ZM425.682 221.384C425.682 220.792 425.586 220.248 425.394 219.752C425.218 219.24 424.954 218.8 424.602 218.432C424.25 218.048 423.826 217.752 423.33 217.544C422.85 217.32 422.306 217.208 421.698 217.208C421.09 217.208 420.538 217.32 420.042 217.544C419.562 217.752 419.146 218.048 418.794 218.432C418.442 218.8 418.17 219.24 417.978 219.752C417.802 220.248 417.714 220.792 417.714 221.384C417.714 221.976 417.802 222.528 417.978 223.04C418.17 223.536 418.442 223.976 418.794 224.36C419.146 224.728 419.562 225.024 420.042 225.248C420.538 225.456 421.09 225.56 421.698 225.56C422.306 225.56 422.85 225.456 423.33 225.248C423.826 225.024 424.25 224.728 424.602 224.36C424.954 223.976 425.218 223.536 425.394 223.04C425.586 222.528 425.682 221.976 425.682 221.384ZM448.906 226.496C448.906 228.544 448.378 230.096 447.322 231.152C446.282 232.224 444.77 232.76 442.786 232.76C441.682 232.76 440.682 232.6 439.786 232.28C438.906 231.96 438.066 231.408 437.266 230.624L438.61 229.088C439.202 229.728 439.826 230.208 440.482 230.528C441.154 230.864 441.922 231.032 442.786 231.032C443.618 231.032 444.306 230.904 444.85 230.648C445.41 230.408 445.85 230.072 446.17 229.64C446.49 229.224 446.714 228.744 446.842 228.2C446.97 227.656 447.034 227.088 447.034 226.496V225.056H446.986C446.538 225.776 445.954 226.304 445.234 226.64C444.514 226.976 443.778 227.144 443.026 227.144C442.146 227.144 441.338 227 440.602 226.712C439.866 226.424 439.234 226.024 438.706 225.512C438.178 225 437.77 224.392 437.482 223.688C437.194 222.984 437.05 222.216 437.05 221.384C437.05 220.472 437.194 219.648 437.482 218.912C437.77 218.176 438.17 217.56 438.682 217.064C439.21 216.552 439.842 216.16 440.578 215.888C441.314 215.616 442.13 215.48 443.026 215.48C443.41 215.48 443.794 215.528 444.178 215.624C444.562 215.704 444.93 215.84 445.282 216.032C445.65 216.208 445.978 216.44 446.266 216.728C446.554 217 446.794 217.32 446.986 217.688H447.034V215.768H448.906V226.496ZM439.066 221.384C439.066 221.96 439.17 222.496 439.378 222.992C439.586 223.472 439.866 223.896 440.218 224.264C440.586 224.616 441.01 224.896 441.49 225.104C441.97 225.312 442.482 225.416 443.026 225.416C443.666 225.416 444.234 225.304 444.73 225.08C445.226 224.856 445.642 224.56 445.978 224.192C446.33 223.808 446.594 223.376 446.77 222.896C446.946 222.4 447.034 221.88 447.034 221.336C447.034 220.728 446.938 220.176 446.746 219.68C446.554 219.168 446.282 218.728 445.93 218.36C445.578 217.992 445.154 217.712 444.658 217.52C444.162 217.312 443.618 217.208 443.026 217.208C442.434 217.208 441.89 217.32 441.394 217.544C440.914 217.752 440.498 218.048 440.146 218.432C439.81 218.8 439.546 219.24 439.354 219.752C439.162 220.248 439.066 220.792 439.066 221.384ZM451.722 221.384C451.722 220.504 451.874 219.704 452.178 218.984C452.482 218.264 452.898 217.648 453.426 217.136C453.954 216.608 454.586 216.2 455.322 215.912C456.058 215.624 456.858 215.48 457.722 215.48C458.586 215.48 459.386 215.624 460.122 215.912C460.858 216.2 461.49 216.608 462.018 217.136C462.546 217.648 462.962 218.264 463.266 218.984C463.57 219.704 463.722 220.504 463.722 221.384C463.722 222.264 463.57 223.064 463.266 223.784C462.962 224.504 462.546 225.128 462.018 225.656C461.49 226.168 460.858 226.568 460.122 226.856C459.386 227.144 458.586 227.288 457.722 227.288C456.858 227.288 456.058 227.144 455.322 226.856C454.586 226.568 453.954 226.168 453.426 225.656C452.898 225.128 452.482 224.504 452.178 223.784C451.874 223.064 451.722 222.264 451.722 221.384ZM453.738 221.384C453.738 221.976 453.826 222.528 454.002 223.04C454.194 223.536 454.466 223.976 454.818 224.36C455.17 224.728 455.586 225.024 456.066 225.248C456.562 225.456 457.114 225.56 457.722 225.56C458.33 225.56 458.874 225.456 459.354 225.248C459.85 225.024 460.274 224.728 460.626 224.36C460.978 223.976 461.242 223.536 461.418 223.04C461.61 222.528 461.706 221.976 461.706 221.384C461.706 220.792 461.61 220.248 461.418 219.752C461.242 219.24 460.978 218.8 460.626 218.432C460.274 218.048 459.85 217.752 459.354 217.544C458.874 217.32 458.33 217.208 457.722 217.208C457.114 217.208 456.562 217.32 456.066 217.544C455.586 217.752 455.17 218.048 454.818 218.432C454.466 218.8 454.194 219.24 454.002 219.752C453.826 220.248 453.738 220.792 453.738 221.384ZM466.476 217.208C467.052 216.616 467.732 216.184 468.516 215.912C469.316 215.624 470.124 215.48 470.94 215.48C472.604 215.48 473.804 215.872 474.54 216.656C475.276 217.44 475.644 218.632 475.644 220.232V225.056C475.644 225.376 475.66 225.712 475.692 226.064C475.724 226.4 475.764 226.712 475.812 227H474.012C473.948 226.744 473.908 226.464 473.892 226.16C473.892 225.84 473.892 225.56 473.892 225.32H473.844C473.476 225.896 472.98 226.368 472.356 226.736C471.748 227.104 471.012 227.288 470.148 227.288C469.572 227.288 469.028 227.216 468.516 227.072C468.02 226.928 467.58 226.72 467.196 226.448C466.828 226.16 466.532 225.808 466.308 225.392C466.084 224.976 465.972 224.496 465.972 223.952C465.972 223.024 466.212 222.296 466.692 221.768C467.172 221.24 467.764 220.848 468.468 220.592C469.188 220.336 469.956 220.176 470.772 220.112C471.604 220.048 472.364 220.016 473.052 220.016H473.772V219.68C473.772 218.864 473.524 218.248 473.028 217.832C472.548 217.416 471.868 217.208 470.988 217.208C470.38 217.208 469.78 217.312 469.188 217.52C468.612 217.712 468.1 218.016 467.652 218.432L466.476 217.208ZM471.9 221.6C470.7 221.6 469.748 221.768 469.044 222.104C468.34 222.44 467.988 222.992 467.988 223.76C467.988 224.464 468.22 224.968 468.684 225.272C469.164 225.56 469.756 225.704 470.46 225.704C471.004 225.704 471.476 225.616 471.876 225.44C472.292 225.248 472.636 225 472.908 224.696C473.18 224.392 473.388 224.04 473.532 223.64C473.676 223.224 473.756 222.784 473.772 222.32V221.6H471.9ZM479.233 208.856H481.105V227H479.233V208.856ZM485.071 224.048C485.439 224.512 485.839 224.88 486.271 225.152C486.719 225.424 487.279 225.56 487.951 225.56C488.239 225.56 488.527 225.528 488.815 225.464C489.119 225.4 489.391 225.296 489.631 225.152C489.871 225.008 490.063 224.832 490.207 224.624C490.351 224.4 490.423 224.136 490.423 223.832C490.423 223.528 490.351 223.28 490.207 223.088C490.079 222.896 489.903 222.736 489.679 222.608C489.455 222.464 489.199 222.352 488.911 222.272C488.623 222.192 488.327 222.12 488.023 222.056C487.495 221.944 486.991 221.816 486.511 221.672C486.031 221.528 485.607 221.344 485.239 221.12C484.887 220.88 484.599 220.576 484.375 220.208C484.167 219.84 484.063 219.368 484.063 218.792C484.063 218.248 484.183 217.768 484.423 217.352C484.663 216.936 484.983 216.592 485.383 216.32C485.783 216.048 486.231 215.84 486.727 215.696C487.223 215.552 487.735 215.48 488.263 215.48C489.063 215.48 489.799 215.64 490.471 215.96C491.159 216.28 491.695 216.8 492.079 217.52L490.519 218.552C490.279 218.152 489.959 217.832 489.559 217.592C489.175 217.336 488.703 217.208 488.143 217.208C487.887 217.208 487.623 217.24 487.351 217.304C487.095 217.368 486.863 217.464 486.655 217.592C486.447 217.72 486.271 217.888 486.127 218.096C485.999 218.288 485.935 218.512 485.935 218.768C485.935 219.008 486.007 219.216 486.151 219.392C486.311 219.552 486.519 219.696 486.775 219.824C487.047 219.952 487.351 220.064 487.687 220.16C488.039 220.256 488.399 220.336 488.767 220.4C489.263 220.496 489.735 220.624 490.183 220.784C490.631 220.928 491.023 221.128 491.359 221.384C491.695 221.64 491.959 221.96 492.151 222.344C492.343 222.728 492.439 223.2 492.439 223.76C492.439 224.4 492.311 224.944 492.055 225.392C491.799 225.84 491.455 226.208 491.023 226.496C490.607 226.768 490.127 226.968 489.583 227.096C489.055 227.224 488.511 227.288 487.951 227.288C486.991 227.288 486.159 227.144 485.455 226.856C484.767 226.552 484.143 226 483.583 225.2L485.071 224.048ZM496.609 224.264C497.009 224.264 497.345 224.408 497.617 224.696C497.905 224.968 498.049 225.304 498.049 225.704C498.049 226.104 497.897 226.448 497.593 226.736C497.305 227.008 496.977 227.144 496.609 227.144C496.241 227.144 495.905 227.008 495.601 226.736C495.313 226.448 495.169 226.104 495.169 225.704C495.169 225.304 495.305 224.968 495.577 224.696C495.865 224.408 496.209 224.264 496.609 224.264Z" fill="black"></path><path d="M230 156.5H758.839V158.25H230V156.5Z" fill="black"></path><path d="M137.325 119H103.575L66.0752 129.5L73.7252 156.95L99.8252 149.45V198.5H66.0752V227H171.075V198.5H137.325V119ZM177.872 227H213.872V200H177.872V227Z" fill="black"></path></svg>