<svg xmlns="http://www.w3.org/2000/svg" width="820" height="300" viewBox="0 0 820 300" fill="none"><rect y="60" width="820" height="226" rx="20" fill="#FE2C55"></rect><path d="M175.806 19.72C178.686 18.52 180.406 16.2 180.406 12.36C180.406 6.32 176.086 3.88 169.526 3.88H148.526V32H153.646V22.52H171.046C174.246 22.52 174.966 23.24 174.966 26.08V32H180.046V24.84C180.046 21.96 178.566 20.16 175.806 19.72ZM168.206 8.4C171.126 8.4 174.926 8.4 174.926 13.2C174.926 18.04 171.126 18.04 168.206 18.04H153.646V8.4H168.206ZM216.134 3.88H186.534V32H216.134V27.56H191.654V20.16H215.334V15.72H191.654V8.36H216.134V3.88ZM260.174 32L243.894 3.88H237.414L221.134 32H226.974L230.454 25.92H250.894L254.374 32H260.174ZM240.654 8.12L248.334 21.52H232.974L240.654 8.12ZM284.583 3.88H264.463V32H284.583C292.023 32 298.383 27.52 298.383 17.96C298.383 8.36 292.023 3.88 284.583 3.88ZM269.583 27.44V8.44H281.983C289.223 8.44 292.903 10.2 292.903 17.96C292.903 25.68 289.223 27.44 281.983 27.44H269.583ZM318.117 18.36L305.277 3.88H298.517L315.357 22.76V32H320.837V22.76L337.677 3.88H330.917L318.117 18.36ZM394.128 3.88H359.728V8.44H374.408V32H379.488V8.44H394.128V3.88ZM414.723 32.8C426.963 32.8 432.803 26.92 432.803 17.92C432.803 8.92 426.963 3.08 414.723 3.08C402.443 3.08 396.603 8.88 396.603 17.92C396.603 26.96 402.443 32.8 414.723 32.8ZM414.723 28.24C406.803 28.24 402.123 25.2 402.123 17.92C402.123 10.64 406.763 7.64 414.723 7.64C422.683 7.64 427.323 10.68 427.323 17.92C427.323 25.16 422.643 28.24 414.723 28.24ZM454.884 22.88C455.284 30.4 462.444 32.8 473.924 32.8C483.204 32.8 490.644 31.12 490.644 23.8C490.644 16.8 483.804 16.28 472.884 15.52C463.564 14.88 461.484 14.16 461.484 11.44C461.484 8.84 463.564 7.48 471.764 7.48C480.524 7.48 483.964 8.92 483.964 12.56H489.444C489.404 6.2 482.884 3.08 472.444 3.08C462.444 3.08 456.004 5.08 456.004 11.2C456.004 17.36 460.884 19.28 472.684 19.96C483.204 20.6 485.164 21.08 485.164 24.08C485.164 26.88 482.124 28.4 473.884 28.4C463.524 28.4 460.404 26.36 460.404 22.88H454.884ZM527.409 3.88H493.009V8.44H507.689V32H512.769V8.44H527.409V3.88ZM560.799 32L544.519 3.88H538.039L521.759 32H527.599L531.079 25.92H551.519L554.999 32H560.799ZM541.279 8.12L548.959 21.52H533.599L541.279 8.12ZM592.368 19.72C595.248 18.52 596.968 16.2 596.968 12.36C596.968 6.32 592.648 3.88 586.088 3.88H565.088V32H570.208V22.52H587.608C590.808 22.52 591.528 23.24 591.528 26.08V32H596.608V24.84C596.608 21.96 595.128 20.16 592.368 19.72ZM584.768 8.4C587.688 8.4 591.488 8.4 591.488 13.2C591.488 18.04 587.688 18.04 584.768 18.04H570.208V8.4H584.768ZM634.909 3.88H600.509V8.44H615.189V32H620.269V8.44H634.909V3.88ZM656.402 23.8C656.402 17.44 670.482 20.08 670.482 11.16C670.482 5.52 665.122 3.08 656.082 3.08C647.122 3.08 640.442 5.84 640.362 14.32H645.762C645.762 9.32 649.042 7.44 656.362 7.44C662.762 7.44 665.002 9.08 665.002 11.24C665.002 17.08 651.002 14.08 651.002 23.8H656.402ZM651.002 32H656.082V27.6H651.002V32Z" fill="white"></path><path d="M170.144 149.15C170.144 127.4 148.844 116 115.694 116C82.9939 116 55.5439 127.4 52.5439 157.25H91.5439C91.5439 146 100.544 141.5 114.644 141.5C127.394 141.5 131.144 145.4 131.144 151.25C131.144 171.95 51.0439 166.7 51.0439 210.5V227H168.644V198.5H96.1939C103.694 186.5 170.144 188.75 170.144 149.15ZM176.903 227H212.903V200H176.903V227Z" fill="white"></path><path d="M244.77 134.275C244.327 133.715 243.72 133.307 242.95 133.05C242.203 132.77 241.492 132.63 240.815 132.63C240.418 132.63 240.01 132.677 239.59 132.77C239.17 132.863 238.773 133.015 238.4 133.225C238.027 133.412 237.723 133.668 237.49 133.995C237.257 134.322 237.14 134.718 237.14 135.185C237.14 135.932 237.42 136.503 237.98 136.9C238.54 137.297 239.24 137.635 240.08 137.915C240.943 138.195 241.865 138.475 242.845 138.755C243.825 139.035 244.735 139.432 245.575 139.945C246.438 140.458 247.15 141.147 247.71 142.01C248.27 142.873 248.55 144.028 248.55 145.475C248.55 146.852 248.293 148.053 247.78 149.08C247.267 150.107 246.567 150.958 245.68 151.635C244.817 152.312 243.802 152.813 242.635 153.14C241.492 153.467 240.278 153.63 238.995 153.63C237.385 153.63 235.892 153.385 234.515 152.895C233.138 152.405 231.855 151.612 230.665 150.515L234.55 146.245C235.11 146.992 235.81 147.575 236.65 147.995C237.513 148.392 238.4 148.59 239.31 148.59C239.753 148.59 240.197 148.543 240.64 148.45C241.107 148.333 241.515 148.17 241.865 147.96C242.238 147.75 242.53 147.482 242.74 147.155C242.973 146.828 243.09 146.443 243.09 146C243.09 145.253 242.798 144.67 242.215 144.25C241.655 143.807 240.943 143.433 240.08 143.13C239.217 142.827 238.283 142.523 237.28 142.22C236.277 141.917 235.343 141.508 234.48 140.995C233.617 140.482 232.893 139.805 232.31 138.965C231.75 138.125 231.47 137.017 231.47 135.64C231.47 134.31 231.727 133.143 232.24 132.14C232.777 131.137 233.477 130.297 234.34 129.62C235.227 128.943 236.242 128.442 237.385 128.115C238.528 127.765 239.707 127.59 240.92 127.59C242.32 127.59 243.673 127.788 244.98 128.185C246.287 128.582 247.465 129.247 248.515 130.18L244.77 134.275ZM257.413 133.05H250.343V128.22H269.943V133.05H262.873V153H257.413V133.05ZM272.715 128.22H282.305C283.565 128.22 284.755 128.348 285.875 128.605C287.019 128.838 288.01 129.247 288.85 129.83C289.714 130.39 290.39 131.16 290.88 132.14C291.394 133.097 291.65 134.298 291.65 135.745C291.65 137.495 291.195 138.988 290.285 140.225C289.375 141.438 288.045 142.208 286.295 142.535L292.595 153H286.05L280.87 143.095H278.175V153H272.715V128.22ZM278.175 138.475H281.395C281.885 138.475 282.399 138.463 282.935 138.44C283.495 138.393 283.997 138.288 284.44 138.125C284.884 137.938 285.245 137.658 285.525 137.285C285.829 136.912 285.98 136.387 285.98 135.71C285.98 135.08 285.852 134.578 285.595 134.205C285.339 133.832 285.012 133.552 284.615 133.365C284.219 133.155 283.764 133.015 283.25 132.945C282.737 132.875 282.235 132.84 281.745 132.84H278.175V138.475ZM303.566 128.22H308.081L318.861 153H312.701L310.566 147.75H300.941L298.876 153H292.856L303.566 128.22ZM305.666 135.43L302.656 143.13H308.711L305.666 135.43ZM322.935 133.05H315.865V128.22H335.465V133.05H328.395V153H322.935V133.05ZM338.448 128.22H355.283V133.26H343.908V137.88H354.653V142.92H343.908V147.96H355.913V153H338.448V128.22ZM382.719 151.25C381.109 152.09 379.429 152.697 377.679 153.07C375.929 153.443 374.144 153.63 372.324 153.63C370.387 153.63 368.602 153.327 366.969 152.72C365.335 152.113 363.924 151.25 362.734 150.13C361.544 148.987 360.61 147.61 359.934 146C359.28 144.39 358.954 142.593 358.954 140.61C358.954 138.627 359.28 136.83 359.934 135.22C360.61 133.61 361.544 132.245 362.734 131.125C363.924 129.982 365.335 129.107 366.969 128.5C368.602 127.893 370.387 127.59 372.324 127.59C374.307 127.59 376.127 127.835 377.784 128.325C379.464 128.792 380.934 129.608 382.194 130.775L378.344 134.975C377.597 134.205 376.757 133.622 375.824 133.225C374.89 132.828 373.724 132.63 372.324 132.63C371.157 132.63 370.095 132.828 369.139 133.225C368.205 133.622 367.4 134.182 366.724 134.905C366.047 135.605 365.522 136.445 365.149 137.425C364.799 138.405 364.624 139.467 364.624 140.61C364.624 141.777 364.799 142.85 365.149 143.83C365.522 144.787 366.047 145.627 366.724 146.35C367.4 147.05 368.205 147.598 369.139 147.995C370.095 148.392 371.157 148.59 372.324 148.59C373.514 148.59 374.54 148.462 375.404 148.205C376.267 147.925 376.955 147.645 377.469 147.365V143.34H373.024V138.3H382.719V151.25ZM393.615 142.43L384.305 128.22H391.095L396.345 137.495L401.91 128.22H408.385L399.075 142.43V153H393.615V142.43ZM438.882 147.155L444.412 153H437.657L435.592 150.655C434.565 151.705 433.457 152.463 432.267 152.93C431.1 153.397 429.782 153.63 428.312 153.63C427.192 153.63 426.107 153.478 425.057 153.175C424.007 152.872 423.062 152.417 422.222 151.81C421.405 151.18 420.752 150.398 420.262 149.465C419.772 148.532 419.527 147.447 419.527 146.21C419.527 145.417 419.655 144.67 419.912 143.97C420.192 143.247 420.565 142.593 421.032 142.01C421.522 141.427 422.082 140.925 422.712 140.505C423.342 140.062 424.03 139.712 424.777 139.455C424.38 139.012 424.007 138.592 423.657 138.195C423.33 137.798 423.038 137.378 422.782 136.935C422.548 136.492 422.362 136.025 422.222 135.535C422.105 135.045 422.047 134.497 422.047 133.89C422.047 132.77 422.257 131.813 422.677 131.02C423.12 130.227 423.703 129.573 424.427 129.06C425.15 128.547 425.978 128.173 426.912 127.94C427.845 127.707 428.802 127.59 429.782 127.59C430.738 127.59 431.648 127.718 432.512 127.975C433.375 128.208 434.133 128.582 434.787 129.095C435.463 129.585 436 130.215 436.397 130.985C436.793 131.732 436.992 132.63 436.992 133.68C436.992 134.427 436.863 135.115 436.607 135.745C436.373 136.375 436.047 136.97 435.627 137.53C435.207 138.067 434.717 138.557 434.157 139C433.62 139.42 433.037 139.793 432.407 140.12L435.592 143.515L438.007 140.225H444.097L438.882 147.155ZM429.712 131.79C429.035 131.79 428.463 132 427.997 132.42C427.53 132.84 427.297 133.4 427.297 134.1C427.297 134.403 427.367 134.707 427.507 135.01C427.647 135.29 427.81 135.57 427.997 135.85C428.207 136.107 428.428 136.352 428.662 136.585C428.918 136.818 429.152 137.028 429.362 137.215C429.642 137.052 429.945 136.865 430.272 136.655C430.598 136.422 430.902 136.177 431.182 135.92C431.462 135.64 431.695 135.348 431.882 135.045C432.068 134.718 432.162 134.38 432.162 134.03C432.162 133.307 431.917 132.758 431.427 132.385C430.96 131.988 430.388 131.79 429.712 131.79ZM428.032 142.43C427.682 142.64 427.332 142.862 426.982 143.095C426.655 143.305 426.352 143.55 426.072 143.83C425.815 144.087 425.605 144.39 425.442 144.74C425.278 145.09 425.197 145.498 425.197 145.965C425.197 146.432 425.29 146.852 425.477 147.225C425.663 147.598 425.908 147.913 426.212 148.17C426.515 148.427 426.865 148.637 427.262 148.8C427.682 148.94 428.102 149.01 428.522 149.01C429.338 149.01 430.038 148.835 430.622 148.485C431.228 148.135 431.823 147.703 432.407 147.19L428.032 142.43ZM457.421 128.22H462.881V153H457.421V128.22ZM467.847 128.22H476.107L481.812 144.39H481.882L487.622 128.22H495.847V153H490.387V133.995H490.317L483.807 153H479.642L473.377 133.995H473.307V153H467.847V128.22ZM500.899 128.22H510.104C511.387 128.22 512.601 128.337 513.744 128.57C514.887 128.803 515.879 129.212 516.719 129.795C517.582 130.355 518.259 131.125 518.749 132.105C519.262 133.062 519.519 134.275 519.519 135.745C519.519 137.192 519.286 138.405 518.819 139.385C518.352 140.365 517.711 141.147 516.894 141.73C516.077 142.313 515.109 142.733 513.989 142.99C512.869 143.223 511.656 143.34 510.349 143.34H506.359V153H500.899V128.22ZM506.359 138.72H509.999C510.489 138.72 510.956 138.673 511.399 138.58C511.866 138.487 512.274 138.335 512.624 138.125C512.997 137.892 513.289 137.588 513.499 137.215C513.732 136.818 513.849 136.328 513.849 135.745C513.849 135.115 513.697 134.613 513.394 134.24C513.114 133.843 512.741 133.54 512.274 133.33C511.831 133.12 511.329 132.992 510.769 132.945C510.209 132.875 509.672 132.84 509.159 132.84H506.359V138.72ZM523.155 128.22H528.615V147.96H538.73V153H523.155V128.22ZM541.954 128.22H558.789V133.26H547.414V137.88H558.159V142.92H547.414V147.96H559.419V153H541.954V128.22ZM563.79 128.22H572.05L577.755 144.39H577.825L583.565 128.22H591.79V153H586.33V133.995H586.26L579.75 153H575.585L569.32 133.995H569.25V153H563.79V128.22ZM597.051 128.22H613.886V133.26H602.511V137.88H613.256V142.92H602.511V147.96H614.516V153H597.051V128.22ZM618.887 128.22H626.307L636.842 145.44H636.912V128.22H642.372V153H635.232L624.417 135.36H624.347V153H618.887V128.22ZM652.222 133.05H645.152V128.22H664.752V133.05H657.682V153H652.222V133.05ZM672.467 128.22H676.982L687.762 153H681.602L679.467 147.75H669.842L667.777 153H661.757L672.467 128.22ZM674.567 135.43L671.557 143.13H677.612L674.567 135.43ZM691.836 133.05H684.766V128.22H704.366V133.05H697.296V153H691.836V133.05ZM707.069 128.22H712.529V153H707.069V128.22ZM716.166 140.61C716.166 138.627 716.492 136.83 717.146 135.22C717.822 133.61 718.756 132.245 719.946 131.125C721.136 129.982 722.547 129.107 724.181 128.5C725.814 127.893 727.599 127.59 729.536 127.59C731.472 127.59 733.257 127.893 734.891 128.5C736.524 129.107 737.936 129.982 739.126 131.125C740.316 132.245 741.237 133.61 741.891 135.22C742.567 136.83 742.906 138.627 742.906 140.61C742.906 142.593 742.567 144.39 741.891 146C741.237 147.61 740.316 148.987 739.126 150.13C737.936 151.25 736.524 152.113 734.891 152.72C733.257 153.327 731.472 153.63 729.536 153.63C727.599 153.63 725.814 153.327 724.181 152.72C722.547 152.113 721.136 151.25 719.946 150.13C718.756 148.987 717.822 147.61 717.146 146C716.492 144.39 716.166 142.593 716.166 140.61ZM721.836 140.61C721.836 141.777 722.011 142.85 722.361 143.83C722.734 144.787 723.259 145.627 723.936 146.35C724.612 147.05 725.417 147.598 726.351 147.995C727.307 148.392 728.369 148.59 729.536 148.59C730.702 148.59 731.752 148.392 732.686 147.995C733.642 147.598 734.459 147.05 735.136 146.35C735.812 145.627 736.326 144.787 736.676 143.83C737.049 142.85 737.236 141.777 737.236 140.61C737.236 139.467 737.049 138.405 736.676 137.425C736.326 136.445 735.812 135.605 735.136 134.905C734.459 134.182 733.642 133.622 732.686 133.225C731.752 132.828 730.702 132.63 729.536 132.63C728.369 132.63 727.307 132.828 726.351 133.225C725.417 133.622 724.612 134.182 723.936 134.905C723.259 135.605 722.734 136.445 722.361 137.425C722.011 138.405 721.836 139.467 721.836 140.61ZM746.617 128.22H754.037L764.572 145.44H764.642V128.22H770.102V153H762.962L752.147 135.36H752.077V153H746.617V128.22ZM232.112 173.008H242.648V174.88H234.128V180.496H242.048V182.368H234.128V190H232.112V173.008ZM254.904 187.336C254.904 187.848 254.92 188.328 254.952 188.776C254.984 189.224 255 189.632 255 190H253.224C253.224 189.696 253.216 189.392 253.2 189.088C253.184 188.784 253.176 188.472 253.176 188.152H253.128C253 188.424 252.816 188.688 252.576 188.944C252.352 189.2 252.08 189.432 251.76 189.64C251.44 189.832 251.08 189.984 250.68 190.096C250.28 190.224 249.848 190.288 249.384 190.288C248.648 190.288 248.008 190.176 247.464 189.952C246.936 189.728 246.496 189.416 246.144 189.016C245.792 188.616 245.528 188.136 245.352 187.576C245.192 187 245.112 186.376 245.112 185.704V178.768H246.984V185.512C246.984 186.456 247.192 187.2 247.608 187.744C248.024 188.288 248.672 188.56 249.552 188.56C250.16 188.56 250.68 188.456 251.112 188.248C251.56 188.04 251.92 187.744 252.192 187.36C252.48 186.976 252.688 186.52 252.816 185.992C252.96 185.464 253.032 184.88 253.032 184.24V178.768H254.904V187.336ZM258.616 171.856H260.488V190H258.616V171.856ZM264.405 171.856H266.277V190H264.405V171.856ZM274.131 192.568C273.939 193.048 273.739 193.48 273.531 193.864C273.339 194.264 273.099 194.6 272.811 194.872C272.539 195.16 272.203 195.376 271.803 195.52C271.419 195.68 270.947 195.76 270.387 195.76C270.115 195.76 269.827 195.744 269.523 195.712C269.235 195.68 268.963 195.6 268.707 195.472L268.947 193.84C269.139 193.92 269.339 193.968 269.547 193.984C269.755 194.016 269.995 194.032 270.267 194.032C270.875 194.032 271.323 193.864 271.611 193.528C271.899 193.192 272.147 192.744 272.355 192.184L273.123 190.072L268.467 178.768H270.651L274.131 187.576H274.179L277.515 178.768H279.555L274.131 192.568ZM296.252 181.576C295.852 181.096 295.42 180.752 294.956 180.544C294.492 180.32 293.98 180.208 293.42 180.208C292.796 180.208 292.244 180.32 291.764 180.544C291.284 180.752 290.884 181.048 290.564 181.432C290.26 181.816 290.028 182.264 289.868 182.776C289.708 183.272 289.628 183.808 289.628 184.384C289.628 184.96 289.716 185.504 289.892 186.016C290.084 186.512 290.34 186.952 290.66 187.336C290.996 187.72 291.396 188.024 291.86 188.248C292.324 188.456 292.844 188.56 293.42 188.56C294.652 188.56 295.604 188.096 296.276 187.168L297.668 188.488C297.124 189.112 296.484 189.568 295.748 189.856C295.012 190.144 294.236 190.288 293.42 190.288C292.556 190.288 291.764 190.144 291.044 189.856C290.324 189.568 289.708 189.16 289.196 188.632C288.7 188.104 288.308 187.48 288.02 186.76C287.748 186.04 287.612 185.248 287.612 184.384C287.612 183.536 287.748 182.752 288.02 182.032C288.308 181.312 288.708 180.688 289.22 180.16C289.732 179.632 290.34 179.224 291.044 178.936C291.764 178.632 292.556 178.48 293.42 178.48C294.252 178.48 295.036 178.624 295.772 178.912C296.524 179.2 297.18 179.648 297.74 180.256L296.252 181.576ZM309.631 187.336C309.631 187.848 309.647 188.328 309.679 188.776C309.711 189.224 309.727 189.632 309.727 190H307.951C307.951 189.696 307.943 189.392 307.927 189.088C307.911 188.784 307.903 188.472 307.903 188.152H307.855C307.727 188.424 307.543 188.688 307.303 188.944C307.079 189.2 306.807 189.432 306.487 189.64C306.167 189.832 305.807 189.984 305.407 190.096C305.007 190.224 304.575 190.288 304.111 190.288C303.375 190.288 302.735 190.176 302.191 189.952C301.663 189.728 301.223 189.416 300.871 189.016C300.519 188.616 300.255 188.136 300.079 187.576C299.919 187 299.839 186.376 299.839 185.704V178.768H301.711V185.512C301.711 186.456 301.919 187.2 302.335 187.744C302.751 188.288 303.399 188.56 304.279 188.56C304.887 188.56 305.407 188.456 305.839 188.248C306.287 188.04 306.647 187.744 306.919 187.36C307.207 186.976 307.415 186.52 307.543 185.992C307.687 185.464 307.759 184.88 307.759 184.24V178.768H309.631V187.336ZM313.414 187.048C313.782 187.512 314.182 187.88 314.614 188.152C315.062 188.424 315.622 188.56 316.294 188.56C316.582 188.56 316.87 188.528 317.158 188.464C317.462 188.4 317.734 188.296 317.974 188.152C318.214 188.008 318.406 187.832 318.55 187.624C318.694 187.4 318.766 187.136 318.766 186.832C318.766 186.528 318.694 186.28 318.55 186.088C318.422 185.896 318.246 185.736 318.022 185.608C317.798 185.464 317.542 185.352 317.254 185.272C316.966 185.192 316.67 185.12 316.366 185.056C315.838 184.944 315.334 184.816 314.854 184.672C314.374 184.528 313.95 184.344 313.582 184.12C313.23 183.88 312.942 183.576 312.718 183.208C312.51 182.84 312.406 182.368 312.406 181.792C312.406 181.248 312.526 180.768 312.766 180.352C313.006 179.936 313.326 179.592 313.726 179.32C314.126 179.048 314.574 178.84 315.07 178.696C315.566 178.552 316.078 178.48 316.606 178.48C317.406 178.48 318.142 178.64 318.814 178.96C319.502 179.28 320.038 179.8 320.422 180.52L318.862 181.552C318.622 181.152 318.302 180.832 317.902 180.592C317.518 180.336 317.046 180.208 316.486 180.208C316.23 180.208 315.966 180.24 315.694 180.304C315.438 180.368 315.206 180.464 314.998 180.592C314.79 180.72 314.614 180.888 314.47 181.096C314.342 181.288 314.278 181.512 314.278 181.768C314.278 182.008 314.35 182.216 314.494 182.392C314.654 182.552 314.862 182.696 315.118 182.824C315.39 182.952 315.694 183.064 316.03 183.16C316.382 183.256 316.742 183.336 317.11 183.4C317.606 183.496 318.078 183.624 318.526 183.784C318.974 183.928 319.366 184.128 319.702 184.384C320.038 184.64 320.302 184.96 320.494 185.344C320.686 185.728 320.782 186.2 320.782 186.76C320.782 187.4 320.654 187.944 320.398 188.392C320.142 188.84 319.798 189.208 319.366 189.496C318.95 189.768 318.47 189.968 317.926 190.096C317.398 190.224 316.854 190.288 316.294 190.288C315.334 190.288 314.502 190.144 313.798 189.856C313.11 189.552 312.486 189 311.926 188.2L313.414 187.048ZM329.537 180.352H326.225V185.968C326.225 186.336 326.233 186.68 326.249 187C326.265 187.304 326.329 187.576 326.441 187.816C326.553 188.04 326.721 188.224 326.945 188.368C327.169 188.496 327.489 188.56 327.905 188.56C328.177 188.56 328.457 188.528 328.745 188.464C329.033 188.4 329.305 188.304 329.561 188.176L329.633 189.88C329.313 190.024 328.953 190.128 328.553 190.192C328.169 190.256 327.801 190.288 327.449 190.288C326.777 190.288 326.241 190.2 325.841 190.024C325.441 189.848 325.129 189.6 324.905 189.28C324.681 188.96 324.529 188.568 324.449 188.104C324.385 187.624 324.353 187.096 324.353 186.52V180.352H321.905V178.768H324.353V175.576H326.225V178.768H329.537V180.352ZM331.183 184.384C331.183 183.504 331.335 182.704 331.639 181.984C331.943 181.264 332.359 180.648 332.887 180.136C333.415 179.608 334.047 179.2 334.783 178.912C335.519 178.624 336.319 178.48 337.183 178.48C338.047 178.48 338.847 178.624 339.583 178.912C340.319 179.2 340.951 179.608 341.479 180.136C342.007 180.648 342.423 181.264 342.727 181.984C343.031 182.704 343.183 183.504 343.183 184.384C343.183 185.264 343.031 186.064 342.727 186.784C342.423 187.504 342.007 188.128 341.479 188.656C340.951 189.168 340.319 189.568 339.583 189.856C338.847 190.144 338.047 190.288 337.183 190.288C336.319 190.288 335.519 190.144 334.783 189.856C334.047 189.568 333.415 189.168 332.887 188.656C332.359 188.128 331.943 187.504 331.639 186.784C331.335 186.064 331.183 185.264 331.183 184.384ZM333.199 184.384C333.199 184.976 333.287 185.528 333.463 186.04C333.655 186.536 333.927 186.976 334.279 187.36C334.631 187.728 335.047 188.024 335.527 188.248C336.023 188.456 336.575 188.56 337.183 188.56C337.791 188.56 338.335 188.456 338.815 188.248C339.311 188.024 339.735 187.728 340.087 187.36C340.439 186.976 340.703 186.536 340.879 186.04C341.071 185.528 341.167 184.976 341.167 184.384C341.167 183.792 341.071 183.248 340.879 182.752C340.703 182.24 340.439 181.8 340.087 181.432C339.735 181.048 339.311 180.752 338.815 180.544C338.335 180.32 337.791 180.208 337.183 180.208C336.575 180.208 336.023 180.32 335.527 180.544C335.047 180.752 334.631 181.048 334.279 181.432C333.927 181.8 333.655 182.24 333.463 182.752C333.287 183.248 333.199 183.792 333.199 184.384ZM346.081 181.432C346.081 180.92 346.065 180.44 346.033 179.992C346.001 179.544 345.985 179.136 345.985 178.768H347.761C347.761 179.072 347.769 179.376 347.785 179.68C347.801 179.984 347.809 180.296 347.809 180.616H347.857C347.985 180.344 348.161 180.08 348.385 179.824C348.625 179.568 348.905 179.344 349.225 179.152C349.545 178.944 349.905 178.784 350.305 178.672C350.705 178.544 351.137 178.48 351.601 178.48C352.209 178.48 352.713 178.56 353.113 178.72C353.529 178.864 353.873 179.048 354.145 179.272C354.417 179.48 354.625 179.712 354.769 179.968C354.929 180.208 355.057 180.424 355.153 180.616C355.569 179.944 356.049 179.424 356.593 179.056C357.137 178.672 357.841 178.48 358.705 178.48C359.505 178.48 360.177 178.592 360.721 178.816C361.265 179.024 361.705 179.336 362.041 179.752C362.377 180.152 362.617 180.648 362.761 181.24C362.905 181.816 362.977 182.464 362.977 183.184V190H361.105V183.28C361.105 182.896 361.065 182.52 360.985 182.152C360.905 181.784 360.761 181.456 360.553 181.168C360.345 180.88 360.065 180.648 359.713 180.472C359.361 180.296 358.913 180.208 358.369 180.208C357.969 180.208 357.593 180.288 357.241 180.448C356.889 180.608 356.577 180.832 356.305 181.12C356.049 181.408 355.841 181.76 355.681 182.176C355.537 182.576 355.465 183.024 355.465 183.52V190H353.593V183.64C353.593 182.392 353.425 181.512 353.089 181C352.753 180.472 352.201 180.208 351.433 180.208C350.825 180.208 350.297 180.312 349.849 180.52C349.417 180.728 349.057 181.024 348.769 181.408C348.497 181.792 348.289 182.248 348.145 182.776C348.017 183.304 347.953 183.888 347.953 184.528V190H346.081V181.432ZM366.686 178.768H368.558V190H366.686V178.768ZM366.254 174.376C366.254 174.008 366.382 173.688 366.638 173.416C366.91 173.144 367.238 173.008 367.622 173.008C368.006 173.008 368.326 173.144 368.582 173.416C368.854 173.688 368.99 174.008 368.99 174.376C368.99 174.776 368.862 175.104 368.606 175.36C368.35 175.616 368.022 175.744 367.622 175.744C367.222 175.744 366.894 175.616 366.638 175.36C366.382 175.104 366.254 174.776 366.254 174.376ZM371.228 188.536L377.828 180.352H371.516V178.768H380.276V180.208L373.676 188.416H380.444V190H371.228V188.536ZM392.98 187.96C392.308 188.824 391.572 189.432 390.772 189.784C389.972 190.12 389.044 190.288 387.988 190.288C387.108 190.288 386.316 190.136 385.612 189.832C384.908 189.512 384.308 189.088 383.812 188.56C383.332 188.032 382.956 187.408 382.684 186.688C382.428 185.968 382.3 185.2 382.3 184.384C382.3 183.52 382.444 182.728 382.732 182.008C383.02 181.272 383.42 180.648 383.932 180.136C384.444 179.608 385.052 179.2 385.756 178.912C386.46 178.624 387.228 178.48 388.06 178.48C388.844 178.48 389.564 178.616 390.22 178.888C390.876 179.144 391.436 179.528 391.9 180.04C392.38 180.536 392.748 181.152 393.004 181.888C393.26 182.608 393.388 183.432 393.388 184.36V184.96H384.316C384.348 185.44 384.46 185.904 384.652 186.352C384.86 186.784 385.124 187.168 385.444 187.504C385.764 187.824 386.14 188.08 386.572 188.272C387.004 188.464 387.476 188.56 387.988 188.56C388.804 188.56 389.492 188.416 390.052 188.128C390.612 187.84 391.116 187.416 391.564 186.856L392.98 187.96ZM391.372 183.376C391.34 182.416 391.028 181.648 390.436 181.072C389.844 180.496 389.028 180.208 387.988 180.208C386.948 180.208 386.108 180.496 385.468 181.072C384.828 181.648 384.444 182.416 384.316 183.376H391.372ZM405.62 188.008H405.572C405.22 188.648 404.66 189.192 403.892 189.64C403.14 190.072 402.26 190.288 401.252 190.288C400.468 190.288 399.732 190.144 399.044 189.856C398.356 189.552 397.756 189.136 397.244 188.608C396.748 188.08 396.356 187.456 396.068 186.736C395.78 186.016 395.636 185.232 395.636 184.384C395.636 183.536 395.78 182.752 396.068 182.032C396.356 181.312 396.756 180.688 397.268 180.16C397.78 179.632 398.396 179.224 399.116 178.936C399.852 178.632 400.66 178.48 401.54 178.48C402.356 178.48 403.1 178.648 403.772 178.984C404.46 179.32 405.06 179.792 405.572 180.4H405.62V171.856H407.492V190H405.62V188.008ZM405.62 184.384C405.62 183.792 405.524 183.248 405.332 182.752C405.156 182.24 404.892 181.8 404.54 181.432C404.188 181.048 403.764 180.752 403.268 180.544C402.788 180.32 402.244 180.208 401.636 180.208C401.028 180.208 400.476 180.32 399.98 180.544C399.5 180.752 399.084 181.048 398.732 181.432C398.38 181.8 398.108 182.24 397.916 182.752C397.74 183.248 397.652 183.792 397.652 184.384C397.652 184.976 397.74 185.528 397.916 186.04C398.108 186.536 398.38 186.976 398.732 187.36C399.084 187.728 399.5 188.024 399.98 188.248C400.476 188.456 401.028 188.56 401.636 188.56C402.244 188.56 402.788 188.456 403.268 188.248C403.764 188.024 404.188 187.728 404.54 187.36C404.892 186.976 405.156 186.536 405.332 186.04C405.524 185.528 405.62 184.976 405.62 184.384ZM425.627 181.576C425.227 181.096 424.795 180.752 424.331 180.544C423.867 180.32 423.355 180.208 422.795 180.208C422.171 180.208 421.619 180.32 421.139 180.544C420.659 180.752 420.259 181.048 419.939 181.432C419.635 181.816 419.403 182.264 419.243 182.776C419.083 183.272 419.003 183.808 419.003 184.384C419.003 184.96 419.091 185.504 419.267 186.016C419.459 186.512 419.715 186.952 420.035 187.336C420.371 187.72 420.771 188.024 421.235 188.248C421.699 188.456 422.219 188.56 422.795 188.56C424.027 188.56 424.979 188.096 425.651 187.168L427.043 188.488C426.499 189.112 425.859 189.568 425.123 189.856C424.387 190.144 423.611 190.288 422.795 190.288C421.931 190.288 421.139 190.144 420.419 189.856C419.699 189.568 419.083 189.16 418.571 188.632C418.075 188.104 417.683 187.48 417.395 186.76C417.123 186.04 416.987 185.248 416.987 184.384C416.987 183.536 417.123 182.752 417.395 182.032C417.683 181.312 418.083 180.688 418.595 180.16C419.107 179.632 419.715 179.224 420.419 178.936C421.139 178.632 421.931 178.48 422.795 178.48C423.627 178.48 424.411 178.624 425.147 178.912C425.899 179.2 426.555 179.648 427.115 180.256L425.627 181.576ZM429.07 180.208C429.646 179.616 430.326 179.184 431.11 178.912C431.91 178.624 432.718 178.48 433.534 178.48C435.198 178.48 436.398 178.872 437.134 179.656C437.87 180.44 438.238 181.632 438.238 183.232V188.056C438.238 188.376 438.254 188.712 438.286 189.064C438.318 189.4 438.358 189.712 438.406 190H436.606C436.542 189.744 436.502 189.464 436.486 189.16C436.486 188.84 436.486 188.56 436.486 188.32H436.438C436.07 188.896 435.574 189.368 434.95 189.736C434.342 190.104 433.606 190.288 432.742 190.288C432.166 190.288 431.622 190.216 431.11 190.072C430.614 189.928 430.174 189.72 429.79 189.448C429.422 189.16 429.126 188.808 428.902 188.392C428.678 187.976 428.566 187.496 428.566 186.952C428.566 186.024 428.806 185.296 429.286 184.768C429.766 184.24 430.358 183.848 431.062 183.592C431.782 183.336 432.55 183.176 433.366 183.112C434.198 183.048 434.958 183.016 435.646 183.016H436.366V182.68C436.366 181.864 436.118 181.248 435.622 180.832C435.142 180.416 434.462 180.208 433.582 180.208C432.974 180.208 432.374 180.312 431.782 180.52C431.206 180.712 430.694 181.016 430.246 181.432L429.07 180.208ZM434.493 184.6C433.294 184.6 432.342 184.768 431.638 185.104C430.934 185.44 430.582 185.992 430.582 186.76C430.582 187.464 430.814 187.968 431.278 188.272C431.758 188.56 432.35 188.704 433.054 188.704C433.598 188.704 434.07 188.616 434.47 188.44C434.886 188.248 435.23 188 435.502 187.696C435.774 187.392 435.982 187.04 436.126 186.64C436.27 186.224 436.35 185.784 436.366 185.32V184.6H434.493ZM441.659 181.432C441.659 180.92 441.643 180.44 441.611 179.992C441.579 179.544 441.563 179.136 441.563 178.768H443.339C443.339 179.072 443.347 179.376 443.363 179.68C443.379 179.984 443.387 180.296 443.387 180.616H443.435C443.563 180.344 443.739 180.08 443.963 179.824C444.203 179.568 444.483 179.344 444.803 179.152C445.123 178.944 445.483 178.784 445.883 178.672C446.283 178.544 446.715 178.48 447.179 178.48C447.787 178.48 448.291 178.56 448.691 178.72C449.107 178.864 449.451 179.048 449.723 179.272C449.995 179.48 450.203 179.712 450.347 179.968C450.507 180.208 450.635 180.424 450.731 180.616C451.147 179.944 451.627 179.424 452.171 179.056C452.715 178.672 453.419 178.48 454.283 178.48C455.083 178.48 455.755 178.592 456.299 178.816C456.843 179.024 457.283 179.336 457.619 179.752C457.955 180.152 458.195 180.648 458.339 181.24C458.483 181.816 458.555 182.464 458.555 183.184V190H456.683V183.28C456.683 182.896 456.643 182.52 456.563 182.152C456.483 181.784 456.339 181.456 456.131 181.168C455.923 180.88 455.643 180.648 455.291 180.472C454.939 180.296 454.491 180.208 453.947 180.208C453.547 180.208 453.171 180.288 452.819 180.448C452.467 180.608 452.155 180.832 451.883 181.12C451.627 181.408 451.419 181.76 451.259 182.176C451.115 182.576 451.043 183.024 451.043 183.52V190H449.171V183.64C449.171 182.392 449.003 181.512 448.667 181C448.331 180.472 447.779 180.208 447.011 180.208C446.403 180.208 445.875 180.312 445.427 180.52C444.995 180.728 444.635 181.024 444.347 181.408C444.075 181.792 443.867 182.248 443.723 182.776C443.595 183.304 443.531 183.888 443.531 184.528V190H441.659V181.432ZM462 178.768H463.872V180.4H463.92C464.432 179.792 465.024 179.32 465.696 178.984C466.384 178.648 467.136 178.48 467.952 178.48C468.832 178.48 469.632 178.632 470.352 178.936C471.088 179.224 471.712 179.632 472.224 180.16C472.736 180.688 473.136 181.312 473.424 182.032C473.712 182.752 473.856 183.536 473.856 184.384C473.856 185.232 473.712 186.016 473.424 186.736C473.136 187.456 472.736 188.08 472.224 188.608C471.728 189.136 471.136 189.552 470.448 189.856C469.76 190.144 469.024 190.288 468.24 190.288C467.232 190.288 466.344 190.072 465.576 189.64C464.824 189.192 464.272 188.648 463.92 188.008H463.872V195.472H462V178.768ZM463.872 184.384C463.872 184.976 463.96 185.528 464.136 186.04C464.328 186.536 464.6 186.976 464.952 187.36C465.304 187.728 465.72 188.024 466.2 188.248C466.696 188.456 467.248 188.56 467.856 188.56C468.464 188.56 469.008 188.456 469.488 188.248C469.984 188.024 470.408 187.728 470.76 187.36C471.112 186.976 471.376 186.536 471.552 186.04C471.744 185.528 471.84 184.976 471.84 184.384C471.84 183.792 471.744 183.248 471.552 182.752C471.376 182.24 471.112 181.8 470.76 181.432C470.408 181.048 469.984 180.752 469.488 180.544C469.008 180.32 468.464 180.208 467.856 180.208C467.248 180.208 466.696 180.32 466.2 180.544C465.72 180.752 465.304 181.048 464.952 181.432C464.6 181.8 464.328 182.24 464.136 182.752C463.96 183.248 463.872 183.792 463.872 184.384ZM476.624 180.208C477.2 179.616 477.88 179.184 478.664 178.912C479.464 178.624 480.272 178.48 481.088 178.48C482.752 178.48 483.952 178.872 484.688 179.656C485.424 180.44 485.792 181.632 485.792 183.232V188.056C485.792 188.376 485.808 188.712 485.84 189.064C485.872 189.4 485.912 189.712 485.96 190H484.16C484.096 189.744 484.056 189.464 484.04 189.16C484.04 188.84 484.04 188.56 484.04 188.32H483.992C483.624 188.896 483.128 189.368 482.504 189.736C481.896 190.104 481.16 190.288 480.296 190.288C479.72 190.288 479.176 190.216 478.664 190.072C478.168 189.928 477.728 189.72 477.344 189.448C476.976 189.16 476.68 188.808 476.456 188.392C476.232 187.976 476.12 187.496 476.12 186.952C476.12 186.024 476.36 185.296 476.84 184.768C477.32 184.24 477.912 183.848 478.616 183.592C479.336 183.336 480.104 183.176 480.92 183.112C481.752 183.048 482.512 183.016 483.2 183.016H483.92V182.68C483.92 181.864 483.672 181.248 483.176 180.832C482.696 180.416 482.016 180.208 481.136 180.208C480.528 180.208 479.928 180.312 479.336 180.52C478.76 180.712 478.248 181.016 477.8 181.432L476.624 180.208ZM482.048 184.6C480.848 184.6 479.896 184.768 479.192 185.104C478.488 185.44 478.136 185.992 478.136 186.76C478.136 187.464 478.368 187.968 478.832 188.272C479.312 188.56 479.904 188.704 480.608 188.704C481.152 188.704 481.624 188.616 482.024 188.44C482.44 188.248 482.784 188 483.056 187.696C483.328 187.392 483.536 187.04 483.68 186.64C483.824 186.224 483.904 185.784 483.92 185.32V184.6H482.048ZM489.382 178.768H491.254V190H489.382V178.768ZM488.95 174.376C488.95 174.008 489.078 173.688 489.334 173.416C489.606 173.144 489.934 173.008 490.318 173.008C490.702 173.008 491.022 173.144 491.278 173.416C491.55 173.688 491.686 174.008 491.686 174.376C491.686 174.776 491.558 175.104 491.302 175.36C491.046 175.616 490.718 175.744 490.318 175.744C489.918 175.744 489.59 175.616 489.334 175.36C489.078 175.104 488.95 174.776 488.95 174.376ZM506.187 189.496C506.187 191.544 505.659 193.096 504.603 194.152C503.563 195.224 502.051 195.76 500.067 195.76C498.963 195.76 497.963 195.6 497.067 195.28C496.187 194.96 495.347 194.408 494.547 193.624L495.891 192.088C496.483 192.728 497.107 193.208 497.763 193.528C498.435 193.864 499.203 194.032 500.067 194.032C500.899 194.032 501.587 193.904 502.131 193.648C502.691 193.408 503.131 193.072 503.451 192.64C503.771 192.224 503.995 191.744 504.123 191.2C504.251 190.656 504.315 190.088 504.315 189.496V188.056H504.267C503.819 188.776 503.235 189.304 502.515 189.64C501.795 189.976 501.059 190.144 500.307 190.144C499.427 190.144 498.619 190 497.883 189.712C497.147 189.424 496.515 189.024 495.987 188.512C495.459 188 495.051 187.392 494.763 186.688C494.475 185.984 494.331 185.216 494.331 184.384C494.331 183.472 494.475 182.648 494.763 181.912C495.051 181.176 495.451 180.56 495.963 180.064C496.491 179.552 497.123 179.16 497.859 178.888C498.595 178.616 499.411 178.48 500.307 178.48C500.691 178.48 501.075 178.528 501.459 178.624C501.843 178.704 502.211 178.84 502.563 179.032C502.931 179.208 503.259 179.44 503.547 179.728C503.835 180 504.075 180.32 504.267 180.688H504.315V178.768H506.187V189.496ZM496.347 184.384C496.347 184.96 496.451 185.496 496.659 185.992C496.867 186.472 497.147 186.896 497.499 187.264C497.867 187.616 498.291 187.896 498.771 188.104C499.251 188.312 499.763 188.416 500.307 188.416C500.947 188.416 501.515 188.304 502.011 188.08C502.507 187.856 502.923 187.56 503.259 187.192C503.611 186.808 503.875 186.376 504.051 185.896C504.227 185.4 504.315 184.88 504.315 184.336C504.315 183.728 504.219 183.176 504.027 182.68C503.835 182.168 503.563 181.728 503.211 181.36C502.859 180.992 502.435 180.712 501.939 180.52C501.443 180.312 500.899 180.208 500.307 180.208C499.715 180.208 499.171 180.32 498.675 180.544C498.195 180.752 497.779 181.048 497.427 181.432C497.091 181.8 496.827 182.24 496.635 182.752C496.443 183.248 496.347 183.792 496.347 184.384ZM509.651 181.432C509.651 180.92 509.635 180.44 509.603 179.992C509.571 179.544 509.555 179.136 509.555 178.768H511.331C511.331 179.072 511.339 179.376 511.355 179.68C511.371 179.984 511.379 180.296 511.379 180.616H511.427C511.555 180.344 511.731 180.08 511.955 179.824C512.195 179.568 512.475 179.344 512.795 179.152C513.115 178.944 513.475 178.784 513.875 178.672C514.275 178.544 514.707 178.48 515.171 178.48C515.907 178.48 516.539 178.592 517.067 178.816C517.611 179.04 518.059 179.352 518.411 179.752C518.763 180.152 519.019 180.64 519.179 181.216C519.355 181.776 519.443 182.392 519.443 183.064V190H517.571V183.256C517.571 182.312 517.363 181.568 516.947 181.024C516.531 180.48 515.883 180.208 515.003 180.208C514.395 180.208 513.867 180.312 513.419 180.52C512.987 180.728 512.627 181.024 512.339 181.408C512.067 181.792 511.859 182.248 511.715 182.776C511.587 183.304 511.523 183.888 511.523 184.528V190H509.651V181.432ZM523.227 187.048C523.595 187.512 523.995 187.88 524.427 188.152C524.875 188.424 525.435 188.56 526.107 188.56C526.395 188.56 526.683 188.528 526.971 188.464C527.275 188.4 527.547 188.296 527.787 188.152C528.027 188.008 528.219 187.832 528.363 187.624C528.507 187.4 528.579 187.136 528.579 186.832C528.579 186.528 528.507 186.28 528.363 186.088C528.235 185.896 528.059 185.736 527.835 185.608C527.611 185.464 527.355 185.352 527.067 185.272C526.779 185.192 526.483 185.12 526.179 185.056C525.651 184.944 525.147 184.816 524.667 184.672C524.187 184.528 523.763 184.344 523.395 184.12C523.043 183.88 522.755 183.576 522.531 183.208C522.323 182.84 522.219 182.368 522.219 181.792C522.219 181.248 522.339 180.768 522.579 180.352C522.819 179.936 523.139 179.592 523.539 179.32C523.939 179.048 524.387 178.84 524.883 178.696C525.379 178.552 525.891 178.48 526.419 178.48C527.219 178.48 527.955 178.64 528.627 178.96C529.315 179.28 529.851 179.8 530.235 180.52L528.675 181.552C528.435 181.152 528.115 180.832 527.715 180.592C527.331 180.336 526.859 180.208 526.299 180.208C526.043 180.208 525.779 180.24 525.507 180.304C525.251 180.368 525.019 180.464 524.811 180.592C524.603 180.72 524.427 180.888 524.283 181.096C524.155 181.288 524.091 181.512 524.091 181.768C524.091 182.008 524.163 182.216 524.307 182.392C524.467 182.552 524.675 182.696 524.931 182.824C525.203 182.952 525.507 183.064 525.843 183.16C526.195 183.256 526.555 183.336 526.923 183.4C527.419 183.496 527.891 183.624 528.339 183.784C528.787 183.928 529.179 184.128 529.515 184.384C529.851 184.64 530.115 184.96 530.307 185.344C530.499 185.728 530.595 186.2 530.595 186.76C530.595 187.4 530.467 187.944 530.211 188.392C529.955 188.84 529.611 189.208 529.179 189.496C528.763 189.768 528.283 189.968 527.739 190.096C527.211 190.224 526.667 190.288 526.107 190.288C525.147 190.288 524.315 190.144 523.611 189.856C522.923 189.552 522.299 189 521.739 188.2L523.227 187.048ZM540.845 180.352H538.397V178.768H540.845V176.248C540.845 175.56 540.909 174.936 541.037 174.376C541.165 173.8 541.381 173.304 541.685 172.888C542.005 172.472 542.421 172.152 542.933 171.928C543.445 171.688 544.077 171.568 544.829 171.568C545.069 171.568 545.325 171.592 545.597 171.64C545.869 171.688 546.093 171.76 546.269 171.856L546.005 173.536C545.557 173.376 545.133 173.296 544.733 173.296C544.253 173.296 543.877 173.384 543.605 173.56C543.333 173.72 543.125 173.952 542.981 174.256C542.853 174.544 542.773 174.896 542.741 175.312C542.725 175.728 542.717 176.176 542.717 176.656V178.768H545.453V180.352H542.717V190H540.845V180.352ZM546.808 184.384C546.808 183.504 546.96 182.704 547.264 181.984C547.568 181.264 547.984 180.648 548.512 180.136C549.04 179.608 549.672 179.2 550.408 178.912C551.144 178.624 551.944 178.48 552.808 178.48C553.672 178.48 554.472 178.624 555.208 178.912C555.944 179.2 556.576 179.608 557.104 180.136C557.632 180.648 558.048 181.264 558.352 181.984C558.656 182.704 558.808 183.504 558.808 184.384C558.808 185.264 558.656 186.064 558.352 186.784C558.048 187.504 557.632 188.128 557.104 188.656C556.576 189.168 555.944 189.568 555.208 189.856C554.472 190.144 553.672 190.288 552.808 190.288C551.944 190.288 551.144 190.144 550.408 189.856C549.672 189.568 549.04 189.168 548.512 188.656C547.984 188.128 547.568 187.504 547.264 186.784C546.96 186.064 546.808 185.264 546.808 184.384ZM548.824 184.384C548.824 184.976 548.912 185.528 549.088 186.04C549.28 186.536 549.552 186.976 549.904 187.36C550.256 187.728 550.672 188.024 551.152 188.248C551.648 188.456 552.2 188.56 552.808 188.56C553.416 188.56 553.96 188.456 554.44 188.248C554.936 188.024 555.36 187.728 555.712 187.36C556.064 186.976 556.328 186.536 556.504 186.04C556.696 185.528 556.792 184.976 556.792 184.384C556.792 183.792 556.696 183.248 556.504 182.752C556.328 182.24 556.064 181.8 555.712 181.432C555.36 181.048 554.936 180.752 554.44 180.544C553.96 180.32 553.416 180.208 552.808 180.208C552.2 180.208 551.648 180.32 551.152 180.544C550.672 180.752 550.256 181.048 549.904 181.432C549.552 181.8 549.28 182.24 549.088 182.752C548.912 183.248 548.824 183.792 548.824 184.384ZM561.706 181.432C561.706 180.92 561.69 180.44 561.658 179.992C561.626 179.544 561.61 179.136 561.61 178.768H563.386C563.386 179.072 563.394 179.376 563.41 179.68C563.426 179.984 563.434 180.296 563.434 180.616H563.482C563.61 180.344 563.786 180.08 564.01 179.824C564.25 179.568 564.53 179.344 564.85 179.152C565.17 178.944 565.53 178.784 565.93 178.672C566.33 178.544 566.762 178.48 567.226 178.48C567.354 178.48 567.482 178.488 567.61 178.504C567.738 178.52 567.866 178.552 567.994 178.6L567.874 180.496C567.554 180.4 567.218 180.352 566.866 180.352C565.714 180.352 564.874 180.728 564.346 181.48C563.834 182.216 563.578 183.232 563.578 184.528V190H561.706V181.432ZM580.951 192.568C580.759 193.048 580.559 193.48 580.351 193.864C580.159 194.264 579.919 194.6 579.631 194.872C579.359 195.16 579.023 195.376 578.623 195.52C578.239 195.68 577.767 195.76 577.207 195.76C576.935 195.76 576.647 195.744 576.343 195.712C576.055 195.68 575.783 195.6 575.527 195.472L575.767 193.84C575.959 193.92 576.159 193.968 576.367 193.984C576.575 194.016 576.815 194.032 577.087 194.032C577.695 194.032 578.143 193.864 578.431 193.528C578.719 193.192 578.967 192.744 579.175 192.184L579.943 190.072L575.287 178.768H577.471L580.951 187.576H580.999L584.335 178.768H586.375L580.951 192.568ZM587.753 184.384C587.753 183.504 587.905 182.704 588.209 181.984C588.513 181.264 588.929 180.648 589.457 180.136C589.985 179.608 590.617 179.2 591.353 178.912C592.089 178.624 592.889 178.48 593.753 178.48C594.617 178.48 595.417 178.624 596.153 178.912C596.889 179.2 597.521 179.608 598.049 180.136C598.577 180.648 598.993 181.264 599.297 181.984C599.601 182.704 599.753 183.504 599.753 184.384C599.753 185.264 599.601 186.064 599.297 186.784C598.993 187.504 598.577 188.128 598.049 188.656C597.521 189.168 596.889 189.568 596.153 189.856C595.417 190.144 594.617 190.288 593.753 190.288C592.889 190.288 592.089 190.144 591.353 189.856C590.617 189.568 589.985 189.168 589.457 188.656C588.929 188.128 588.513 187.504 588.209 186.784C587.905 186.064 587.753 185.264 587.753 184.384ZM589.769 184.384C589.769 184.976 589.857 185.528 590.033 186.04C590.225 186.536 590.497 186.976 590.849 187.36C591.201 187.728 591.617 188.024 592.097 188.248C592.593 188.456 593.145 188.56 593.753 188.56C594.361 188.56 594.905 188.456 595.385 188.248C595.881 188.024 596.305 187.728 596.657 187.36C597.009 186.976 597.273 186.536 597.449 186.04C597.641 185.528 597.737 184.976 597.737 184.384C597.737 183.792 597.641 183.248 597.449 182.752C597.273 182.24 597.009 181.8 596.657 181.432C596.305 181.048 595.881 180.752 595.385 180.544C594.905 180.32 594.361 180.208 593.753 180.208C593.145 180.208 592.593 180.32 592.097 180.544C591.617 180.752 591.201 181.048 590.849 181.432C590.497 181.8 590.225 182.24 590.033 182.752C589.857 183.248 589.769 183.792 589.769 184.384ZM612.443 187.336C612.443 187.848 612.459 188.328 612.491 188.776C612.523 189.224 612.539 189.632 612.539 190H610.763C610.763 189.696 610.755 189.392 610.739 189.088C610.723 188.784 610.715 188.472 610.715 188.152H610.667C610.539 188.424 610.355 188.688 610.115 188.944C609.891 189.2 609.619 189.432 609.299 189.64C608.979 189.832 608.619 189.984 608.219 190.096C607.819 190.224 607.387 190.288 606.923 190.288C606.187 190.288 605.547 190.176 605.003 189.952C604.475 189.728 604.035 189.416 603.683 189.016C603.331 188.616 603.067 188.136 602.891 187.576C602.731 187 602.651 186.376 602.651 185.704V178.768H604.523V185.512C604.523 186.456 604.731 187.2 605.147 187.744C605.563 188.288 606.211 188.56 607.091 188.56C607.699 188.56 608.219 188.456 608.651 188.248C609.099 188.04 609.459 187.744 609.731 187.36C610.019 186.976 610.227 186.52 610.355 185.992C610.499 185.464 610.571 184.88 610.571 184.24V178.768H612.443V187.336ZM615.987 181.432C615.987 180.92 615.971 180.44 615.939 179.992C615.907 179.544 615.891 179.136 615.891 178.768H617.667C617.667 179.072 617.675 179.376 617.691 179.68C617.707 179.984 617.715 180.296 617.715 180.616H617.763C617.891 180.344 618.067 180.08 618.291 179.824C618.531 179.568 618.811 179.344 619.131 179.152C619.451 178.944 619.811 178.784 620.211 178.672C620.611 178.544 621.043 178.48 621.507 178.48C621.635 178.48 621.763 178.488 621.891 178.504C622.019 178.52 622.147 178.552 622.275 178.6L622.155 180.496C621.835 180.4 621.499 180.352 621.147 180.352C619.995 180.352 619.155 180.728 618.627 181.48C618.115 182.216 617.859 183.232 617.859 184.528V190H615.987V181.432ZM631.008 171.856H632.88V180.4H632.928C633.44 179.792 634.032 179.32 634.704 178.984C635.392 178.648 636.144 178.48 636.96 178.48C637.84 178.48 638.64 178.632 639.36 178.936C640.096 179.224 640.72 179.632 641.232 180.16C641.744 180.688 642.144 181.312 642.432 182.032C642.72 182.752 642.864 183.536 642.864 184.384C642.864 185.232 642.72 186.016 642.432 186.736C642.144 187.456 641.744 188.08 641.232 188.608C640.736 189.136 640.144 189.552 639.456 189.856C638.768 190.144 638.032 190.288 637.248 190.288C636.24 190.288 635.352 190.072 634.584 189.64C633.832 189.192 633.28 188.648 632.928 188.008H632.88V190H631.008V171.856ZM632.88 184.384C632.88 184.976 632.968 185.528 633.144 186.04C633.336 186.536 633.608 186.976 633.96 187.36C634.312 187.728 634.728 188.024 635.208 188.248C635.704 188.456 636.256 188.56 636.864 188.56C637.472 188.56 638.016 188.456 638.496 188.248C638.992 188.024 639.416 187.728 639.768 187.36C640.12 186.976 640.384 186.536 640.56 186.04C640.752 185.528 640.848 184.976 640.848 184.384C640.848 183.792 640.752 183.248 640.56 182.752C640.384 182.24 640.12 181.8 639.768 181.432C639.416 181.048 638.992 180.752 638.496 180.544C638.016 180.32 637.472 180.208 636.864 180.208C636.256 180.208 635.704 180.32 635.208 180.544C634.728 180.752 634.312 181.048 633.96 181.432C633.608 181.8 633.336 182.24 633.144 182.752C632.968 183.248 632.88 183.792 632.88 184.384ZM645.776 181.432C645.776 180.92 645.76 180.44 645.728 179.992C645.696 179.544 645.68 179.136 645.68 178.768H647.456C647.456 179.072 647.464 179.376 647.48 179.68C647.496 179.984 647.504 180.296 647.504 180.616H647.552C647.68 180.344 647.856 180.08 648.08 179.824C648.32 179.568 648.6 179.344 648.92 179.152C649.24 178.944 649.6 178.784 650 178.672C650.4 178.544 650.832 178.48 651.296 178.48C651.424 178.48 651.552 178.488 651.68 178.504C651.808 178.52 651.936 178.552 652.064 178.6L651.944 180.496C651.624 180.4 651.288 180.352 650.936 180.352C649.784 180.352 648.944 180.728 648.416 181.48C647.904 182.216 647.648 183.232 647.648 184.528V190H645.776V181.432ZM654.07 180.208C654.646 179.616 655.326 179.184 656.11 178.912C656.91 178.624 657.718 178.48 658.534 178.48C660.198 178.48 661.398 178.872 662.134 179.656C662.87 180.44 663.238 181.632 663.238 183.232V188.056C663.238 188.376 663.254 188.712 663.286 189.064C663.318 189.4 663.358 189.712 663.406 190H661.606C661.542 189.744 661.502 189.464 661.486 189.16C661.486 188.84 661.486 188.56 661.486 188.32H661.438C661.07 188.896 660.574 189.368 659.95 189.736C659.342 190.104 658.606 190.288 657.742 190.288C657.166 190.288 656.622 190.216 656.11 190.072C655.614 189.928 655.174 189.72 654.79 189.448C654.422 189.16 654.126 188.808 653.902 188.392C653.678 187.976 653.566 187.496 653.566 186.952C653.566 186.024 653.806 185.296 654.286 184.768C654.766 184.24 655.358 183.848 656.062 183.592C656.782 183.336 657.55 183.176 658.366 183.112C659.198 183.048 659.958 183.016 660.646 183.016H661.366V182.68C661.366 181.864 661.118 181.248 660.622 180.832C660.142 180.416 659.462 180.208 658.582 180.208C657.974 180.208 657.374 180.312 656.782 180.52C656.206 180.712 655.694 181.016 655.246 181.432L654.07 180.208ZM659.493 184.6C658.294 184.6 657.342 184.768 656.638 185.104C655.934 185.44 655.582 185.992 655.582 186.76C655.582 187.464 655.814 187.968 656.278 188.272C656.758 188.56 657.35 188.704 658.054 188.704C658.598 188.704 659.07 188.616 659.47 188.44C659.886 188.248 660.23 188 660.502 187.696C660.774 187.392 660.982 187.04 661.126 186.64C661.27 186.224 661.35 185.784 661.366 185.32V184.6H659.493ZM666.659 181.432C666.659 180.92 666.643 180.44 666.611 179.992C666.579 179.544 666.563 179.136 666.563 178.768H668.339C668.339 179.072 668.347 179.376 668.363 179.68C668.379 179.984 668.387 180.296 668.387 180.616H668.435C668.563 180.344 668.739 180.08 668.963 179.824C669.203 179.568 669.483 179.344 669.803 179.152C670.123 178.944 670.483 178.784 670.883 178.672C671.283 178.544 671.715 178.48 672.179 178.48C672.915 178.48 673.547 178.592 674.075 178.816C674.619 179.04 675.067 179.352 675.419 179.752C675.771 180.152 676.027 180.64 676.187 181.216C676.363 181.776 676.451 182.392 676.451 183.064V190H674.579V183.256C674.579 182.312 674.371 181.568 673.955 181.024C673.539 180.48 672.891 180.208 672.011 180.208C671.403 180.208 670.875 180.312 670.427 180.52C669.995 180.728 669.635 181.024 669.347 181.408C669.075 181.792 668.867 182.248 668.723 182.776C668.595 183.304 668.531 183.888 668.531 184.528V190H666.659V181.432ZM689.331 188.008H689.283C688.931 188.648 688.371 189.192 687.603 189.64C686.851 190.072 685.971 190.288 684.963 190.288C684.179 190.288 683.443 190.144 682.755 189.856C682.067 189.552 681.467 189.136 680.955 188.608C680.459 188.08 680.067 187.456 679.779 186.736C679.491 186.016 679.347 185.232 679.347 184.384C679.347 183.536 679.491 182.752 679.779 182.032C680.067 181.312 680.467 180.688 680.979 180.16C681.491 179.632 682.107 179.224 682.827 178.936C683.563 178.632 684.371 178.48 685.251 178.48C686.067 178.48 686.811 178.648 687.483 178.984C688.171 179.32 688.771 179.792 689.283 180.4H689.331V171.856H691.203V190H689.331V188.008ZM689.331 184.384C689.331 183.792 689.235 183.248 689.043 182.752C688.867 182.24 688.603 181.8 688.251 181.432C687.899 181.048 687.475 180.752 686.979 180.544C686.499 180.32 685.955 180.208 685.347 180.208C684.739 180.208 684.187 180.32 683.691 180.544C683.211 180.752 682.795 181.048 682.443 181.432C682.091 181.8 681.819 182.24 681.627 182.752C681.451 183.248 681.363 183.792 681.363 184.384C681.363 184.976 681.451 185.528 681.627 186.04C681.819 186.536 682.091 186.976 682.443 187.36C682.795 187.728 683.211 188.024 683.691 188.248C684.187 188.456 684.739 188.56 685.347 188.56C685.955 188.56 686.499 188.456 686.979 188.248C687.475 188.024 687.899 187.728 688.251 187.36C688.603 186.976 688.867 186.536 689.043 186.04C689.235 185.528 689.331 184.976 689.331 184.384ZM700.698 184.384C700.698 183.504 700.85 182.704 701.154 181.984C701.458 181.264 701.874 180.648 702.402 180.136C702.93 179.608 703.562 179.2 704.298 178.912C705.034 178.624 705.834 178.48 706.698 178.48C707.562 178.48 708.362 178.624 709.098 178.912C709.834 179.2 710.466 179.608 710.994 180.136C711.522 180.648 711.938 181.264 712.242 181.984C712.546 182.704 712.698 183.504 712.698 184.384C712.698 185.264 712.546 186.064 712.242 186.784C711.938 187.504 711.522 188.128 710.994 188.656C710.466 189.168 709.834 189.568 709.098 189.856C708.362 190.144 707.562 190.288 706.698 190.288C705.834 190.288 705.034 190.144 704.298 189.856C703.562 189.568 702.93 189.168 702.402 188.656C701.874 188.128 701.458 187.504 701.154 186.784C700.85 186.064 700.698 185.264 700.698 184.384ZM702.714 184.384C702.714 184.976 702.802 185.528 702.978 186.04C703.17 186.536 703.442 186.976 703.794 187.36C704.146 187.728 704.562 188.024 705.042 188.248C705.538 188.456 706.09 188.56 706.698 188.56C707.306 188.56 707.85 188.456 708.33 188.248C708.826 188.024 709.25 187.728 709.602 187.36C709.954 186.976 710.218 186.536 710.394 186.04C710.586 185.528 710.682 184.976 710.682 184.384C710.682 183.792 710.586 183.248 710.394 182.752C710.218 182.24 709.954 181.8 709.602 181.432C709.25 181.048 708.826 180.752 708.33 180.544C707.85 180.32 707.306 180.208 706.698 180.208C706.09 180.208 705.538 180.32 705.042 180.544C704.562 180.752 704.146 181.048 703.794 181.432C703.442 181.8 703.17 182.24 702.978 182.752C702.802 183.248 702.714 183.792 702.714 184.384ZM715.596 181.432C715.596 180.92 715.58 180.44 715.548 179.992C715.516 179.544 715.5 179.136 715.5 178.768H717.276C717.276 179.072 717.284 179.376 717.3 179.68C717.316 179.984 717.324 180.296 717.324 180.616H717.372C717.5 180.344 717.676 180.08 717.9 179.824C718.14 179.568 718.42 179.344 718.74 179.152C719.06 178.944 719.42 178.784 719.82 178.672C720.22 178.544 720.652 178.48 721.116 178.48C721.852 178.48 722.484 178.592 723.012 178.816C723.556 179.04 724.004 179.352 724.356 179.752C724.708 180.152 724.964 180.64 725.124 181.216C725.3 181.776 725.388 182.392 725.388 183.064V190H723.516V183.256C723.516 182.312 723.308 181.568 722.892 181.024C722.476 180.48 721.828 180.208 720.948 180.208C720.34 180.208 719.812 180.312 719.364 180.52C718.932 180.728 718.572 181.024 718.284 181.408C718.012 181.792 717.804 182.248 717.66 182.776C717.532 183.304 717.468 183.888 717.468 184.528V190H715.596V181.432ZM243.512 211.88H237.896V227H235.88V211.88H230.264V210.008H243.512V211.88ZM245.725 215.768H247.597V227H245.725V215.768ZM245.293 211.376C245.293 211.008 245.421 210.688 245.677 210.416C245.949 210.144 246.277 210.008 246.661 210.008C247.045 210.008 247.365 210.144 247.621 210.416C247.893 210.688 248.029 211.008 248.029 211.376C248.029 211.776 247.901 212.104 247.645 212.36C247.389 212.616 247.061 212.744 246.661 212.744C246.261 212.744 245.933 212.616 245.677 212.36C245.421 212.104 245.293 211.776 245.293 211.376ZM251.323 208.856H253.195V220.712L258.307 215.768H260.971L255.547 220.88L261.523 227H258.763L253.195 221.096V227H251.323V208.856ZM275.059 211.88H269.443V227H267.427V211.88H261.811V210.008H275.059V211.88ZM273.784 221.384C273.784 220.504 273.936 219.704 274.24 218.984C274.544 218.264 274.96 217.648 275.488 217.136C276.016 216.608 276.648 216.2 277.384 215.912C278.12 215.624 278.92 215.48 279.784 215.48C280.648 215.48 281.448 215.624 282.184 215.912C282.92 216.2 283.552 216.608 284.08 217.136C284.608 217.648 285.024 218.264 285.328 218.984C285.632 219.704 285.784 220.504 285.784 221.384C285.784 222.264 285.632 223.064 285.328 223.784C285.024 224.504 284.608 225.128 284.08 225.656C283.552 226.168 282.92 226.568 282.184 226.856C281.448 227.144 280.648 227.288 279.784 227.288C278.92 227.288 278.12 227.144 277.384 226.856C276.648 226.568 276.016 226.168 275.488 225.656C274.96 225.128 274.544 224.504 274.24 223.784C273.936 223.064 273.784 222.264 273.784 221.384ZM275.8 221.384C275.8 221.976 275.888 222.528 276.064 223.04C276.256 223.536 276.528 223.976 276.88 224.36C277.232 224.728 277.648 225.024 278.128 225.248C278.624 225.456 279.176 225.56 279.784 225.56C280.392 225.56 280.936 225.456 281.416 225.248C281.912 225.024 282.336 224.728 282.688 224.36C283.04 223.976 283.304 223.536 283.48 223.04C283.672 222.528 283.768 221.976 283.768 221.384C283.768 220.792 283.672 220.248 283.48 219.752C283.304 219.24 283.04 218.8 282.688 218.432C282.336 218.048 281.912 217.752 281.416 217.544C280.936 217.32 280.392 217.208 279.784 217.208C279.176 217.208 278.624 217.32 278.128 217.544C277.648 217.752 277.232 218.048 276.88 218.432C276.528 218.8 276.256 219.24 276.064 219.752C275.888 220.248 275.8 220.792 275.8 221.384ZM288.682 208.856H290.554V220.712L295.666 215.768H298.33L292.906 220.88L298.882 227H296.122L290.554 221.096V227H288.682V208.856ZM302.002 230.312H300.154L301.786 224.552H303.97L302.002 230.312ZM314.21 215.768H316.082V227H314.21V215.768ZM313.778 211.376C313.778 211.008 313.906 210.688 314.162 210.416C314.434 210.144 314.762 210.008 315.146 210.008C315.53 210.008 315.85 210.144 316.106 210.416C316.378 210.688 316.514 211.008 316.514 211.376C316.514 211.776 316.386 212.104 316.13 212.36C315.874 212.616 315.546 212.744 315.146 212.744C314.746 212.744 314.418 212.616 314.162 212.36C313.906 212.104 313.778 211.776 313.778 211.376ZM319.807 218.432C319.807 217.92 319.791 217.44 319.759 216.992C319.727 216.544 319.711 216.136 319.711 215.768H321.487C321.487 216.072 321.495 216.376 321.511 216.68C321.527 216.984 321.535 217.296 321.535 217.616H321.583C321.711 217.344 321.887 217.08 322.111 216.824C322.351 216.568 322.631 216.344 322.951 216.152C323.271 215.944 323.631 215.784 324.031 215.672C324.431 215.544 324.863 215.48 325.327 215.48C326.063 215.48 326.695 215.592 327.223 215.816C327.767 216.04 328.215 216.352 328.567 216.752C328.919 217.152 329.175 217.64 329.335 218.216C329.511 218.776 329.599 219.392 329.599 220.064V227H327.727V220.256C327.727 219.312 327.519 218.568 327.103 218.024C326.687 217.48 326.039 217.208 325.159 217.208C324.551 217.208 324.023 217.312 323.575 217.52C323.143 217.728 322.783 218.024 322.495 218.408C322.223 218.792 322.015 219.248 321.871 219.776C321.743 220.304 321.679 220.888 321.679 221.528V227H319.807V218.432ZM341.135 218.576C340.735 218.096 340.303 217.752 339.839 217.544C339.375 217.32 338.863 217.208 338.303 217.208C337.679 217.208 337.127 217.32 336.647 217.544C336.167 217.752 335.767 218.048 335.447 218.432C335.143 218.816 334.911 219.264 334.751 219.776C334.591 220.272 334.511 220.808 334.511 221.384C334.511 221.96 334.599 222.504 334.775 223.016C334.967 223.512 335.223 223.952 335.543 224.336C335.879 224.72 336.279 225.024 336.743 225.248C337.207 225.456 337.727 225.56 338.303 225.56C339.535 225.56 340.487 225.096 341.159 224.168L342.551 225.488C342.007 226.112 341.367 226.568 340.631 226.856C339.895 227.144 339.119 227.288 338.303 227.288C337.439 227.288 336.647 227.144 335.927 226.856C335.207 226.568 334.591 226.16 334.079 225.632C333.583 225.104 333.191 224.48 332.903 223.76C332.631 223.04 332.495 222.248 332.495 221.384C332.495 220.536 332.631 219.752 332.903 219.032C333.191 218.312 333.591 217.688 334.103 217.16C334.615 216.632 335.223 216.224 335.927 215.936C336.647 215.632 337.439 215.48 338.303 215.48C339.135 215.48 339.919 215.624 340.655 215.912C341.407 216.2 342.063 216.648 342.623 217.256L341.135 218.576ZM344.889 208.856H346.761V227H344.889V208.856ZM360.279 224.336C360.279 224.848 360.295 225.328 360.327 225.776C360.359 226.224 360.375 226.632 360.375 227H358.599C358.599 226.696 358.591 226.392 358.575 226.088C358.559 225.784 358.551 225.472 358.551 225.152H358.503C358.375 225.424 358.191 225.688 357.951 225.944C357.727 226.2 357.455 226.432 357.135 226.64C356.815 226.832 356.455 226.984 356.055 227.096C355.655 227.224 355.223 227.288 354.759 227.288C354.023 227.288 353.383 227.176 352.839 226.952C352.311 226.728 351.871 226.416 351.519 226.016C351.167 225.616 350.903 225.136 350.727 224.576C350.567 224 350.487 223.376 350.487 222.704V215.768H352.359V222.512C352.359 223.456 352.567 224.2 352.983 224.744C353.399 225.288 354.047 225.56 354.927 225.56C355.535 225.56 356.055 225.456 356.487 225.248C356.935 225.04 357.295 224.744 357.567 224.36C357.855 223.976 358.063 223.52 358.191 222.992C358.335 222.464 358.407 221.88 358.407 221.24V215.768H360.279V224.336ZM373.159 225.008H373.111C372.759 225.648 372.199 226.192 371.431 226.64C370.679 227.072 369.799 227.288 368.791 227.288C368.007 227.288 367.271 227.144 366.583 226.856C365.895 226.552 365.295 226.136 364.783 225.608C364.287 225.08 363.895 224.456 363.607 223.736C363.319 223.016 363.175 222.232 363.175 221.384C363.175 220.536 363.319 219.752 363.607 219.032C363.895 218.312 364.295 217.688 364.807 217.16C365.319 216.632 365.935 216.224 366.655 215.936C367.391 215.632 368.199 215.48 369.079 215.48C369.895 215.48 370.639 215.648 371.311 215.984C371.999 216.32 372.599 216.792 373.111 217.4H373.159V208.856H375.031V227H373.159V225.008ZM373.159 221.384C373.159 220.792 373.063 220.248 372.871 219.752C372.695 219.24 372.431 218.8 372.079 218.432C371.727 218.048 371.303 217.752 370.807 217.544C370.327 217.32 369.783 217.208 369.175 217.208C368.567 217.208 368.015 217.32 367.519 217.544C367.039 217.752 366.623 218.048 366.271 218.432C365.919 218.8 365.647 219.24 365.455 219.752C365.279 220.248 365.191 220.792 365.191 221.384C365.191 221.976 365.279 222.528 365.455 223.04C365.647 223.536 365.919 223.976 366.271 224.36C366.623 224.728 367.039 225.024 367.519 225.248C368.015 225.456 368.567 225.56 369.175 225.56C369.783 225.56 370.327 225.456 370.807 225.248C371.303 225.024 371.727 224.728 372.079 224.36C372.431 223.976 372.695 223.536 372.871 223.04C373.063 222.528 373.159 221.976 373.159 221.384ZM378.686 215.768H380.558V227H378.686V215.768ZM378.254 211.376C378.254 211.008 378.382 210.688 378.638 210.416C378.91 210.144 379.238 210.008 379.622 210.008C380.006 210.008 380.326 210.144 380.582 210.416C380.854 210.688 380.99 211.008 380.99 211.376C380.99 211.776 380.862 212.104 380.606 212.36C380.35 212.616 380.022 212.744 379.622 212.744C379.222 212.744 378.894 212.616 378.638 212.36C378.382 212.104 378.254 211.776 378.254 211.376ZM384.284 218.432C384.284 217.92 384.268 217.44 384.236 216.992C384.204 216.544 384.188 216.136 384.188 215.768H385.964C385.964 216.072 385.972 216.376 385.988 216.68C386.004 216.984 386.012 217.296 386.012 217.616H386.06C386.188 217.344 386.364 217.08 386.588 216.824C386.828 216.568 387.108 216.344 387.428 216.152C387.748 215.944 388.108 215.784 388.508 215.672C388.908 215.544 389.34 215.48 389.804 215.48C390.54 215.48 391.172 215.592 391.7 215.816C392.244 216.04 392.692 216.352 393.044 216.752C393.396 217.152 393.652 217.64 393.812 218.216C393.988 218.776 394.076 219.392 394.076 220.064V227H392.204V220.256C392.204 219.312 391.996 218.568 391.58 218.024C391.164 217.48 390.516 217.208 389.636 217.208C389.028 217.208 388.5 217.312 388.052 217.52C387.62 217.728 387.26 218.024 386.972 218.408C386.7 218.792 386.492 219.248 386.348 219.776C386.22 220.304 386.156 220.888 386.156 221.528V227H384.284V218.432ZM408.828 226.496C408.828 228.544 408.3 230.096 407.244 231.152C406.204 232.224 404.692 232.76 402.708 232.76C401.604 232.76 400.604 232.6 399.708 232.28C398.828 231.96 397.988 231.408 397.188 230.624L398.532 229.088C399.124 229.728 399.748 230.208 400.404 230.528C401.076 230.864 401.844 231.032 402.708 231.032C403.54 231.032 404.228 230.904 404.772 230.648C405.332 230.408 405.772 230.072 406.092 229.64C406.412 229.224 406.636 228.744 406.764 228.2C406.892 227.656 406.956 227.088 406.956 226.496V225.056H406.908C406.46 225.776 405.876 226.304 405.156 226.64C404.436 226.976 403.7 227.144 402.948 227.144C402.068 227.144 401.26 227 400.524 226.712C399.788 226.424 399.156 226.024 398.628 225.512C398.1 225 397.692 224.392 397.404 223.688C397.116 222.984 396.972 222.216 396.972 221.384C396.972 220.472 397.116 219.648 397.404 218.912C397.692 218.176 398.092 217.56 398.604 217.064C399.132 216.552 399.764 216.16 400.5 215.888C401.236 215.616 402.052 215.48 402.948 215.48C403.332 215.48 403.716 215.528 404.1 215.624C404.484 215.704 404.852 215.84 405.204 216.032C405.572 216.208 405.9 216.44 406.188 216.728C406.476 217 406.716 217.32 406.908 217.688H406.956V215.768H408.828V226.496ZM398.988 221.384C398.988 221.96 399.092 222.496 399.3 222.992C399.508 223.472 399.788 223.896 400.14 224.264C400.508 224.616 400.932 224.896 401.412 225.104C401.892 225.312 402.404 225.416 402.948 225.416C403.588 225.416 404.156 225.304 404.652 225.08C405.148 224.856 405.564 224.56 405.9 224.192C406.252 223.808 406.516 223.376 406.692 222.896C406.868 222.4 406.956 221.88 406.956 221.336C406.956 220.728 406.86 220.176 406.668 219.68C406.476 219.168 406.204 218.728 405.852 218.36C405.5 217.992 405.076 217.712 404.58 217.52C404.084 217.312 403.54 217.208 402.948 217.208C402.356 217.208 401.812 217.32 401.316 217.544C400.836 217.752 400.42 218.048 400.068 218.432C399.732 218.8 399.468 219.24 399.276 219.752C399.084 220.248 398.988 220.792 398.988 221.384ZM426.963 218.576C426.563 218.096 426.131 217.752 425.667 217.544C425.203 217.32 424.691 217.208 424.131 217.208C423.507 217.208 422.955 217.32 422.475 217.544C421.995 217.752 421.595 218.048 421.275 218.432C420.971 218.816 420.739 219.264 420.579 219.776C420.419 220.272 420.339 220.808 420.339 221.384C420.339 221.96 420.427 222.504 420.603 223.016C420.795 223.512 421.051 223.952 421.371 224.336C421.707 224.72 422.107 225.024 422.571 225.248C423.035 225.456 423.555 225.56 424.131 225.56C425.363 225.56 426.315 225.096 426.987 224.168L428.379 225.488C427.835 226.112 427.195 226.568 426.459 226.856C425.723 227.144 424.947 227.288 424.131 227.288C423.267 227.288 422.475 227.144 421.755 226.856C421.035 226.568 420.419 226.16 419.907 225.632C419.411 225.104 419.019 224.48 418.731 223.76C418.459 223.04 418.323 222.248 418.323 221.384C418.323 220.536 418.459 219.752 418.731 219.032C419.019 218.312 419.419 217.688 419.931 217.16C420.443 216.632 421.051 216.224 421.755 215.936C422.475 215.632 423.267 215.48 424.131 215.48C424.963 215.48 425.747 215.624 426.483 215.912C427.235 216.2 427.891 216.648 428.451 217.256L426.963 218.576ZM430.549 218.432C430.549 217.92 430.533 217.44 430.501 216.992C430.469 216.544 430.453 216.136 430.453 215.768H432.229C432.229 216.072 432.237 216.376 432.253 216.68C432.269 216.984 432.277 217.296 432.277 217.616H432.325C432.453 217.344 432.629 217.08 432.853 216.824C433.093 216.568 433.373 216.344 433.693 216.152C434.013 215.944 434.373 215.784 434.773 215.672C435.173 215.544 435.605 215.48 436.069 215.48C436.197 215.48 436.325 215.488 436.453 215.504C436.581 215.52 436.709 215.552 436.837 215.6L436.717 217.496C436.397 217.4 436.061 217.352 435.709 217.352C434.557 217.352 433.717 217.728 433.189 218.48C432.677 219.216 432.421 220.232 432.421 221.528V227H430.549V218.432ZM448.597 224.96C447.925 225.824 447.189 226.432 446.389 226.784C445.589 227.12 444.661 227.288 443.605 227.288C442.725 227.288 441.933 227.136 441.229 226.832C440.525 226.512 439.925 226.088 439.429 225.56C438.949 225.032 438.573 224.408 438.301 223.688C438.045 222.968 437.917 222.2 437.917 221.384C437.917 220.52 438.061 219.728 438.349 219.008C438.637 218.272 439.037 217.648 439.549 217.136C440.061 216.608 440.669 216.2 441.373 215.912C442.077 215.624 442.845 215.48 443.677 215.48C444.461 215.48 445.181 215.616 445.837 215.888C446.493 216.144 447.053 216.528 447.517 217.04C447.997 217.536 448.365 218.152 448.621 218.888C448.877 219.608 449.005 220.432 449.005 221.36V221.96H439.933C439.965 222.44 440.077 222.904 440.269 223.352C440.477 223.784 440.741 224.168 441.061 224.504C441.381 224.824 441.757 225.08 442.189 225.272C442.621 225.464 443.093 225.56 443.605 225.56C444.421 225.56 445.109 225.416 445.669 225.128C446.229 224.84 446.733 224.416 447.181 223.856L448.597 224.96ZM446.989 220.376C446.957 219.416 446.645 218.648 446.053 218.072C445.461 217.496 444.645 217.208 443.605 217.208C442.565 217.208 441.725 217.496 441.085 218.072C440.445 218.648 440.061 219.416 439.933 220.376H446.989ZM451.757 217.208C452.333 216.616 453.013 216.184 453.797 215.912C454.597 215.624 455.405 215.48 456.221 215.48C457.885 215.48 459.085 215.872 459.821 216.656C460.557 217.44 460.925 218.632 460.925 220.232V225.056C460.925 225.376 460.941 225.712 460.973 226.064C461.005 226.4 461.045 226.712 461.093 227H459.293C459.229 226.744 459.189 226.464 459.173 226.16C459.173 225.84 459.173 225.56 459.173 225.32H459.125C458.757 225.896 458.261 226.368 457.637 226.736C457.029 227.104 456.293 227.288 455.429 227.288C454.853 227.288 454.309 227.216 453.797 227.072C453.301 226.928 452.861 226.72 452.477 226.448C452.109 226.16 451.813 225.808 451.589 225.392C451.365 224.976 451.253 224.496 451.253 223.952C451.253 223.024 451.493 222.296 451.973 221.768C452.453 221.24 453.045 220.848 453.749 220.592C454.469 220.336 455.237 220.176 456.053 220.112C456.885 220.048 457.645 220.016 458.333 220.016H459.053V219.68C459.053 218.864 458.805 218.248 458.309 217.832C457.829 217.416 457.149 217.208 456.269 217.208C455.661 217.208 455.061 217.312 454.469 217.52C453.893 217.712 453.381 218.016 452.933 218.432L451.757 217.208ZM457.181 221.6C455.981 221.6 455.029 221.768 454.325 222.104C453.621 222.44 453.269 222.992 453.269 223.76C453.269 224.464 453.501 224.968 453.965 225.272C454.445 225.56 455.037 225.704 455.741 225.704C456.285 225.704 456.757 225.616 457.157 225.44C457.573 225.248 457.917 225 458.189 224.696C458.461 224.392 458.669 224.04 458.813 223.64C458.957 223.224 459.037 222.784 459.053 222.32V221.6H457.181ZM470.49 217.352H467.178V222.968C467.178 223.336 467.186 223.68 467.202 224C467.218 224.304 467.282 224.576 467.394 224.816C467.506 225.04 467.674 225.224 467.898 225.368C468.122 225.496 468.442 225.56 468.858 225.56C469.13 225.56 469.41 225.528 469.698 225.464C469.986 225.4 470.258 225.304 470.514 225.176L470.586 226.88C470.266 227.024 469.906 227.128 469.506 227.192C469.122 227.256 468.754 227.288 468.402 227.288C467.73 227.288 467.194 227.2 466.794 227.024C466.394 226.848 466.082 226.6 465.858 226.28C465.634 225.96 465.482 225.568 465.402 225.104C465.338 224.624 465.306 224.096 465.306 223.52V217.352H462.858V215.768H465.306V212.576H467.178V215.768H470.49V217.352ZM472.975 215.768H474.847V227H472.975V215.768ZM472.543 211.376C472.543 211.008 472.671 210.688 472.927 210.416C473.199 210.144 473.527 210.008 473.911 210.008C474.295 210.008 474.615 210.144 474.871 210.416C475.143 210.688 475.279 211.008 475.279 211.376C475.279 211.776 475.151 212.104 474.895 212.36C474.639 212.616 474.311 212.744 473.911 212.744C473.511 212.744 473.183 212.616 472.927 212.36C472.671 212.104 472.543 211.776 472.543 211.376ZM483.685 227H481.621L477.037 215.768H479.221L482.725 224.576H482.773L486.109 215.768H488.125L483.685 227ZM490.319 215.768H492.191V227H490.319V215.768ZM489.887 211.376C489.887 211.008 490.015 210.688 490.271 210.416C490.543 210.144 490.871 210.008 491.255 210.008C491.639 210.008 491.959 210.144 492.215 210.416C492.487 210.688 492.623 211.008 492.623 211.376C492.623 211.776 492.495 212.104 492.239 212.36C491.983 212.616 491.655 212.744 491.255 212.744C490.855 212.744 490.527 212.616 490.271 212.36C490.015 212.104 489.887 211.776 489.887 211.376ZM502.061 217.352H498.749V222.968C498.749 223.336 498.757 223.68 498.773 224C498.789 224.304 498.853 224.576 498.965 224.816C499.077 225.04 499.245 225.224 499.469 225.368C499.693 225.496 500.013 225.56 500.429 225.56C500.701 225.56 500.981 225.528 501.269 225.464C501.557 225.4 501.829 225.304 502.085 225.176L502.157 226.88C501.837 227.024 501.477 227.128 501.077 227.192C500.693 227.256 500.325 227.288 499.973 227.288C499.301 227.288 498.765 227.2 498.365 227.024C497.965 226.848 497.653 226.6 497.429 226.28C497.205 225.96 497.053 225.568 496.973 225.104C496.909 224.624 496.877 224.096 496.877 223.52V217.352H494.429V215.768H496.877V212.576H498.749V215.768H502.061V217.352ZM508.482 229.568C508.29 230.048 508.09 230.48 507.882 230.864C507.69 231.264 507.45 231.6 507.162 231.872C506.89 232.16 506.554 232.376 506.154 232.52C505.77 232.68 505.298 232.76 504.738 232.76C504.466 232.76 504.178 232.744 503.874 232.712C503.586 232.68 503.314 232.6 503.058 232.472L503.298 230.84C503.49 230.92 503.69 230.968 503.898 230.984C504.106 231.016 504.346 231.032 504.618 231.032C505.226 231.032 505.674 230.864 505.962 230.528C506.25 230.192 506.498 229.744 506.706 229.184L507.474 227.072L502.818 215.768H505.002L508.482 224.576H508.53L511.866 215.768H513.906L508.482 229.568ZM515.471 230.312H513.623L515.255 224.552H517.439L515.471 230.312ZM527.414 215.768H529.286V217.4H529.334C529.846 216.792 530.438 216.32 531.11 215.984C531.798 215.648 532.55 215.48 533.366 215.48C534.246 215.48 535.046 215.632 535.766 215.936C536.502 216.224 537.126 216.632 537.638 217.16C538.15 217.688 538.55 218.312 538.838 219.032C539.126 219.752 539.27 220.536 539.27 221.384C539.27 222.232 539.126 223.016 538.838 223.736C538.55 224.456 538.15 225.08 537.638 225.608C537.142 226.136 536.55 226.552 535.862 226.856C535.174 227.144 534.438 227.288 533.654 227.288C532.646 227.288 531.758 227.072 530.99 226.64C530.238 226.192 529.686 225.648 529.334 225.008H529.286V232.472H527.414V215.768ZM529.286 221.384C529.286 221.976 529.374 222.528 529.55 223.04C529.742 223.536 530.014 223.976 530.366 224.36C530.718 224.728 531.134 225.024 531.614 225.248C532.11 225.456 532.662 225.56 533.27 225.56C533.878 225.56 534.422 225.456 534.902 225.248C535.398 225.024 535.822 224.728 536.174 224.36C536.526 223.976 536.79 223.536 536.966 223.04C537.158 222.528 537.254 221.976 537.254 221.384C537.254 220.792 537.158 220.248 536.966 219.752C536.79 219.24 536.526 218.8 536.174 218.432C535.822 218.048 535.398 217.752 534.902 217.544C534.422 217.32 533.878 217.208 533.27 217.208C532.662 217.208 532.11 217.32 531.614 217.544C531.134 217.752 530.718 218.048 530.366 218.432C530.014 218.8 529.742 219.24 529.55 219.752C529.374 220.248 529.286 220.792 529.286 221.384ZM542.182 218.432C542.182 217.92 542.166 217.44 542.134 216.992C542.102 216.544 542.086 216.136 542.086 215.768H543.862C543.862 216.072 543.87 216.376 543.886 216.68C543.902 216.984 543.91 217.296 543.91 217.616H543.958C544.086 217.344 544.262 217.08 544.486 216.824C544.726 216.568 545.006 216.344 545.326 216.152C545.646 215.944 546.006 215.784 546.406 215.672C546.806 215.544 547.238 215.48 547.702 215.48C547.83 215.48 547.958 215.488 548.086 215.504C548.214 215.52 548.342 215.552 548.47 215.6L548.35 217.496C548.03 217.4 547.694 217.352 547.342 217.352C546.19 217.352 545.35 217.728 544.822 218.48C544.31 219.216 544.054 220.232 544.054 221.528V227H542.182V218.432ZM549.55 221.384C549.55 220.504 549.702 219.704 550.006 218.984C550.31 218.264 550.726 217.648 551.254 217.136C551.782 216.608 552.414 216.2 553.15 215.912C553.886 215.624 554.686 215.48 555.55 215.48C556.414 215.48 557.214 215.624 557.95 215.912C558.686 216.2 559.318 216.608 559.846 217.136C560.374 217.648 560.79 218.264 561.094 218.984C561.398 219.704 561.55 220.504 561.55 221.384C561.55 222.264 561.398 223.064 561.094 223.784C560.79 224.504 560.374 225.128 559.846 225.656C559.318 226.168 558.686 226.568 557.95 226.856C557.214 227.144 556.414 227.288 555.55 227.288C554.686 227.288 553.886 227.144 553.15 226.856C552.414 226.568 551.782 226.168 551.254 225.656C550.726 225.128 550.31 224.504 550.006 223.784C549.702 223.064 549.55 222.264 549.55 221.384ZM551.566 221.384C551.566 221.976 551.654 222.528 551.83 223.04C552.022 223.536 552.294 223.976 552.646 224.36C552.998 224.728 553.414 225.024 553.894 225.248C554.39 225.456 554.942 225.56 555.55 225.56C556.158 225.56 556.702 225.456 557.182 225.248C557.678 225.024 558.102 224.728 558.454 224.36C558.806 223.976 559.07 223.536 559.246 223.04C559.438 222.528 559.534 221.976 559.534 221.384C559.534 220.792 559.438 220.248 559.246 219.752C559.07 219.24 558.806 218.8 558.454 218.432C558.102 218.048 557.678 217.752 557.182 217.544C556.702 217.32 556.158 217.208 555.55 217.208C554.942 217.208 554.39 217.32 553.894 217.544C553.414 217.752 552.998 218.048 552.646 218.432C552.294 218.8 552.022 219.24 551.83 219.752C551.654 220.248 551.566 220.792 551.566 221.384ZM573.784 225.008H573.736C573.384 225.648 572.824 226.192 572.056 226.64C571.304 227.072 570.424 227.288 569.416 227.288C568.632 227.288 567.896 227.144 567.208 226.856C566.52 226.552 565.92 226.136 565.408 225.608C564.912 225.08 564.52 224.456 564.232 223.736C563.944 223.016 563.8 222.232 563.8 221.384C563.8 220.536 563.944 219.752 564.232 219.032C564.52 218.312 564.92 217.688 565.432 217.16C565.944 216.632 566.56 216.224 567.28 215.936C568.016 215.632 568.824 215.48 569.704 215.48C570.52 215.48 571.264 215.648 571.936 215.984C572.624 216.32 573.224 216.792 573.736 217.4H573.784V208.856H575.656V227H573.784V225.008ZM573.784 221.384C573.784 220.792 573.688 220.248 573.496 219.752C573.32 219.24 573.056 218.8 572.704 218.432C572.352 218.048 571.928 217.752 571.432 217.544C570.952 217.32 570.408 217.208 569.8 217.208C569.192 217.208 568.64 217.32 568.144 217.544C567.664 217.752 567.248 218.048 566.896 218.432C566.544 218.8 566.272 219.24 566.08 219.752C565.904 220.248 565.816 220.792 565.816 221.384C565.816 221.976 565.904 222.528 566.08 223.04C566.272 223.536 566.544 223.976 566.896 224.36C567.248 224.728 567.664 225.024 568.144 225.248C568.64 225.456 569.192 225.56 569.8 225.56C570.408 225.56 570.952 225.456 571.432 225.248C571.928 225.024 572.352 224.728 572.704 224.36C573.056 223.976 573.32 223.536 573.496 223.04C573.688 222.528 573.784 221.976 573.784 221.384ZM588.912 224.336C588.912 224.848 588.928 225.328 588.96 225.776C588.992 226.224 589.008 226.632 589.008 227H587.232C587.232 226.696 587.224 226.392 587.208 226.088C587.192 225.784 587.184 225.472 587.184 225.152H587.136C587.008 225.424 586.824 225.688 586.584 225.944C586.36 226.2 586.088 226.432 585.768 226.64C585.448 226.832 585.088 226.984 584.688 227.096C584.288 227.224 583.856 227.288 583.392 227.288C582.656 227.288 582.016 227.176 581.472 226.952C580.944 226.728 580.504 226.416 580.152 226.016C579.8 225.616 579.536 225.136 579.36 224.576C579.2 224 579.12 223.376 579.12 222.704V215.768H580.992V222.512C580.992 223.456 581.2 224.2 581.616 224.744C582.032 225.288 582.68 225.56 583.56 225.56C584.168 225.56 584.688 225.456 585.12 225.248C585.568 225.04 585.928 224.744 586.2 224.36C586.488 223.976 586.696 223.52 586.824 222.992C586.968 222.464 587.04 221.88 587.04 221.24V215.768H588.912V224.336ZM600.448 218.576C600.048 218.096 599.616 217.752 599.152 217.544C598.688 217.32 598.176 217.208 597.616 217.208C596.992 217.208 596.44 217.32 595.96 217.544C595.48 217.752 595.08 218.048 594.76 218.432C594.456 218.816 594.224 219.264 594.064 219.776C593.904 220.272 593.824 220.808 593.824 221.384C593.824 221.96 593.912 222.504 594.088 223.016C594.28 223.512 594.536 223.952 594.856 224.336C595.192 224.72 595.592 225.024 596.056 225.248C596.52 225.456 597.04 225.56 597.616 225.56C598.848 225.56 599.8 225.096 600.472 224.168L601.864 225.488C601.32 226.112 600.68 226.568 599.944 226.856C599.208 227.144 598.432 227.288 597.616 227.288C596.752 227.288 595.96 227.144 595.24 226.856C594.52 226.568 593.904 226.16 593.392 225.632C592.896 225.104 592.504 224.48 592.216 223.76C591.944 223.04 591.808 222.248 591.808 221.384C591.808 220.536 591.944 219.752 592.216 219.032C592.504 218.312 592.904 217.688 593.416 217.16C593.928 216.632 594.536 216.224 595.24 215.936C595.96 215.632 596.752 215.48 597.616 215.48C598.448 215.48 599.232 215.624 599.968 215.912C600.72 216.2 601.376 216.648 601.936 217.256L600.448 218.576ZM610.178 217.352H606.866V222.968C606.866 223.336 606.874 223.68 606.89 224C606.906 224.304 606.97 224.576 607.082 224.816C607.194 225.04 607.362 225.224 607.586 225.368C607.81 225.496 608.13 225.56 608.546 225.56C608.818 225.56 609.098 225.528 609.386 225.464C609.674 225.4 609.946 225.304 610.202 225.176L610.274 226.88C609.954 227.024 609.594 227.128 609.194 227.192C608.81 227.256 608.442 227.288 608.09 227.288C607.418 227.288 606.882 227.2 606.482 227.024C606.082 226.848 605.77 226.6 605.546 226.28C605.322 225.96 605.17 225.568 605.09 225.104C605.026 224.624 604.994 224.096 604.994 223.52V217.352H602.546V215.768H604.994V212.576H606.866V215.768H610.178V217.352ZM612.663 215.768H614.535V227H612.663V215.768ZM612.231 211.376C612.231 211.008 612.359 210.688 612.615 210.416C612.887 210.144 613.215 210.008 613.599 210.008C613.983 210.008 614.303 210.144 614.559 210.416C614.831 210.688 614.967 211.008 614.967 211.376C614.967 211.776 614.839 212.104 614.583 212.36C614.327 212.616 613.999 212.744 613.599 212.744C613.199 212.744 612.871 212.616 612.615 212.36C612.359 212.104 612.231 211.776 612.231 211.376ZM617.612 221.384C617.612 220.504 617.764 219.704 618.068 218.984C618.372 218.264 618.788 217.648 619.316 217.136C619.844 216.608 620.476 216.2 621.212 215.912C621.948 215.624 622.748 215.48 623.612 215.48C624.476 215.48 625.276 215.624 626.012 215.912C626.748 216.2 627.38 216.608 627.908 217.136C628.436 217.648 628.852 218.264 629.156 218.984C629.46 219.704 629.612 220.504 629.612 221.384C629.612 222.264 629.46 223.064 629.156 223.784C628.852 224.504 628.436 225.128 627.908 225.656C627.38 226.168 626.748 226.568 626.012 226.856C625.276 227.144 624.476 227.288 623.612 227.288C622.748 227.288 621.948 227.144 621.212 226.856C620.476 226.568 619.844 226.168 619.316 225.656C618.788 225.128 618.372 224.504 618.068 223.784C617.764 223.064 617.612 222.264 617.612 221.384ZM619.628 221.384C619.628 221.976 619.716 222.528 619.892 223.04C620.084 223.536 620.356 223.976 620.708 224.36C621.06 224.728 621.476 225.024 621.956 225.248C622.452 225.456 623.004 225.56 623.612 225.56C624.22 225.56 624.764 225.456 625.244 225.248C625.74 225.024 626.164 224.728 626.516 224.36C626.868 223.976 627.132 223.536 627.308 223.04C627.5 222.528 627.596 221.976 627.596 221.384C627.596 220.792 627.5 220.248 627.308 219.752C627.132 219.24 626.868 218.8 626.516 218.432C626.164 218.048 625.74 217.752 625.244 217.544C624.764 217.32 624.22 217.208 623.612 217.208C623.004 217.208 622.452 217.32 621.956 217.544C621.476 217.752 621.06 218.048 620.708 218.432C620.356 218.8 620.084 219.24 619.892 219.752C619.716 220.248 619.628 220.792 619.628 221.384ZM632.51 218.432C632.51 217.92 632.494 217.44 632.462 216.992C632.43 216.544 632.414 216.136 632.414 215.768H634.19C634.19 216.072 634.198 216.376 634.214 216.68C634.23 216.984 634.238 217.296 634.238 217.616H634.286C634.414 217.344 634.59 217.08 634.814 216.824C635.054 216.568 635.334 216.344 635.654 216.152C635.974 215.944 636.334 215.784 636.734 215.672C637.134 215.544 637.566 215.48 638.03 215.48C638.766 215.48 639.398 215.592 639.926 215.816C640.47 216.04 640.918 216.352 641.27 216.752C641.622 217.152 641.878 217.64 642.038 218.216C642.214 218.776 642.302 219.392 642.302 220.064V227H640.43V220.256C640.43 219.312 640.222 218.568 639.806 218.024C639.39 217.48 638.742 217.208 637.862 217.208C637.254 217.208 636.726 217.312 636.278 217.52C635.846 217.728 635.486 218.024 635.198 218.408C634.926 218.792 634.718 219.248 634.574 219.776C634.446 220.304 634.382 220.888 634.382 221.528V227H632.51V218.432ZM662.678 224.552C661.99 225.416 661.254 226.088 660.47 226.568C659.686 227.048 658.726 227.288 657.59 227.288C656.87 227.288 656.182 227.184 655.526 226.976C654.87 226.752 654.294 226.432 653.798 226.016C653.318 225.6 652.926 225.096 652.622 224.504C652.334 223.896 652.19 223.208 652.19 222.44C652.19 221.848 652.286 221.304 652.478 220.808C652.686 220.296 652.958 219.84 653.294 219.44C653.646 219.024 654.046 218.664 654.494 218.36C654.958 218.04 655.446 217.76 655.958 217.52C655.398 216.96 654.918 216.368 654.518 215.744C654.118 215.12 653.918 214.4 653.918 213.584C653.918 212.96 654.038 212.408 654.278 211.928C654.518 211.432 654.838 211.024 655.238 210.704C655.638 210.368 656.102 210.12 656.63 209.96C657.158 209.784 657.718 209.696 658.31 209.696C658.886 209.696 659.43 209.776 659.942 209.936C660.454 210.096 660.902 210.336 661.286 210.656C661.686 210.96 661.998 211.352 662.222 211.832C662.446 212.296 662.558 212.84 662.558 213.464C662.558 213.992 662.446 214.48 662.222 214.928C662.014 215.36 661.734 215.752 661.382 216.104C661.046 216.44 660.662 216.752 660.23 217.04C659.814 217.312 659.39 217.56 658.958 217.784L662.558 221.6L664.838 217.784H667.118L663.854 223.016L667.742 227H664.982L662.678 224.552ZM657.71 216.56C658.03 216.384 658.358 216.2 658.694 216.008C659.03 215.816 659.334 215.6 659.606 215.36C659.878 215.12 660.102 214.84 660.278 214.52C660.454 214.2 660.542 213.832 660.542 213.416C660.542 212.792 660.326 212.304 659.894 211.952C659.478 211.6 658.974 211.424 658.382 211.424C657.71 211.424 657.134 211.632 656.654 212.048C656.174 212.448 655.934 213 655.934 213.704C655.934 214.168 656.054 214.584 656.294 214.952C656.55 215.304 656.822 215.632 657.11 215.936L657.71 216.56ZM657.206 218.744C656.838 218.936 656.478 219.152 656.126 219.392C655.774 219.616 655.454 219.872 655.166 220.16C654.878 220.448 654.646 220.776 654.47 221.144C654.294 221.512 654.206 221.92 654.206 222.368C654.206 222.832 654.294 223.256 654.47 223.64C654.646 224.024 654.886 224.36 655.19 224.648C655.494 224.936 655.846 225.16 656.246 225.32C656.646 225.48 657.07 225.56 657.518 225.56C657.95 225.56 658.35 225.496 658.718 225.368C659.086 225.24 659.422 225.072 659.726 224.864C660.046 224.64 660.342 224.392 660.614 224.12C660.902 223.832 661.182 223.528 661.454 223.208L657.206 218.744ZM676.382 217.208C676.958 216.616 677.638 216.184 678.422 215.912C679.222 215.624 680.03 215.48 680.846 215.48C682.51 215.48 683.71 215.872 684.446 216.656C685.182 217.44 685.55 218.632 685.55 220.232V225.056C685.55 225.376 685.566 225.712 685.598 226.064C685.63 226.4 685.67 226.712 685.718 227H683.918C683.854 226.744 683.814 226.464 683.798 226.16C683.798 225.84 683.798 225.56 683.798 225.32H683.75C683.382 225.896 682.886 226.368 682.262 226.736C681.654 227.104 680.918 227.288 680.054 227.288C679.478 227.288 678.934 227.216 678.422 227.072C677.926 226.928 677.486 226.72 677.102 226.448C676.734 226.16 676.438 225.808 676.214 225.392C675.99 224.976 675.878 224.496 675.878 223.952C675.878 223.024 676.118 222.296 676.598 221.768C677.078 221.24 677.67 220.848 678.374 220.592C679.094 220.336 679.862 220.176 680.678 220.112C681.51 220.048 682.27 220.016 682.958 220.016H683.678V219.68C683.678 218.864 683.43 218.248 682.934 217.832C682.454 217.416 681.774 217.208 680.894 217.208C680.286 217.208 679.686 217.312 679.094 217.52C678.518 217.712 678.006 218.016 677.558 218.432L676.382 217.208ZM681.806 221.6C680.606 221.6 679.654 221.768 678.95 222.104C678.246 222.44 677.894 222.992 677.894 223.76C677.894 224.464 678.126 224.968 678.59 225.272C679.07 225.56 679.662 225.704 680.366 225.704C680.91 225.704 681.382 225.616 681.782 225.44C682.198 225.248 682.542 225 682.814 224.696C683.086 224.392 683.294 224.04 683.438 223.64C683.582 223.224 683.662 222.784 683.678 222.32V221.6H681.806ZM698.307 225.008H698.259C697.907 225.648 697.347 226.192 696.579 226.64C695.827 227.072 694.947 227.288 693.939 227.288C693.155 227.288 692.419 227.144 691.731 226.856C691.043 226.552 690.443 226.136 689.931 225.608C689.435 225.08 689.043 224.456 688.755 223.736C688.467 223.016 688.323 222.232 688.323 221.384C688.323 220.536 688.467 219.752 688.755 219.032C689.043 218.312 689.443 217.688 689.955 217.16C690.467 216.632 691.083 216.224 691.803 215.936C692.539 215.632 693.347 215.48 694.227 215.48C695.043 215.48 695.787 215.648 696.459 215.984C697.147 216.32 697.747 216.792 698.259 217.4H698.307V208.856H700.179V227H698.307V225.008ZM698.307 221.384C698.307 220.792 698.211 220.248 698.019 219.752C697.843 219.24 697.579 218.8 697.227 218.432C696.875 218.048 696.451 217.752 695.955 217.544C695.475 217.32 694.931 217.208 694.323 217.208C693.715 217.208 693.163 217.32 692.667 217.544C692.187 217.752 691.771 218.048 691.419 218.432C691.067 218.8 690.795 219.24 690.603 219.752C690.427 220.248 690.339 220.792 690.339 221.384C690.339 221.976 690.427 222.528 690.603 223.04C690.795 223.536 691.067 223.976 691.419 224.36C691.771 224.728 692.187 225.024 692.667 225.248C693.163 225.456 693.715 225.56 694.323 225.56C694.931 225.56 695.475 225.456 695.955 225.248C696.451 225.024 696.875 224.728 697.227 224.36C697.579 223.976 697.843 223.536 698.019 223.04C698.211 222.528 698.307 221.976 698.307 221.384ZM703.883 224.048C704.251 224.512 704.651 224.88 705.083 225.152C705.531 225.424 706.091 225.56 706.763 225.56C707.051 225.56 707.339 225.528 707.627 225.464C707.931 225.4 708.203 225.296 708.443 225.152C708.683 225.008 708.875 224.832 709.019 224.624C709.163 224.4 709.235 224.136 709.235 223.832C709.235 223.528 709.163 223.28 709.019 223.088C708.891 222.896 708.715 222.736 708.491 222.608C708.267 222.464 708.011 222.352 707.723 222.272C707.435 222.192 707.139 222.12 706.835 222.056C706.307 221.944 705.803 221.816 705.323 221.672C704.843 221.528 704.419 221.344 704.051 221.12C703.699 220.88 703.411 220.576 703.187 220.208C702.979 219.84 702.875 219.368 702.875 218.792C702.875 218.248 702.995 217.768 703.235 217.352C703.475 216.936 703.795 216.592 704.195 216.32C704.595 216.048 705.043 215.84 705.539 215.696C706.035 215.552 706.547 215.48 707.075 215.48C707.875 215.48 708.611 215.64 709.283 215.96C709.971 216.28 710.507 216.8 710.891 217.52L709.331 218.552C709.091 218.152 708.771 217.832 708.371 217.592C707.987 217.336 707.515 217.208 706.955 217.208C706.699 217.208 706.435 217.24 706.163 217.304C705.907 217.368 705.675 217.464 705.467 217.592C705.259 217.72 705.083 217.888 704.939 218.096C704.811 218.288 704.747 218.512 704.747 218.768C704.747 219.008 704.819 219.216 704.963 219.392C705.123 219.552 705.331 219.696 705.587 219.824C705.859 219.952 706.163 220.064 706.499 220.16C706.851 220.256 707.211 220.336 707.579 220.4C708.075 220.496 708.547 220.624 708.995 220.784C709.443 220.928 709.835 221.128 710.171 221.384C710.507 221.64 710.771 221.96 710.963 222.344C711.155 222.728 711.251 223.2 711.251 223.76C711.251 224.4 711.123 224.944 710.867 225.392C710.611 225.84 710.267 226.208 709.835 226.496C709.419 226.768 708.939 226.968 708.395 227.096C707.867 227.224 707.323 227.288 706.763 227.288C705.803 227.288 704.971 227.144 704.267 226.856C703.579 226.552 702.955 226 702.395 225.2L703.883 224.048ZM715.422 224.264C715.822 224.264 716.158 224.408 716.43 224.696C716.718 224.968 716.862 225.304 716.862 225.704C716.862 226.104 716.71 226.448 716.406 226.736C716.118 227.008 715.79 227.144 715.422 227.144C715.054 227.144 714.718 227.008 714.414 226.736C714.126 226.448 713.982 226.104 713.982 225.704C713.982 225.304 714.118 224.968 714.39 224.696C714.678 224.408 715.022 224.264 715.422 224.264Z" fill="white"></path><path d="M230 156.5H772.622V158.25H230V156.5Z" fill="white"></path></svg>