<svg xmlns="http://www.w3.org/2000/svg" width="863" height="135" viewBox="0 0 863 135" fill="none"><path d="M212.664 42.07L176.004 4.305H164.109V50H172.429V12.235L209.089 50H220.984V4.305H212.664V42.07ZM257.143 44.215C246.288 44.215 239.983 40.965 239.138 33.1H282.688C282.688 16.2 271.118 10.805 256.428 10.805C241.868 10.805 230.298 17.305 230.298 31.085C230.298 44.865 241.478 51.3 257.078 51.3C270.663 51.3 279.763 46.165 282.103 37.455H273.328C271.313 41.485 266.893 44.215 257.143 44.215ZM256.428 17.76C265.918 17.76 271.703 20.425 273.393 26.47H239.658C241.543 20.36 247.523 17.76 256.428 17.76ZM297.811 50L313.411 36.285L329.011 50H341.361L318.481 31.085L341.361 12.105H329.011L313.411 25.82L297.811 12.105H285.396L308.276 31.085L285.396 50H297.811ZM385.581 12.105H366.276V0.534998L358.151 3.265V12.105H346.841V19.19H358.151V34.465C358.151 47.53 361.856 51.3 373.816 51.3C377.846 51.3 381.291 50.91 385.581 50.26V43.305C381.096 43.89 378.561 44.085 375.636 44.085C367.706 44.085 366.276 42.07 366.276 33.815V19.19H385.581V12.105ZM421.871 37.13C422.456 49.22 435.651 51.3 450.666 51.3C465.421 51.3 474.781 48.765 474.781 38.625C474.781 28.42 464.511 28.29 449.691 26.99C434.741 25.69 432.466 24.975 432.466 22.18C432.466 19.515 435.586 17.63 447.416 17.63C459.441 17.63 464.121 18.605 464.706 23.09H473.481C472.636 12.885 462.041 10.805 448.326 10.805C434.546 10.805 423.691 13.34 423.691 22.7C423.691 31.41 432.141 32.645 448.196 33.815C463.861 34.985 466.006 35.505 466.006 39.015C466.006 42.72 463.796 44.41 450.016 44.41C436.041 44.41 431.231 42.33 430.646 37.13H421.871ZM517.803 12.105H498.498V0.534998L490.373 3.265V12.105H479.063V19.19H490.373V34.465C490.373 47.53 494.078 51.3 506.038 51.3C510.068 51.3 513.513 50.91 517.803 50.26V43.305C513.318 43.89 510.783 44.085 507.858 44.085C499.928 44.085 498.498 42.07 498.498 33.815V19.19H517.803V12.105ZM552.182 44.215C541.327 44.215 535.022 40.965 534.177 33.1H577.727C577.727 16.2 566.157 10.805 551.467 10.805C536.907 10.805 525.337 17.305 525.337 31.085C525.337 44.865 536.517 51.3 552.117 51.3C565.702 51.3 574.802 46.165 577.142 37.455H568.367C566.352 41.485 561.932 44.215 552.182 44.215ZM551.467 17.76C560.957 17.76 566.742 20.425 568.432 26.47H534.697C536.582 20.36 542.562 17.76 551.467 17.76ZM615.46 10.805C605.71 10.805 598.95 13.73 595.115 18.735V12.105H586.99V65.6H595.115V43.435C598.95 48.375 605.71 51.3 615.46 51.3C628.98 51.3 639.64 44.8 639.64 31.085C639.64 17.305 628.98 10.805 615.46 10.805ZM613.315 44.085C601.68 44.085 595.115 39.08 595.115 31.085C595.115 23.09 601.095 18.085 612.73 18.085C624.365 18.085 630.865 23.09 630.865 31.085C630.865 39.08 624.885 44.085 613.315 44.085ZM646.705 37.13C647.29 49.22 660.485 51.3 675.5 51.3C690.255 51.3 699.615 48.765 699.615 38.625C699.615 28.42 689.345 28.29 674.525 26.99C659.575 25.69 657.3 24.975 657.3 22.18C657.3 19.515 660.42 17.63 672.25 17.63C684.275 17.63 688.955 18.605 689.54 23.09H698.315C697.47 12.885 686.875 10.805 673.16 10.805C659.38 10.805 648.525 13.34 648.525 22.7C648.525 31.41 656.975 32.645 673.03 33.815C688.695 34.985 690.84 35.505 690.84 39.015C690.84 42.72 688.63 44.41 674.85 44.41C660.875 44.41 656.065 42.33 655.48 37.13H646.705ZM66.6997 77.7C58.2497 77.7 52.4647 81.6 48.1097 87.71C45.4447 80.56 39.2047 77.7 32.3147 77.7C24.7747 77.7 19.3147 80.82 15.1547 85.89V79H0.204688V118H15.1547V98.825C15.1547 92.26 19.9647 90.05 25.6197 90.05C31.6647 90.05 34.5897 92.26 34.5897 98.825V118H49.5397V98.825C49.5397 92.26 54.3497 90.05 60.0047 90.05C66.0497 90.05 68.9747 92.26 68.9747 98.825V118H83.9247V96.485C83.9247 82.835 75.9297 77.7 66.6997 77.7ZM117.623 119.3C136.148 119.3 145.443 111.435 145.443 98.5C145.443 85.565 136.148 77.7 117.623 77.7C99.0981 77.7 89.8031 85.565 89.8031 98.5C89.8031 111.435 99.0981 119.3 117.623 119.3ZM117.623 107.6C109.368 107.6 105.403 104.87 105.403 98.5C105.403 92.13 109.368 89.4 117.623 89.4C125.878 89.4 129.843 92.13 129.843 98.5C129.843 104.87 125.878 107.6 117.623 107.6ZM175.309 109.81L160.554 79H145.409L164.259 118H186.294L205.144 79H189.999L175.309 109.81ZM210.376 75.1H225.326V66H210.376V75.1ZM210.376 118H225.326V79H210.376V118ZM270.41 77.7C259.49 77.7 252.86 81.99 248.05 88.1V79H233.1V118H248.05V102.725C248.05 94.21 253.51 90.05 263.065 90.05C272.36 90.05 275.285 94.21 275.285 102.725V118H290.235V97.135C290.235 82.835 282.24 77.7 270.41 77.7ZM335.492 85.76C331.527 79.91 324.507 77.7 317.422 77.7C307.347 77.7 296.102 82.77 296.102 97.85C296.102 112.93 307.347 118 317.422 118C324.507 118 331.527 115.79 335.492 109.94V114.425C335.492 121.705 330.552 123.2 323.402 123.2C316.447 123.2 309.817 122.225 300.587 120.405L298.507 131.585C306.957 133.47 316.057 134.9 326.197 134.9C342.512 134.9 350.312 128.79 350.442 113.905V79H335.492V85.76ZM323.597 105.65C315.017 105.65 311.702 102.92 311.702 97.85C311.702 92.78 315.017 90.05 323.597 90.05C332.177 90.05 335.492 92.78 335.492 97.85C335.492 102.92 332.177 105.65 323.597 105.65ZM414.09 74.45C415.845 74.45 417.275 74.58 421.63 74.905V65.35C417.86 64.895 413.96 64.7 410.125 64.7C397.385 64.7 391.405 69.705 391.405 77.505V79H382.24V90.05H391.405V118H406.355V90.05H421.63V79H406.355C406.485 75.815 408.045 74.45 414.09 74.45ZM453.351 119.3C471.876 119.3 481.171 111.435 481.171 98.5C481.171 85.565 471.876 77.7 453.351 77.7C434.826 77.7 425.531 85.565 425.531 98.5C425.531 111.435 434.826 119.3 453.351 119.3ZM453.351 107.6C445.096 107.6 441.131 104.87 441.131 98.5C441.131 92.13 445.096 89.4 453.351 89.4C461.606 89.4 465.571 92.13 465.571 98.5C465.571 104.87 461.606 107.6 453.351 107.6ZM517.946 77.7C511.056 77.7 506.051 80.365 501.956 87.45V79H487.006V118H501.956V98.89C507.351 92 512.876 90.7 517.361 90.7C520.546 90.7 523.146 91.09 527.436 92.65V79.65C524.251 78.285 521.586 77.7 517.946 77.7ZM603.106 107.86L589.391 79H571.906L558.191 107.86L546.101 79H531.346L547.661 118H568.461L580.681 92.585L592.836 118H613.636L629.951 79H615.196L603.106 107.86ZM662.133 77.7C651.993 77.7 642.893 79.13 634.443 81.015L636.523 91.22C645.753 89.075 652.383 88.1 659.338 88.1C666.163 88.1 671.038 89.465 671.428 94.86C666.358 93.82 660.313 92.91 653.683 92.91C642.958 92.91 631.258 95.575 631.258 106.235C631.258 115.465 639.058 118.65 649.263 118.65C655.893 118.65 664.473 117.09 671.428 112.8V118H686.378V98.045C686.248 83.16 678.448 77.7 662.133 77.7ZM654.398 108.25C648.808 108.25 646.858 107.405 646.858 105.195C646.858 102.855 649.328 102.01 655.893 102.01C660.898 102.01 666.423 102.595 671.428 103.31V106.3C667.138 107.015 659.078 108.25 654.398 108.25ZM724.182 77.7C717.292 77.7 712.287 80.365 708.192 87.45V79H693.242V118H708.192V98.89C713.587 92 719.112 90.7 723.597 90.7C726.782 90.7 729.382 91.09 733.672 92.65V79.65C730.487 78.285 727.822 77.7 724.182 77.7ZM777.606 85.955C773.641 79.91 766.621 77.7 759.536 77.7C749.461 77.7 738.216 82.77 738.216 98.5C738.216 114.23 749.461 119.3 759.536 119.3C766.621 119.3 773.641 117.09 777.606 111.045V118H792.556V66H777.606V85.955ZM765.711 106.95C757.781 106.95 753.816 104.22 753.816 98.5C753.816 92.78 757.781 90.05 765.711 90.05C773.641 90.05 777.606 92.78 777.606 98.5C777.606 104.22 773.641 106.95 765.711 106.95ZM800.327 118H815.927V106.3H800.327V118ZM823.75 118H839.35V106.3H823.75V118ZM847.172 118H862.772V106.3H847.172V118Z" fill="white"></path></svg>