<svg xmlns="http://www.w3.org/2000/svg" width="1482" height="286" viewBox="0 0 1482 286" fill="none"><path d="M0.687866 85.71C2.38787 117.67 30.9479 129.4 80.0779 129.4C125.468 129.4 152.668 119.37 152.668 88.26C152.668 55.45 123.598 51.88 80.0779 48.14C50.8379 45.59 46.5879 43.55 46.5879 38.28C46.5879 34.03 50.8379 30.8 71.5779 30.8C93.1679 30.8 103.368 33.86 103.368 41.85H147.568C145.868 14.82 119.688 0.199998 71.5779 0.199998C29.7579 0.199998 2.38787 13.12 2.38787 38.11C2.38787 65.31 24.6579 76.19 73.2779 79.76C104.558 82.14 108.468 83.33 108.468 89.96C108.468 95.23 104.558 98.8 78.3779 98.8C53.2179 98.8 44.8879 93.19 44.8879 85.71H0.687866ZM306.621 3.6H264.121V64.63C264.121 78.91 257.831 93.7 231.821 93.7C205.811 93.7 199.521 79.08 199.521 64.63V3.6H157.021V66.33C157.021 107.81 179.461 129.4 231.821 129.4C284.011 129.4 306.621 107.64 306.621 66.33V3.6ZM312.611 64.63C312.611 107.81 340.151 129.4 387.411 129.4C431.781 129.4 458.131 110.87 461.701 76.53H416.481C414.781 84.52 406.111 93.7 387.411 93.7C365.481 93.7 356.811 80.78 356.811 64.63C356.811 48.65 365.311 35.9 387.411 35.9C406.111 35.9 414.781 44.91 416.481 52.73H461.701C458.131 18.56 431.611 0.199998 387.411 0.199998C340.151 0.199998 312.611 21.62 312.611 64.63ZM465.917 64.63C465.917 107.81 493.457 129.4 540.717 129.4C585.087 129.4 611.437 110.87 615.007 76.53H569.787C568.087 84.52 559.417 93.7 540.717 93.7C518.787 93.7 510.117 80.78 510.117 64.63C510.117 48.65 518.617 35.9 540.717 35.9C559.417 35.9 568.087 44.91 569.787 52.73H615.007C611.437 18.56 584.917 0.199998 540.717 0.199998C493.457 0.199998 465.917 21.62 465.917 64.63ZM746.722 3.6H620.922V126H746.722V93.7H663.422V80.95H743.322V48.65H663.422V35.9H746.722V3.6ZM751.112 85.71C752.812 117.67 781.372 129.4 830.502 129.4C875.892 129.4 903.092 119.37 903.092 88.26C903.092 55.45 874.022 51.88 830.502 48.14C801.262 45.59 797.012 43.55 797.012 38.28C797.012 34.03 801.262 30.8 822.002 30.8C843.592 30.8 853.792 33.86 853.792 41.85H897.992C896.292 14.82 870.112 0.199998 822.002 0.199998C780.182 0.199998 752.812 13.12 752.812 38.11C752.812 65.31 775.082 76.19 823.702 79.76C854.982 82.14 858.892 83.33 858.892 89.96C858.892 95.23 854.982 98.8 828.802 98.8C803.642 98.8 795.312 93.19 795.312 85.71H751.112ZM909.066 85.71C910.766 117.67 939.326 129.4 988.456 129.4C1033.85 129.4 1061.05 119.37 1061.05 88.26C1061.05 55.45 1031.98 51.88 988.456 48.14C959.216 45.59 954.966 43.55 954.966 38.28C954.966 34.03 959.216 30.8 979.956 30.8C1001.55 30.8 1011.75 33.86 1011.75 41.85H1055.95C1054.25 14.82 1028.07 0.199998 979.956 0.199998C938.136 0.199998 910.766 13.12 910.766 38.11C910.766 65.31 933.036 76.19 981.656 79.76C1012.94 82.14 1016.85 83.33 1016.85 89.96C1016.85 95.23 1012.94 98.8 986.756 98.8C961.596 98.8 953.266 93.19 953.266 85.71H909.066ZM1194.52 3.6H1068.72V126H1111.22V92.85H1184.32V57.15H1111.22V39.3H1194.52V3.6ZM1351.87 3.6H1309.37V64.63C1309.37 78.91 1303.08 93.7 1277.07 93.7C1251.06 93.7 1244.77 79.08 1244.77 64.63V3.6H1202.27V66.33C1202.27 107.81 1224.71 129.4 1277.07 129.4C1329.26 129.4 1351.87 107.64 1351.87 66.33V3.6ZM1402.06 3.6H1359.56V126H1481.96V90.3H1402.06V3.6Z" fill="white"></path><path d="M0.687866 85.71V83.71H-1.42134L-1.30931 85.8162L0.687866 85.71ZM80.0779 48.14L79.9041 50.1324L79.9066 50.1326L80.0779 48.14ZM103.368 41.85H101.368V43.85H103.368V41.85ZM147.568 41.85V43.85H149.698L149.564 41.7245L147.568 41.85ZM73.2779 79.76L73.4296 77.7658L73.4243 77.7654L73.2779 79.76ZM44.8879 85.71H46.8879V83.71H44.8879V85.71ZM-1.30931 85.8162C-0.868397 94.1054 1.32279 101.186 5.23054 107.12C9.13665 113.051 14.6866 117.727 21.6832 121.319C35.6095 128.469 55.4231 131.4 80.0779 131.4V127.4C55.6027 127.4 36.5712 124.466 23.51 117.761C17.0128 114.425 12.0335 110.177 8.57113 104.92C5.11045 99.665 3.09413 93.2946 2.68504 85.6038L-1.30931 85.8162ZM80.0779 131.4C102.84 131.4 121.39 128.899 134.307 122.276C140.805 118.944 145.928 114.543 149.414 108.858C152.9 103.173 154.668 96.336 154.668 88.26H150.668C150.668 95.739 149.036 101.822 146.004 106.767C142.971 111.713 138.457 115.653 132.482 118.717C120.451 124.886 102.706 127.4 80.0779 127.4V131.4ZM154.668 88.26C154.668 79.7559 152.781 72.9632 149.099 67.5507C145.422 62.1439 140.079 58.296 133.483 55.4613C120.416 49.8456 101.905 48.0084 80.2491 46.1473L79.9066 50.1326C101.77 52.0116 119.555 53.8294 131.903 59.1362C138.015 61.7628 142.658 65.1929 145.792 69.8002C148.921 74.4018 150.668 80.3591 150.668 88.26H154.668ZM80.2516 46.1476C65.5852 44.8685 57.44 43.7322 52.9693 42.3226C50.7424 41.6204 49.7096 40.9316 49.2104 40.3642C48.7852 39.881 48.5879 39.3062 48.5879 38.28H44.5879C44.5879 39.8888 44.9218 41.5453 46.2072 43.0064C47.4187 44.3834 49.2758 45.3521 51.7664 46.1374C56.7308 47.7028 65.3306 48.8615 79.9041 50.1324L80.2516 46.1476ZM48.5879 38.28C48.5879 37.5796 48.7515 37.0491 49.1359 36.5699C49.5531 36.05 50.37 35.4188 51.9932 34.8242C55.2936 33.6154 61.2357 32.8 71.5779 32.8V28.8C61.18 28.8 54.6272 29.5996 50.6175 31.0683C48.5857 31.8125 47.0439 32.7856 46.0161 34.0666C44.9555 35.3884 44.5879 36.8554 44.5879 38.28H48.5879ZM71.5779 32.8C82.3456 32.8 90.0129 33.5716 94.9321 35.2246C97.3752 36.0456 98.9799 37.0327 99.9628 38.1045C100.9 39.1267 101.368 40.3262 101.368 41.85H105.368C105.368 39.3788 104.56 37.1996 102.911 35.4008C101.307 33.6517 99.0118 32.3757 96.2062 31.4329C90.6278 29.5584 82.4002 28.8 71.5779 28.8V32.8ZM103.368 43.85H147.568V39.85H103.368V43.85ZM149.564 41.7245C148.667 27.4596 141.251 16.4669 127.941 9.13687C114.747 1.86982 95.7853 -1.8 71.5779 -1.8V2.2C95.4804 2.2 113.664 5.84018 126.012 12.6406C138.245 19.3781 144.769 29.2104 145.572 41.9755L149.564 41.7245ZM71.5779 -1.8C50.5106 -1.8 32.8445 1.44663 20.3687 8.01398C7.79993 14.6303 0.387867 24.7093 0.387867 38.11H4.38787C4.38787 26.5207 10.6608 17.6447 22.232 11.5535C33.8962 5.41337 50.8251 2.2 71.5779 2.2V-1.8ZM0.387867 38.11C0.387867 45.1887 1.83924 51.3313 4.89795 56.5955C7.95727 61.8609 12.5479 66.1156 18.618 69.5384C30.6737 76.3362 48.7791 79.9665 73.1314 81.7546L73.4243 77.7654C49.1567 75.9835 31.8171 72.3888 20.5827 66.0541C15.0079 62.9106 10.9922 59.1222 8.35653 54.586C5.72024 50.0487 4.38787 44.6313 4.38787 38.11H0.387867ZM73.1261 81.7542C88.8552 82.951 97.4038 83.8349 102.044 85.1864C104.34 85.8554 105.327 86.5476 105.8 87.1448C106.239 87.7001 106.468 88.4678 106.468 89.96H110.468C110.468 88.1372 110.208 86.2699 108.937 84.663C107.699 83.0981 105.753 82.1009 103.162 81.3461C98.027 79.8501 88.9806 78.949 73.4296 77.7658L73.1261 81.7542ZM106.468 89.96C106.468 91.0267 106.272 91.7751 105.826 92.3949C105.363 93.0362 104.455 93.784 102.555 94.4775C98.6706 95.8952 91.4697 96.8 78.3779 96.8V100.8C91.466 100.8 99.3102 99.9198 103.926 98.235C106.276 97.3772 107.981 96.2444 109.07 94.7342C110.175 93.2024 110.468 91.5283 110.468 89.96H106.468ZM78.3779 96.8C65.884 96.8 57.8522 95.3975 53.0143 93.2342C50.6193 92.1633 49.1032 90.9482 48.1871 89.717C47.2887 88.5097 46.8879 87.1826 46.8879 85.71H42.8879C42.8879 87.9774 43.5283 90.1566 44.978 92.1049C46.41 94.0293 48.549 95.6192 51.3815 96.8858C56.9985 99.3975 65.7118 100.8 78.3779 100.8V96.8ZM44.8879 83.71H0.687866V87.71H44.8879V83.71ZM306.621 3.6H308.621V1.6H306.621V3.6ZM264.121 3.6V1.6H262.121V3.6H264.121ZM199.521 3.6H201.521V1.6H199.521V3.6ZM157.021 3.6V1.6H155.021V3.6H157.021ZM306.621 1.6H264.121V5.6H306.621V1.6ZM262.121 3.6V64.63H266.121V3.6H262.121ZM262.121 64.63C262.121 71.5197 260.599 78.2265 256.224 83.1989C251.892 88.1224 244.447 91.7 231.821 91.7V95.7C245.206 95.7 253.911 91.8826 259.227 85.8411C264.499 79.8485 266.121 72.0203 266.121 64.63H262.121ZM231.821 91.7C219.189 91.7 211.746 88.1607 207.417 83.2597C203.046 78.3116 201.521 71.6089 201.521 64.63H197.521C197.521 72.1011 199.142 79.9334 204.419 85.9078C209.737 91.9293 218.444 95.7 231.821 95.7V91.7ZM201.521 64.63V3.6H197.521V64.63H201.521ZM199.521 1.6H157.021V5.6H199.521V1.6ZM155.021 3.6V66.33H159.021V3.6H155.021ZM155.021 66.33C155.021 87.4237 160.737 103.84 173.473 114.928C186.151 125.966 205.421 131.4 231.821 131.4V127.4C205.862 127.4 187.732 122.039 176.1 111.912C164.526 101.835 159.021 86.7163 159.021 66.33H155.021ZM231.821 131.4C258.142 131.4 277.41 125.921 290.106 114.864C302.86 103.758 308.621 87.345 308.621 66.33H304.621C304.621 86.625 299.078 101.747 287.479 111.848C275.823 121.999 257.691 127.4 231.821 127.4V131.4ZM308.621 66.33V3.6H304.621V66.33H308.621ZM461.701 76.53L463.691 76.7368L463.92 74.53H461.701V76.53ZM416.481 76.53V74.53H414.862L414.525 76.1138L416.481 76.53ZM416.481 52.73L414.527 53.1549L414.869 54.73H416.481V52.73ZM461.701 52.73V54.73H463.921L463.69 52.5222L461.701 52.73ZM310.611 64.63C310.611 86.6681 317.658 103.479 330.999 114.736C344.282 125.945 363.513 131.4 387.411 131.4V127.4C364.049 127.4 345.88 122.06 333.579 111.679C321.334 101.346 314.611 85.7719 314.611 64.63H310.611ZM387.411 131.4C409.845 131.4 427.981 126.72 441.014 117.474C454.108 108.183 461.852 94.4212 463.691 76.7368L459.712 76.3232C457.98 92.9788 450.764 105.652 438.699 114.211C426.571 122.815 409.348 127.4 387.411 127.4V131.4ZM461.701 74.53H416.481V78.53H461.701V74.53ZM414.525 76.1138C413.07 82.9525 405.421 91.7 387.411 91.7V95.7C406.801 95.7 416.493 86.0875 418.438 76.9462L414.525 76.1138ZM387.411 91.7C376.846 91.7 369.785 88.5993 365.348 83.8551C360.887 79.085 358.811 72.3682 358.811 64.63H354.811C354.811 73.0418 357.07 80.86 362.427 86.5874C367.807 92.3407 376.047 95.7 387.411 95.7V91.7ZM358.811 64.63C358.811 56.9729 360.846 50.3468 365.279 45.6443C369.69 40.9654 376.749 37.9 387.411 37.9V33.9C375.974 33.9 367.733 37.2096 362.368 42.9007C357.026 48.5682 354.811 56.3071 354.811 64.63H358.811ZM387.411 37.9C405.45 37.9 413.081 46.5024 414.527 53.1549L418.436 52.3051C416.482 43.3176 406.772 33.9 387.411 33.9V37.9ZM416.481 54.73H461.701V50.73H416.481V54.73ZM463.69 52.5222C461.851 34.9149 454.059 21.2383 440.943 12.0152C427.891 2.83715 409.758 -1.8 387.411 -1.8V2.2C409.265 2.2 426.491 6.74284 438.642 15.2872C450.729 23.7867 457.982 36.3751 459.712 52.9378L463.69 52.5222ZM387.411 -1.8C363.516 -1.8 344.287 3.61074 331.003 14.754C317.66 25.947 310.611 42.674 310.611 64.63H314.611C314.611 43.576 321.332 28.088 333.574 17.8185C345.876 7.49926 364.046 2.2 387.411 2.2V-1.8ZM615.007 76.53L616.996 76.7368L617.225 74.53H615.007V76.53ZM569.787 76.53V74.53H568.168L567.831 76.1138L569.787 76.53ZM569.787 52.73L567.832 53.1549L568.175 54.73H569.787V52.73ZM615.007 52.73V54.73H617.227L616.996 52.5222L615.007 52.73ZM463.917 64.63C463.917 86.6681 470.964 103.479 484.304 114.736C497.588 125.945 516.819 131.4 540.717 131.4V127.4C517.355 127.4 499.186 122.06 486.884 111.679C474.64 101.346 467.917 85.7719 467.917 64.63H463.917ZM540.717 131.4C563.15 131.4 581.287 126.72 594.319 117.474C607.414 108.183 615.158 94.4212 616.996 76.7368L613.018 76.3232C611.286 92.9788 604.07 105.652 592.005 114.211C579.877 122.815 562.653 127.4 540.717 127.4V131.4ZM615.007 74.53H569.787V78.53H615.007V74.53ZM567.831 76.1138C566.376 82.9525 558.727 91.7 540.717 91.7V95.7C560.107 95.7 569.798 86.0875 571.743 76.9462L567.831 76.1138ZM540.717 91.7C530.151 91.7 523.091 88.5993 518.654 83.8551C514.193 79.085 512.117 72.3682 512.117 64.63H508.117C508.117 73.0418 510.376 80.86 515.732 86.5874C521.113 92.3407 529.352 95.7 540.717 95.7V91.7ZM512.117 64.63C512.117 56.9729 514.152 50.3468 518.585 45.6443C522.995 40.9654 530.054 37.9 540.717 37.9V33.9C529.279 33.9 521.038 37.2096 515.674 42.9007C510.332 48.5682 508.117 56.3071 508.117 64.63H512.117ZM540.717 37.9C558.756 37.9 566.386 46.5024 567.832 53.1549L571.741 52.3051C569.787 43.3176 560.078 33.9 540.717 33.9V37.9ZM569.787 54.73H615.007V50.73H569.787V54.73ZM616.996 52.5222C615.156 34.9149 607.364 21.2383 594.248 12.0152C581.197 2.83715 563.063 -1.8 540.717 -1.8V2.2C562.57 2.2 579.797 6.74284 591.948 15.2872C604.034 23.7867 611.287 36.3751 613.018 52.9378L616.996 52.5222ZM540.717 -1.8C516.822 -1.8 497.593 3.61074 484.309 14.754C470.966 25.947 463.917 42.674 463.917 64.63H467.917C467.917 43.576 474.638 28.088 486.88 17.8185C499.181 7.49926 517.352 2.2 540.717 2.2V-1.8ZM746.722 3.6H748.722V1.6H746.722V3.6ZM620.922 3.6V1.6H618.922V3.6H620.922ZM620.922 126H618.922V128H620.922V126ZM746.722 126V128H748.722V126H746.722ZM746.722 93.7H748.722V91.7H746.722V93.7ZM663.422 93.7H661.422V95.7H663.422V93.7ZM663.422 80.95V78.95H661.422V80.95H663.422ZM743.322 80.95V82.95H745.322V80.95H743.322ZM743.322 48.65H745.322V46.65H743.322V48.65ZM663.422 48.65H661.422V50.65H663.422V48.65ZM663.422 35.9V33.9H661.422V35.9H663.422ZM746.722 35.9V37.9H748.722V35.9H746.722ZM746.722 1.6H620.922V5.6H746.722V1.6ZM618.922 3.6V126H622.922V3.6H618.922ZM620.922 128H746.722V124H620.922V128ZM748.722 126V93.7H744.722V126H748.722ZM746.722 91.7H663.422V95.7H746.722V91.7ZM665.422 93.7V80.95H661.422V93.7H665.422ZM663.422 82.95H743.322V78.95H663.422V82.95ZM745.322 80.95V48.65H741.322V80.95H745.322ZM743.322 46.65H663.422V50.65H743.322V46.65ZM665.422 48.65V35.9H661.422V48.65H665.422ZM663.422 37.9H746.722V33.9H663.422V37.9ZM748.722 35.9V3.6H744.722V35.9H748.722ZM751.112 85.71V83.71H749.003L749.115 85.8162L751.112 85.71ZM830.502 48.14L830.328 50.1324L830.33 50.1326L830.502 48.14ZM853.792 41.85H851.792V43.85H853.792V41.85ZM897.992 41.85V43.85H900.121L899.988 41.7245L897.992 41.85ZM823.702 79.76L823.853 77.7658L823.848 77.7654L823.702 79.76ZM795.312 85.71H797.312V83.71H795.312V85.71ZM749.115 85.8162C749.555 94.1054 751.747 101.186 755.654 107.12C759.56 113.051 765.11 117.727 772.107 121.319C786.033 128.469 805.847 131.4 830.502 131.4V127.4C806.026 127.4 786.995 124.466 773.934 117.761C767.437 114.425 762.457 110.177 758.995 104.92C755.534 99.665 753.518 93.2946 753.109 85.6038L749.115 85.8162ZM830.502 131.4C853.264 131.4 871.814 128.899 884.731 122.276C891.229 118.944 896.352 114.543 899.837 108.858C903.323 103.173 905.092 96.336 905.092 88.26H901.092C901.092 95.739 899.46 101.822 896.427 106.767C893.395 111.713 888.88 115.653 882.905 118.717C870.874 124.886 853.13 127.4 830.502 127.4V131.4ZM905.092 88.26C905.092 79.7559 903.204 72.9632 899.523 67.5507C895.846 62.1439 890.502 58.296 883.906 55.4613C870.84 49.8456 852.329 48.0084 830.673 46.1473L830.33 50.1326C852.194 52.0116 869.979 53.8294 882.327 59.1362C888.439 61.7628 893.082 65.1929 896.216 69.8002C899.345 74.4018 901.092 80.3591 901.092 88.26H905.092ZM830.675 46.1476C816.009 44.8685 807.864 43.7322 803.393 42.3226C801.166 41.6204 800.133 40.9316 799.634 40.3642C799.209 39.881 799.012 39.3062 799.012 38.28H795.012C795.012 39.8888 795.346 41.5453 796.631 43.0064C797.843 44.3834 799.7 45.3521 802.19 46.1374C807.155 47.7028 815.754 48.8615 830.328 50.1324L830.675 46.1476ZM799.012 38.28C799.012 37.5796 799.175 37.0491 799.56 36.5699C799.977 36.05 800.794 35.4188 802.417 34.8242C805.717 33.6154 811.66 32.8 822.002 32.8V28.8C811.604 28.8 805.051 29.5996 801.041 31.0683C799.01 31.8125 797.468 32.7856 796.44 34.0666C795.379 35.3884 795.012 36.8554 795.012 38.28H799.012ZM822.002 32.8C832.769 32.8 840.437 33.5716 845.356 35.2246C847.799 36.0456 849.404 37.0327 850.387 38.1045C851.324 39.1267 851.792 40.3262 851.792 41.85H855.792C855.792 39.3788 854.984 37.1996 853.335 35.4008C851.73 33.6517 849.436 32.3757 846.63 31.4329C841.052 29.5584 832.824 28.8 822.002 28.8V32.8ZM853.792 43.85H897.992V39.85H853.792V43.85ZM899.988 41.7245C899.091 27.4596 891.674 16.4669 878.365 9.13687C865.17 1.86982 846.209 -1.8 822.002 -1.8V2.2C845.904 2.2 864.088 5.84018 876.436 12.6406C888.669 19.3781 895.193 29.2104 895.996 41.9755L899.988 41.7245ZM822.002 -1.8C800.934 -1.8 783.268 1.44663 770.793 8.01398C758.224 14.6303 750.812 24.7093 750.812 38.11H754.812C754.812 26.5207 761.085 17.6447 772.656 11.5535C784.32 5.41337 801.249 2.2 822.002 2.2V-1.8ZM750.812 38.11C750.812 45.1887 752.263 51.3313 755.322 56.5955C758.381 61.8609 762.972 66.1156 769.042 69.5384C781.097 76.3362 799.203 79.9665 823.555 81.7546L823.848 77.7654C799.581 75.9835 782.241 72.3888 771.007 66.0541C765.432 62.9106 761.416 59.1222 758.78 54.586C756.144 50.0487 754.812 44.6313 754.812 38.11H750.812ZM823.55 81.7542C839.279 82.951 847.828 83.8349 852.467 85.1864C854.764 85.8554 855.751 86.5476 856.224 87.1448C856.663 87.7001 856.892 88.4678 856.892 89.96H860.892C860.892 88.1372 860.632 86.2699 859.36 84.663C858.122 83.0981 856.177 82.1009 853.586 81.3461C848.451 79.8501 839.404 78.949 823.853 77.7658L823.55 81.7542ZM856.892 89.96C856.892 91.0267 856.696 91.7751 856.249 92.3949C855.787 93.0362 854.878 93.784 852.978 94.4775C849.094 95.8952 841.894 96.8 828.802 96.8V100.8C841.89 100.8 849.734 99.9198 854.35 98.235C856.7 97.3772 858.405 96.2444 859.494 94.7342C860.598 93.2024 860.892 91.5283 860.892 89.96H856.892ZM828.802 96.8C816.308 96.8 808.276 95.3975 803.438 93.2342C801.043 92.1633 799.527 90.9482 798.611 89.717C797.713 88.5097 797.312 87.1826 797.312 85.71H793.312C793.312 87.9774 793.952 90.1566 795.402 92.1049C796.834 94.0293 798.973 95.6192 801.805 96.8858C807.422 99.3975 816.136 100.8 828.802 100.8V96.8ZM795.312 83.71H751.112V87.71H795.312V83.71ZM909.066 85.71V83.71H906.956L907.068 85.8162L909.066 85.71ZM988.456 48.14L988.282 50.1324L988.284 50.1326L988.456 48.14ZM1011.75 41.85H1009.75V43.85H1011.75V41.85ZM1055.95 41.85V43.85H1058.08L1057.94 41.7245L1055.95 41.85ZM981.656 79.76L981.807 77.7658L981.802 77.7654L981.656 79.76ZM953.266 85.71H955.266V83.71H953.266V85.71ZM907.068 85.8162C907.509 94.1054 909.701 101.186 913.608 107.12C917.514 113.051 923.064 117.727 930.061 121.319C943.987 128.469 963.801 131.4 988.456 131.4V127.4C963.98 127.4 944.949 124.466 931.888 117.761C925.391 114.425 920.411 110.177 916.949 104.92C913.488 99.665 911.472 93.2946 911.063 85.6038L907.068 85.8162ZM988.456 131.4C1011.22 131.4 1029.77 128.899 1042.68 122.276C1049.18 118.944 1054.31 114.543 1057.79 108.858C1061.28 103.173 1063.05 96.336 1063.05 88.26H1059.05C1059.05 95.739 1057.41 101.822 1054.38 106.767C1051.35 111.713 1046.83 115.653 1040.86 118.717C1028.83 124.886 1011.08 127.4 988.456 127.4V131.4ZM1063.05 88.26C1063.05 79.7559 1061.16 72.9632 1057.48 67.5507C1053.8 62.1439 1048.46 58.296 1041.86 55.4613C1028.79 49.8456 1010.28 48.0084 988.627 46.1473L988.284 50.1326C1010.15 52.0116 1027.93 53.8294 1040.28 59.1362C1046.39 61.7628 1051.04 65.1929 1054.17 69.8002C1057.3 74.4018 1059.05 80.3591 1059.05 88.26H1063.05ZM988.629 46.1476C973.963 44.8685 965.818 43.7322 961.347 42.3226C959.12 41.6204 958.087 40.9316 957.588 40.3642C957.163 39.881 956.966 39.3062 956.966 38.28H952.966C952.966 39.8888 953.299 41.5453 954.585 43.0064C955.796 44.3834 957.654 45.3521 960.144 46.1374C965.109 47.7028 973.708 48.8615 988.282 50.1324L988.629 46.1476ZM956.966 38.28C956.966 37.5796 957.129 37.0491 957.514 36.5699C957.931 36.05 958.748 35.4188 960.371 34.8242C963.671 33.6154 969.613 32.8 979.956 32.8V28.8C969.558 28.8 963.005 29.5996 958.995 31.0683C956.963 31.8125 955.422 32.7856 954.394 34.0666C953.333 35.3884 952.966 36.8554 952.966 38.28H956.966ZM979.956 32.8C990.723 32.8 998.391 33.5716 1003.31 35.2246C1005.75 36.0456 1007.36 37.0327 1008.34 38.1045C1009.28 39.1267 1009.75 40.3262 1009.75 41.85H1013.75C1013.75 39.3788 1012.94 37.1996 1011.29 35.4008C1009.68 33.6517 1007.39 32.3757 1004.58 31.4329C999.006 29.5584 990.778 28.8 979.956 28.8V32.8ZM1011.75 43.85H1055.95V39.85H1011.75V43.85ZM1057.94 41.7245C1057.04 27.4596 1049.63 16.4669 1036.32 9.13687C1023.12 1.86982 1004.16 -1.8 979.956 -1.8V2.2C1003.86 2.2 1022.04 5.84018 1034.39 12.6406C1046.62 19.3781 1053.15 29.2104 1053.95 41.9755L1057.94 41.7245ZM979.956 -1.8C958.888 -1.8 941.222 1.44663 928.747 8.01398C916.178 14.6303 908.766 24.7093 908.766 38.11H912.766C912.766 26.5207 919.039 17.6447 930.61 11.5535C942.274 5.41337 959.203 2.2 979.956 2.2V-1.8ZM908.766 38.11C908.766 45.1887 910.217 51.3313 913.276 56.5955C916.335 61.8609 920.926 66.1156 926.996 69.5384C939.051 76.3362 957.157 79.9665 981.509 81.7546L981.802 77.7654C957.534 75.9835 940.195 72.3888 928.96 66.0541C923.386 62.9106 919.37 59.1222 916.734 54.586C914.098 50.0487 912.766 44.6313 912.766 38.11H908.766ZM981.504 81.7542C997.233 82.951 1005.78 83.8349 1010.42 85.1864C1012.72 85.8554 1013.7 86.5476 1014.18 87.1448C1014.62 87.7001 1014.85 88.4678 1014.85 89.96H1018.85C1018.85 88.1372 1018.59 86.2699 1017.31 84.663C1016.08 83.0981 1014.13 82.1009 1011.54 81.3461C1006.4 79.8501 997.358 78.949 981.807 77.7658L981.504 81.7542ZM1014.85 89.96C1014.85 91.0267 1014.65 91.7751 1014.2 92.3949C1013.74 93.0362 1012.83 93.784 1010.93 94.4775C1007.05 95.8952 999.847 96.8 986.756 96.8V100.8C999.844 100.8 1007.69 99.9198 1012.3 98.235C1014.65 97.3772 1016.36 96.2444 1017.45 94.7342C1018.55 93.2024 1018.85 91.5283 1018.85 89.96H1014.85ZM986.756 96.8C974.262 96.8 966.23 95.3975 961.392 93.2342C958.997 92.1633 957.481 90.9482 956.565 89.717C955.666 88.5097 955.266 87.1826 955.266 85.71H951.266C951.266 87.9774 951.906 90.1566 953.356 92.1049C954.788 94.0293 956.927 95.6192 959.759 96.8858C965.376 99.3975 974.089 100.8 986.756 100.8V96.8ZM953.266 83.71H909.066V87.71H953.266V83.71ZM1194.52 3.6H1196.52V1.6H1194.52V3.6ZM1068.72 3.6V1.6H1066.72V3.6H1068.72ZM1068.72 126H1066.72V128H1068.72V126ZM1111.22 126V128H1113.22V126H1111.22ZM1111.22 92.85V90.85H1109.22V92.85H1111.22ZM1184.32 92.85V94.85H1186.32V92.85H1184.32ZM1184.32 57.15H1186.32V55.15H1184.32V57.15ZM1111.22 57.15H1109.22V59.15H1111.22V57.15ZM1111.22 39.3V37.3H1109.22V39.3H1111.22ZM1194.52 39.3V41.3H1196.52V39.3H1194.52ZM1194.52 1.6H1068.72V5.6H1194.52V1.6ZM1066.72 3.6V126H1070.72V3.6H1066.72ZM1068.72 128H1111.22V124H1068.72V128ZM1113.22 126V92.85H1109.22V126H1113.22ZM1111.22 94.85H1184.32V90.85H1111.22V94.85ZM1186.32 92.85V57.15H1182.32V92.85H1186.32ZM1184.32 55.15H1111.22V59.15H1184.32V55.15ZM1113.22 57.15V39.3H1109.22V57.15H1113.22ZM1111.22 41.3H1194.52V37.3H1111.22V41.3ZM1196.52 39.3V3.6H1192.52V39.3H1196.52ZM1351.87 3.6H1353.87V1.6H1351.87V3.6ZM1309.37 3.6V1.6H1307.37V3.6H1309.37ZM1244.77 3.6H1246.77V1.6H1244.77V3.6ZM1202.27 3.6V1.6H1200.27V3.6H1202.27ZM1351.87 1.6H1309.37V5.6H1351.87V1.6ZM1307.37 3.6V64.63H1311.37V3.6H1307.37ZM1307.37 64.63C1307.37 71.5197 1305.85 78.2265 1301.47 83.1989C1297.14 88.1224 1289.69 91.7 1277.07 91.7V95.7C1290.45 95.7 1299.16 91.8826 1304.47 85.8411C1309.75 79.8485 1311.37 72.0203 1311.37 64.63H1307.37ZM1277.07 91.7C1264.44 91.7 1256.99 88.1607 1252.66 83.2597C1248.29 78.3116 1246.77 71.6089 1246.77 64.63H1242.77C1242.77 72.1011 1244.39 79.9334 1249.67 85.9078C1254.98 91.9293 1263.69 95.7 1277.07 95.7V91.7ZM1246.77 64.63V3.6H1242.77V64.63H1246.77ZM1244.77 1.6H1202.27V5.6H1244.77V1.6ZM1200.27 3.6V66.33H1204.27V3.6H1200.27ZM1200.27 66.33C1200.27 87.4237 1205.98 103.84 1218.72 114.928C1231.4 125.966 1250.67 131.4 1277.07 131.4V127.4C1251.11 127.4 1232.98 122.039 1221.35 111.912C1209.77 101.835 1204.27 86.7163 1204.27 66.33H1200.27ZM1277.07 131.4C1303.39 131.4 1322.66 125.921 1335.35 114.864C1348.11 103.758 1353.87 87.345 1353.87 66.33H1349.87C1349.87 86.625 1344.33 101.747 1332.73 111.848C1321.07 121.999 1302.94 127.4 1277.07 127.4V131.4ZM1353.87 66.33V3.6H1349.87V66.33H1353.87ZM1402.06 3.6H1404.06V1.6H1402.06V3.6ZM1359.56 3.6V1.6H1357.56V3.6H1359.56ZM1359.56 126H1357.56V128H1359.56V126ZM1481.96 126V128H1483.96V126H1481.96ZM1481.96 90.3H1483.96V88.3H1481.96V90.3ZM1402.06 90.3H1400.06V92.3H1402.06V90.3ZM1402.06 1.6H1359.56V5.6H1402.06V1.6ZM1357.56 3.6V126H1361.56V3.6H1357.56ZM1359.56 128H1481.96V124H1359.56V128ZM1483.96 126V90.3H1479.96V126H1483.96ZM1481.96 88.3H1402.06V92.3H1481.96V88.3ZM1404.06 90.3V3.6H1400.06V90.3H1404.06ZM264.679 241.71V239.71H262.57L262.682 241.816L264.679 241.71ZM344.069 204.14L343.896 206.132L343.898 206.133L344.069 204.14ZM367.359 197.85H365.359V199.85H367.359V197.85ZM411.559 197.85V199.85H413.689L413.555 197.724L411.559 197.85ZM337.269 235.76L337.421 233.766L337.416 233.765L337.269 235.76ZM308.879 241.71H310.879V239.71H308.879V241.71ZM262.682 241.816C263.123 250.105 265.314 257.186 269.222 263.12C273.128 269.051 278.678 273.727 285.675 277.319C299.601 284.469 319.414 287.4 344.069 287.4V283.4C319.594 283.4 300.563 280.466 287.501 273.761C281.004 270.425 276.025 266.177 272.563 260.92C269.102 255.665 267.086 249.295 266.676 241.604L262.682 241.816ZM344.069 287.4C366.831 287.4 385.382 284.899 398.298 278.276C404.797 274.944 409.919 270.543 413.405 264.858C416.891 259.173 418.659 252.336 418.659 244.26H414.659C414.659 251.739 413.028 257.822 409.995 262.767C406.962 267.713 402.448 271.653 396.473 274.717C384.442 280.886 366.697 283.4 344.069 283.4V287.4ZM418.659 244.26C418.659 235.756 416.772 228.963 413.091 223.551C409.414 218.144 404.07 214.296 397.474 211.461C384.407 205.846 365.897 204.008 344.241 202.147L343.898 206.133C365.762 208.012 383.546 209.829 395.895 215.136C402.006 217.763 406.65 221.193 409.783 225.8C412.913 230.402 414.659 236.359 414.659 244.26H418.659ZM344.243 202.148C329.577 200.869 321.431 199.732 316.961 198.323C314.734 197.62 313.701 196.932 313.202 196.364C312.777 195.881 312.579 195.306 312.579 194.28H308.579C308.579 195.889 308.913 197.545 310.199 199.006C311.41 200.383 313.267 201.352 315.758 202.137C320.722 203.703 329.322 204.861 343.896 206.132L344.243 202.148ZM312.579 194.28C312.579 193.58 312.743 193.049 313.127 192.57C313.545 192.05 314.361 191.419 315.985 190.824C319.285 189.615 325.227 188.8 335.569 188.8V184.8C325.171 184.8 318.619 185.6 314.609 187.068C312.577 187.812 311.035 188.786 310.007 190.067C308.947 191.388 308.579 192.855 308.579 194.28H312.579ZM335.569 188.8C346.337 188.8 354.004 189.572 358.923 191.225C361.367 192.046 362.971 193.033 363.954 194.104C364.892 195.127 365.359 196.326 365.359 197.85H369.359C369.359 195.379 368.552 193.2 366.902 191.401C365.298 189.652 363.003 188.376 360.198 187.433C354.619 185.558 346.392 184.8 335.569 184.8V188.8ZM367.359 199.85H411.559V195.85H367.359V199.85ZM413.555 197.724C412.658 183.46 405.242 172.467 391.933 165.137C378.738 157.87 359.777 154.2 335.569 154.2V158.2C359.472 158.2 377.656 161.84 390.003 168.641C402.237 175.378 408.76 185.21 409.563 197.976L413.555 197.724ZM335.569 154.2C314.502 154.2 296.836 157.447 284.36 164.014C271.791 170.63 264.379 180.709 264.379 194.11H268.379C268.379 182.521 274.652 173.645 286.223 167.554C297.888 161.413 314.817 158.2 335.569 158.2V154.2ZM264.379 194.11C264.379 201.189 265.831 207.331 268.889 212.596C271.949 217.861 276.539 222.116 282.609 225.538C294.665 232.336 312.771 235.967 337.123 237.755L337.416 233.765C313.148 231.983 295.809 228.389 284.574 222.054C278.999 218.911 274.984 215.122 272.348 210.586C269.712 206.049 268.379 200.631 268.379 194.11H264.379ZM337.118 237.754C352.847 238.951 361.395 239.835 366.035 241.186C368.331 241.855 369.319 242.548 369.791 243.145C370.23 243.7 370.459 244.468 370.459 245.96H374.459C374.459 244.137 374.199 242.27 372.928 240.663C371.69 239.098 369.745 238.101 367.154 237.346C362.018 235.85 352.972 234.949 337.421 233.766L337.118 237.754ZM370.459 245.96C370.459 247.027 370.264 247.775 369.817 248.395C369.355 249.036 368.446 249.784 366.546 250.477C362.662 251.895 355.461 252.8 342.369 252.8V256.8C355.457 256.8 363.302 255.92 367.918 254.235C370.268 253.377 371.973 252.244 373.062 250.734C374.166 249.202 374.459 247.528 374.459 245.96H370.459ZM342.369 252.8C329.875 252.8 321.844 251.398 317.006 249.234C314.611 248.163 313.095 246.948 312.178 245.717C311.28 244.51 310.879 243.183 310.879 241.71H306.879C306.879 243.977 307.52 246.157 308.969 248.105C310.401 250.029 312.54 251.619 315.373 252.886C320.99 255.397 329.703 256.8 342.369 256.8V252.8ZM308.879 239.71H264.679V243.71H308.879V239.71ZM560.366 159.6H562.366V157.6H560.366V159.6ZM414.166 159.6V157.6H412.166V159.6H414.166ZM414.166 195.3H412.166V197.3H414.166V195.3ZM466.016 195.3H468.016V193.3H466.016V195.3ZM466.016 282H464.016V284H466.016V282ZM508.516 282V284H510.516V282H508.516ZM508.516 195.3V193.3H506.516V195.3H508.516ZM560.366 195.3V197.3H562.366V195.3H560.366ZM560.366 157.6H414.166V161.6H560.366V157.6ZM412.166 159.6V195.3H416.166V159.6H412.166ZM414.166 197.3H466.016V193.3H414.166V197.3ZM464.016 195.3V282H468.016V195.3H464.016ZM466.016 284H508.516V280H466.016V284ZM510.516 282V195.3H506.516V282H510.516ZM508.516 197.3H560.366V193.3H508.516V197.3ZM562.366 195.3V159.6H558.366V195.3H562.366ZM641.063 287.4C666.586 287.4 687.066 281.474 701.203 270.063C715.402 258.602 722.963 241.801 722.963 220.63H718.963C718.963 240.769 711.82 256.353 698.691 266.95C685.501 277.596 666.03 283.4 641.063 283.4V287.4ZM722.963 220.63C722.963 199.541 715.4 182.824 701.199 171.428C687.061 160.082 666.583 154.2 641.063 154.2V158.2C666.033 158.2 685.505 163.963 698.695 174.547C711.822 185.081 718.963 200.579 718.963 220.63H722.963ZM641.063 154.2C615.463 154.2 594.983 160.038 580.864 171.364C566.681 182.742 559.163 199.461 559.163 220.63H563.163C563.163 200.489 570.266 184.993 583.367 174.484C596.533 163.922 616.003 158.2 641.063 158.2V154.2ZM559.163 220.63C559.163 241.88 566.678 258.684 580.86 270.127C594.979 281.518 615.46 287.4 641.063 287.4V283.4C616.006 283.4 596.538 277.637 583.372 267.013C570.268 256.441 563.163 240.859 563.163 220.63H559.163ZM641.063 247.7C627.481 247.7 619.151 244.53 614.208 239.779C609.282 235.045 607.363 228.398 607.363 220.63H603.363C603.363 229.012 605.439 236.9 611.436 242.663C617.415 248.41 626.936 251.7 641.063 251.7V247.7ZM607.363 220.63C607.363 212.942 609.242 206.387 614.138 201.72C619.057 197.032 627.386 193.9 641.063 193.9V189.9C626.861 189.9 617.339 193.143 611.378 198.825C605.395 204.528 603.363 212.338 603.363 220.63H607.363ZM641.063 193.9C654.734 193.9 663.064 197.071 667.985 201.781C672.887 206.472 674.763 213.032 674.763 220.63H678.763C678.763 212.418 676.73 204.613 670.751 198.891C664.793 193.189 655.273 189.9 641.063 189.9V193.9ZM674.763 220.63C674.763 228.309 672.846 234.96 667.916 239.718C662.97 244.491 654.639 247.7 641.063 247.7V251.7C655.197 251.7 664.717 248.364 670.693 242.597C676.685 236.815 678.763 228.931 678.763 220.63H674.763ZM850.04 233.89L849.388 231.999L849.919 235.886L850.04 233.89ZM726.96 159.6V157.6H724.96V159.6H726.96ZM726.96 282H724.96V284H726.96V282ZM769.46 282V284H771.46V282H769.46ZM769.46 250.72V248.72H767.46V250.72H769.46ZM830.32 282H828.32V284H830.32V282ZM872.82 282V284H874.82V282H872.82ZM769.46 216.72H767.46V218.72H769.46V216.72ZM769.46 193.6V191.6H767.46V193.6H769.46ZM850.692 235.781C858.407 233.12 864.496 228.895 868.633 222.769C872.761 216.657 874.82 208.84 874.82 199.21H870.82C870.82 208.28 868.883 215.253 865.319 220.531C861.763 225.795 856.462 229.56 849.388 231.999L850.692 235.781ZM874.82 199.21C874.82 185.905 870.434 175.365 861.419 168.212C852.487 161.124 839.302 157.6 822.16 157.6V161.6C838.848 161.6 850.993 165.046 858.933 171.345C866.791 177.58 870.82 186.845 870.82 199.21H874.82ZM822.16 157.6H726.96V161.6H822.16V157.6ZM724.96 159.6V282H728.96V159.6H724.96ZM726.96 284H769.46V280H726.96V284ZM771.46 282V250.72H767.46V282H771.46ZM769.46 252.72H816.72V248.72H769.46V252.72ZM816.72 252.72C822.134 252.72 824.744 253.523 826.157 254.995C827.594 256.492 828.32 259.216 828.32 264.66H832.32C832.32 259.224 831.685 254.978 829.043 252.225C826.375 249.447 822.186 248.72 816.72 248.72V252.72ZM828.32 264.66V282H832.32V264.66H828.32ZM830.32 284H872.82V280H830.32V284ZM874.82 282V257.52H870.82V282H874.82ZM874.82 257.52C874.82 249.805 872.522 243.562 868.143 239.135C863.777 234.722 857.565 232.34 850.16 231.894L849.919 235.886C856.624 236.29 861.803 238.413 865.299 241.948C868.782 245.468 870.82 250.615 870.82 257.52H874.82ZM811.96 195.6C814.363 195.6 816.499 195.602 818.4 195.773C820.302 195.944 821.812 196.274 822.986 196.844C824.108 197.389 824.962 198.171 825.569 199.376C826.199 200.629 826.62 202.456 826.62 205.16H830.62C830.62 202.084 830.148 199.576 829.142 197.578C828.112 195.532 826.586 194.146 824.734 193.246C822.932 192.371 820.872 191.979 818.758 191.789C816.643 191.598 814.317 191.6 811.96 191.6V195.6ZM826.62 205.16C826.62 207.864 826.199 209.691 825.569 210.944C824.962 212.149 824.108 212.931 822.986 213.476C821.812 214.046 820.302 214.376 818.4 214.547C816.499 214.718 814.363 214.72 811.96 214.72V218.72C814.317 218.72 816.643 218.722 818.758 218.531C820.872 218.341 822.932 217.949 824.734 217.074C826.586 216.174 828.112 214.788 829.142 212.742C830.148 210.744 830.62 208.236 830.62 205.16H826.62ZM811.96 214.72H769.46V218.72H811.96V214.72ZM771.46 216.72V193.6H767.46V216.72H771.46ZM769.46 195.6H811.96V191.6H769.46V195.6ZM882.257 159.6V157.6H880.257V159.6H882.257ZM882.257 282H880.257V284H882.257V282ZM924.757 282V284H926.757V282H924.757ZM924.757 159.6H926.757V157.6H924.757V159.6ZM880.257 159.6V282H884.257V159.6H880.257ZM882.257 284H924.757V280H882.257V284ZM926.757 282V159.6H922.757V282H926.757ZM924.757 157.6H882.257V161.6H924.757V157.6ZM1059.93 159.6H1061.93V157.6H1059.93V159.6ZM934.127 159.6V157.6H932.127V159.6H934.127ZM934.127 282H932.127V284H934.127V282ZM1059.93 282V284H1061.93V282H1059.93ZM1059.93 249.7H1061.93V247.7H1059.93V249.7ZM976.627 249.7H974.627V251.7H976.627V249.7ZM976.627 236.95V234.95H974.627V236.95H976.627ZM1056.53 236.95V238.95H1058.53V236.95H1056.53ZM1056.53 204.65H1058.53V202.65H1056.53V204.65ZM976.627 204.65H974.627V206.65H976.627V204.65ZM976.627 191.9V189.9H974.627V191.9H976.627ZM1059.93 191.9V193.9H1061.93V191.9H1059.93ZM1059.93 157.6H934.127V161.6H1059.93V157.6ZM932.127 159.6V282H936.127V159.6H932.127ZM934.127 284H1059.93V280H934.127V284ZM1061.93 282V249.7H1057.93V282H1061.93ZM1059.93 247.7H976.627V251.7H1059.93V247.7ZM978.627 249.7V236.95H974.627V249.7H978.627ZM976.627 238.95H1056.53V234.95H976.627V238.95ZM1058.53 236.95V204.65H1054.53V236.95H1058.53ZM1056.53 202.65H976.627V206.65H1056.53V202.65ZM978.627 204.65V191.9H974.627V204.65H978.627ZM976.627 193.9H1059.93V189.9H976.627V193.9ZM1061.93 191.9V159.6H1057.93V191.9H1061.93ZM1064.32 241.71V239.71H1062.21L1062.32 241.816L1064.32 241.71ZM1143.71 204.14L1143.53 206.132L1143.54 206.133L1143.71 204.14ZM1167 197.85H1165V199.85H1167V197.85ZM1211.2 197.85V199.85H1213.33L1213.19 197.724L1211.2 197.85ZM1136.91 235.76L1137.06 233.766L1137.05 233.765L1136.91 235.76ZM1108.52 241.71H1110.52V239.71H1108.52V241.71ZM1062.32 241.816C1062.76 250.105 1064.95 257.186 1068.86 263.12C1072.77 269.051 1078.32 273.727 1085.31 277.319C1099.24 284.469 1119.05 287.4 1143.71 287.4V283.4C1119.23 283.4 1100.2 280.466 1087.14 273.761C1080.64 270.425 1075.66 266.177 1072.2 260.92C1068.74 255.665 1066.72 249.295 1066.31 241.604L1062.32 241.816ZM1143.71 287.4C1166.47 287.4 1185.02 284.899 1197.94 278.276C1204.43 274.944 1209.56 270.543 1213.04 264.858C1216.53 259.173 1218.3 252.336 1218.3 244.26H1214.3C1214.3 251.739 1212.67 257.822 1209.63 262.767C1206.6 267.713 1202.09 271.653 1196.11 274.717C1184.08 280.886 1166.33 283.4 1143.71 283.4V287.4ZM1218.3 244.26C1218.3 235.756 1216.41 228.963 1212.73 223.551C1209.05 218.144 1203.71 214.296 1197.11 211.461C1184.04 205.846 1165.53 204.008 1143.88 202.147L1143.54 206.133C1165.4 208.012 1183.18 209.829 1195.53 215.136C1201.64 217.763 1206.29 221.193 1209.42 225.8C1212.55 230.402 1214.3 236.359 1214.3 244.26H1218.3ZM1143.88 202.148C1129.21 200.869 1121.07 199.732 1116.6 198.323C1114.37 197.62 1113.34 196.932 1112.84 196.364C1112.41 195.881 1112.22 195.306 1112.22 194.28H1108.22C1108.22 195.889 1108.55 197.545 1109.84 199.006C1111.05 200.383 1112.9 201.352 1115.4 202.137C1120.36 203.703 1128.96 204.861 1143.53 206.132L1143.88 202.148ZM1112.22 194.28C1112.22 193.58 1112.38 193.049 1112.76 192.57C1113.18 192.05 1114 191.419 1115.62 190.824C1118.92 189.615 1124.86 188.8 1135.21 188.8V184.8C1124.81 184.8 1118.26 185.6 1114.25 187.068C1112.21 187.812 1110.67 188.786 1109.65 190.067C1108.58 191.388 1108.22 192.855 1108.22 194.28H1112.22ZM1135.21 188.8C1145.97 188.8 1153.64 189.572 1158.56 191.225C1161 192.046 1162.61 193.033 1163.59 194.104C1164.53 195.127 1165 196.326 1165 197.85H1169C1169 195.379 1168.19 193.2 1166.54 191.401C1164.94 189.652 1162.64 188.376 1159.84 187.433C1154.26 185.558 1146.03 184.8 1135.21 184.8V188.8ZM1167 199.85H1211.2V195.85H1167V199.85ZM1213.19 197.724C1212.3 183.46 1204.88 172.467 1191.57 165.137C1178.38 157.87 1159.41 154.2 1135.21 154.2V158.2C1159.11 158.2 1177.29 161.84 1189.64 168.641C1201.87 175.378 1208.4 185.21 1209.2 197.976L1213.19 197.724ZM1135.21 154.2C1114.14 154.2 1096.47 157.447 1084 164.014C1071.43 170.63 1064.02 180.709 1064.02 194.11H1068.02C1068.02 182.521 1074.29 173.645 1085.86 167.554C1097.53 161.413 1114.45 158.2 1135.21 158.2V154.2ZM1064.02 194.11C1064.02 201.189 1065.47 207.331 1068.53 212.596C1071.59 217.861 1076.18 222.116 1082.25 225.538C1094.3 232.336 1112.41 235.967 1136.76 237.755L1137.05 233.765C1112.79 231.983 1095.45 228.389 1084.21 222.054C1078.64 218.911 1074.62 215.122 1071.99 210.586C1069.35 206.049 1068.02 200.631 1068.02 194.11H1064.02ZM1136.76 237.754C1152.48 238.951 1161.03 239.835 1165.67 241.186C1167.97 241.855 1168.96 242.548 1169.43 243.145C1169.87 243.7 1170.1 244.468 1170.1 245.96H1174.1C1174.1 244.137 1173.84 242.27 1172.57 240.663C1171.33 239.098 1169.38 238.101 1166.79 237.346C1161.66 235.85 1152.61 234.949 1137.06 233.766L1136.76 237.754ZM1170.1 245.96C1170.1 247.027 1169.9 247.775 1169.45 248.395C1168.99 249.036 1168.08 249.784 1166.18 250.477C1162.3 251.895 1155.1 252.8 1142.01 252.8V256.8C1155.09 256.8 1162.94 255.92 1167.56 254.235C1169.91 253.377 1171.61 252.244 1172.7 250.734C1173.8 249.202 1174.1 247.528 1174.1 245.96H1170.1ZM1142.01 252.8C1129.51 252.8 1121.48 251.398 1116.64 249.234C1114.25 248.163 1112.73 246.948 1111.82 245.717C1110.92 244.51 1110.52 243.183 1110.52 241.71H1106.52C1106.52 243.977 1107.16 246.157 1108.61 248.105C1110.04 250.029 1112.18 251.619 1115.01 252.886C1120.63 255.397 1129.34 256.8 1142.01 256.8V252.8ZM1108.52 239.71H1064.32V243.71H1108.52V239.71Z" fill="white"></path></svg>