<svg xmlns="http://www.w3.org/2000/svg" width="594" height="121" viewBox="0 0 594 121" fill="none"><path d="M33.79 29.835L12.925 6.305H1.94L29.305 36.985V52H38.21V36.985L65.575 6.305H54.59L33.79 29.835ZM83.0808 53.3C98.7458 53.3 109.731 46.735 109.731 33.085C109.731 19.37 98.7458 12.805 83.0808 12.805C67.3508 12.805 56.3658 19.37 56.3658 33.085C56.3658 46.735 67.3508 53.3 83.0808 53.3ZM83.0808 46.15C71.3808 46.15 65.1408 41.86 65.1408 33.085C65.1408 24.245 71.3808 19.955 83.0808 19.955C94.7158 19.955 100.956 24.245 100.956 33.085C100.956 41.86 94.7158 46.15 83.0808 46.15ZM159.018 29.185C159.018 40.56 150.373 46.02 138.673 46.02C126.453 46.02 122.553 40.82 122.553 31.2V14.105H114.428V33.02C114.623 47.775 123.138 53.3 136.463 53.3C147.123 53.3 154.208 49.725 159.018 43.485V51.935H167.143V14.105H159.018V29.185ZM226.604 12.805C215.944 12.805 208.859 16.38 204.049 22.555V14.105H195.924V52H204.049V36.92C204.049 25.545 212.694 20.085 224.459 20.085C236.614 20.085 240.514 25.22 240.514 34.905V52H248.639V33.085C248.444 18.33 239.929 12.805 226.604 12.805ZM279.909 46.215C269.054 46.215 262.749 42.965 261.904 35.1H305.454C305.454 18.2 293.884 12.805 279.194 12.805C264.634 12.805 253.064 19.305 253.064 33.085C253.064 46.865 264.244 53.3 279.844 53.3C293.429 53.3 302.529 48.165 304.869 39.455H296.094C294.079 43.485 289.659 46.215 279.909 46.215ZM279.194 19.76C288.684 19.76 294.469 22.425 296.159 28.47H262.424C264.309 22.36 270.289 19.76 279.194 19.76ZM335.543 46.215C324.688 46.215 318.383 42.965 317.538 35.1H361.088C361.088 18.2 349.518 12.805 334.828 12.805C320.268 12.805 308.698 19.305 308.698 33.085C308.698 46.865 319.878 53.3 335.478 53.3C349.063 53.3 358.163 48.165 360.503 39.455H351.728C349.713 43.485 345.293 46.215 335.543 46.215ZM334.828 19.76C344.318 19.76 350.103 22.425 351.793 28.47H318.058C319.943 22.36 325.923 19.76 334.828 19.76ZM408.856 20.67C405.021 15.665 398.196 12.805 388.511 12.805C374.991 12.805 364.331 19.305 364.331 33.085C364.331 46.8 374.991 53.3 388.511 53.3C398.196 53.3 405.021 50.44 408.856 45.435V52H416.981V-7.7486e-07H408.856V20.67ZM390.721 46.085C379.086 46.085 373.106 41.08 373.106 33.085C373.106 25.09 379.086 20.085 390.721 20.085C402.291 20.085 408.856 25.09 408.856 33.085C408.856 41.08 402.291 46.085 390.721 46.085ZM483.679 14.105H464.374V2.535L456.249 5.265V14.105H444.939V21.19H456.249V36.465C456.249 49.53 459.954 53.3 471.914 53.3C475.944 53.3 479.389 52.91 483.679 52.26V45.305C479.194 45.89 476.659 46.085 473.734 46.085C465.804 46.085 464.374 44.07 464.374 35.815V21.19H483.679V14.105ZM513.703 53.3C529.368 53.3 540.353 46.735 540.353 33.085C540.353 19.37 529.368 12.805 513.703 12.805C497.973 12.805 486.988 19.37 486.988 33.085C486.988 46.735 497.973 53.3 513.703 53.3ZM513.703 46.15C502.003 46.15 495.763 41.86 495.763 33.085C495.763 24.245 502.003 19.955 513.703 19.955C525.338 19.955 531.578 24.245 531.578 33.085C531.578 41.86 525.338 46.15 513.703 46.15ZM33.92 78.7C26.835 78.7 19.815 80.91 15.85 86.955V67H0.9V119H15.85V112.045C19.815 118.09 26.835 120.3 33.92 120.3C43.995 120.3 55.24 115.23 55.24 99.5C55.24 83.77 43.995 78.7 33.92 78.7ZM27.745 107.95C19.815 107.95 15.85 105.22 15.85 99.5C15.85 93.78 19.815 91.05 27.745 91.05C35.675 91.05 39.64 93.78 39.64 99.5C39.64 105.22 35.675 107.95 27.745 107.95ZM85.1105 109.25C77.2455 109.25 72.3705 107.625 71.3305 101.97H111.696C111.696 86.11 100.646 78.7 83.9405 78.7C67.6905 78.7 56.1855 85.72 56.1855 99.5C56.1855 113.28 66.9755 120.3 84.5255 120.3C100.906 120.3 108.771 114.71 111.371 105.025H96.7456C95.4456 107.56 92.4556 109.25 85.1105 109.25ZM83.9405 88.45C90.3756 88.45 94.5356 90.075 96.2255 94.56H71.8505C73.4755 90.075 77.6355 88.45 83.9405 88.45ZM161.566 120.3C180.091 120.3 189.386 112.435 189.386 99.5C189.386 86.565 180.091 78.7 161.566 78.7C143.041 78.7 133.746 86.565 133.746 99.5C133.746 112.435 143.041 120.3 161.566 120.3ZM161.566 108.6C153.311 108.6 149.346 105.87 149.346 99.5C149.346 93.13 153.311 90.4 161.566 90.4C169.821 90.4 173.786 93.13 173.786 99.5C173.786 105.87 169.821 108.6 161.566 108.6ZM228.307 78.7C217.387 78.7 210.757 82.99 205.947 89.1V80H190.997V119H205.947V103.725C205.947 95.21 211.407 91.05 220.962 91.05C230.257 91.05 233.182 95.21 233.182 103.725V119H248.132V98.135C248.132 83.835 240.137 78.7 228.307 78.7ZM328.061 72.2H272.161V85.85H291.986V119H308.236V85.85H328.061V72.2ZM329.714 76.1H344.664V67H329.714V76.1ZM329.714 119H344.664V80H329.714V119ZM382.273 80L363.163 94.3V67H348.213V119H363.163V110.355L372.198 103.79L386.303 119H404.893L382.663 96.185L404.893 80H382.273ZM462.397 72.2H406.497V85.85H426.322V119H442.572V85.85H462.397V72.2ZM487.27 120.3C505.795 120.3 515.09 112.435 515.09 99.5C515.09 86.565 505.795 78.7 487.27 78.7C468.745 78.7 459.45 86.565 459.45 99.5C459.45 112.435 468.745 120.3 487.27 120.3ZM487.27 108.6C479.015 108.6 475.05 105.87 475.05 99.5C475.05 93.13 479.015 90.4 487.27 90.4C495.525 90.4 499.49 93.13 499.49 99.5C499.49 105.87 495.525 108.6 487.27 108.6ZM551.395 80L532.285 94.3V67H517.335V119H532.285V110.355L541.32 103.79L555.425 119H574.015L551.785 96.185L574.015 80H551.395ZM576.269 73.5L576.919 103.4H592.519L593.169 73.5H576.269ZM576.919 119H592.519V107.3H576.919V119Z" fill="white"></path></svg>