<svg width="621" height="193" viewBox="0 0 621 193" fill="none" xmlns="http://www.w3.org/2000/svg">
<path d="M131.9 82.5V16.2H77.3V82.5H0.600001V126.7H77.3V193H131.9V126.7H208.6V82.5H131.9Z" fill="#FE2C55"/>
<path d="M343.78 5.79999H285.28L220.28 24L233.54 71.58L278.78 58.58V143.6H220.28V193H402.28V143.6H343.78V5.79999ZM620.501 58.06C620.501 20.36 583.581 0.599998 526.121 0.599998C469.441 0.599998 421.861 20.36 416.661 72.1H484.261C484.261 52.6 499.861 44.8 524.301 44.8C546.401 44.8 552.901 51.56 552.901 61.7C552.901 97.58 414.061 88.48 414.061 164.4V193H617.901V143.6H492.321C505.321 122.8 620.501 126.7 620.501 58.06Z" fill="white"/>
</svg>
